<?xml version="1.0" standalone="no"?>
<!DOCTYPE svg PUBLIC "-//W3C//DTD SVG 20010904//EN"
 "http://www.w3.org/TR/2001/REC-SVG-20010904/DTD/svg10.dtd">
<svg version="1.0" xmlns="http://www.w3.org/2000/svg"
 width="1872.000000pt" height="392.000000pt" viewBox="0 0 1872.000000 392.000000"
 preserveAspectRatio="xMidYMid meet">

<g transform="translate(0.000000,392.000000) scale(0.100000,-0.100000)"
fill="#000000" stroke="none">
<path d="M13110 3359 c-35 -54 -32 -73 11 -67 19 2 24 9 24 30 1 16 6 33 13
40 7 7 12 20 12 30 0 33 -28 18 -60 -33z"/>
<path d="M13196 3355 c-19 -46 -16 -75 6 -75 12 0 31 41 45 98 4 17 1 22 -13
22 -13 0 -25 -14 -38 -45z"/>
<path d="M15096 3228 c-9 -12 -16 -32 -16 -44 0 -28 29 -40 36 -16 3 9 12 29
20 43 22 42 -13 57 -40 17z"/>
<path d="M15175 3220 c-13 -14 -19 -37 -19 -68 -1 -42 2 -47 22 -50 22 -3 23
-1 17 26 -4 20 -1 41 10 62 24 47 4 67 -30 30z"/>
<path d="M13615 3169 c-51 -37 -77 -78 -135 -213 l-57 -131 -56 -3 c-81 -4
-77 -42 4 -42 27 0 30 -3 23 -22 -13 -42 -33 -76 -94 -152 -56 -71 -68 -101
-35 -94 22 5 124 138 153 200 25 52 30 57 62 60 42 4 48 30 8 38 l-26 5 52
122 c57 131 93 188 133 206 21 9 27 8 38 -6 14 -19 31 -22 40 -6 10 15 -34 59
-59 59 -12 0 -35 -10 -51 -21z"/>
<path d="M13800 3121 c-5 -11 -10 -28 -10 -38 0 -10 -29 -76 -64 -146 -62
-121 -89 -209 -70 -227 26 -25 38 -14 39 32 0 37 14 74 62 170 62 123 89 200
78 218 -10 16 -23 12 -35 -9z"/>
<path d="M9527 3124 c-4 -4 -7 -25 -7 -46 0 -21 -9 -76 -21 -123 -17 -68 -25
-84 -43 -89 -34 -8 -96 -68 -105 -101 -4 -17 -4 -40 0 -53 10 -25 50 -47 73
-39 41 16 127 267 129 381 2 64 -7 88 -26 70z m-94 -370 c-23 -47 -43 -56 -43
-18 0 32 53 96 58 71 2 -8 -5 -32 -15 -53z"/>
<path d="M6406 3108 c-20 -73 -81 -252 -106 -308 -21 -48 -28 -75 -22 -86 7
-13 16 -8 53 31 50 54 99 84 99 62 0 -8 -7 -36 -15 -63 -22 -72 -20 -114 5
-114 15 0 20 7 20 28 0 16 7 51 15 78 23 75 20 112 -9 120 -14 3 -37 -1 -55
-10 -17 -9 -31 -15 -31 -14 0 2 15 46 34 98 44 122 55 190 32 190 -9 0 -18 -6
-20 -12z"/>
<path d="M14832 3107 c-6 -7 -15 -24 -20 -37 -5 -14 -28 -49 -51 -77 -30 -39
-49 -54 -75 -59 -19 -3 -37 -12 -40 -20 -6 -16 17 -29 38 -21 9 4 6 -12 -10
-51 -47 -115 -25 -170 65 -159 59 7 111 32 111 52 0 19 -18 19 -63 0 -20 -8
-51 -15 -68 -15 l-32 0 6 44 c4 24 16 65 28 90 22 43 25 45 73 50 28 3 62 4
75 3 13 -1 26 4 28 10 6 17 -44 35 -84 31 -38 -5 -41 2 -14 26 27 24 75 122
67 135 -9 15 -21 14 -34 -2z"/>
<path d="M2200 3068 c-13 -24 -55 -83 -94 -133 -38 -49 -71 -92 -73 -94 -5 -7
-42 45 -85 119 -47 83 -57 93 -74 79 -13 -11 16 -70 90 -180 l37 -57 -38 -50
c-53 -71 -156 -259 -148 -272 15 -24 33 -4 83 89 50 93 127 202 247 351 67 83
118 167 110 180 -13 20 -32 9 -55 -32z"/>
<path d="M5276 3098 c-3 -7 -7 -34 -11 -59 -3 -26 -21 -77 -39 -115 -28 -59
-38 -70 -67 -79 -38 -11 -47 -40 -12 -39 18 0 20 -3 12 -23 -13 -34 -11 -97 3
-111 25 -25 39 -14 32 27 -3 21 -1 55 5 74 10 29 18 35 49 41 20 3 54 6 74 6
20 0 40 5 44 11 12 19 -19 30 -74 26 -36 -2 -51 0 -48 7 57 128 78 233 49 243
-7 3 -15 -1 -17 -9z"/>
<path d="M6230 3075 c0 -19 -14 -72 -31 -115 -26 -69 -34 -80 -54 -80 -36 0
-55 -10 -55 -30 0 -22 22 -39 28 -22 2 7 11 12 19 12 10 0 13 -6 9 -16 -31
-81 -33 -167 -3 -172 14 -3 17 4 17 34 0 21 7 64 16 96 13 45 20 57 33 54 51
-16 69 -17 76 -5 10 15 -21 39 -52 39 -13 0 -23 2 -23 5 0 2 14 39 31 81 34
86 36 147 7 152 -15 3 -18 -4 -18 -33z"/>
<path d="M15777 3093 c-4 -3 -7 -20 -7 -38 0 -18 -15 -56 -36 -91 -20 -32 -45
-74 -56 -91 -12 -19 -28 -33 -39 -33 -21 0 -39 -32 -22 -37 7 -3 6 -18 -4 -45
-20 -59 -14 -102 15 -106 21 -3 22 -1 17 35 -4 26 0 49 12 73 l18 35 63 -4
c58 -3 64 -1 60 15 -2 14 -14 20 -46 22 -23 2 -42 7 -42 12 0 5 21 43 46 85
35 55 48 88 52 125 4 39 1 50 -10 50 -8 0 -18 -3 -21 -7z"/>
<path d="M12427 3083 c-4 -3 -7 -13 -7 -21 0 -13 -95 -229 -106 -241 -3 -3
-10 1 -16 7 -7 7 -19 12 -28 12 -9 0 -24 6 -34 13 -17 12 -15 19 23 109 45
105 48 118 26 118 -14 0 -88 -143 -101 -197 -5 -18 -13 -23 -39 -23 -19 0 -35
-6 -38 -14 -8 -19 16 -38 37 -30 20 8 20 -2 1 -56 -20 -58 -20 -92 2 -88 11 2
23 27 37 75 18 65 23 72 41 66 11 -4 34 -8 51 -8 l32 0 -19 -37 c-24 -48 -24
-68 1 -68 11 0 20 4 20 9 0 9 91 83 97 78 2 -2 -2 -27 -9 -56 -9 -39 -9 -54 0
-63 16 -16 22 -8 43 67 26 95 11 119 -56 85 -20 -10 -35 -15 -33 -12 83 172
116 253 110 270 -4 13 -24 16 -35 5z"/>
<path d="M16326 3069 c-2 -8 -7 -27 -11 -43 -3 -15 -24 -60 -47 -100 -23 -39
-52 -91 -66 -114 -32 -56 -38 -154 -9 -160 13 -3 17 3 17 30 0 53 16 94 74
191 68 116 86 171 63 194 -14 14 -17 14 -21 2z"/>
<path d="M11055 3000 c-9 -15 4 -30 26 -30 17 0 18 3 9 20 -12 22 -25 26 -35
10z"/>
<path d="M5035 2970 c-4 -6 -1 -17 5 -26 14 -16 40 -2 40 22 0 16 -36 19 -45
4z"/>
<path d="M10772 2942 c-17 -9 -43 -27 -57 -40 -26 -23 -26 -24 -9 -50 10 -15
27 -34 38 -43 20 -16 20 -16 -4 -29 -18 -9 -25 -10 -28 -1 -5 15 -29 14 -35
-1 -6 -20 4 -46 20 -52 27 -11 103 43 103 73 0 8 -15 27 -32 42 l-33 27 25 21
c31 25 38 26 62 4 25 -22 45 -5 29 26 -19 35 -44 42 -79 23z"/>
<path d="M15483 2927 c-57 -28 -62 -48 -24 -95 29 -34 30 -38 14 -50 -35 -25
-85 -32 -117 -17 -16 8 -33 15 -38 15 -15 0 -8 -27 13 -46 41 -37 154 -13 191
41 10 13 0 44 -23 74 -15 18 -16 27 -8 37 13 16 49 19 49 4 0 -5 7 -10 15 -10
10 0 15 11 15 35 0 30 -3 35 -22 34 -13 0 -42 -10 -65 -22z"/>
<path d="M10482 2911 c-7 -4 -27 -30 -45 -57 -34 -51 -118 -121 -152 -126 -11
-2 -21 -11 -23 -20 -5 -26 34 -23 85 6 24 14 45 20 48 15 12 -18 62 -8 101 21
l40 29 -4 -28 c-4 -30 24 -66 32 -40 26 93 38 129 46 134 16 10 12 35 -5 35
-8 0 -47 -27 -87 -60 -39 -33 -73 -58 -76 -56 -2 3 12 32 32 66 23 38 33 67
28 75 -4 9 -12 11 -20 6z"/>
<path d="M13906 2870 c-20 -28 -61 -66 -91 -86 -71 -45 -76 -89 -5 -49 22 12
27 11 42 -2 17 -15 53 -14 91 2 13 5 17 2 17 -13 0 -25 25 -46 45 -38 12 4 13
10 4 28 -8 19 -6 34 10 72 12 26 21 52 21 57 0 21 -33 6 -77 -36 -43 -41 -73
-57 -73 -37 0 4 20 37 45 72 24 34 42 67 39 71 -12 20 -34 6 -68 -41z"/>
<path d="M7391 2884 c-28 -36 -26 -62 6 -96 l27 -29 -29 -24 c-38 -31 -49 -27
-55 19 -3 20 -8 37 -12 36 -5 0 -12 0 -18 0 -5 0 -10 -15 -10 -34 0 -34 40
-96 61 -96 17 0 99 82 99 100 0 9 -12 29 -26 43 -46 47 -10 89 45 51 14 -10
26 -13 32 -7 23 23 -24 63 -76 63 -14 0 -32 -11 -44 -26z"/>
<path d="M2465 2825 c-37 -41 -76 -75 -86 -75 -24 0 -32 -16 -19 -40 16 -30
35 -25 73 22 l35 42 -11 -42 c-9 -36 -9 -45 5 -59 14 -14 21 -14 48 -3 17 7
46 31 63 53 l32 39 5 -52 c5 -58 29 -85 52 -62 9 9 9 15 0 24 -7 7 -12 34 -12
61 0 88 -40 116 -78 55 -26 -42 -82 -96 -82 -79 0 18 52 134 63 142 12 8 5 41
-9 46 -6 2 -42 -30 -79 -72z"/>
<path d="M4384 2870 c-54 -30 -107 -85 -101 -103 7 -23 27 -16 64 21 21 22 54
47 72 57 l34 17 -7 -33 c-3 -18 -17 -57 -31 -87 -14 -30 -25 -61 -25 -68 0
-28 31 -13 62 31 30 42 48 50 48 20 0 -24 22 -64 38 -70 27 -10 90 41 102 82
16 51 10 118 -10 118 -11 0 -16 -15 -20 -57 -4 -42 -11 -64 -27 -80 -29 -28
-39 -18 -50 47 -7 41 -12 50 -29 49 -16 0 -19 5 -16 28 5 32 -12 58 -37 58 -9
0 -39 -13 -67 -30z"/>
<path d="M12643 2889 c-36 -10 -93 -76 -93 -107 0 -12 10 -33 23 -48 18 -21
34 -27 73 -30 58 -5 149 23 149 46 0 17 -7 17 -85 -1 -56 -12 -110 -7 -110 11
0 5 23 19 50 31 45 19 80 50 80 71 0 11 -31 38 -43 37 -7 0 -26 -5 -44 -10z
m26 -43 c-2 -2 -15 -9 -29 -16 -23 -12 -24 -12 -11 3 7 10 20 17 29 17 8 0 13
-2 11 -4z"/>
<path d="M9610 2843 c-43 -44 -47 -51 -43 -85 3 -22 16 -48 32 -64 23 -24 31
-26 81 -21 68 6 130 34 130 59 0 23 -8 23 -61 -2 -50 -22 -109 -26 -127 -8 -7
7 -12 22 -12 35 0 19 5 23 32 23 33 0 94 35 103 59 12 32 -5 51 -47 51 -34 0
-46 -7 -88 -47z m76 -8 c-26 -19 -42 -19 -26 0 7 8 20 15 29 15 13 -1 13 -3
-3 -15z"/>
<path d="M14160 2844 c-58 -54 -65 -90 -26 -129 40 -40 156 -45 132 -6 -4 6
-19 11 -34 11 -32 0 -74 20 -80 38 -2 8 7 12 30 12 40 0 94 31 103 59 10 32
-11 61 -46 61 -22 0 -43 -12 -79 -46z m71 -14 c-13 -11 -31 -20 -40 -20 -12 1
-11 5 8 20 13 11 31 20 40 20 12 -1 11 -5 -8 -20z"/>
<path d="M2303 2873 c-7 -3 -13 -11 -13 -18 0 -8 -7 -11 -20 -8 -24 6 -77 -46
-87 -85 -7 -31 15 -75 41 -80 27 -6 93 27 111 54 22 33 20 121 -2 132 -10 5
-24 7 -30 5z m5 -80 c-2 -30 -9 -41 -36 -56 -25 -15 -36 -17 -45 -8 -15 15 10
62 41 76 12 5 22 13 22 17 0 5 5 8 11 8 6 0 9 -16 7 -37z"/>
<path d="M7589 2841 c-58 -58 -50 -111 16 -111 17 0 36 5 43 12 9 9 12 3 12
-28 0 -41 14 -64 38 -64 10 0 12 9 7 38 -3 20 -7 68 -9 106 -6 99 -40 114
-107 47z m71 -13 c-1 -20 -36 -58 -54 -58 -23 0 -20 10 11 42 29 30 43 35 43
16z"/>
<path d="M8955 2865 c-56 -30 -96 -77 -93 -109 5 -47 47 -71 126 -71 53 0 67
3 67 15 0 11 -16 17 -63 21 -65 6 -99 26 -90 51 3 8 24 27 47 42 34 24 43 27
56 16 22 -19 44 3 29 28 -15 23 -43 25 -79 7z"/>
<path d="M3229 2846 c-19 -13 -43 -40 -53 -59 -38 -69 11 -117 132 -130 32 -4
45 -1 49 9 8 21 3 23 -68 35 -100 16 -112 38 -54 96 28 28 40 34 58 28 64 -20
93 5 33 30 -47 20 -55 19 -97 -9z"/>
<path d="M4782 2850 c-19 -12 -39 -36 -48 -58 -8 -20 -20 -47 -26 -59 -8 -17
-8 -26 1 -37 19 -23 38 -8 45 36 9 52 59 106 82 87 20 -16 38 2 29 30 -8 27
-40 27 -83 1z"/>
<path d="M5429 2845 c-34 -25 -69 -77 -69 -103 0 -28 42 -71 78 -82 79 -22
214 -1 220 34 4 17 0 18 -39 10 -80 -16 -175 -11 -198 10 -29 26 -27 33 12 41
55 12 107 44 107 65 0 21 -35 50 -60 50 -9 0 -32 -11 -51 -25z m47 -30 c-11
-8 -25 -15 -30 -15 -6 0 -2 7 8 15 11 8 25 15 30 15 6 0 2 -7 -8 -15z"/>
<path d="M6570 2848 c-61 -41 -75 -98 -40 -155 24 -41 69 -50 147 -31 42 10
59 19 61 32 4 17 0 18 -34 12 -105 -19 -111 -19 -133 3 -11 11 -21 25 -21 29
0 11 45 32 69 32 22 0 44 39 39 71 -4 33 -44 36 -88 7z m50 -27 c0 -5 -9 -11
-21 -14 -16 -4 -18 -3 -8 9 13 16 29 19 29 5z"/>
<path d="M10964 2814 c-27 -58 -23 -83 12 -70 9 4 14 9 11 12 -3 4 3 24 14 46
20 39 20 68 0 68 -6 0 -22 -25 -37 -56z"/>
<path d="M11205 2843 c-22 -15 -46 -28 -53 -29 -8 -2 -15 -4 -16 -6 -11 -15
-56 -118 -56 -126 0 -26 31 -9 59 31 32 46 105 117 121 117 12 0 13 -35 1 -77
-11 -37 9 -78 25 -52 5 8 9 16 10 19 21 120 17 150 -24 150 -15 0 -45 -12 -67
-27z"/>
<path d="M16460 2849 c-65 -29 -80 -46 -80 -90 0 -59 34 -91 101 -96 64 -5
132 16 137 42 4 16 0 17 -35 9 -63 -14 -142 -11 -153 6 -20 32 -11 45 41 57
58 14 79 28 79 52 0 19 -19 41 -34 40 -6 0 -31 -9 -56 -20z"/>
<path d="M7887 2853 c-4 -4 -19 -7 -34 -8 -28 0 -28 0 -74 -97 -20 -42 -29
-73 -25 -85 7 -16 9 -16 27 7 71 91 121 151 125 148 2 -2 -2 -21 -8 -41 -18
-58 0 -65 55 -23 l46 35 -6 -35 c-7 -44 10 -64 54 -64 27 0 34 4 31 18 -2 9
-13 18 -26 20 -20 3 -22 7 -15 40 17 90 -1 114 -53 69 l-28 -25 -11 22 c-11
21 -45 33 -58 19z"/>
<path d="M14422 2841 c-51 -26 -106 -121 -70 -121 6 0 35 23 65 51 30 28 56
49 59 46 3 -3 -4 -28 -16 -55 -24 -55 -23 -85 1 -90 11 -2 18 6 22 25 3 15 12
47 21 70 30 81 -6 113 -82 74z"/>
<path d="M3513 2840 c-13 -5 -32 -24 -42 -41 -28 -45 -14 -69 39 -69 39 0 40
-1 40 -34 0 -41 23 -65 45 -46 10 8 12 17 6 24 -6 7 -9 45 -9 85 2 89 -15 106
-79 81z m43 -46 c-3 -9 -6 -18 -6 -20 0 -2 -12 -4 -27 -4 l-28 1 24 19 c28 24
45 26 37 4z"/>
<path d="M3751 2836 c-7 -8 -20 -12 -30 -9 -21 5 -38 -34 -43 -97 -4 -48 23
-53 40 -7 14 38 68 94 79 83 5 -4 8 -40 8 -79 0 -74 7 -97 29 -97 25 0 16 178
-10 205 -19 19 -58 19 -73 1z"/>
<path d="M8193 2816 c-39 -34 -39 -36 -33 -88 9 -70 17 -87 47 -94 46 -12 177
19 170 39 -3 8 -20 10 -48 8 -24 -3 -62 -5 -84 -5 -39 -1 -40 0 -43 37 -3 30
0 37 15 37 10 0 33 9 51 20 27 16 33 26 30 48 -2 22 -9 28 -35 30 -25 2 -40
-5 -70 -32z"/>
<path d="M9152 2824 c-39 -31 -65 -78 -57 -103 6 -21 46 -41 80 -41 31 0 81
43 89 76 10 37 -1 62 -34 79 -38 19 -39 19 -78 -11z m75 -40 c3 -10 -4 -26
-20 -41 -19 -20 -31 -24 -51 -19 -22 5 -25 9 -16 26 9 17 52 46 73 49 4 1 10
-6 14 -15z"/>
<path d="M15933 2838 c-14 -16 0 -101 22 -134 14 -22 12 -26 -38 -85 -71 -84
-108 -140 -105 -163 5 -32 26 -29 41 6 8 18 42 67 77 108 84 100 160 214 160
240 0 35 -24 22 -60 -35 -31 -49 -36 -53 -47 -38 -7 9 -13 31 -13 48 0 41 -22
72 -37 53z"/>
<path d="M11479 2822 c-26 -12 -64 -46 -83 -74 -33 -50 7 -99 64 -79 37 12 42
4 34 -51 -9 -59 -21 -78 -47 -78 -36 0 -87 -38 -103 -76 -18 -44 -9 -80 29
-108 l27 -20 24 23 c13 13 37 49 52 82 28 59 37 68 49 49 3 -5 13 -10 21 -10
21 0 17 37 -6 53 -18 13 -19 19 -10 66 5 29 7 63 4 76 -3 13 0 49 6 80 10 47
10 59 -2 66 -15 10 -37 10 -59 1z m9 -72 c-10 -29 -34 -50 -57 -50 -18 0 -13
17 15 49 35 42 57 42 42 1z m-38 -276 c-6 -15 -20 -40 -32 -56 -17 -25 -23
-28 -34 -16 -29 28 15 95 63 97 9 1 10 -6 3 -25z"/>
<path d="M4953 2798 c-15 -20 -33 -79 -27 -89 3 -5 13 -9 22 -9 23 0 45 85 27
100 -8 7 -16 6 -22 -2z"/>
<path d="M6887 2628 c-24 -54 -26 -64 -13 -76 16 -16 36 -8 36 14 0 8 9 33 21
55 11 23 18 47 15 55 -11 29 -32 12 -59 -48z"/>
<path d="M6992 2651 c-15 -47 -15 -71 -2 -71 6 0 13 0 17 -1 7 0 33 76 33 99
0 6 -8 12 -18 12 -13 0 -22 -12 -30 -39z"/>
<path d="M8986 2577 c-29 -59 -27 -90 8 -85 17 2 21 10 21 37 1 22 8 39 23 51
25 20 20 50 -7 50 -11 0 -28 -20 -45 -53z"/>
<path d="M9104 2613 c-3 -10 -14 -37 -25 -61 -20 -44 -18 -62 5 -62 15 0 56
83 56 115 0 29 -28 35 -36 8z"/>
<path d="M6298 2609 c-9 -5 -34 -63 -59 -137 -23 -70 -57 -161 -76 -202 -34
-73 -35 -98 -6 -107 7 -3 37 19 67 46 31 28 59 51 62 51 3 0 4 -21 2 -47 -3
-42 -1 -48 17 -48 16 0 20 8 23 63 6 104 -18 112 -101 33 l-48 -46 26 52 c14
29 44 108 65 175 22 68 45 131 51 142 13 23 0 38 -23 25z"/>
<path d="M6120 2595 c-6 -8 -18 -34 -25 -58 -13 -44 -65 -179 -71 -186 -2 -2
-21 -7 -41 -10 -48 -8 -52 -35 -6 -39 30 -3 31 -5 23 -28 -11 -28 -13 -107 -4
-117 4 -3 15 -2 25 4 14 7 18 16 13 35 -4 14 -1 45 6 71 12 41 19 48 64 69 28
13 57 24 64 24 17 0 15 27 -3 34 -8 3 -30 -1 -50 -10 -19 -8 -35 -13 -35 -12
0 11 73 205 81 214 5 6 6 14 2 17 -11 11 -30 8 -43 -8z"/>
<path d="M9982 2601 c-15 -9 -38 -132 -28 -156 13 -35 31 -6 42 66 12 77 8
104 -14 90z"/>
<path d="M4480 2585 c-7 -8 -10 -27 -7 -42 3 -16 -5 -64 -20 -114 -23 -80 -28
-87 -57 -96 -35 -10 -42 -36 -10 -41 19 -3 20 -6 11 -46 -12 -55 -3 -99 21
-94 12 2 16 11 14 31 -2 16 2 50 9 76 12 46 14 49 58 59 25 6 47 9 48 8 2 -1
-6 -26 -17 -55 -34 -89 -2 -97 78 -18 l54 52 -7 -51 c-5 -38 -3 -53 8 -63 21
-17 27 -3 34 77 5 59 3 70 -11 75 -23 9 -69 -16 -95 -50 l-22 -28 15 35 c7 19
24 57 36 84 28 62 32 139 8 144 -14 3 -18 -4 -19 -30 0 -18 -8 -53 -17 -78
-16 -42 -21 -45 -68 -56 l-51 -11 24 81 c33 113 23 200 -17 151z"/>
<path d="M14419 2588 c-1 -2 -3 -15 -5 -30 -1 -15 -12 -48 -23 -74 l-21 -46
-43 6 c-36 6 -46 3 -61 -13 -21 -23 -15 -54 9 -45 8 3 15 10 15 16 0 8 37 2
48 -7 2 -2 -8 -26 -22 -53 -14 -28 -28 -68 -32 -90 -5 -35 -3 -44 19 -66 26
-26 61 -33 86 -17 19 12 5 31 -23 31 -25 0 -46 17 -46 39 0 8 14 45 31 83 l32
68 56 2 c92 3 94 3 99 17 7 22 -18 30 -74 24 l-53 -6 24 59 c31 74 32 104 5
104 -11 0 -21 -1 -21 -2z"/>
<path d="M5176 2454 c-56 -115 -62 -124 -88 -124 -33 0 -39 -29 -8 -37 15 -4
20 -14 20 -40 0 -48 42 -89 102 -98 60 -9 92 -4 96 16 2 13 -8 17 -57 21 -67
5 -101 26 -101 64 0 25 -3 24 115 47 53 10 71 18 74 32 3 19 -2 19 -128 -1
l-43 -7 57 112 c54 105 62 142 33 140 -7 0 -40 -56 -72 -125z"/>
<path d="M8157 2553 c-4 -3 -7 -15 -7 -27 0 -11 -12 -62 -27 -113 -25 -88 -28
-93 -54 -93 -15 0 -34 -3 -43 -6 -25 -9 -6 -34 26 -34 25 0 29 -3 22 -17 -4
-10 -8 -38 -8 -63 -1 -35 3 -45 17 -48 13 -3 17 3 17 29 0 18 5 48 12 66 11
31 16 34 47 31 27 -2 36 1 39 14 2 11 -6 18 -27 23 -17 4 -31 10 -31 13 0 4
11 43 25 87 28 89 32 145 12 145 -8 0 -17 -3 -20 -7z"/>
<path d="M15450 2534 c-82 -13 -139 -28 -157 -42 -23 -19 -107 -257 -98 -280
3 -8 12 -11 20 -8 10 3 15 -1 15 -13 0 -33 11 -51 41 -66 42 -22 80 -18 130
14 55 34 82 68 105 126 20 53 8 94 -32 115 -13 8 -24 16 -24 20 0 4 20 21 44
38 89 64 66 112 -44 96z m39 -50 c-7 -9 -37 -30 -66 -46 -29 -16 -53 -34 -53
-39 0 -5 22 -20 49 -33 27 -14 51 -32 55 -41 10 -26 -27 -96 -68 -132 -44 -39
-79 -50 -113 -34 -21 9 -24 16 -18 40 7 33 -8 49 -30 31 -8 -7 -15 -11 -15 -8
0 6 80 229 85 238 6 10 106 32 174 39 11 1 11 -2 0 -15z"/>
<path d="M2255 2520 c-4 -6 -8 -27 -11 -48 -7 -63 -35 -180 -60 -254 -32 -95
-32 -112 2 -105 18 3 33 -3 50 -20 33 -33 71 -26 130 22 50 41 62 80 40 124
-30 58 -92 68 -139 24 l-30 -28 6 25 c51 229 54 259 30 267 -6 2 -14 -1 -18
-7z m111 -295 c21 -32 9 -59 -42 -94 -27 -19 -40 -22 -52 -14 -28 17 -26 59 4
98 32 43 66 46 90 10z"/>
<path d="M16025 2489 c-9 -17 -14 -37 -11 -44 8 -22 -46 -125 -66 -125 -22 0
-34 -20 -17 -30 7 -5 14 -27 14 -49 1 -27 8 -48 24 -65 38 -41 137 -47 129 -8
-2 11 -11 16 -27 14 -32 -5 -79 16 -86 38 -3 10 -3 30 1 44 5 23 11 26 52 26
72 0 153 22 150 40 -4 16 -16 17 -110 5 -69 -9 -70 -5 -27 64 16 28 33 66 36
85 5 34 4 36 -20 36 -19 0 -31 -8 -42 -31z"/>
<path d="M6516 2424 c-8 -20 12 -56 27 -51 7 2 13 18 15 35 3 26 0 32 -16 32
-11 0 -23 -7 -26 -16z"/>
<path d="M12523 2368 c-68 -72 -81 -120 -41 -158 34 -32 158 -27 158 6 0 16
-4 16 -78 14 -40 -1 -54 2 -58 15 -16 41 68 139 94 113 19 -19 37 5 23 31 -18
33 -52 26 -98 -21z"/>
<path d="M2607 2380 c-37 -29 -43 -70 -18 -119 27 -52 26 -59 -4 -73 -21 -9
-29 -9 -42 5 -15 14 -14 17 1 33 21 21 7 39 -23 29 -31 -9 -38 -51 -14 -83 28
-38 72 -40 112 -7 36 31 38 51 12 104 -21 41 -19 76 6 85 20 8 32 -1 44 -31
11 -29 33 -26 37 5 4 26 -39 72 -66 72 -11 0 -31 -9 -45 -20z"/>
<path d="M7297 2393 c-4 -3 -7 -16 -7 -27 0 -12 -16 -55 -35 -95 -55 -114 -27
-140 33 -31 29 52 75 100 97 100 14 0 -3 -107 -20 -134 -9 -14 -15 -33 -13
-43 13 -66 77 57 78 148 0 73 -16 89 -65 66 -34 -16 -35 -16 -35 3 0 19 -20
27 -33 13z"/>
<path d="M9904 2393 c-46 -6 -68 -34 -60 -77 4 -20 14 -39 22 -44 14 -8 14
-10 0 -21 -24 -20 -21 -93 4 -116 27 -24 145 -28 145 -5 0 9 -11 16 -30 18
-89 7 -96 11 -93 44 2 17 10 34 18 38 60 27 75 38 75 50 0 11 -13 15 -43 16
-48 2 -68 15 -59 37 6 17 55 28 86 20 17 -4 21 -1 21 21 0 28 -6 29 -86 19z"/>
<path d="M12977 2384 c-3 -4 -3 -19 0 -35 4 -22 -2 -40 -21 -69 -37 -56 -19
-82 27 -39 12 11 39 34 60 51 l38 31 -6 -36 c-10 -51 12 -57 69 -17 l46 31 0
-25 c0 -36 10 -56 29 -56 13 0 16 11 17 63 0 34 -5 65 -10 69 -6 4 -30 -4 -55
-17 -24 -14 -46 -25 -48 -25 -3 0 -2 18 2 40 6 36 5 40 -14 40 -11 0 -36 -14
-56 -31 -30 -27 -35 -28 -35 -12 0 29 -27 52 -43 37z"/>
<path d="M3404 2333 c-15 -26 -37 -65 -49 -85 l-21 -37 -13 34 c-11 31 -45 55
-58 41 -4 -3 1 -21 9 -38 9 -18 21 -45 27 -60 19 -50 46 -36 95 50 25 42 50
83 56 90 6 7 10 20 8 29 -6 32 -27 23 -54 -24z"/>
<path d="M6670 2373 c-35 -14 -80 -57 -80 -76 0 -12 12 -34 27 -49 25 -26 26
-29 10 -45 -14 -15 -20 -15 -42 -3 -17 9 -29 10 -35 4 -15 -15 10 -43 47 -50
26 -5 36 -2 57 21 33 36 33 58 -1 89 -26 25 -26 26 -9 45 11 12 34 23 53 27
24 5 33 11 31 23 -3 17 -33 24 -58 14z"/>
<path d="M7557 2338 c-105 -94 -53 -195 81 -158 47 12 84 62 62 84 -9 8 -17 4
-34 -17 -25 -31 -97 -49 -110 -28 -4 6 0 11 9 11 8 0 36 19 61 42 37 34 44 47
42 72 -3 26 -8 31 -33 34 -23 2 -41 -7 -78 -40z m43 -39 c-49 -41 -63 -36 -17
7 21 20 42 33 45 29 4 -4 -9 -20 -28 -36z"/>
<path d="M8654 2358 c-57 -66 -79 -115 -69 -148 11 -34 32 -22 54 33 37 88 43
97 67 97 13 0 26 -4 29 -10 10 -17 35 -11 35 8 0 28 -20 42 -60 42 -25 0 -42
-7 -56 -22z"/>
<path d="M13470 2369 c-13 -6 -33 -18 -43 -27 -15 -13 -20 -14 -26 -3 -16 25
-29 2 -33 -56 -3 -38 -17 -88 -42 -143 -45 -105 -46 -105 -21 -105 23 0 57 55
82 132 14 44 18 49 30 37 17 -17 21 -17 61 -3 43 15 92 90 92 141 0 37 -1 38
-37 37 -21 0 -49 -5 -63 -10z m60 -47 c0 -20 -62 -92 -79 -92 -8 0 -9 5 -1 19
5 11 9 30 7 42 -1 16 6 27 23 36 35 18 50 16 50 -5z"/>
<path d="M3564 2327 c-36 -36 -43 -48 -41 -74 5 -40 12 -50 49 -69 54 -28 189
9 214 58 24 46 2 61 -34 22 -37 -41 -131 -63 -167 -40 -32 21 -22 44 23 52 21
4 43 11 50 17 15 12 16 49 0 65 -22 22 -49 13 -94 -31z"/>
<path d="M4813 2338 c-64 -68 -68 -118 -9 -118 18 0 41 7 52 15 22 16 38 20
29 6 -7 -13 15 -59 32 -65 17 -7 29 20 16 37 -5 6 -8 32 -7 56 2 52 -27 101
-61 101 -12 0 -35 -15 -52 -32z m65 -17 c10 -6 6 -15 -18 -35 -47 -39 -67 -34
-34 9 28 37 32 39 52 26z"/>
<path d="M8344 2317 c-65 -65 -58 -123 17 -141 23 -5 162 24 175 37 8 8 -19
57 -32 57 -7 0 -15 -8 -19 -19 -4 -13 -21 -22 -56 -29 -96 -18 -121 10 -39 45
53 22 70 45 53 72 -20 32 -52 25 -99 -22z"/>
<path d="M12730 2324 c-64 -74 -62 -134 5 -134 43 0 90 23 105 49 16 31 12 86
-8 104 -31 28 -66 21 -102 -19z m80 -33 c0 -34 -30 -61 -67 -61 -32 0 -29 16
11 56 42 42 56 43 56 5z"/>
<path d="M1957 2322 c-40 -41 -49 -83 -29 -124 40 -79 172 -27 172 67 0 16
-12 38 -29 56 -39 38 -78 38 -114 1z m99 -49 c9 -35 -20 -73 -56 -73 -36 0
-51 24 -38 61 14 41 85 50 94 12z"/>
<path d="M7783 2328 c-75 -83 -45 -155 46 -109 36 19 42 19 46 6 3 -8 7 -22
10 -30 5 -16 32 -31 41 -22 9 9 -19 89 -33 94 -7 3 -13 14 -13 25 0 57 -58 79
-97 36z m61 -34 c8 -20 10 -17 -31 -38 -38 -19 -42 -10 -12 28 24 30 34 33 43
10z"/>
<path d="M11644 2321 c-98 -71 -108 -134 -27 -168 61 -25 202 11 170 44 -3 3
-36 0 -72 -7 -57 -11 -68 -10 -90 4 -31 20 -23 46 15 46 39 0 80 35 80 70 0
16 -7 30 -16 34 -21 8 -16 10 -60 -23z"/>
<path d="M13702 2305 c-44 -51 -59 -90 -41 -111 16 -20 68 -17 112 5 36 18 37
18 37 1 0 -20 25 -50 42 -50 6 0 7 15 3 40 -5 29 -2 47 11 69 30 51 6 56 -54
12 -47 -35 -106 -60 -118 -49 -6 7 49 76 66 83 8 3 20 -1 26 -9 16 -23 34 -19
34 7 0 31 -18 47 -51 47 -20 0 -38 -12 -67 -45z"/>
<path d="M2839 2318 c-15 -13 -34 -37 -44 -53 -16 -28 -16 -34 -1 -68 18 -45
47 -57 124 -56 73 1 106 11 110 32 3 15 -5 16 -76 10 -102 -8 -130 1 -81 25
43 22 79 84 63 109 -17 27 -65 27 -95 1z m52 -36 c-14 -26 -38 -45 -51 -40
-15 5 27 58 46 58 11 0 12 -4 5 -18z"/>
<path d="M3103 2328 c-50 -24 -73 -185 -25 -176 13 2 17 16 18 55 3 75 16 93
67 93 24 0 48 -5 55 -12 9 -9 15 -9 24 0 9 9 7 16 -7 32 -20 22 -93 27 -132 8z"/>
<path d="M14015 2312 c-34 -21 -85 -90 -85 -114 0 -21 37 -48 65 -48 25 0 116
29 130 41 5 6 5 13 -1 19 -8 8 -30 6 -73 -6 -80 -23 -95 -11 -51 40 18 20 40
36 50 36 25 0 35 17 20 35 -16 19 -19 19 -55 -3z"/>
<path d="M10757 2303 c-3 -10 -8 -31 -12 -47 -3 -17 -15 -42 -26 -57 -10 -15
-19 -34 -19 -43 0 -32 30 -14 82 49 41 50 54 60 56 45 2 -10 -3 -32 -12 -47
-8 -17 -11 -35 -6 -43 6 -10 25 1 76 44 38 31 70 52 72 46 2 -6 -1 -32 -7 -57
-16 -60 -5 -91 27 -80 4 1 8 16 9 32 1 17 5 55 8 85 3 30 2 61 -4 69 -11 16
-28 10 -89 -29 l-32 -22 -6 32 c-9 41 -29 48 -60 20 l-24 -23 0 21 c0 26 -27
30 -33 5z"/>
<path d="M6447 2304 c-4 -4 -7 -18 -7 -31 0 -13 -6 -39 -14 -57 -15 -35 -7
-62 15 -54 17 7 42 87 37 119 -3 23 -19 35 -31 23z"/>
<path d="M11370 2271 l-41 -39 3 -73 c2 -61 6 -74 21 -77 14 -3 17 5 17 52 0
33 4 56 11 56 6 0 9 8 7 18 -2 9 6 28 19 41 19 22 25 23 48 13 21 -10 27 -9
31 3 9 23 -15 45 -47 45 -19 0 -41 -12 -69 -39z"/>
<path d="M11120 2265 c-26 -15 -69 -88 -70 -120 -1 -55 68 -61 132 -12 58 44
61 74 13 116 -40 34 -40 35 -75 16z m64 -59 c9 -13 6 -21 -14 -36 -26 -21 -68
-36 -76 -27 -3 2 3 21 12 40 23 48 57 58 78 23z"/>
<path d="M15575 2240 c-22 -43 -19 -76 11 -99 34 -26 58 -26 100 0 42 25 58
53 50 85 -9 35 -48 33 -44 -2 2 -19 -5 -32 -23 -46 -49 -37 -90 0 -54 48 20
27 18 44 -5 44 -11 0 -26 -12 -35 -30z"/>
<path d="M14694 2215 c-7 -18 12 -45 32 -45 17 0 18 32 2 48 -16 16 -27 15
-34 -3z"/>
<path d="M9053 2153 c-7 -3 -13 -10 -13 -17 0 -7 -13 -30 -30 -51 -33 -42 -37
-60 -15 -68 16 -7 72 63 82 101 6 26 -5 42 -24 35z"/>
<path d="M3826 2078 c-2 -7 -28 -89 -59 -183 -89 -271 -87 -289 19 -184 84 83
115 72 80 -29 -12 -33 -12 -43 -2 -58 14 -18 40 -11 33 9 -2 7 2 26 10 44 17
43 17 83 -3 111 -22 31 -62 28 -106 -8 l-37 -31 49 145 c53 153 60 196 35 196
-9 0 -17 -6 -19 -12z"/>
<path d="M10673 2063 c-7 -3 -13 -14 -13 -26 0 -32 -42 -158 -89 -268 -22 -53
-41 -106 -41 -118 0 -32 31 -26 71 15 18 20 42 40 51 45 15 8 16 4 11 -41 -5
-41 -3 -50 10 -50 18 0 21 10 36 94 16 87 1 97 -62 45 -21 -17 -40 -29 -43
-27 -2 3 7 29 20 59 13 30 35 91 50 137 35 110 34 148 -1 135z"/>
<path d="M5763 2048 c-6 -7 -11 -24 -11 -38 0 -14 -13 -47 -29 -75 -27 -46
-33 -51 -81 -60 -56 -11 -82 -29 -66 -45 6 -6 22 -6 44 0 19 6 38 10 41 10 4
0 -2 -23 -12 -51 -32 -84 -8 -136 68 -146 47 -6 113 19 113 43 0 13 -6 15 -27
9 -71 -17 -94 -17 -114 1 -22 19 -19 54 7 107 14 26 17 27 95 27 71 0 80 2 77
18 -3 14 -16 18 -69 20 l-66 3 33 62 c38 72 47 120 23 125 -9 1 -21 -3 -26
-10z"/>
<path d="M7021 2046 c-6 -7 -9 -20 -6 -28 9 -22 -31 -190 -55 -238 l-22 -43
-19 32 c-23 38 -47 39 -81 4 -47 -51 -63 -114 -36 -141 17 -17 75 -15 104 5
32 20 88 107 108 166 22 66 50 222 43 240 -8 21 -21 22 -36 3z m-101 -321 c9
6 11 4 5 -6 -19 -33 -50 -59 -72 -59 -29 0 -30 23 -2 69 l21 35 18 -24 c11
-15 22 -20 30 -15z"/>
<path d="M15897 2018 c-7 -18 -26 -68 -41 -110 l-28 -77 -42 -3 c-54 -4 -58
-32 -5 -36 l36 -3 -18 -67 c-11 -36 -16 -74 -13 -84 11 -34 32 -5 50 68 9 41
22 78 28 81 5 4 40 9 76 12 49 5 65 10 65 21 0 12 -14 15 -66 15 l-66 0 33 93
c19 51 34 100 34 107 0 28 -30 15 -43 -17z"/>
<path d="M12296 2029 c-81 -11 -119 -27 -124 -53 -3 -15 0 -18 21 -12 14 3 32
9 41 12 27 10 29 -22 7 -96 -21 -69 -22 -69 -49 -59 -15 5 -32 17 -39 26 -15
20 -46 9 -41 -14 2 -10 21 -27 44 -37 l41 -19 -25 -63 c-21 -53 -23 -66 -12
-79 18 -22 34 -14 37 18 1 14 10 46 21 70 19 43 21 44 77 51 31 3 73 15 93 25
79 41 162 155 147 202 -13 39 -86 47 -239 28z m196 -54 c-10 -63 -110 -149
-189 -161 l-42 -6 20 63 c11 35 19 76 16 91 -3 24 0 27 32 31 20 2 65 4 101 3
59 -1 65 -3 62 -21z"/>
<path d="M14803 2023 c-28 -79 -51 -131 -94 -212 -40 -74 -49 -100 -44 -122
17 -77 153 -62 205 23 26 42 25 79 -1 112 -24 30 -38 32 -80 11 l-30 -16 22
42 c32 64 69 166 62 173 -12 12 -34 6 -40 -11z m45 -237 c6 -29 -19 -76 -49
-91 -31 -17 -89 -20 -89 -6 0 5 24 35 54 66 53 56 78 65 84 31z"/>
<path d="M11373 2018 c-6 -7 -16 -38 -23 -68 -7 -30 -35 -106 -63 -168 -60
-137 -56 -154 25 -93 30 23 57 41 59 41 2 0 4 -17 4 -37 0 -27 5 -38 16 -41
14 -2 18 9 24 58 9 82 -1 93 -57 61 -25 -14 -39 -18 -35 -10 61 140 88 242 70
260 -6 6 -13 5 -20 -3z"/>
<path d="M4678 2012 c-10 -2 -21 -16 -24 -30 -19 -82 -37 -149 -45 -164 -8
-15 -13 -16 -29 -6 -31 20 -71 -1 -108 -57 -39 -58 -39 -93 0 -114 24 -14 30
-14 62 2 20 9 47 35 62 59 30 47 84 188 84 218 0 10 7 26 16 34 20 21 7 63
-18 58z m-114 -238 c23 -9 20 -25 -15 -67 -30 -36 -69 -50 -69 -24 0 13 56 97
64 97 3 0 11 -3 20 -6z"/>
<path d="M9891 1953 c-14 -73 -14 -73 8 -73 16 0 22 11 31 55 12 57 8 75 -14
75 -8 0 -18 -23 -25 -57z"/>
<path d="M7198 1918 c-8 -21 2 -38 23 -38 20 0 23 8 13 34 -7 19 -30 21 -36 4z"/>
<path d="M8161 1894 c-12 -15 -21 -30 -21 -35 0 -4 -8 -10 -19 -14 -23 -7 -36
-82 -21 -121 9 -22 13 -24 25 -14 8 7 15 20 15 29 0 9 12 44 27 79 24 57 28
61 43 47 20 -19 50 -20 50 -2 0 18 -43 57 -62 57 -9 0 -26 -12 -37 -26z"/>
<path d="M7364 1900 c-27 -11 -64 -57 -64 -81 0 -9 11 -31 25 -47 18 -22 21
-32 13 -40 -15 -15 -45 -16 -53 -2 -9 15 -35 12 -35 -3 0 -23 35 -47 68 -47
21 0 37 8 51 26 27 35 26 46 -5 84 l-27 31 23 24 c13 14 34 25 47 25 18 0 24
5 21 18 -4 19 -33 25 -64 12z"/>
<path d="M13420 1890 c0 -15 5 -20 18 -18 9 2 17 10 17 18 0 8 -8 16 -17 18
-13 2 -18 -3 -18 -18z"/>
<path d="M7839 1863 c-68 -58 -70 -136 -4 -167 42 -20 158 -22 174 -3 17 21 3
27 -63 27 -95 0 -140 19 -80 34 38 10 74 50 74 84 0 57 -48 69 -101 25z m61
-28 c0 -15 -60 -58 -69 -50 -6 6 50 65 61 65 4 0 8 -7 8 -15z"/>
<path d="M15118 1879 c-21 -11 -23 -30 -7 -46 18 -18 39 -3 39 28 0 31 -5 34
-32 18z"/>
<path d="M2058 1848 c-22 -24 -31 -29 -38 -18 -16 26 -40 2 -40 -40 0 -23 -9
-60 -20 -82 -11 -23 -20 -48 -20 -55 0 -21 28 -15 43 10 91 146 109 170 118
155 5 -10 3 -33 -5 -62 -13 -41 -13 -48 0 -53 24 -9 58 15 98 69 21 27 40 47
43 44 3 -2 -3 -28 -12 -56 -13 -40 -15 -57 -6 -76 15 -34 43 -32 39 4 -1 15 4
52 11 83 25 105 -22 133 -86 51 l-38 -48 -1 38 c-2 72 -38 87 -86 36z"/>
<path d="M2873 1865 c-17 -7 -39 -27 -47 -44 -27 -52 -17 -140 18 -163 37 -25
196 21 196 57 0 20 -18 19 -74 -6 -60 -26 -110 -23 -114 9 -3 19 1 22 27 22
66 0 110 45 91 94 -8 23 -38 47 -57 46 -4 -1 -22 -7 -40 -15z m55 -53 c4 -25
-14 -35 -55 -30 l-28 3 28 28 c31 32 50 31 55 -1z"/>
<path d="M4760 1838 c-51 -70 -53 -114 -7 -136 40 -19 130 -4 135 22 4 18 -1
19 -57 13 -59 -7 -93 5 -48 17 66 16 103 91 58 116 -34 18 -50 11 -81 -32z
m49 -29 c-25 -16 -32 -9 -13 12 12 13 20 16 22 9 3 -7 -2 -16 -9 -21z"/>
<path d="M7564 1861 c-69 -42 -95 -121 -53 -160 39 -36 151 -42 157 -8 3 14
-4 17 -40 18 -69 2 -93 12 -96 40 -4 36 64 98 81 75 8 -11 17 -13 26 -7 12 8
13 14 3 35 -14 31 -36 33 -78 7z"/>
<path d="M13810 1834 c-43 -40 -50 -52 -50 -85 0 -31 5 -42 26 -56 47 -30 184
-20 184 13 0 14 -9 16 -58 10 -71 -8 -112 5 -112 34 0 12 4 18 10 15 5 -3 30
3 55 14 48 21 68 59 45 86 -21 26 -49 17 -100 -31z m60 -9 c-7 -8 -18 -15 -24
-15 -6 0 -2 7 8 15 25 19 32 19 16 0z"/>
<path d="M4992 1843 c-34 -49 -62 -111 -56 -127 10 -27 34 -27 44 0 6 14 10
30 10 36 0 6 10 26 21 45 l22 35 23 -29 c17 -22 25 -25 35 -16 9 9 7 19 -8 45
-26 45 -64 49 -91 11z"/>
<path d="M10260 1849 c-19 -12 -52 -37 -72 -57 -29 -27 -35 -39 -27 -49 17
-19 21 -17 71 32 43 42 68 56 68 38 0 -5 -14 -35 -30 -67 -17 -32 -30 -64 -30
-71 0 -27 31 -23 75 10 25 19 47 35 50 35 3 0 5 -13 5 -29 0 -35 22 -55 50
-46 22 7 70 92 70 125 0 12 4 29 9 39 5 9 6 23 2 29 -14 23 -39 1 -46 -40 -4
-23 -14 -57 -22 -77 -14 -32 -17 -34 -24 -16 -4 11 -8 32 -8 48 -1 33 -27 36
-64 7 l-25 -20 14 38 c12 28 13 44 5 65 -13 32 -25 34 -71 6z"/>
<path d="M10904 1855 c-7 -18 3 -35 22 -35 15 0 17 9 8 34 -8 20 -23 21 -30 1z"/>
<path d="M8341 1822 c-53 -53 -77 -132 -41 -132 5 0 19 19 31 43 36 70 77 105
94 78 3 -5 -4 -32 -15 -60 -18 -46 -18 -52 -3 -66 18 -18 64 -16 71 3 2 7 -6
16 -18 19 -15 4 -19 10 -14 22 4 9 12 33 17 53 9 32 8 40 -8 58 -29 32 -71 26
-114 -18z"/>
<path d="M13588 1840 c-66 -36 -74 -86 -17 -116 16 -8 27 -19 24 -23 -9 -16
-58 -23 -66 -10 -9 16 -39 4 -39 -15 0 -23 37 -38 73 -31 83 18 103 68 40 106
l-36 22 29 24 c16 12 42 23 57 23 22 0 28 4 25 18 -5 24 -46 25 -90 2z"/>
<path d="M2404 1842 c-18 -11 -64 -109 -64 -135 0 -62 74 -75 126 -23 53 53
45 119 -17 150 -18 9 -33 16 -33 16 -1 0 -6 -4 -12 -8z m56 -89 c0 -28 -33
-63 -60 -63 -26 0 -25 19 1 75 21 44 22 45 40 29 11 -9 19 -28 19 -41z"/>
<path d="M2615 1838 c-50 -27 -75 -109 -40 -138 23 -19 35 -2 33 42 -3 36 1
44 24 57 23 13 31 14 48 3 11 -6 24 -12 30 -12 14 0 13 33 -2 48 -15 15 -66
15 -93 0z"/>
<path d="M5983 1818 c-47 -50 -67 -96 -54 -124 6 -13 22 -26 36 -30 56 -14
172 59 163 102 -2 10 -13 24 -26 30 -12 6 -33 21 -46 33 -30 28 -37 27 -73
-11z m95 -57 c17 -10 1 -24 -52 -46 -54 -23 -71 -14 -51 25 13 25 21 30 53 30
20 0 43 -4 50 -9z"/>
<path d="M16110 1843 c-54 -3 -70 -9 -92 -30 -45 -43 -33 -74 40 -103 17 -7
32 -18 32 -24 0 -34 -66 -50 -90 -21 -16 19 -29 19 -37 0 -18 -49 83 -74 138
-34 53 37 35 90 -40 122 -33 14 -33 15 -13 26 12 6 61 17 109 24 65 9 88 16
88 27 0 17 -27 19 -135 13z"/>
<path d="M4005 1794 c-19 -26 -35 -54 -35 -63 0 -37 48 -53 91 -31 17 9 19 7
19 -18 0 -30 24 -61 37 -48 4 4 8 26 8 49 0 23 4 59 9 80 7 30 5 37 -7 37 -8
0 -17 9 -20 20 -4 14 -14 20 -36 20 -24 0 -37 -9 -66 -46z m95 0 c0 -26 -70
-77 -86 -62 -9 10 48 68 67 68 10 0 19 -3 19 -6z"/>
<path d="M4242 1817 c-47 -49 -72 -162 -34 -155 11 2 21 19 28 49 22 89 62
117 82 59 8 -21 16 -28 26 -24 20 8 20 16 2 59 -13 30 -20 35 -49 35 -22 0
-41 -8 -55 -23z"/>
<path d="M7110 1818 c0 -13 -9 -43 -20 -67 -26 -57 -25 -71 5 -71 16 0 25 6
25 16 0 9 8 38 17 63 9 26 14 55 10 64 -10 25 -37 21 -37 -5z"/>
<path d="M15263 1801 c-38 -28 -73 -82 -73 -114 0 -31 44 -68 87 -74 52 -7 93
3 93 22 0 11 -12 15 -42 15 -48 0 -88 9 -87 19 0 3 28 20 62 36 51 24 63 35
65 57 3 28 -27 68 -51 68 -8 0 -32 -13 -54 -29z m67 -31 c0 -11 -80 -54 -86
-47 -3 2 11 19 31 36 33 29 55 33 55 11z"/>
<path d="M12515 1788 c-39 -33 -90 -122 -80 -138 19 -30 65 3 65 47 0 10 14
33 31 51 25 26 37 32 73 32 23 0 46 3 49 7 15 14 -18 33 -59 33 -34 0 -51 -7
-79 -32z"/>
<path d="M13028 1796 c-29 -19 -35 -21 -34 -8 0 9 -6 18 -14 19 -14 3 -90
-105 -90 -127 0 -25 27 -17 77 22 84 64 87 65 68 29 -9 -18 -13 -36 -9 -42 8
-14 51 -3 86 23 16 11 30 19 32 17 1 -2 7 -16 14 -31 8 -20 19 -28 37 -28 30
0 32 19 4 44 -15 13 -20 26 -17 48 6 38 -15 48 -45 21 -12 -10 -31 -25 -41
-33 -18 -15 -19 -14 -4 15 29 57 -3 73 -64 31z"/>
<path d="M13345 1808 c-4 -15 -15 -74 -18 -103 -1 -13 5 -21 18 -23 18 -2 22
5 30 51 6 29 9 61 7 70 -4 20 -31 23 -37 5z"/>
<path d="M14500 1813 c-73 -27 -120 -150 -66 -174 35 -17 74 -3 118 40 47 48
51 89 12 120 -27 21 -38 24 -64 14z m50 -62 c0 -29 -56 -81 -87 -81 -26 0 -12
45 23 77 37 32 64 34 64 4z"/>
<path d="M15500 1764 c-98 -91 -52 -143 103 -118 28 5 37 11 35 23 -3 13 -15
15 -76 12 -39 -2 -72 1 -72 5 0 4 16 25 37 46 29 30 40 35 55 27 23 -12 36 14
18 36 -21 26 -49 17 -100 -31z"/>
<path d="M12711 1765 c-17 -20 -38 -46 -47 -60 -47 -72 101 -104 151 -31 22
31 18 74 -10 101 -33 34 -57 31 -94 -10z m79 -44 c0 -25 -32 -51 -62 -51 -39
0 -36 21 8 60 37 32 53 29 54 -9z"/>
<path d="M10837 1763 c-4 -3 -7 -15 -7 -25 0 -10 -9 -36 -20 -58 -24 -47 -25
-56 -4 -64 18 -7 64 83 64 127 0 25 -17 36 -33 20z"/>
<path d="M11015 1759 c-60 -34 -82 -82 -50 -109 36 -30 200 -21 200 11 0 11
-14 13 -67 11 -69 -4 -108 3 -108 18 0 15 56 40 82 37 17 -1 23 3 23 18 0 15
-7 21 -30 22 -16 2 -39 -2 -50 -8z"/>
<path d="M15046 1658 c-8 -92 -44 -169 -94 -203 -42 -29 -52 -31 -52 -11 0 7
-7 19 -16 27 -35 29 -38 -45 -3 -77 18 -16 21 -16 55 2 84 45 128 113 146 227
12 78 8 107 -15 107 -10 0 -16 -21 -21 -72z"/>
<path d="M3334 1622 c-19 -12 -33 -48 -28 -68 3 -11 -8 -62 -25 -114 -56 -177
-68 -233 -59 -267 8 -32 50 -73 73 -73 40 0 125 112 125 164 0 59 -32 75 -96
47 -24 -11 -44 -16 -44 -12 0 4 16 58 35 118 50 159 57 230 19 205z m32 -399
c-8 -15 -28 -41 -46 -58 -31 -29 -32 -29 -46 -11 -8 11 -14 25 -14 32 0 21 52
76 85 90 27 11 30 11 33 -6 2 -10 -3 -31 -12 -47z"/>
<path d="M5346 1497 c-27 -35 -76 -134 -76 -154 0 -18 -20 -27 -33 -14 -18 18
-37 13 -37 -9 0 -12 10 -25 25 -32 18 -8 24 -17 20 -27 -4 -9 -9 -39 -12 -67
-5 -44 -2 -55 16 -73 24 -24 82 -29 100 -8 15 19 4 27 -36 27 -41 0 -48 15
-37 77 9 44 12 48 49 59 25 7 41 18 44 29 3 15 -2 17 -33 12 -35 -6 -37 -4
-30 16 11 37 62 134 80 151 16 17 13 46 -5 46 -6 0 -21 -15 -35 -33z"/>
<path d="M7116 1523 c-3 -4 -7 -52 -7 -107 -2 -114 -11 -172 -23 -143 -22 49
-118 -15 -132 -87 -6 -32 -3 -42 18 -62 29 -30 86 -41 111 -22 31 23 58 142
64 284 5 112 4 132 -10 137 -8 3 -18 3 -21 0z m-48 -291 c14 -14 16 -25 9 -56
-11 -43 -28 -53 -64 -37 -21 10 -24 16 -18 39 5 23 41 72 52 72 2 0 11 -8 21
-18z"/>
<path d="M5897 1503 c-3 -4 -19 -62 -37 -128 -18 -66 -43 -147 -56 -179 -29
-72 -30 -82 -5 -95 14 -8 22 -7 30 3 8 9 8 16 2 20 -6 4 0 30 14 65 13 32 38
111 55 176 26 102 28 121 16 133 -7 8 -16 10 -19 5z"/>
<path d="M3851 1426 c-14 -17 11 -41 34 -32 21 7 19 23 -4 35 -14 8 -22 7 -30
-3z"/>
<path d="M4967 1337 c-46 -72 -137 -169 -153 -163 -17 7 -36 -18 -28 -38 10
-27 46 -18 86 21 34 33 38 35 38 15 0 -34 34 -46 75 -26 19 8 40 22 46 30 10
13 14 10 25 -15 10 -23 20 -31 39 -31 20 0 25 5 25 24 0 14 -4 28 -10 31 -15
10 -12 35 11 83 16 32 19 46 10 55 -8 8 -19 0 -43 -28 -51 -61 -110 -115 -125
-115 -18 0 -18 -3 27 91 44 92 47 104 25 113 -10 3 -25 -11 -48 -47z"/>
<path d="M1966 1356 c-25 -24 -51 -121 -41 -148 14 -36 54 -30 103 16 l24 21
-7 -28 c-9 -35 17 -77 49 -77 12 0 25 3 29 6 11 11 -5 34 -24 34 -17 0 -18 6
-13 59 4 39 3 61 -5 65 -6 4 -11 15 -11 25 0 11 -14 25 -34 35 -43 20 -42 20
-70 -8z m52 -25 c19 -12 5 -54 -29 -87 -33 -32 -35 -27 -14 44 16 53 20 58 43
43z"/>
<path d="M2254 1355 c-12 -8 -27 -27 -33 -44 -7 -16 -20 -31 -29 -33 -14 -4
-17 -18 -16 -79 0 -66 2 -74 19 -74 15 0 21 10 27 44 11 64 37 138 53 151 10
9 19 8 37 -4 36 -23 54 -6 28 27 -24 30 -55 34 -86 12z"/>
<path d="M6100 1351 c0 -10 7 -24 15 -31 12 -10 16 -9 21 4 3 9 4 23 0 31 -8
21 -36 19 -36 -4z"/>
<path d="M5577 1354 c-10 -10 -8 -46 3 -64 13 -20 30 -2 33 36 2 28 -19 44
-36 28z"/>
<path d="M6655 1329 c-31 -28 -35 -37 -35 -79 0 -68 32 -105 104 -120 37 -7
61 -8 80 0 44 16 26 34 -38 36 -44 1 -63 7 -82 25 -31 29 -31 49 1 49 31 0
105 36 105 51 0 6 -9 24 -21 40 -28 39 -67 39 -114 -2z m77 -24 c2 -12 -49
-31 -59 -22 -9 9 28 37 45 34 7 -1 14 -6 14 -12z"/>
<path d="M2422 1288 c-77 -113 -57 -169 60 -167 70 1 102 11 106 32 3 16 -4
17 -76 11 -52 -4 -81 -3 -86 4 -3 6 2 13 13 17 25 7 91 80 91 99 0 22 -29 46
-55 46 -17 0 -33 -12 -53 -42z m58 -18 c-6 -11 -20 -25 -32 -31 -21 -11 -21
-11 1 20 25 35 48 43 31 11z"/>
<path d="M6428 1324 c-3 -3 -37 -6 -74 -7 -57 -2 -69 -5 -72 -19 -3 -15 4 -18
35 -20 21 0 49 0 63 1 20 1 13 -6 -30 -33 -30 -19 -68 -43 -84 -53 -40 -25
-42 -38 -11 -69 l27 -27 111 7 c62 4 113 9 116 11 2 2 1 11 -3 20 -5 14 -19
15 -110 9 -68 -4 -105 -3 -110 4 -3 6 21 26 56 45 70 39 144 109 134 126 -8
12 -39 15 -48 5z"/>
<path d="M3521 1275 c-33 -36 -41 -52 -41 -84 0 -43 11 -56 57 -65 34 -8 108
8 119 25 12 20 -11 29 -50 18 -45 -12 -86 -5 -86 16 0 10 9 12 33 8 28 -4 37
-1 55 22 24 30 29 74 10 93 -23 23 -55 12 -97 -33z m69 -7 c0 -24 -18 -41 -35
-34 -15 5 -14 8 6 26 29 23 29 23 29 8z"/>
<path d="M3904 1268 c-53 -62 -76 -108 -64 -128 11 -19 25 -6 60 55 21 37 38
55 51 55 23 0 24 -17 3 -86 -17 -52 -14 -89 7 -82 13 4 49 111 49 146 0 13 -5
32 -10 43 -15 27 -71 26 -96 -3z"/>
<path d="M3785 1268 c-36 -106 -39 -164 -7 -144 14 8 43 121 36 140 -7 19 -23
21 -29 4z"/>
<path d="M4117 1243 c-32 -34 -59 -96 -51 -118 12 -29 41 -37 80 -20 36 15 36
15 30 -8 -3 -12 -6 -51 -6 -86 l0 -63 -31 6 c-32 6 -91 -13 -121 -41 -37 -33
-12 -137 38 -164 36 -19 72 3 104 64 28 52 35 57 43 27 6 -25 37 -27 37 -2 0
9 -8 31 -19 47 -16 27 -17 42 -10 144 5 62 14 128 20 146 15 41 6 69 -20 62
-13 -3 -21 1 -24 14 -7 27 -39 23 -70 -8z m73 -29 c0 -21 -25 -56 -50 -69 -28
-14 -30 -14 -30 2 0 30 42 81 62 75 10 -2 18 -6 18 -8z m-56 -300 c9 -3 16
-12 16 -20 0 -25 -41 -102 -58 -109 -24 -9 -44 19 -46 62 -1 34 3 40 34 55 41
21 34 20 54 12z"/>
<path d="M6025 1203 c-18 -40 -24 -63 -17 -73 13 -22 37 -18 38 5 1 11 10 40
22 65 11 24 18 48 16 52 -13 21 -35 3 -59 -49z"/>
<path d="M5549 1243 c-1 -5 0 -16 1 -26 1 -10 -8 -34 -19 -53 -26 -43 -27 -67
-3 -62 20 4 76 113 68 134 -6 14 -45 20 -47 7z"/>
<path d="M7243 1094 c-7 -20 12 -33 38 -27 23 6 25 29 3 37 -25 9 -34 7 -41
-10z"/>
</g>
</svg>
