<?xml version="1.0" standalone="no"?>
<!DOCTYPE svg PUBLIC "-//W3C//DTD SVG 20010904//EN"
 "http://www.w3.org/TR/2001/REC-SVG-20010904/DTD/svg10.dtd">
<svg version="1.0" xmlns="http://www.w3.org/2000/svg"
 width="1872.000000pt" height="596.000000pt" viewBox="0 0 1872.000000 596.000000"
 preserveAspectRatio="xMidYMid meet">

<g transform="translate(0.000000,596.000000) scale(0.100000,-0.100000)"
fill="#000000" stroke="none">
<path d="M3045 5455 c-66 -12 -152 -33 -190 -48 -99 -37 -197 -58 -235 -51
-22 5 -35 3 -40 -7 -13 -20 8 -39 44 -39 43 0 179 34 259 64 59 22 94 30 225
52 l32 5 0 -58 c0 -71 -18 -151 -58 -263 -43 -122 -47 -149 -27 -157 13 -4 34
12 79 62 72 80 84 76 65 -20 -10 -52 -10 -67 1 -79 23 -29 37 -19 37 27 0 23
4 63 8 88 6 40 4 50 -14 68 -27 27 -53 21 -99 -22 l-33 -32 35 98 c28 76 38
121 45 210 8 109 7 128 -7 126 -4 -1 -61 -11 -127 -24z"/>
<path d="M5861 5466 c-6 -7 -20 -54 -31 -103 -11 -50 -30 -119 -42 -154 -22
-62 -24 -64 -63 -69 -27 -3 -41 -10 -43 -22 -3 -15 4 -18 33 -18 35 0 37 -2
31 -25 -16 -63 -18 -115 -6 -130 20 -25 30 -17 30 23 0 20 6 60 13 87 l13 50
51 0 c82 0 85 31 4 42 -22 3 -41 6 -41 7 0 0 9 24 19 51 10 28 26 86 36 130 9
44 21 90 27 102 17 34 -7 58 -31 29z"/>
<path d="M6987 5445 c-17 -17 -22 -36 -37 -155 -10 -71 -42 -195 -55 -209 -2
-2 -11 4 -20 13 -9 9 -33 16 -54 16 -49 0 -90 -41 -98 -98 -5 -34 -1 -44 20
-66 26 -26 59 -32 92 -19 29 10 94 122 120 204 13 42 29 117 35 165 7 49 19
99 27 112 25 40 1 69 -30 37z m-127 -395 c9 -17 6 -27 -16 -55 -37 -49 -84
-43 -84 10 0 56 76 90 100 45z"/>
<path d="M15021 5418 c-7 -7 -25 -35 -40 -63 -28 -49 -28 -49 -75 -46 -40 2
-47 0 -55 -21 -5 -13 -21 -34 -35 -47 -32 -31 -44 -83 -24 -113 14 -21 11 -28
-52 -113 -68 -90 -87 -126 -75 -144 8 -13 35 -2 35 14 0 7 31 55 69 105 l70
92 50 2 c54 3 133 43 151 76 13 24 -9 83 -38 101 -20 12 -19 14 16 80 28 51
34 71 26 79 -9 9 -15 8 -23 -2z m-101 -163 c0 -3 -19 -29 -42 -60 -43 -55 -66
-60 -54 -11 7 30 96 96 96 71z m64 -92 c-31 -24 -87 -47 -104 -41 -6 2 11 29
37 61 l48 57 24 -27 23 -27 -28 -23z"/>
<path d="M11375 5408 c-43 -129 -80 -230 -110 -303 -45 -109 -54 -155 -32
-155 9 0 20 6 24 14 4 7 23 26 41 41 l32 27 -6 -56 c-6 -52 -5 -56 14 -56 18
0 21 8 27 65 6 55 5 69 -10 85 -17 18 -20 19 -41 5 l-23 -15 14 40 c8 22 21
55 29 73 23 48 76 208 76 229 0 20 -28 25 -35 6z"/>
<path d="M7475 5398 c-2 -7 -6 -40 -8 -73 -3 -33 -19 -101 -36 -152 -17 -51
-31 -107 -31 -125 0 -42 20 -82 44 -86 16 -3 18 0 11 19 -19 60 -16 89 19 197
40 124 50 232 21 232 -9 0 -17 -6 -20 -12z"/>
<path d="M9996 5388 c-45 -151 -59 -192 -76 -231 -21 -46 -22 -47 -58 -41 -28
4 -41 2 -51 -10 -17 -20 -4 -39 23 -32 40 10 48 -5 31 -62 -16 -54 -14 -72 9
-72 8 0 21 26 31 65 15 56 22 66 44 71 75 17 86 21 86 35 0 10 -11 13 -44 11
-38 -2 -42 -1 -36 15 26 60 74 212 75 236 0 28 -27 40 -34 15z"/>
<path d="M12553 5384 c-3 -9 -1 -25 6 -36 9 -15 8 -27 -8 -62 -20 -47 -30 -56
-76 -71 -38 -13 -49 -50 -13 -43 l25 5 -29 -59 c-36 -71 -34 -107 6 -127 41
-19 102 -26 111 -11 10 16 5 19 -51 33 -45 11 -49 15 -47 40 1 15 16 52 33 82
35 60 59 69 105 39 23 -15 25 -15 32 1 7 21 -28 55 -57 55 -17 0 -17 5 6 62
30 73 26 108 -12 108 -14 0 -27 -7 -31 -16z"/>
<path d="M4909 5378 c0 -2 -2 -30 -3 -63 -2 -43 -13 -81 -38 -135 -67 -144
-84 -231 -45 -238 13 -3 17 3 17 27 0 34 40 152 77 224 13 27 27 72 30 100 3
29 10 57 14 63 5 6 6 14 2 17 -6 7 -52 10 -54 5z"/>
<path d="M9133 5373 c-7 -2 -13 -15 -13 -28 0 -13 -16 -69 -36 -124 -34 -93
-39 -102 -68 -109 -40 -11 -49 -42 -11 -42 18 0 25 -4 22 -12 -12 -33 -30
-129 -24 -134 18 -18 37 11 52 79 l17 75 40 -6 c28 -3 43 -1 48 9 11 17 -6 29
-42 29 -34 0 -34 6 -4 78 13 31 29 77 36 102 7 24 19 50 28 57 15 11 15 14 2
23 -16 10 -28 11 -47 3z"/>
<path d="M11157 5360 c-17 -13 -28 -34 -32 -63 -4 -23 -13 -66 -22 -94 -13
-47 -17 -53 -42 -53 -33 0 -67 -23 -57 -39 5 -7 20 -9 41 -5 l34 6 -20 -64
c-24 -79 -24 -100 -2 -96 12 2 24 26 39 78 l21 75 49 5 c35 4 49 9 49 20 0 11
-13 16 -43 18 -40 3 -42 4 -36 30 4 15 11 37 15 50 5 13 9 34 9 47 0 13 11 37
25 53 42 51 23 72 -28 32z"/>
<path d="M15272 5352 c-42 -27 -59 -53 -47 -72 9 -14 35 -12 35 3 0 18 59 55
80 50 26 -7 33 -48 15 -83 -18 -34 -171 -160 -195 -160 -21 0 -120 -47 -120
-58 0 -13 23 -32 40 -32 9 0 33 9 55 20 50 26 55 25 55 -6 0 -67 39 -80 120
-39 55 28 67 42 51 58 -7 7 -24 3 -60 -16 -27 -15 -53 -27 -59 -27 -5 0 -12
19 -15 43 -6 38 -3 44 21 62 51 37 134 120 149 149 18 34 11 86 -15 108 -33
29 -64 29 -110 0z"/>
<path d="M4808 5362 c-14 -2 -18 -14 -18 -44 0 -22 -18 -95 -41 -163 -43 -130
-48 -187 -16 -193 14 -3 17 4 17 34 0 20 18 93 40 160 22 68 40 134 40 148 0
14 5 28 10 31 24 15 1 35 -32 27z"/>
<path d="M16105 5305 c-24 -34 -45 -53 -53 -50 -39 15 -60 13 -97 -8 -33 -18
-43 -32 -57 -75 -16 -48 -17 -55 -2 -91 16 -40 16 -40 -18 -86 -90 -126 -107
-166 -74 -178 17 -7 26 1 26 23 0 10 26 54 58 99 l57 81 53 0 c91 0 152 49
152 122 0 29 -7 45 -25 62 l-24 23 26 39 c15 21 33 44 41 50 17 13 10 44 -10
44 -7 0 -31 -25 -53 -55z m-87 -93 c9 -6 1 -23 -28 -63 -45 -60 -55 -67 -63
-45 -9 24 12 84 36 101 24 17 36 18 55 7z m92 -70 c-1 -31 -16 -54 -47 -70
-22 -12 -83 -17 -83 -6 0 3 21 32 46 65 39 51 48 58 65 49 12 -7 19 -21 19
-38z"/>
<path d="M16344 5326 c-54 -54 -40 -99 32 -100 19 -1 34 -3 34 -5 0 -2 -20
-39 -44 -81 -48 -83 -90 -194 -82 -216 11 -28 34 -14 41 24 10 59 142 312 163
312 6 0 12 7 12 15 0 8 -5 15 -10 15 -6 0 -13 8 -17 18 -22 61 -78 69 -129 18z
m79 -27 c-7 -26 -49 -47 -64 -32 -14 14 23 53 50 53 14 0 18 -5 14 -21z"/>
<path d="M17429 5333 c-19 -47 -51 -107 -65 -123 -12 -12 -14 -12 -14 2 0 44
-84 10 -130 -54 -37 -51 -39 -96 -6 -127 l23 -22 -45 -88 c-42 -83 -47 -112
-19 -110 7 0 32 42 57 92 25 51 52 93 60 94 65 8 91 17 114 38 33 30 35 79 5
111 l-21 23 36 60 c43 71 58 131 32 131 -9 0 -21 -12 -27 -27z m-122 -161
c-10 -11 -13 -22 -7 -32 11 -18 -30 -91 -50 -88 -8 2 -16 16 -18 31 -3 22 6
37 36 67 39 39 70 57 39 22z m83 -78 c0 -25 -34 -54 -62 -54 -24 0 -23 5 9 56
21 32 30 40 40 32 7 -6 13 -21 13 -34z"/>
<path d="M2845 5308 c-28 -82 -69 -321 -60 -349 4 -10 15 -19 27 -19 16 0 19
5 14 23 -6 24 13 150 39 261 9 38 14 75 11 82 -7 17 -25 18 -31 2z"/>
<path d="M17674 5303 c-4 -10 -34 -83 -69 -163 -72 -166 -81 -202 -59 -225 21
-21 32 -11 32 28 0 31 56 175 108 279 28 55 32 98 9 98 -9 0 -18 -8 -21 -17z"/>
<path d="M17914 5266 c-32 -14 -74 -60 -74 -81 0 -6 9 -20 19 -29 16 -14 29
-16 61 -11 l42 7 -7 -33 c-4 -19 -13 -52 -21 -74 -28 -81 -12 -185 29 -185 16
0 18 4 11 23 -21 61 13 265 52 308 18 20 18 34 -2 64 -19 29 -60 33 -110 11z
m66 -46 c0 -14 -11 -22 -37 -29 -71 -20 -87 -5 -30 29 41 26 67 26 67 0z"/>
<path d="M12824 5245 c-4 -9 -2 -21 4 -27 15 -15 44 -1 40 19 -4 23 -36 29
-44 8z"/>
<path d="M16930 5236 c-53 -17 -60 -24 -60 -62 0 -41 25 -47 40 -10 5 15 22
29 44 36 40 13 56 7 56 -20 0 -21 -91 -107 -166 -156 -28 -18 -54 -40 -57 -48
-9 -23 21 -28 51 -8 22 14 46 17 143 14 79 -2 120 1 125 9 10 17 -16 29 -67
29 -26 0 -61 3 -79 6 l-32 7 61 56 c69 64 80 103 39 141 -24 22 -46 24 -98 6z"/>
<path d="M8815 5173 c-48 -12 -56 -42 -30 -126 l14 -48 -27 -10 c-39 -15 -77
0 -77 31 0 29 -26 38 -44 16 -18 -22 -5 -52 33 -76 38 -23 59 -25 105 -9 43
15 55 48 36 102 -8 23 -15 49 -15 58 0 20 33 30 71 22 22 -4 29 -2 29 10 0 29
-43 43 -95 30z"/>
<path d="M13002 5160 c-47 -21 -172 -135 -172 -156 0 -31 24 -21 77 34 57 58
119 99 131 88 3 -4 -9 -27 -26 -51 -59 -84 -37 -99 44 -30 46 40 84 57 84 38
0 -3 -12 -26 -26 -50 -25 -44 -26 -73 -2 -73 12 0 68 105 68 127 0 18 -36 43
-61 43 -16 0 -28 8 -34 22 -13 30 -31 32 -83 8z"/>
<path d="M10245 5143 c-73 -38 -80 -61 -38 -124 26 -40 27 -42 8 -55 -26 -19
-39 -18 -60 6 -21 23 -38 25 -54 6 -19 -23 -2 -43 46 -55 48 -13 78 -8 106 17
24 21 21 51 -8 95 -14 20 -23 42 -20 47 13 20 65 40 90 34 20 -5 25 -3 25 14
0 34 -45 42 -95 15z"/>
<path d="M13365 5145 c-16 -8 -44 -32 -62 -51 -31 -35 -32 -38 -18 -65 9 -16
25 -34 36 -40 29 -15 148 -7 159 11 15 24 0 31 -53 25 -46 -5 -49 -5 -30 7 28
17 63 62 63 81 0 21 -27 47 -48 47 -9 0 -30 -7 -47 -15z m55 -32 c0 -4 -10
-17 -22 -30 -23 -24 -71 -33 -63 -10 10 23 85 59 85 40z"/>
<path d="M13659 5137 c-36 -24 -84 -95 -95 -139 -4 -21 -2 -29 11 -34 20 -8
31 6 45 56 13 44 48 85 79 95 19 6 23 4 18 -7 -7 -20 8 -42 22 -33 17 10 32
52 25 70 -9 23 -66 18 -105 -8z"/>
<path d="M4254 5136 c-49 -22 -95 -84 -92 -126 4 -48 56 -75 127 -65 58 8 92
28 75 45 -7 7 -25 7 -62 -1 -60 -14 -102 -2 -102 30 0 18 71 91 89 91 23 0 41
-14 41 -31 0 -19 16 -24 44 -13 28 11 17 40 -23 62 -45 25 -55 26 -97 8z"/>
<path d="M9603 5125 c-35 -15 -95 -107 -91 -139 5 -38 27 -27 49 24 32 75 92
113 127 78 17 -17 28 18 12 37 -15 19 -55 19 -97 0z"/>
<path d="M3373 5115 c-11 -8 -30 -36 -43 -61 -34 -74 -14 -133 51 -149 62 -15
221 57 191 87 -8 8 -25 4 -60 -15 -65 -35 -123 -44 -145 -22 -25 24 -21 41 14
56 44 18 89 57 89 78 0 40 -56 55 -97 26z m42 -35 c-3 -5 -16 -15 -28 -21 -22
-12 -22 -12 -3 10 19 21 43 30 31 11z"/>
<path d="M4471 5093 c-36 -43 -41 -88 -12 -98 20 -6 65 8 76 24 3 6 15 15 25
21 17 9 18 7 13 -25 -3 -21 -1 -41 7 -50 26 -31 35 -16 37 65 3 73 1 80 -16
80 -11 0 -23 5 -26 10 -3 6 -21 10 -40 10 -27 0 -40 -8 -64 -37z m51 -34 c-39
-35 -51 -33 -27 5 10 15 26 26 39 26 19 -1 18 -4 -12 -31z"/>
<path d="M7044 5111 c-32 -19 -64 -74 -64 -109 0 -29 44 -60 96 -68 57 -8 157
23 162 50 4 20 -2 20 -90 -5 -38 -10 -54 -10 -90 1 l-43 13 41 14 c51 17 84
47 84 76 0 48 -43 60 -96 28z m54 -33 c-3 -7 -20 -18 -39 -25 l-34 -14 28 26
c30 27 51 33 45 13z"/>
<path d="M11530 5102 c-30 -26 -34 -35 -38 -89 -4 -53 -1 -64 18 -83 18 -18
28 -20 63 -15 66 12 112 31 115 48 4 21 -17 22 -83 2 -59 -18 -75 -14 -75 20
0 18 5 25 19 25 22 0 76 42 92 72 27 51 -55 66 -111 20z m51 -32 c-23 -20 -41
-26 -41 -14 0 11 34 33 50 33 10 0 8 -6 -9 -19z"/>
<path d="M5964 5085 c-37 -40 -53 -97 -34 -120 34 -41 160 17 160 72 0 28 -50
83 -76 83 -9 0 -32 -16 -50 -35z m70 -21 c24 -24 19 -39 -19 -57 -44 -21 -55
-21 -55 -2 0 11 47 74 57 75 1 0 9 -7 17 -16z"/>
<path d="M7565 5089 c-47 -41 -58 -64 -46 -88 15 -27 55 -34 97 -16 46 19 44
19 44 -8 0 -28 26 -67 46 -67 17 0 19 36 3 46 -8 4 -9 26 -5 64 6 55 5 59 -20
79 -38 30 -77 27 -119 -10z m85 -29 c0 -11 -2 -20 -4 -20 -2 0 -20 -7 -39 -15
-45 -19 -57 -4 -23 30 31 31 66 33 66 5z"/>
<path d="M9355 5091 c-45 -27 -67 -57 -63 -83 2 -19 9 -23 38 -22 19 0 42 4
50 7 10 5 19 0 25 -14 16 -35 29 -27 37 21 10 56 7 95 -9 95 -6 0 -15 3 -19 8
-12 11 -27 8 -59 -12z m45 -31 c0 -5 -13 -16 -30 -25 -38 -19 -40 -1 -2 19 33
18 32 18 32 6z"/>
<path d="M7944 5068 c-17 -18 -41 -48 -54 -67 l-23 -34 -13 49 c-7 27 -13 52
-14 57 0 4 -7 7 -15 7 -14 0 -20 -13 -15 -35 1 -5 6 -35 10 -65 l8 -55 -54
-71 c-54 -71 -118 -194 -129 -249 -3 -19 0 -38 9 -50 18 -25 26 -17 32 31 3
22 18 68 35 104 31 67 249 364 274 374 17 6 9 36 -9 36 -7 0 -26 -15 -42 -32z"/>
<path d="M12733 5088 c-21 -26 -45 -87 -38 -97 13 -22 34 -10 45 24 6 19 16
35 21 35 14 0 7 42 -7 47 -6 2 -16 -2 -21 -9z"/>
<path d="M15470 5011 c0 -28 21 -60 35 -55 18 7 20 35 3 52 -14 14 -38 16 -38
3z"/>
<path d="M16475 5001 c-8 -15 3 -31 21 -31 9 0 14 7 12 17 -4 20 -24 28 -33
14z"/>
<path d="M4540 4850 c-12 -7 -13 -13 -4 -27 12 -19 5 -94 -16 -184 -11 -43
-14 -47 -38 -46 -21 2 -27 -3 -27 -18 0 -13 7 -20 20 -20 18 0 20 -6 17 -57
-4 -66 4 -98 24 -98 11 0 14 15 14 63 0 34 4 67 8 74 4 6 30 13 57 15 38 2 51
7 53 21 3 14 -4 17 -47 17 -28 0 -51 2 -51 4 0 3 6 33 14 68 8 35 18 93 21
131 7 61 6 67 -11 67 -11 0 -26 -5 -34 -10z"/>
<path d="M8507 4850 c-21 -4 -50 -19 -65 -33 -16 -15 -35 -27 -44 -27 -19 0
-35 -38 -44 -105 -4 -27 -20 -80 -35 -118 -35 -84 -40 -120 -18 -125 16 -3 59
78 74 141 7 25 11 27 58 27 93 0 162 51 187 140 13 45 -5 86 -42 99 -17 6 -31
10 -32 10 -1 -1 -18 -5 -39 -9z m68 -46 c10 -10 13 -24 9 -38 -22 -74 -60
-107 -133 -114 -61 -5 -63 1 -26 75 27 53 54 78 96 86 13 2 27 5 31 6 4 0 14
-6 23 -15z"/>
<path d="M11298 4817 c-8 -8 -30 -60 -49 -116 -30 -89 -37 -101 -57 -101 -32
0 -62 -18 -62 -36 0 -13 7 -15 34 -10 l34 7 -14 -47 c-17 -56 -18 -120 -3
-130 16 -9 29 15 30 56 0 19 6 53 13 75 11 36 15 40 41 37 35 -2 61 11 51 27
-4 6 -19 11 -32 11 -24 0 -25 3 -18 33 3 17 20 67 36 110 20 52 27 82 21 88
-7 7 -15 5 -25 -4z"/>
<path d="M3053 4808 c-14 -16 -29 -77 -38 -144 -6 -47 -9 -52 -35 -57 -57 -12
-101 -117 -65 -157 22 -25 47 -25 68 -2 18 20 63 149 72 207 3 22 11 64 17 93
12 55 2 86 -19 60z m-79 -291 c-18 -54 -40 -64 -30 -15 6 29 35 73 43 65 1 -2
-4 -25 -13 -50z"/>
<path d="M3953 4630 c-17 -10 -37 -29 -44 -42 -7 -13 -19 -28 -27 -34 -8 -6
-12 -17 -10 -25 3 -8 -1 -29 -8 -48 -15 -35 -11 -51 10 -51 13 0 46 57 46 78
0 5 7 12 15 16 8 3 14 15 12 27 -1 13 8 29 25 41 l26 21 28 -22 c41 -32 56
-10 19 29 -34 35 -49 37 -92 10z"/>
<path d="M9555 4641 c-8 -15 3 -31 21 -31 9 0 14 7 12 17 -4 20 -24 28 -33 14z"/>
<path d="M2464 4601 c-35 -21 -68 -92 -58 -123 5 -17 40 -38 64 -38 5 0 25 14
45 31 35 31 35 31 35 8 0 -31 14 -53 30 -47 8 2 13 33 15 87 2 79 1 83 -22 92
-38 14 -75 11 -109 -10z m68 -33 c-6 -7 -11 -16 -11 -21 -1 -27 -52 -69 -70
-58 -14 9 -4 39 27 74 18 20 71 25 54 5z"/>
<path d="M6363 4600 c-31 -19 -73 -84 -73 -114 0 -9 11 -23 25 -32 20 -13 30
-14 59 -4 19 6 40 18 47 26 11 13 14 11 23 -18 8 -23 22 -39 49 -52 34 -16 44
-17 82 -6 51 14 76 36 52 46 -8 3 -34 0 -57 -6 -35 -9 -46 -9 -66 5 -23 15
-29 35 -24 85 6 55 5 65 -10 65 -8 1 -25 6 -37 13 -29 16 -32 15 -70 -8z m67
-61 c0 -17 -83 -63 -94 -52 -9 9 22 60 46 78 21 14 24 14 35 -2 7 -9 13 -20
13 -24z"/>
<path d="M4163 4600 c-12 -5 -34 -27 -49 -50 l-27 -40 18 -46 c13 -35 25 -49
51 -60 43 -18 86 -18 129 0 29 12 35 20 35 44 0 35 -24 60 -36 40 -5 -7 -7
-21 -6 -30 2 -12 -7 -19 -32 -24 -51 -9 -83 2 -101 36 -19 37 -19 46 0 30 12
-10 24 -9 60 5 39 14 45 21 45 45 0 50 -36 70 -87 50z m45 -41 c-2 -6 -19 -17
-38 -25 l-34 -15 24 26 c24 25 55 34 48 14z"/>
<path d="M5493 4577 c-37 -35 -38 -36 -24 -69 23 -57 20 -73 -14 -73 -25 0
-30 3 -27 23 3 18 -2 22 -21 22 -47 0 -44 -50 4 -75 85 -44 146 14 103 97 -16
31 -16 33 6 50 29 23 40 23 40 -3 0 -27 34 -22 38 6 3 28 -8 42 -40 50 -21 5
-34 0 -65 -28z"/>
<path d="M9689 4589 c-11 -11 -18 -27 -15 -36 15 -38 17 -63 6 -82 -14 -27
-40 -27 -40 0 0 14 -5 19 -17 17 -13 -2 -18 -13 -18 -38 0 -35 0 -35 44 -35
40 0 47 3 65 34 16 29 18 40 9 73 -9 32 -8 41 3 45 8 3 20 0 28 -6 22 -18 41
12 21 33 -23 22 -61 20 -86 -5z"/>
<path d="M12685 4591 c-39 -17 -105 -82 -105 -101 0 -16 38 -49 63 -55 13 -4
43 -5 68 -3 32 2 45 8 47 21 3 15 -5 17 -58 17 -46 0 -62 4 -67 16 -8 20 39
60 90 76 25 8 37 17 35 27 -5 23 -27 23 -73 2z"/>
<path d="M12923 4584 c-18 -14 -33 -30 -33 -36 0 -6 -7 -16 -16 -22 -14 -11
-13 -16 7 -50 26 -44 52 -56 119 -56 73 0 180 49 180 82 0 13 -42 9 -59 -6
-39 -33 -164 -49 -189 -24 -8 8 1 17 38 34 35 16 51 30 56 49 14 56 -47 74
-103 29z m67 -19 c0 -2 -15 -12 -32 -20 l-33 -16 24 21 c22 19 41 26 41 15z"/>
<path d="M2690 4558 c-38 -40 -60 -94 -46 -117 10 -15 36 -2 36 19 0 23 57
100 74 100 19 0 26 -35 15 -73 -11 -40 -3 -67 21 -67 12 0 18 7 18 23 0 12 1
42 3 67 5 99 -50 121 -121 48z"/>
<path d="M9123 4576 c-23 -14 -39 -18 -37 -11 6 14 -18 26 -33 17 -6 -4 -15
-24 -22 -44 -7 -20 -19 -42 -27 -48 -18 -16 -18 -39 1 -46 8 -4 41 17 80 50
85 72 96 73 73 9 -20 -54 0 -61 66 -25 30 16 58 27 61 24 3 -3 5 -18 5 -33 0
-19 6 -30 21 -34 23 -8 46 14 27 26 -6 4 -11 28 -12 55 -1 27 -6 49 -13 51 -7
3 -29 -7 -50 -21 -47 -33 -57 -33 -49 0 8 29 -8 54 -33 54 -9 0 -35 -11 -58
-24z"/>
<path d="M9948 4572 c-13 -15 -31 -31 -40 -35 -16 -6 -16 -9 0 -48 14 -32 27
-46 53 -55 46 -17 67 -17 125 1 64 19 103 49 87 66 -9 9 -22 6 -56 -10 -58
-28 -105 -35 -139 -22 -37 14 -35 27 6 46 35 17 63 56 52 74 -14 22 -63 12
-88 -17z"/>
<path d="M12365 4583 c-16 -10 -37 -17 -45 -18 -8 0 -16 -9 -18 -21 -2 -12
-19 -36 -38 -54 -39 -39 -44 -60 -12 -60 15 0 44 22 84 66 52 56 66 65 90 62
37 -4 42 -27 14 -80 -22 -42 -21 -68 2 -68 18 0 51 77 52 121 0 20 -6 44 -13
53 -17 21 -77 20 -116 -1z"/>
<path d="M12107 4570 c-35 -28 -67 -82 -67 -113 0 -48 69 -63 127 -27 48 29
58 54 42 104 -7 23 -18 44 -24 48 -18 14 -52 8 -78 -12z m58 -60 c23 0 18 -16
-11 -39 -29 -23 -74 -28 -74 -9 0 6 12 27 26 46 23 29 28 32 36 18 5 -9 16
-16 23 -16z"/>
<path d="M4735 4568 c-43 -118 -44 -136 -12 -166 26 -24 63 -28 102 -10 29 13
78 105 73 139 -4 30 -38 35 -38 6 -1 -42 -37 -106 -64 -113 -45 -11 -59 1 -51
44 3 20 13 47 21 60 9 13 13 30 10 38 -7 17 -35 19 -41 2z"/>
<path d="M10891 4554 c-12 -15 -21 -30 -21 -34 0 -14 30 -32 54 -32 15 0 28
-9 35 -24 13 -28 51 -40 94 -27 50 14 41 38 -13 38 -38 0 -45 3 -46 20 0 11
-8 35 -17 53 -22 40 -57 43 -86 6z m49 -18 c0 -3 -4 -8 -10 -11 -5 -3 -10 -1
-10 4 0 6 5 11 10 11 6 0 10 -2 10 -4z"/>
<path d="M5033 4563 c-35 -14 -82 -135 -61 -160 15 -19 38 2 38 36 0 14 9 40
19 57 15 25 24 31 44 27 28 -6 43 10 24 25 -17 13 -49 21 -64 15z"/>
<path d="M5188 4541 c-18 -16 -43 -47 -56 -70 -20 -36 -21 -42 -8 -47 18 -7
46 12 46 30 0 15 62 76 77 76 22 0 23 -32 2 -80 -22 -51 -22 -85 0 -85 12 0
27 32 51 108 10 30 -2 76 -23 89 -24 15 -57 7 -89 -21z"/>
<path d="M8597 4543 c-55 -58 -70 -143 -25 -143 16 0 19 5 15 22 -7 27 37 108
58 108 7 0 25 -4 39 -9 18 -7 28 -6 36 4 9 11 5 17 -19 29 -44 23 -74 20 -104
-11z"/>
<path d="M9474 4533 c-4 -15 -15 -43 -25 -62 -19 -36 -15 -65 8 -57 8 3 17 6
19 6 2 0 4 7 4 15 0 9 7 27 16 40 17 26 16 76 -3 82 -7 3 -15 -8 -19 -24z"/>
<path d="M8796 4508 c-57 -66 -42 -117 31 -105 79 13 115 100 53 132 -41 21
-44 20 -84 -27z m74 -24 c0 -20 -28 -43 -52 -44 -22 0 -22 4 -2 35 18 28 54
34 54 9z"/>
<path d="M13357 4417 c-6 -17 11 -37 31 -37 19 0 11 44 -9 48 -9 2 -19 -3 -22
-11z"/>
<path d="M8889 4300 c-45 -47 -94 -129 -134 -222 l-28 -68 -59 0 c-44 0 -58
-4 -58 -14 0 -21 19 -30 61 -28 l37 3 -38 -106 c-21 -58 -45 -114 -55 -125
-18 -20 -17 -51 1 -57 18 -6 58 71 100 191 l39 108 47 -5 c30 -4 50 -2 54 5 9
15 -24 38 -54 38 -20 0 -22 4 -16 23 16 54 78 166 115 210 l41 47 25 -20 c26
-20 43 -19 43 5 0 17 -47 55 -68 55 -8 0 -32 -18 -53 -40z"/>
<path d="M15281 4292 c-101 -200 -151 -304 -151 -316 0 -26 24 -23 71 11 26
18 50 33 53 33 4 0 6 -23 4 -51 -2 -33 1 -53 8 -56 16 -6 34 51 34 108 0 43
-3 49 -20 49 -12 0 -34 -7 -50 -15 l-29 -15 20 47 c11 27 43 87 70 134 52 92
60 119 32 119 -11 -1 -27 -20 -42 -48z"/>
<path d="M9864 4302 c-6 -4 -11 -23 -11 -43 -1 -40 -45 -150 -104 -257 -36
-66 -44 -102 -22 -102 5 0 33 20 63 45 30 24 56 42 59 40 2 -3 -4 -23 -14 -45
-17 -37 -17 -42 -3 -57 15 -14 18 -11 37 32 38 87 22 131 -39 108 l-27 -10 43
98 c50 113 63 169 42 186 -7 7 -18 9 -24 5z"/>
<path d="M12355 4290 c-3 -5 -21 -53 -41 -107 -19 -54 -49 -129 -65 -166 -45
-101 -30 -122 41 -62 48 40 65 37 57 -12 -7 -41 0 -63 19 -63 8 0 14 1 14 3
14 88 11 115 -16 141 -13 14 -19 14 -43 1 l-28 -14 48 132 c27 73 49 135 49
138 0 11 -29 19 -35 9z"/>
<path d="M5337 4283 c-4 -3 -7 -19 -7 -34 0 -38 -24 -108 -66 -194 -19 -39
-34 -75 -34 -82 0 -26 21 -22 67 13 l48 37 5 -49 c4 -36 10 -50 23 -52 14 -3
17 5 17 51 0 61 -23 94 -59 82 -19 -6 -18 -2 10 75 31 86 38 160 16 160 -8 0
-17 -3 -20 -7z"/>
<path d="M12191 4223 c-21 -38 -42 -79 -46 -93 -11 -36 -24 -50 -50 -50 -29 0
-52 -25 -33 -36 7 -5 23 -7 35 -6 21 3 21 3 7 -50 -18 -69 -18 -80 3 -76 16 3
23 17 43 94 9 37 14 43 46 48 26 5 34 12 32 24 -3 11 -12 16 -27 14 -21 -2
-22 1 -16 25 3 16 24 56 46 91 44 72 47 82 19 82 -13 0 -31 -21 -59 -67z"/>
<path d="M5154 4233 c0 -27 -8 -74 -18 -105 -14 -47 -21 -58 -39 -58 -32 0
-51 -15 -44 -35 5 -11 13 -14 27 -10 23 7 25 -3 11 -53 -11 -37 -5 -65 13 -59
6 2 18 28 27 58 15 48 20 54 49 60 38 8 55 23 45 39 -4 7 -18 9 -37 4 -27 -5
-30 -4 -24 11 3 10 14 46 22 81 18 72 13 114 -14 114 -15 0 -18 -8 -18 -47z"/>
<path d="M4432 4253 c-59 -28 -73 -54 -91 -165 l-17 -103 -54 -12 c-30 -6 -57
-12 -59 -12 -2 -1 2 -8 10 -17 10 -12 23 -14 55 -9 l42 6 -15 -58 c-8 -32 -26
-77 -39 -101 -24 -40 -25 -62 -3 -62 19 0 66 90 84 163 19 76 19 76 54 79 25
2 37 8 39 21 3 14 -4 17 -33 17 -36 0 -37 1 -32 33 3 17 9 55 13 82 4 28 10
58 15 67 14 26 63 47 84 36 23 -14 43 5 26 25 -18 23 -46 26 -79 10z"/>
<path d="M6715 4256 c-15 -11 -17 -17 -8 -27 18 -22 -46 -124 -77 -124 -30 0
-37 -20 -13 -36 18 -11 18 -15 4 -69 -14 -53 -14 -60 2 -84 14 -21 25 -26 61
-26 72 0 106 10 106 31 0 18 -6 19 -70 13 -80 -8 -78 -10 -54 78 l17 58 53 0
c40 0 54 4 54 14 0 16 -21 26 -56 26 -30 0 -30 4 6 65 33 56 37 80 14 89 -20
8 -17 8 -39 -8z"/>
<path d="M2721 4219 c-47 -19 -161 -31 -175 -19 -11 8 -18 5 -34 -17 -10 -15
-19 -35 -19 -43 0 -8 -16 -69 -37 -134 -20 -65 -35 -124 -32 -132 4 -10 24
-14 73 -13 127 1 211 25 173 49 -8 6 -21 8 -28 5 -7 -2 -48 -8 -92 -11 -91 -8
-90 -8 -64 70 13 38 19 45 30 35 10 -8 38 -9 91 -5 95 9 113 14 113 31 0 20
-15 22 -100 12 -102 -11 -110 -6 -93 54 l13 46 63 7 c70 8 176 34 194 49 31
24 -26 36 -76 16z"/>
<path d="M12665 4180 c-10 -32 12 -51 31 -25 17 23 14 39 -8 43 -10 2 -19 -6
-23 -18z"/>
<path d="M4083 4183 c-22 -8 -15 -43 7 -43 13 0 20 7 20 19 0 22 -9 30 -27 24z"/>
<path d="M7047 4169 c-14 -8 -16 -14 -6 -25 22 -27 74 -9 62 22 -6 16 -31 18
-56 3z"/>
<path d="M9011 4121 c-13 -23 -5 -51 15 -51 8 0 14 3 15 8 0 4 2 15 4 24 2 9
-3 22 -10 28 -10 9 -16 7 -24 -9z"/>
<path d="M10495 4123 c-30 -6 -100 -57 -100 -73 0 -8 19 -28 42 -45 23 -16 42
-33 42 -38 1 -4 -19 -17 -44 -29 -38 -19 -48 -20 -69 -9 -28 15 -46 8 -46 -19
0 -37 63 -40 137 -6 39 19 54 32 59 52 6 24 2 32 -29 58 -21 17 -37 34 -37 37
0 4 17 15 37 24 26 12 38 14 41 6 6 -17 29 -13 36 5 13 33 -16 48 -69 37z"/>
<path d="M13785 4099 c-68 -60 -82 -114 -39 -148 42 -33 162 -23 148 13 -4 11
-18 13 -57 10 -29 -3 -59 0 -67 5 -13 9 -13 14 3 43 10 18 30 42 44 52 22 16
31 17 55 8 23 -9 30 -8 35 4 9 23 -17 44 -53 44 -23 0 -44 -10 -69 -31z"/>
<path d="M9370 4084 c-7 -18 -7 -31 -1 -37 15 -15 43 12 39 36 -5 31 -27 32
-38 1z"/>
<path d="M11570 4095 c-14 -7 -34 -12 -45 -9 -17 4 -27 -7 -58 -62 -20 -37
-37 -73 -37 -80 0 -31 21 -19 85 47 37 39 69 68 71 66 2 -2 -4 -23 -15 -47
-11 -24 -17 -49 -14 -57 8 -20 43 -16 43 6 0 10 9 39 20 65 16 35 18 50 10 66
-13 23 -26 25 -60 5z"/>
<path d="M14030 4096 c-37 -20 -75 -92 -60 -111 15 -18 43 -19 72 -4 26 14 31
8 19 -23 -11 -30 3 -58 29 -58 14 0 19 7 18 33 0 17 3 53 7 79 6 37 4 53 -9
73 -18 28 -39 31 -76 11z m50 -32 c0 -8 -25 -29 -53 -45 -16 -9 -17 -8 -8 10
15 27 61 54 61 35z"/>
<path d="M5497 4061 c-54 -59 -61 -136 -17 -176 26 -24 100 -15 180 21 44 20
60 32 60 47 0 22 -5 21 -95 -17 -73 -31 -111 -33 -125 -7 -17 33 -12 61 11 61
32 0 99 41 99 61 0 10 -7 25 -16 33 -26 27 -59 19 -97 -23z m63 -6 c0 -2 -10
-10 -22 -16 -21 -11 -22 -11 -9 4 13 16 31 23 31 12z"/>
<path d="M14277 4078 c-53 -86 -77 -130 -77 -138 0 -23 22 -16 81 25 l64 45 5
-53 c6 -61 14 -77 41 -77 20 0 26 24 8 35 -6 4 -10 34 -9 68 1 34 1 68 1 75
-1 19 -25 14 -64 -12 l-35 -24 13 33 c20 47 -2 65 -28 23z"/>
<path d="M3129 4052 c-33 -31 -42 -46 -46 -83 -5 -41 -2 -48 22 -67 32 -26
120 -30 150 -9 29 22 10 37 -40 30 -24 -3 -56 -2 -71 1 l-27 7 34 21 c48 28
89 69 89 88 0 14 -47 50 -64 50 -4 0 -25 -17 -47 -38z m40 -38 c-18 -13 -34
-24 -36 -24 -9 0 19 40 34 49 33 18 34 -1 2 -25z"/>
<path d="M2972 4049 c-9 -17 -30 -52 -46 -77 l-28 -46 -26 49 c-24 49 -38 65
-56 65 -11 0 -3 -33 27 -105 36 -84 51 -83 110 6 26 39 47 77 47 85 0 8 5 14
10 14 6 0 10 9 10 20 0 31 -29 24 -48 -11z"/>
<path d="M11731 4062 c-19 -14 -21 -23 -15 -60 8 -53 31 -68 78 -52 65 21 71
97 10 120 -36 14 -49 13 -73 -8z m70 -38 c11 -14 10 -18 -6 -30 -27 -20 -35
-17 -35 9 0 39 18 48 41 21z"/>
<path d="M3475 4058 c-63 -36 -143 -127 -130 -149 11 -17 24 -9 87 56 35 36
70 65 77 65 13 0 12 -40 -4 -102 -6 -24 -4 -28 13 -28 40 0 59 122 24 153 -22
20 -39 21 -67 5z"/>
<path d="M10060 4063 c-8 -3 -34 -26 -58 -51 -51 -54 -55 -97 -12 -120 44 -23
200 -2 200 27 0 16 -25 19 -81 8 -58 -10 -109 -4 -109 13 0 6 8 10 18 10 9 0
36 9 59 20 50 22 68 64 38 87 -20 14 -30 15 -55 6z m16 -48 c-11 -8 -22 -12
-25 -9 -6 6 19 24 34 24 6 -1 1 -7 -9 -15z"/>
<path d="M15432 4040 c-73 -45 -64 -107 14 -96 41 5 43 4 46 -22 2 -16 9 -27
18 -27 11 0 16 15 18 60 4 85 -2 105 -36 105 -15 0 -42 -9 -60 -20z m58 -30
c0 -10 -41 -30 -58 -30 -10 1 39 40 49 40 5 0 9 -5 9 -10z"/>
<path d="M15740 4049 c-13 -5 -32 -17 -42 -26 -9 -8 -24 -13 -32 -10 -8 3 -21
-2 -29 -11 -24 -26 -134 -265 -129 -280 7 -22 32 -13 43 16 5 15 28 57 50 93
39 66 41 67 77 62 30 -4 45 1 78 25 42 31 78 90 72 120 -4 20 -51 26 -88 11z
m41 -48 c-12 -22 -68 -71 -82 -71 -16 0 -10 36 9 53 16 15 58 35 75 36 4 1 3
-8 -2 -18z"/>
<path d="M16267 4039 c-44 -23 -73 -74 -63 -112 7 -31 67 -61 103 -53 33 9 24
28 -18 39 -55 14 -54 23 6 47 58 23 83 54 72 84 -9 22 -54 19 -100 -5z m53
-23 c0 -2 -7 -7 -16 -10 -8 -3 -12 -2 -9 4 6 10 25 14 25 6z"/>
<path d="M6976 4008 c-34 -59 -41 -92 -22 -107 18 -15 40 -5 32 16 -6 15 26
87 44 98 17 11 11 35 -10 35 -12 0 -28 -15 -44 -42z"/>
<path d="M7180 4033 c-72 -48 -124 -118 -98 -134 20 -13 31 -6 54 36 22 37 79
83 91 72 3 -4 -6 -22 -21 -41 -49 -65 -26 -82 38 -27 44 38 82 58 92 48 3 -3
-2 -19 -11 -37 -9 -17 -15 -41 -13 -53 4 -26 38 -37 38 -12 0 10 8 39 17 64 9
26 14 55 10 64 -7 19 -42 22 -80 8 -21 -8 -26 -6 -30 10 -6 24 -53 26 -87 2z"/>
<path d="M7767 4039 c-38 -22 -76 -131 -47 -137 11 -2 23 14 37 48 23 55 49
73 68 47 25 -35 46 -8 29 37 -7 18 -59 21 -87 5z"/>
<path d="M9560 4031 c-5 -11 -10 -33 -10 -50 0 -50 -17 -81 -44 -81 -34 0 -40
14 -20 45 15 23 15 25 -1 32 -23 8 -55 -29 -55 -63 0 -31 39 -56 81 -52 43 4
79 54 79 110 0 36 1 38 21 27 16 -8 24 -8 33 1 8 9 5 16 -13 31 -30 24 -57 24
-71 0z"/>
<path d="M16023 4037 c-57 -16 -118 -83 -160 -177 -19 -41 -43 -92 -54 -112
-21 -40 -19 -58 8 -58 10 0 13 -5 8 -17 -4 -10 -16 -42 -27 -70 -19 -51 -21
-53 -58 -53 -28 0 -42 -5 -49 -19 -14 -25 -4 -32 36 -25 l33 6 -3 -63 c-1 -51
1 -64 13 -64 10 0 17 17 23 55 4 30 12 59 16 63 5 5 36 12 68 16 42 4 58 10
58 21 0 12 -13 15 -56 15 l-55 0 28 75 c15 41 38 88 50 104 18 26 19 31 6 39
-12 8 -11 16 11 58 22 40 30 47 48 43 27 -7 109 38 117 64 9 30 10 87 2 100
-8 14 -7 14 -63 -1z m27 -61 c0 -27 -33 -56 -63 -56 -19 0 -19 1 -2 28 34 53
65 67 65 28z"/>
<path d="M7487 4009 c-30 -24 -37 -37 -37 -65 0 -64 53 -89 129 -63 21 8 31
17 29 28 -4 16 -12 17 -75 5 -42 -8 -43 9 -1 21 44 14 74 56 59 84 -17 31 -59
27 -104 -10z m58 -22 c-11 -8 -29 -17 -40 -20 -16 -6 -15 -3 5 13 14 11 32 20
40 20 10 0 9 -4 -5 -13z"/>
<path d="M9095 4026 c-39 -17 -117 -102 -113 -123 6 -30 23 -23 58 23 31 42
95 83 107 70 3 -2 -1 -20 -8 -39 -13 -36 -7 -71 12 -65 16 5 41 84 37 116 -2
22 -9 27 -33 29 -16 2 -43 -3 -60 -11z"/>
<path d="M12974 4006 c-58 -58 -40 -114 34 -103 20 3 45 8 54 12 15 6 15 0 -2
-77 -32 -137 -25 -128 -79 -121 -40 4 -49 2 -70 -20 -38 -42 -42 -200 -5 -214
21 -8 73 45 109 111 l30 55 33 -21 c26 -16 36 -18 45 -9 9 10 4 19 -25 42 -34
27 -36 33 -27 57 13 33 50 202 57 256 4 37 3 39 -22 34 -19 -4 -29 0 -37 13
-16 30 -57 23 -95 -15z m72 -31 c11 -23 10 -25 -23 -31 -45 -8 -52 1 -23 31
29 31 32 31 46 0z m-42 -303 c5 -8 -70 -142 -80 -142 -2 0 -4 27 -4 59 0 41 5
65 16 75 16 17 59 22 68 8z"/>
<path d="M4030 4009 c-18 -32 -18 -104 -1 -104 15 0 41 90 33 113 -6 18 -20
14 -32 -9z"/>
<path d="M12724 4023 c-42 -8 -113 -90 -99 -113 12 -19 30 -10 53 26 38 59 94
66 72 9 -13 -34 -6 -57 14 -49 17 6 36 55 36 91 0 16 -8 27 -26 33 -14 6 -26
9 -27 9 -1 -1 -12 -4 -23 -6z"/>
<path d="M8916 4008 c-29 -103 -29 -118 -1 -118 8 0 19 17 24 38 18 70 17 92
-4 92 -9 0 -17 -6 -19 -12z"/>
<path d="M12550 3980 c-23 -45 -26 -80 -7 -80 14 0 69 104 60 114 -15 15 -34
3 -53 -34z"/>
<path d="M16476 3953 c-50 -93 -35 -109 42 -46 33 27 44 32 38 18 -29 -71 -16
-85 78 -85 39 0 77 4 85 9 28 18 -1 31 -69 31 l-69 0 24 49 c14 27 25 53 25
59 0 20 -29 20 -64 1 -26 -14 -36 -16 -35 -7 7 59 -15 48 -55 -29z"/>
<path d="M9300 3990 c0 -12 -7 -35 -16 -52 -17 -32 -7 -55 18 -45 18 6 43 80
35 101 -9 23 -37 20 -37 -4z"/>
<path d="M17264 3798 c-4 -6 -8 -21 -9 -32 -3 -23 -48 -176 -72 -244 -12 -35
-17 -40 -27 -28 -18 24 -70 8 -115 -35 -45 -43 -51 -67 -23 -92 35 -32 77 -22
127 31 58 61 77 98 104 197 12 44 28 97 36 118 8 20 15 48 15 61 0 26 -25 42
-36 24z m-144 -373 c-33 -34 -63 -44 -74 -26 -9 15 53 61 82 61 l26 0 -34 -35z"/>
<path d="M3140 3753 c-82 -194 -82 -194 -120 -191 -26 2 -35 -1 -38 -15 -3
-12 5 -19 28 -23 30 -7 31 -8 24 -50 -6 -39 -3 -46 25 -74 25 -26 37 -31 68
-28 27 2 39 8 41 21 3 13 -4 17 -32 17 -42 0 -70 24 -62 54 3 12 6 26 6 33 0
6 15 13 33 15 37 4 45 31 9 36 -27 4 -26 9 23 117 38 82 47 126 28 132 -8 3
-21 -15 -33 -44z"/>
<path d="M3650 3753 c-11 -27 -38 -82 -59 -123 -51 -99 -83 -190 -79 -226 4
-36 32 -39 36 -4 6 48 35 126 74 200 41 78 78 166 78 188 0 31 -32 8 -50 -35z"/>
<path d="M13993 3770 c-57 -104 -136 -217 -190 -274 -35 -36 -63 -70 -63 -75
0 -26 24 -18 69 24 l50 46 3 -28 c2 -23 8 -29 35 -31 35 -3 93 23 141 63 l31
26 -9 -31 c-16 -57 16 -100 74 -100 46 0 76 80 33 88 -12 3 -17 -3 -17 -22 0
-29 -29 -36 -49 -13 -15 18 -3 54 53 159 81 154 56 159 -66 13 -76 -91 -141
-144 -177 -145 -26 0 -4 63 59 170 62 104 76 149 53 157 -7 3 -21 -10 -30 -27z"/>
<path d="M16077 3793 c-2 -5 -10 -26 -17 -48 -7 -22 -32 -79 -56 -127 -46 -92
-69 -168 -59 -199 9 -26 22 -24 56 11 31 31 89 74 89 67 0 -2 -9 -26 -21 -51
-16 -37 -18 -50 -9 -62 19 -22 40 -17 40 10 0 13 9 45 21 70 16 37 18 50 9 62
-19 22 -53 17 -99 -18 -43 -31 -43 -31 -36 -7 4 13 23 56 43 94 44 89 83 191
75 199 -9 8 -31 8 -36 -1z"/>
<path d="M4716 3778 c-57 -188 -55 -186 -82 -192 -14 -4 -34 -4 -45 -1 -13 4
-21 1 -26 -10 -8 -23 15 -37 55 -31 37 5 36 9 18 -69 -15 -63 -14 -75 9 -75
15 0 18 9 35 92 l11 57 52 3 c40 2 53 7 55 21 3 14 -4 17 -46 17 l-49 0 25 84
c24 81 25 116 2 116 -6 0 -12 -6 -14 -12z"/>
<path d="M4895 3778 c-3 -7 -16 -47 -29 -89 -14 -42 -43 -118 -66 -170 -23
-52 -44 -100 -47 -106 -3 -7 2 -16 12 -19 11 -5 30 6 59 35 23 22 45 41 48 41
4 0 8 -21 10 -47 2 -35 7 -48 18 -48 25 0 26 96 1 126 -17 21 -22 22 -40 11
-26 -15 -26 -14 3 56 35 83 69 200 61 212 -9 14 -25 13 -30 -2z"/>
<path d="M12017 3770 c-8 -11 -33 -64 -57 -119 l-42 -99 -44 -7 c-27 -4 -44
-11 -44 -20 0 -17 22 -25 50 -18 21 6 21 5 6 -32 -21 -48 -21 -85 -1 -85 9 0
17 6 19 13 2 6 11 33 21 60 16 45 18 47 57 47 32 0 39 3 36 17 -2 10 -15 20
-30 23 l-27 5 35 79 c19 43 41 88 49 100 8 11 15 26 15 32 0 21 -29 24 -43 4z"/>
<path d="M12101 3618 c-39 -77 -79 -150 -86 -162 -19 -26 -19 -56 -2 -56 8 0
41 27 74 60 85 85 126 79 62 -9 -30 -42 -35 -76 -12 -76 17 0 83 105 83 131 0
45 -47 67 -91 44 -10 -6 -19 -8 -19 -5 0 3 20 44 45 91 25 46 45 94 45 104 0
49 -32 10 -99 -122z"/>
<path d="M9476 3738 c-1 -7 -17 -56 -35 -108 -66 -190 -73 -240 -33 -240 15 0
19 8 19 43 0 24 16 83 37 137 45 118 56 180 32 180 -9 0 -18 -6 -20 -12z"/>
<path d="M14554 3729 c-5 -8 -50 -10 -148 -8 -123 4 -141 2 -144 -12 -2 -13
10 -17 65 -22 37 -4 101 -7 141 -7 39 0 72 -2 72 -5 0 -3 -11 -27 -24 -53 -39
-76 -51 -128 -36 -147 19 -23 34 -13 36 24 1 18 17 66 35 106 l34 73 81 7 c45
3 104 6 130 5 70 -2 74 -2 74 15 0 21 -59 29 -176 21 -66 -4 -105 -3 -109 4
-8 13 -22 13 -31 -1z"/>
<path d="M3390 3635 c0 -8 9 -19 20 -25 16 -9 22 -8 26 4 3 8 3 20 -1 26 -9
15 -45 12 -45 -5z"/>
<path d="M10963 3621 c-48 -12 -98 -45 -101 -67 -2 -12 8 -32 23 -47 40 -39
30 -61 -28 -65 -35 -2 -49 1 -53 12 -10 25 -34 19 -34 -9 0 -32 26 -45 89 -45
38 0 56 5 71 20 28 28 26 74 -6 104 l-27 24 34 17 c18 10 51 18 72 18 33 0 38
2 35 21 -3 23 -26 29 -75 17z"/>
<path d="M6085 3611 c-36 -15 -128 -124 -148 -176 -41 -106 -127 -351 -127
-362 0 -25 29 -13 48 20 10 17 41 89 68 159 l49 128 42 0 c77 0 133 71 133
168 0 65 -18 82 -65 63z m20 -118 c-12 -51 -95 -97 -108 -60 -7 19 11 47 62
100 l46 48 3 -32 c2 -17 1 -43 -3 -56z"/>
<path d="M8871 3538 c-87 -82 -126 -158 -81 -158 12 0 26 12 36 33 16 30 108
139 124 145 3 1 12 -9 18 -23 7 -15 20 -25 32 -25 25 0 25 10 -1 54 -30 51
-53 46 -128 -26z"/>
<path d="M9663 3571 c-37 -23 -83 -97 -83 -133 0 -38 29 -58 86 -58 27 0 66 5
86 10 73 21 57 54 -17 38 -66 -14 -110 -7 -110 17 0 16 7 20 33 22 43 2 80 27
88 60 14 54 -29 77 -83 44z m37 -46 c-7 -8 -20 -15 -29 -15 -12 1 -11 5 8 21
26 22 41 18 21 -6z"/>
<path d="M12331 3553 c-17 -21 -38 -45 -45 -53 -17 -18 -10 -78 12 -102 20
-23 65 -23 144 2 77 24 108 44 92 60 -9 9 -29 5 -83 -14 -86 -31 -131 -34
-131 -8 1 11 20 26 53 42 43 21 53 30 55 55 3 19 -2 33 -14 42 -29 21 -50 15
-83 -24z m45 -29 c-11 -7 -22 -11 -25 -8 -3 3 3 12 13 20 11 7 22 11 25 8 3
-3 -3 -12 -13 -20z"/>
<path d="M6291 3555 c-30 -26 -45 -60 -55 -128 -4 -29 -1 -40 11 -44 20 -8 33
14 33 55 0 40 27 90 52 98 9 3 28 -2 42 -12 24 -15 26 -15 33 1 8 22 -29 55
-62 55 -13 0 -37 -11 -54 -25z"/>
<path d="M10288 3569 c-33 -13 -42 -46 -27 -104 14 -55 5 -98 -19 -93 -11 2
-17 13 -17 33 -1 23 -5 30 -20 30 -16 0 -20 -7 -20 -34 0 -42 40 -77 78 -67
39 9 53 55 39 129 -12 66 -8 77 35 77 27 0 40 19 22 31 -17 11 -36 10 -71 -2z"/>
<path d="M10563 3557 c-37 -25 -103 -114 -103 -138 0 -42 77 -67 160 -52 30 6
46 14 48 25 3 15 -6 17 -76 15 -44 -1 -83 1 -87 5 -5 4 -1 17 6 29 11 15 27
22 62 24 56 3 87 26 87 65 0 53 -42 64 -97 27z m57 -32 c0 -8 -6 -15 -14 -15
-8 0 -23 -3 -33 -6 -13 -4 -11 0 7 15 30 25 40 26 40 6z"/>
<path d="M2425 3501 c-31 -39 -72 -82 -91 -97 -36 -29 -43 -51 -20 -60 8 -3
29 10 50 33 l35 38 1 -28 c0 -19 7 -31 24 -38 23 -11 47 -3 98 33 14 10 20 8
37 -13 15 -18 22 -21 31 -13 8 8 9 18 2 31 -8 13 -4 33 14 76 23 54 24 77 4
77 -4 0 -24 -22 -44 -50 -38 -53 -118 -118 -124 -101 -6 19 20 85 49 125 16
21 26 43 23 48 -12 20 -35 4 -89 -61z"/>
<path d="M5071 3544 c-11 -15 -21 -30 -21 -35 0 -5 -14 -15 -30 -24 -30 -15
-30 -16 -13 -43 29 -46 55 -62 103 -61 65 1 124 21 128 43 4 17 0 18 -29 12
-83 -18 -134 -19 -147 -3 -11 13 -6 17 37 32 51 17 62 32 51 75 -9 37 -51 39
-79 4z"/>
<path d="M9991 3539 c-33 -33 -47 -69 -37 -95 5 -12 16 -15 44 -12 20 3 44 8
53 12 13 6 15 1 11 -24 -5 -34 12 -60 39 -60 26 0 32 16 13 34 -14 14 -14 23
-4 65 10 41 9 54 -4 80 -23 43 -72 43 -115 0z m79 -24 c0 -16 -55 -48 -73 -42
-15 5 37 57 58 57 8 0 15 -7 15 -15z"/>
<path d="M16544 3560 c-31 -12 -94 -93 -94 -122 0 -40 29 -58 94 -58 49 0 57
2 54 18 -2 12 -16 18 -52 22 -62 6 -70 25 -15 34 86 14 122 53 82 88 -26 22
-45 26 -69 18z m34 -51 c-7 -5 -19 -9 -27 -9 -11 0 -11 3 -1 14 6 8 18 12 27
9 12 -5 12 -7 1 -14z"/>
<path d="M16256 3539 c-36 -28 -59 -76 -51 -106 8 -33 40 -27 41 7 2 58 49 96
82 67 17 -15 42 -13 42 4 0 18 -40 49 -64 49 -13 0 -35 -9 -50 -21z"/>
<path d="M16829 3544 c-43 -23 -79 -62 -73 -79 8 -19 46 -29 84 -21 22 4 30 2
30 -9 0 -8 9 -19 20 -25 20 -11 25 -5 21 27 -1 7 5 29 14 49 8 20 14 38 13 39
-2 0 -15 9 -30 18 -32 20 -44 20 -79 1z m31 -49 c-7 -8 -22 -15 -34 -15 -18 0
-17 2 9 19 34 21 44 19 25 -4z"/>
<path d="M2771 3515 c-46 -25 -97 -95 -87 -121 9 -23 22 -17 57 30 40 52 86
83 101 68 7 -7 5 -25 -6 -58 -11 -34 -13 -51 -5 -58 14 -14 36 16 50 69 23 82
-29 115 -110 70z"/>
<path d="M6451 3521 c-11 -11 -29 -24 -40 -31 -29 -15 -54 -67 -47 -96 4 -13
17 -31 31 -40 54 -36 155 39 155 116 0 62 -58 92 -99 51z m57 -53 c2 -18 -6
-33 -33 -57 -39 -34 -52 -35 -69 -7 -9 14 -5 23 24 46 19 16 40 33 45 39 16
16 30 7 33 -21z"/>
<path d="M9053 3511 c-74 -53 -93 -106 -51 -135 44 -31 209 -10 216 28 3 16 0
18 -30 12 -83 -15 -155 -18 -163 -6 -12 20 9 32 37 20 21 -10 32 -8 67 9 48
25 56 60 19 85 -32 23 -49 20 -95 -13z m72 -21 c7 -11 -35 -31 -49 -22 -5 3
-1 11 9 19 22 16 32 16 40 3z"/>
<path d="M6833 3483 c-15 -27 -32 -51 -38 -55 -33 -24 -34 11 0 40 28 24 25
42 -5 42 -30 0 -61 -48 -58 -89 3 -31 7 -36 31 -39 15 -2 27 -5 27 -6 0 -2 -4
-16 -9 -32 -6 -16 -19 -60 -30 -99 -20 -69 -21 -70 -55 -71 -20 0 -44 -9 -55
-18 -28 -25 -53 -106 -49 -158 3 -36 7 -44 26 -46 38 -6 69 23 103 95 17 38
33 70 35 72 2 2 22 -4 43 -14 40 -18 78 -14 65 6 -3 6 -26 20 -50 31 -24 10
-44 22 -44 25 0 4 16 59 36 122 26 86 43 121 61 137 19 15 26 30 25 52 -2 67
-22 68 -59 5z m-123 -353 c0 -19 -47 -115 -63 -129 -15 -12 -17 -11 -17 11 0
33 19 89 38 111 16 18 42 23 42 7z"/>
<path d="M7079 3514 c-26 -7 -51 -20 -56 -26 -12 -16 -43 -106 -43 -126 0 -32
34 -3 54 47 19 47 27 56 61 68 54 19 67 12 52 -27 -16 -43 -1 -64 51 -68 30
-2 43 -8 47 -23 4 -10 15 -19 27 -19 17 0 19 4 14 25 -4 16 1 39 14 65 26 50
25 61 -6 84 -23 16 -31 17 -64 7 -26 -8 -46 -8 -65 -1 -32 12 -28 12 -86 -6z
m168 -70 c-24 -20 -67 -33 -67 -20 0 19 18 40 44 51 45 19 59 1 23 -31z"/>
<path d="M7480 3508 c-19 -12 -43 -21 -52 -19 -13 1 -18 -4 -18 -19 0 -12 -11
-35 -25 -52 -28 -34 -31 -44 -11 -51 8 -3 38 20 72 54 59 60 83 75 64 40 -5
-11 -10 -24 -10 -30 0 -17 40 -13 75 9 l31 19 -4 -29 c-10 -69 47 -78 181 -28
35 13 40 54 5 43 -83 -26 -138 -38 -145 -31 -4 4 3 26 16 48 32 55 17 68 -48
40 l-50 -20 -3 21 c-4 30 -36 32 -78 5z"/>
<path d="M3325 3477 c-31 -54 -34 -97 -5 -97 13 0 20 7 20 20 0 26 26 77 42
82 16 6 2 38 -16 38 -8 0 -27 -20 -41 -43z"/>
<path d="M14445 3409 c-33 -5 -79 -6 -102 -3 -44 5 -57 -3 -43 -26 10 -17 68
-17 250 -3 83 6 105 11 105 23 0 12 -16 15 -75 16 -41 1 -102 -2 -135 -7z"/>
<path d="M7761 3322 c-5 -10 -21 -61 -36 -113 -15 -51 -46 -136 -71 -188 -71
-150 -56 -172 44 -64 61 66 62 67 47 29 -22 -56 -20 -96 5 -96 14 0 20 7 20
23 0 12 7 41 15 65 26 75 -1 119 -49 81 -30 -23 -32 -19 -11 20 8 16 24 66 36
112 11 46 27 94 35 107 8 12 12 27 9 32 -10 16 -34 11 -44 -8z"/>
<path d="M10131 3289 c-24 -26 -66 -109 -76 -152 -6 -22 -11 -26 -31 -21 -18
5 -24 2 -24 -10 0 -9 6 -19 13 -21 8 -4 12 -27 12 -69 0 -73 22 -115 68 -127
35 -9 82 3 82 22 0 10 -13 14 -43 15 -26 0 -48 7 -53 15 -14 22 -22 77 -15
104 6 22 12 25 49 25 52 1 116 15 131 30 18 18 -11 29 -53 19 -20 -5 -51 -9
-69 -9 -30 0 -33 2 -27 23 10 32 41 98 62 129 25 39 4 59 -26 27z"/>
<path d="M2924 3288 c-6 -7 -15 -24 -21 -38 -7 -14 -29 -63 -51 -110 -53 -114
-62 -144 -62 -202 0 -46 2 -50 35 -64 38 -15 132 -19 154 -5 26 17 -1 31 -59
31 -32 0 -65 3 -74 6 -19 7 -22 70 -5 108 11 22 19 25 73 28 46 2 61 7 61 18
0 11 -14 16 -52 18 -29 2 -53 4 -53 6 0 1 12 27 26 56 14 30 30 64 35 75 5 11
15 28 21 37 10 14 10 21 -3 33 -13 13 -18 13 -25 3z"/>
<path d="M13796 3253 c-202 -30 -255 -35 -323 -31 -65 4 -73 3 -73 -12 0 -10
7 -21 16 -24 25 -9 145 -7 229 5 42 6 79 8 82 6 2 -3 -7 -31 -20 -63 -40 -94
-58 -169 -55 -221 3 -41 6 -48 25 -51 21 -3 22 0 17 45 -4 31 0 68 11 106 21
71 73 189 89 199 6 4 64 8 129 8 97 0 117 3 117 15 0 27 -120 36 -244 18z"/>
<path d="M7545 3248 c-50 -163 -57 -178 -79 -178 -27 0 -66 -26 -66 -44 0 -20
27 -27 40 -10 7 8 19 14 26 14 14 0 12 -25 -7 -100 -12 -48 -12 -50 10 -50 22
0 27 10 36 76 11 73 20 84 65 84 28 0 40 4 40 14 0 15 -21 26 -51 26 -23 0
-23 -3 2 81 21 68 20 99 -1 99 -6 0 -12 -6 -15 -12z"/>
<path d="M14121 3238 c-37 -94 -75 -178 -119 -263 -32 -62 -48 -103 -42 -109
14 -14 53 7 107 56 l46 43 -7 -67 c-6 -58 -4 -68 9 -68 20 0 35 40 35 95 0 61
-8 75 -40 75 -20 0 -36 -10 -55 -32 -23 -28 -21 -22 13 47 21 44 49 107 62
140 13 33 27 65 32 72 6 7 7 17 3 23 -11 18 -35 11 -44 -12z"/>
<path d="M4916 3201 c-9 -14 4 -41 19 -41 21 0 28 19 15 35 -14 17 -26 19 -34
6z"/>
<path d="M3930 3140 c-23 -23 -24 -36 -9 -99 7 -31 6 -54 -1 -77 -10 -28 -16
-34 -41 -34 -36 0 -48 24 -25 49 27 30 -9 45 -38 15 -41 -41 4 -108 69 -102
70 6 88 54 73 198 -3 24 0 25 47 25 39 0 49 3 47 15 -5 22 -22 30 -64 30 -25
0 -45 -7 -58 -20z"/>
<path d="M16540 3126 c-10 -13 -10 -19 0 -31 7 -8 16 -15 20 -15 15 0 20 34 7
47 -12 12 -16 12 -27 -1z"/>
<path d="M8843 3090 c-91 -55 -142 -188 -85 -219 41 -22 109 -23 155 -3 24 11
48 25 51 31 13 20 -23 24 -66 6 -28 -11 -54 -14 -80 -10 -44 8 -52 17 -44 49
4 18 11 22 34 18 35 -5 115 53 120 86 7 47 -40 70 -85 42z m17 -62 c-48 -39
-61 -35 -20 7 18 19 38 31 43 28 6 -4 -4 -19 -23 -35z"/>
<path d="M4143 3080 c-60 -36 -81 -115 -44 -161 15 -19 29 -24 63 -24 23 0 51
4 62 8 15 6 16 10 5 23 -9 11 -22 14 -47 9 -56 -10 -87 28 -32 40 39 8 90 51
90 75 0 40 -54 57 -97 30z m30 -51 c-40 -27 -53 -23 -20 6 16 14 33 22 39 19
5 -4 -3 -15 -19 -25z"/>
<path d="M5319 3076 c-40 -27 -59 -68 -59 -126 0 -46 24 -70 80 -77 34 -5 55
0 111 27 66 32 85 55 55 66 -7 3 -37 -9 -65 -25 -29 -17 -62 -31 -74 -31 -77
1 -92 38 -22 59 64 19 106 81 72 109 -28 24 -62 23 -98 -2z m65 -25 c7 -11
-22 -37 -51 -45 -31 -10 -29 8 3 33 29 23 40 26 48 12z"/>
<path d="M16920 3078 c-18 -13 -46 -42 -63 -65 -33 -47 -32 -78 4 -114 20 -20
30 -21 131 -17 85 4 113 8 126 22 23 23 1 37 -42 25 -17 -5 -66 -9 -108 -9
-67 0 -79 3 -88 20 -8 15 -8 21 2 24 47 12 95 30 107 39 22 18 32 56 21 78
-14 25 -50 24 -90 -3z m54 -32 c-3 -8 -20 -19 -37 -25 l-32 -11 28 25 c31 28
49 32 41 11z"/>
<path d="M5050 3063 c-80 -53 -103 -109 -61 -147 27 -24 134 -19 139 7 3 15
-5 17 -57 17 -53 0 -61 2 -61 19 0 10 16 33 37 51 30 26 42 31 69 27 37 -6 52
6 34 28 -17 20 -70 19 -100 -2z"/>
<path d="M7894 3024 c-56 -65 -64 -114 -24 -146 27 -22 38 -22 114 -1 73 19
90 31 76 48 -8 9 -25 8 -79 -8 -78 -23 -108 -19 -91 13 6 11 16 20 23 20 7 0
34 13 60 30 51 32 61 62 30 86 -34 26 -60 16 -109 -42z m81 6 c-3 -5 -15 -15
-26 -21 -19 -10 -20 -9 -9 10 6 12 18 21 26 21 8 0 12 -4 9 -10z"/>
<path d="M9213 3067 c-6 -6 -13 -20 -16 -30 -14 -38 -80 -127 -94 -127 -12 0
-14 12 -11 63 3 58 2 62 -19 65 -22 3 -23 0 -23 -57 0 -83 12 -111 48 -111 59
0 175 178 133 204 -5 3 -13 0 -18 -7z"/>
<path d="M16655 3063 c-72 -38 -89 -72 -59 -118 16 -25 16 -25 -21 -41 -20 -8
-51 -14 -68 -12 -26 2 -32 -1 -32 -17 0 -39 94 -31 145 11 33 28 38 55 15 74
-8 7 -15 19 -15 26 0 15 76 58 88 50 5 -3 14 0 22 5 13 8 12 12 -4 24 -24 19
-33 18 -71 -2z"/>
<path d="M4403 3058 c-44 -21 -69 -113 -38 -138 21 -18 30 -6 31 42 0 54 23
71 86 64 53 -6 73 9 43 31 -22 15 -91 16 -122 1z"/>
<path d="M9360 3048 c-66 -45 -110 -142 -78 -174 32 -32 168 -23 168 11 0 22
-11 24 -68 12 -58 -12 -75 -5 -66 31 4 15 18 25 43 32 47 12 84 50 79 82 -4
32 -36 34 -78 6z"/>
<path d="M3092 3037 c-28 -30 -30 -96 -4 -120 59 -54 165 41 128 114 -17 36
-93 39 -124 6z m91 -23 c8 -8 -11 -57 -26 -66 -23 -15 -47 -9 -47 12 0 38 51
76 73 54z"/>
<path d="M12315 3041 c-50 -22 -91 -69 -106 -121 -24 -80 31 -110 153 -83 53
11 72 21 86 41 32 45 10 70 -27 31 -25 -27 -124 -51 -157 -39 -48 19 -20 65
44 73 60 7 92 31 92 67 0 19 -7 33 -19 40 -24 12 -18 13 -66 -9z m40 -40 c-6
-5 -21 -12 -35 -15 -24 -7 -24 -6 -6 8 21 17 57 23 41 7z"/>
<path d="M4661 2989 l-44 -62 -11 34 c-13 40 -42 47 -39 9 3 -45 21 -80 42
-80 18 0 111 94 111 112 0 5 7 8 16 8 23 0 13 34 -11 38 -15 2 -32 -13 -64
-59z"/>
<path d="M9689 3021 c-13 -10 -33 -20 -44 -22 -37 -7 -78 -119 -44 -119 6 0
35 27 66 60 67 71 84 76 75 23 -11 -69 -9 -88 12 -88 15 0 20 9 22 40 2 22 6
50 9 63 13 56 -46 83 -96 43z"/>
<path d="M11936 3000 c-20 -51 -21 -104 -1 -120 31 -26 98 -24 153 4 61 31 85
62 80 108 -5 50 -36 51 -40 1 -2 -30 -10 -42 -37 -60 -43 -29 -73 -37 -106
-29 -29 7 -34 45 -10 86 20 34 18 50 -4 50 -13 0 -24 -13 -35 -40z"/>
<path d="M16438 3023 c-44 -52 -70 -124 -50 -137 14 -8 26 7 51 62 14 28 28
52 33 52 4 0 8 9 8 20 0 25 -22 26 -42 3z"/>
<path d="M11659 3007 c-78 -51 -82 -136 -9 -158 52 -16 133 -1 138 25 4 17 -1
18 -56 11 -90 -10 -106 5 -37 34 67 28 83 52 60 87 -20 30 -52 31 -96 1z m61
-25 c0 -9 -44 -32 -58 -32 -10 1 38 40 49 40 5 0 9 -4 9 -8z"/>
<path d="M15336 3010 c-21 -11 -44 -24 -51 -30 -9 -8 -14 -5 -18 11 -10 38
-38 18 -57 -41 -9 -30 -42 -106 -73 -169 -31 -62 -54 -117 -51 -122 10 -17 39
-9 53 14 8 12 29 58 47 102 21 52 37 79 46 76 7 -2 27 -6 44 -9 68 -9 147 66
148 141 1 38 -2 42 -24 44 -14 2 -42 -6 -64 -17z m54 -36 c0 -27 -74 -94 -103
-94 -14 0 -28 4 -31 9 -10 16 93 95 132 101 1 0 2 -7 2 -16z"/>
<path d="M15575 3016 c-40 -17 -68 -61 -69 -105 -1 -48 26 -49 35 -1 10 48 50
80 100 80 33 0 40 3 37 18 -4 22 -61 27 -103 8z"/>
<path d="M15691 2983 c-45 -52 -51 -81 -23 -106 33 -30 80 -22 123 22 42 42
49 72 23 109 -10 15 -25 22 -49 22 -28 0 -41 -8 -74 -47z m97 -14 c4 -20 -45
-69 -69 -69 -31 0 -30 18 2 55 32 36 61 43 67 14z"/>
<path d="M15992 2971 c-18 -32 -39 -64 -47 -71 -17 -14 -20 -36 -5 -45 5 -3
42 21 82 54 40 32 74 58 76 56 2 -2 -2 -13 -8 -25 -22 -41 3 -45 71 -12 35 17
65 30 66 28 2 -1 -2 -17 -7 -35 -7 -26 -5 -36 11 -52 10 -10 26 -19 34 -19 17
0 20 26 4 35 -6 5 -8 27 -3 61 8 70 -9 79 -76 42 l-47 -26 5 24 c7 36 -23 42
-72 14 -23 -12 -35 -17 -28 -9 18 19 15 39 -7 39 -12 0 -29 -19 -49 -59z"/>
<path d="M14298 2990 c-55 -46 -83 -96 -70 -125 6 -14 23 -27 38 -31 38 -10
217 2 243 15 46 25 16 43 -50 30 -59 -11 -186 -11 -193 0 -3 5 11 12 32 16 20
3 56 15 80 25 33 15 42 24 42 43 0 30 -29 57 -61 57 -13 0 -41 -14 -61 -30z
m82 -19 c0 -5 -14 -14 -31 -20 -43 -15 -45 -14 -24 9 18 20 55 28 55 11z"/>
<path d="M4795 2973 c-16 -38 -8 -83 14 -83 14 0 18 9 26 68 6 44 4 52 -9 52
-9 0 -23 -17 -31 -37z"/>
<path d="M11307 2998 c-20 -16 -47 -79 -47 -112 0 -53 79 -82 139 -52 42 22
103 94 99 118 -4 28 -26 35 -34 11 -23 -63 -90 -111 -139 -99 -32 8 -33 35 -3
87 24 43 16 69 -15 47z"/>
<path d="M11054 2981 c-34 -21 -74 -71 -74 -93 0 -38 46 -47 112 -24 l37 13
-36 -71 c-19 -39 -65 -119 -100 -178 -47 -77 -66 -118 -67 -144 -2 -55 19 -52
59 9 43 65 72 80 131 71 39 -6 44 -4 44 14 0 33 -20 41 -73 31 -27 -5 -53 -11
-58 -14 -16 -10 -10 3 28 62 35 56 124 235 137 280 17 53 -77 83 -140 44z m86
-36 c0 -17 -73 -55 -105 -55 -17 1 -14 6 17 35 40 37 88 48 88 20z"/>
<path d="M12662 2874 c2 -11 11 -20 22 -22 13 -3 17 1 14 14 -2 11 -11 20 -22
22 -13 3 -17 -1 -14 -14z"/>
<path d="M12024 2782 c-6 -4 -19 -33 -28 -64 -9 -31 -21 -58 -28 -60 -18 -6 0
-40 19 -36 12 2 25 24 38 63 11 33 24 63 29 66 10 8 1 39 -11 39 -4 0 -13 -4
-19 -8z"/>
<path d="M2902 2761 c-6 -3 -16 -29 -22 -56 -16 -74 -80 -265 -89 -265 -12 0
-31 -48 -31 -80 0 -42 29 -55 88 -40 93 23 133 75 110 146 -14 42 -46 57 -74
33 -24 -20 -24 -6 1 74 14 42 28 95 31 117 4 22 10 40 15 40 14 0 10 27 -4 33
-8 3 -19 2 -25 -2z m22 -317 c9 -35 -20 -67 -75 -83 -23 -7 -43 -11 -45 -9 -4
5 98 118 107 118 4 0 10 -12 13 -26z"/>
<path d="M4044 2732 c-6 -4 -23 -33 -37 -65 -26 -56 -28 -58 -57 -52 -26 6
-30 4 -30 -15 0 -14 8 -24 21 -27 14 -4 18 -11 13 -22 -3 -9 -9 -35 -11 -58
-5 -38 -2 -46 30 -78 30 -30 42 -35 80 -35 59 0 107 17 100 36 -4 11 -18 13
-68 8 -55 -6 -65 -4 -84 15 -24 24 -26 38 -9 92 l11 39 54 0 c46 0 54 3 51 18
-2 12 -14 18 -41 20 -20 2 -37 5 -37 8 0 3 9 23 21 46 21 41 17 86 -7 70z"/>
<path d="M5144 2703 c-3 -16 -18 -57 -34 -93 -92 -209 -111 -306 -57 -298 12
2 35 21 52 44 16 22 40 54 53 70 l23 29 -7 -55 c-12 -95 -11 -105 11 -105 13
0 21 7 22 20 16 156 16 175 -1 181 -27 10 -63 -15 -98 -69 -18 -28 -34 -45
-36 -38 -4 12 42 135 90 236 34 72 36 105 8 105 -13 0 -22 -9 -26 -27z"/>
<path d="M7449 2710 c-60 -31 -146 -117 -173 -172 -32 -64 -32 -99 -2 -165 33
-69 61 -83 168 -82 96 0 151 16 156 43 3 16 0 18 -25 11 -15 -4 -67 -9 -116
-12 -105 -6 -127 4 -152 72 -15 38 -16 52 -7 84 18 58 64 114 132 159 89 60
135 55 135 -14 0 -44 18 -54 38 -22 27 42 30 67 10 75 -10 3 -29 15 -42 25
-30 23 -76 22 -122 -2z"/>
<path d="M9274 2683 c-8 -21 -27 -64 -41 -96 -25 -54 -29 -58 -58 -55 -26 3
-30 0 -30 -22 0 -19 5 -25 21 -24 19 0 20 -4 16 -47 -4 -43 -1 -51 27 -79 28
-29 35 -31 88 -28 46 2 59 7 61 21 3 14 -5 17 -52 17 -63 0 -86 16 -86 60 0
53 8 60 65 60 63 0 85 7 85 26 0 10 -15 14 -59 14 l-60 0 29 63 c39 83 48 127
26 127 -10 0 -23 -15 -32 -37z"/>
<path d="M8757 2703 c-4 -3 -7 -15 -7 -25 0 -10 -31 -79 -70 -153 -75 -144
-90 -205 -50 -205 16 0 20 7 20 32 0 19 25 78 65 154 72 137 94 204 66 204
-10 0 -21 -3 -24 -7z"/>
<path d="M13647 2703 c-4 -3 -7 -13 -7 -22 0 -8 -32 -84 -71 -168 -65 -139
-77 -183 -50 -183 5 0 24 32 42 70 17 39 35 70 40 70 11 0 79 -110 86 -140 12
-53 43 -63 43 -14 0 28 -31 94 -66 141 -31 41 -30 43 9 43 37 0 122 38 154 69
33 31 55 79 48 101 -9 28 -46 34 -123 22 -56 -10 -68 -9 -75 3 -9 16 -20 19
-30 8z m176 -75 c-24 -42 -106 -87 -155 -88 -42 0 -43 2 -27 33 33 60 77 83
167 86 l34 1 -19 -32z"/>
<path d="M15277 2663 c-13 -21 -35 -57 -48 -80 -22 -39 -28 -42 -69 -45 -33
-2 -46 -7 -48 -20 -3 -15 4 -18 38 -18 39 0 40 -1 29 -21 -14 -28 -6 -106 14
-126 34 -34 187 -40 187 -7 0 8 -3 14 -7 15 -5 0 -36 2 -70 3 -35 2 -70 9 -78
16 -17 14 -20 57 -5 94 9 25 13 26 90 26 72 0 81 2 78 18 -3 13 -17 18 -70 22
l-67 5 34 55 c19 30 35 63 35 72 0 33 -20 28 -43 -9z"/>
<path d="M3176 2623 c-14 -15 -5 -43 14 -43 13 0 20 7 20 19 0 19 -23 35 -34
24z"/>
<path d="M14297 2613 c-13 -12 -7 -41 9 -47 22 -9 34 1 34 30 0 17 -6 24 -18
24 -10 0 -22 -3 -25 -7z"/>
<path d="M9600 2553 c-78 -52 -103 -99 -76 -150 22 -43 56 -57 121 -50 61 6
145 48 145 72 0 21 -27 19 -66 -5 -41 -26 -128 -38 -149 -20 -19 16 -19 30 0
30 29 0 90 38 104 64 12 22 12 28 -3 51 -19 29 -40 31 -76 8z m45 -44 c-9 -14
-65 -41 -77 -37 -6 2 7 15 28 30 37 24 61 28 49 7z"/>
<path d="M5666 2537 c-15 -11 -17 -21 -12 -48 18 -89 18 -95 -2 -119 -17 -20
-23 -23 -34 -12 -10 10 -10 16 0 32 16 26 15 40 -2 40 -50 0 -61 -83 -14 -109
22 -13 30 -13 51 -2 52 28 67 90 42 169 -7 20 -4 22 25 22 25 0 31 4 28 18 -4
22 -56 28 -82 9z"/>
<path d="M14464 2531 c-43 -26 -69 -92 -52 -129 18 -37 54 -53 113 -50 38 2
51 7 53 21 3 14 -4 17 -46 17 -97 0 -108 23 -29 60 57 27 69 50 41 81 -22 24
-41 24 -80 0z m56 -26 c0 -2 -15 -12 -32 -21 l-33 -17 19 22 c17 19 46 29 46
16z"/>
<path d="M3330 2504 c-17 -20 -35 -47 -40 -60 -20 -51 14 -117 67 -130 41 -11
117 8 121 29 3 17 -1 18 -51 12 -61 -8 -92 3 -100 36 -3 11 -3 19 0 16 8 -9
67 14 91 36 27 25 28 58 4 80 -29 26 -57 20 -92 -19z m70 -19 c0 -15 -29 -35
-51 -35 -7 0 -2 11 11 25 27 28 40 32 40 10z"/>
<path d="M5385 2512 c-55 -40 -78 -68 -72 -87 9 -23 78 -20 110 5 33 26 37 25
37 -9 0 -38 31 -77 54 -68 16 6 16 9 0 35 -14 25 -15 36 -5 82 6 29 10 54 9
56 -2 1 -23 5 -48 9 -40 6 -50 3 -85 -23z m30 -37 c-16 -14 -34 -25 -39 -25
-6 0 5 11 24 25 43 32 54 32 15 0z"/>
<path d="M6678 2507 c-69 -53 -77 -121 -19 -152 78 -40 175 83 131 166 -16 30
-62 24 -112 -14z m82 -46 c0 -41 -61 -90 -87 -69 -23 18 -14 46 24 77 38 32
63 28 63 -8z"/>
<path d="M13165 2496 c-14 -24 -37 -52 -50 -60 -14 -9 -25 -23 -25 -31 0 -27
35 -16 80 25 41 35 100 67 100 53 0 -3 -10 -22 -21 -43 -12 -21 -19 -45 -16
-54 8 -19 37 -21 37 -3 0 7 9 30 20 52 11 22 20 47 20 56 0 26 -26 41 -59 34
-17 -3 -32 -2 -36 4 -12 20 -24 11 -50 -33z"/>
<path d="M11954 2517 c-68 -39 -103 -94 -73 -113 7 -4 -10 -19 -40 -36 -64
-37 -78 -60 -57 -93 20 -30 40 -41 93 -50 49 -8 83 0 83 21 0 9 -11 14 -32 14
-50 0 -108 19 -108 35 0 20 115 85 151 85 22 0 29 5 29 20 0 17 -7 20 -38 20
-55 0 -57 9 -12 43 46 33 90 32 90 -3 0 -23 25 -27 33 -6 10 27 -5 55 -35 65
-39 14 -58 13 -84 -2z"/>
<path d="M12938 2509 c-61 -32 -76 -84 -37 -133 16 -20 29 -26 58 -26 68 0
119 83 92 153 -9 22 -17 27 -43 27 -18 -1 -50 -10 -70 -21z m80 -48 c4 -26
-32 -71 -58 -71 -47 0 -52 53 -7 80 40 25 61 22 65 -9z"/>
<path d="M3602 2493 c-41 -35 -54 -93 -28 -122 26 -29 62 -34 123 -16 41 12
53 20 51 33 -4 18 -11 19 -77 2 -69 -17 -96 23 -47 69 19 18 32 22 51 17 35
-9 48 0 35 25 -16 29 -69 25 -108 -8z"/>
<path d="M6893 2491 c-76 -55 -139 -151 -100 -151 16 0 84 64 110 103 23 34
63 45 85 24 13 -14 14 -22 4 -55 -17 -55 -15 -74 5 -70 18 3 41 58 42 101 1
37 -39 77 -77 77 -16 0 -47 -13 -69 -29z"/>
<path d="M8820 2495 c-39 -29 -70 -72 -70 -98 0 -10 11 -29 25 -42 21 -22 33
-25 100 -25 73 0 76 1 86 27 12 33 8 65 -9 71 -7 2 -15 -9 -18 -27 -6 -30 -8
-31 -60 -31 -30 0 -54 2 -54 4 0 2 20 16 46 31 53 31 71 62 55 94 -16 29 -59
27 -101 -4z m56 -34 c-10 -11 -32 -24 -49 -30 l-32 -11 33 30 c38 35 78 44 48
11z"/>
<path d="M13894 2505 c-36 -15 -74 -60 -74 -86 0 -10 11 -30 24 -46 21 -24 32
-28 92 -31 38 -1 75 1 83 6 27 19 -1 32 -63 32 -42 0 -67 5 -75 14 -9 11 -3
15 31 20 51 8 68 21 68 51 0 40 -41 59 -86 40z m35 -46 c-8 -5 -21 -9 -29 -9
-12 1 -11 4 4 15 10 8 23 12 29 8 5 -3 3 -9 -4 -14z"/>
<path d="M14715 2506 c-75 -34 -94 -84 -49 -127 21 -20 36 -24 87 -24 78 0
104 9 87 30 -10 12 -24 14 -57 9 -47 -7 -103 10 -103 31 0 21 64 55 104 55 30
0 37 3 34 18 -4 22 -62 27 -103 8z"/>
<path d="M8032 2475 c-17 -14 -37 -23 -45 -19 -10 3 -18 -3 -22 -18 -4 -13
-16 -34 -26 -47 -11 -13 -19 -30 -19 -37 0 -27 30 -13 80 39 l51 52 -3 -35
c-3 -32 -1 -35 24 -33 15 1 44 13 65 27 l38 26 6 -28 c8 -38 17 -52 35 -52 22
0 9 78 -17 105 -20 20 -20 20 -59 -2 -21 -13 -42 -23 -45 -23 -3 0 -3 16 1 35
5 31 4 35 -14 35 -11 0 -34 -11 -50 -25z"/>
<path d="M7761 2455 c-32 -37 -41 -81 -19 -103 22 -22 86 -14 114 14 28 27 27
54 -3 100 -22 34 -55 30 -92 -11z m69 -59 c-15 -19 -60 -21 -60 -3 0 7 7 23
16 36 l16 23 21 -20 c17 -18 18 -23 7 -36z"/>
<path d="M14257 2473 c-2 -4 -8 -30 -12 -58 -9 -67 -73 -223 -95 -235 -24 -13
-60 -13 -61 0 -1 6 -2 16 -3 22 -2 18 -32 22 -39 5 -3 -7 1 -27 9 -45 12 -28
18 -32 53 -32 60 0 92 33 136 142 38 95 52 197 28 205 -6 2 -13 0 -16 -4z"/>
<path d="M2532 2436 c-70 -80 -61 -156 19 -156 29 0 47 7 64 24 38 38 41 69
11 121 -32 55 -53 57 -94 11z m68 -47 c9 -16 8 -26 -5 -45 -14 -22 -53 -33
-68 -18 -10 10 14 64 29 64 8 0 14 5 14 10 0 17 19 11 30 -11z"/>
<path d="M8388 2449 c-21 -11 -38 -24 -38 -29 0 -6 -7 -10 -15 -10 -8 0 -20
-19 -29 -49 -8 -27 -30 -77 -49 -112 -18 -35 -32 -70 -30 -76 11 -30 36 -8 70
62 34 68 41 75 73 81 71 13 109 48 110 100 0 56 -30 67 -92 33z m40 -65 c-8
-8 -28 -18 -46 -23 l-31 -9 16 24 c9 14 28 31 42 39 23 12 26 11 29 -2 2 -8
-2 -22 -10 -29z"/>
<path d="M3159 2423 c-1 -5 -2 -33 -3 -63 -2 -58 -60 -210 -83 -217 -7 -3 -19
10 -28 28 -15 28 -18 30 -32 16 -14 -14 -14 -19 4 -49 25 -43 74 -51 97 -16
22 34 74 163 82 204 9 46 -3 104 -21 104 -8 0 -16 -3 -16 -7z"/>
<path d="M8967 2310 c-47 -9 -77 -34 -60 -51 9 -9 7 -22 -8 -53 -51 -111 -110
-278 -104 -297 7 -22 42 -22 37 0 -2 11 61 182 106 286 9 21 16 46 14 56 -2
12 7 18 35 23 67 11 123 7 129 -9 23 -58 -120 -205 -151 -155 -9 15 -45 12
-45 -4 0 -17 69 -142 103 -187 14 -19 27 -43 29 -54 2 -11 11 -21 21 -23 29
-6 20 41 -19 99 -36 54 -64 103 -64 114 0 3 6 5 13 5 24 0 95 58 121 97 14 21
28 55 31 75 6 31 3 41 -19 62 -21 22 -34 26 -78 25 -29 -1 -70 -5 -91 -9z"/>
<path d="M7111 2269 c-13 -15 -31 -68 -53 -159 l-32 -137 -46 5 c-57 5 -91
-19 -116 -83 -47 -124 71 -128 160 -6 27 36 40 70 56 142 32 147 51 208 64
206 15 -3 14 45 -1 50 -6 2 -20 -6 -32 -18z m-122 -343 c9 -11 3 -21 -29 -50
-42 -38 -77 -49 -66 -20 3 9 6 19 6 23 0 5 9 20 21 35 22 29 50 34 68 12z"/>
<path d="M6175 2273 c-70 -17 -132 -117 -161 -262 l-18 -90 -60 -3 c-49 -2
-61 -7 -64 -20 -3 -15 5 -18 52 -18 31 0 56 -2 56 -5 0 -26 -59 -138 -95 -180
-45 -53 -57 -85 -31 -85 25 0 113 120 142 194 32 79 37 86 76 86 37 0 58 10
58 26 0 10 -13 14 -45 14 l-46 0 6 38 c25 149 77 247 143 267 19 6 22 3 22
-23 0 -35 9 -45 27 -31 20 18 17 76 -6 89 -21 10 -24 11 -56 3z"/>
<path d="M3505 2228 c-2 -7 -11 -49 -19 -93 -23 -116 -36 -156 -49 -154 -27 3
-37 -2 -37 -21 0 -13 7 -20 20 -20 17 0 18 -3 10 -26 -16 -40 -15 -105 0 -114
21 -13 28 -4 28 34 0 19 5 50 11 69 l12 34 45 -8 c49 -9 64 -6 64 15 0 14 -30
26 -67 26 -12 0 -24 4 -27 8 -3 4 4 40 14 78 10 39 21 96 25 127 6 49 5 57 -9
57 -9 0 -18 -6 -21 -12z"/>
<path d="M10467 2213 c-3 -10 -8 -31 -11 -46 -4 -16 -21 -60 -38 -98 -29 -66
-32 -69 -64 -69 -27 0 -34 -4 -34 -20 0 -14 7 -20 24 -20 24 0 24 0 10 -47
-19 -62 -18 -113 1 -113 8 0 17 12 20 28 3 15 12 50 20 78 l15 51 66 6 c41 3
72 11 82 21 24 24 4 38 -38 26 -19 -6 -47 -10 -61 -10 l-27 0 34 78 c36 82 45
152 20 152 -8 0 -17 -8 -19 -17z"/>
<path d="M10693 2213 c-23 -8 -163 -319 -163 -361 0 -33 33 -22 86 28 30 29
58 49 62 46 3 -4 5 -26 3 -50 -3 -46 9 -65 27 -43 13 16 18 84 8 115 -9 28
-38 29 -83 0 l-35 -21 7 24 c4 13 32 75 62 137 51 105 58 137 26 125z"/>
<path d="M5511 2196 c-7 -8 -19 -44 -26 -81 -24 -113 -75 -234 -75 -178 0 24
-19 43 -42 43 -10 0 -38 -18 -63 -41 -80 -74 -68 -152 24 -152 51 0 85 23 110
71 30 60 91 246 91 280 0 22 6 32 21 37 11 4 18 12 16 18 -6 18 -42 20 -56 3z
m-123 -344 c-30 -36 -98 -36 -98 0 0 11 17 36 37 54 l37 34 18 -36 c14 -29 15
-40 6 -52z"/>
<path d="M2413 2192 c-22 -14 -42 -78 -54 -170 l-12 -90 -57 -16 c-31 -9 -64
-16 -73 -16 -22 0 -22 -29 -1 -37 9 -3 39 1 67 10 28 9 52 15 53 14 6 -6 -38
-191 -51 -218 -22 -42 -85 -109 -112 -120 -32 -12 -30 -39 4 -39 32 0 111 77
142 138 15 29 61 217 61 248 0 3 8 1 18 -4 9 -5 23 -7 30 -5 21 8 13 29 -14
42 -25 11 -26 14 -20 64 10 73 25 139 36 157 8 12 14 13 41 3 34 -13 49 -10
49 11 0 26 -78 46 -107 28z"/>
<path d="M11802 2098 c-32 -54 -39 -74 -31 -84 8 -10 16 -11 30 -3 10 5 18 13
17 17 -1 4 10 31 26 61 25 48 29 81 9 81 -4 0 -27 -32 -51 -72z"/>
<path d="M15332 2158 c-7 -7 -12 -17 -12 -23 0 -6 -11 -44 -24 -85 -14 -41
-23 -77 -20 -82 2 -4 26 4 52 17 26 13 67 28 92 35 86 22 110 32 110 46 0 8
-5 14 -11 14 -6 0 -24 11 -40 25 -16 13 -45 27 -64 31 -19 3 -39 12 -46 20
-14 17 -21 18 -37 2z m23 -97 c3 -5 1 -12 -5 -16 -5 -3 -10 1 -10 9 0 18 6 21
15 7z"/>
<path d="M14934 2146 c-3 -9 -3 -23 0 -31 8 -23 261 -18 261 5 0 12 -22 16
-115 20 -63 3 -121 9 -128 13 -7 5 -14 2 -18 -7z"/>
<path d="M3741 2096 c-8 -9 -7 -18 3 -31 15 -21 36 -12 36 15 0 22 -25 33 -39
16z"/>
<path d="M6298 2085 c-11 -26 -5 -55 12 -55 10 0 30 40 30 60 0 21 -31 18 -42
-5z"/>
<path d="M4420 2061 c-49 -26 -54 -70 -11 -102 51 -38 34 -94 -26 -87 -17 2
-32 12 -40 28 -7 14 -18 25 -25 25 -22 0 -20 -40 2 -68 30 -37 99 -39 135 -2
33 32 34 86 3 115 -12 11 -25 20 -30 20 -19 0 -6 31 18 40 19 8 29 6 41 -5 16
-16 33 -12 33 9 0 17 -32 46 -51 46 -8 0 -30 -8 -49 -19z"/>
<path d="M9211 2013 c-5 -10 -14 -37 -21 -61 -9 -36 -9 -48 4 -67 22 -33 50
-39 91 -19 44 21 82 69 87 109 2 24 -1 30 -17 30 -14 0 -21 -8 -23 -26 -6 -48
-92 -109 -105 -75 -6 16 10 74 24 91 16 16 10 35 -11 35 -10 0 -23 -8 -29 -17z"/>
<path d="M9424 1993 c-4 -21 -13 -55 -22 -76 -11 -28 -12 -41 -4 -49 8 -8 27
6 71 53 32 35 62 61 67 56 4 -4 0 -41 -10 -81 -10 -40 -16 -79 -12 -85 14 -22
34 -11 39 22 3 17 10 52 16 75 13 51 5 108 -16 116 -16 6 -47 -7 -76 -32 -16
-14 -17 -14 -15 8 2 16 -3 25 -14 28 -13 2 -19 -6 -24 -35z"/>
<path d="M12740 2019 c-57 -23 -107 -92 -95 -130 12 -36 41 -21 36 18 -3 22
59 72 97 78 61 11 66 13 52 30 -14 17 -53 19 -90 4z"/>
<path d="M13224 1999 c-54 -40 -83 -91 -65 -113 17 -20 54 -20 93 0 l30 16 -7
-44 c-14 -94 -16 -100 -33 -92 -10 4 -34 9 -54 12 -33 4 -39 1 -56 -28 -26
-42 -44 -137 -34 -175 5 -18 16 -31 28 -33 26 -4 85 47 123 105 25 37 39 49
64 53 38 6 44 33 9 38 -22 3 -23 6 -17 55 4 29 13 85 22 126 15 75 15 75 -9
93 -32 24 -46 22 -94 -13z m35 -48 c-23 -31 -47 -46 -58 -35 -3 3 12 21 33 40
46 40 57 38 25 -5z m-35 -224 c22 -16 13 -38 -41 -98 -46 -51 -57 -50 -48 4
16 96 45 126 89 94z"/>
<path d="M4102 1995 c-20 -17 -32 -21 -40 -13 -14 14 -32 1 -32 -25 0 -12 -9
-37 -20 -54 -18 -31 -18 -63 1 -63 5 0 32 29 60 64 67 84 83 91 75 34 -12 -81
-11 -93 3 -93 33 0 54 131 25 159 -21 22 -38 20 -72 -9z"/>
<path d="M5628 1994 c-53 -38 -92 -97 -84 -129 10 -38 52 -60 109 -58 48 2 77
16 77 36 0 6 -20 8 -54 4 -39 -4 -60 -1 -75 9 -29 21 -26 29 10 31 41 3 117
40 129 63 7 13 5 24 -8 39 -28 33 -62 35 -104 5z m67 -24 c6 -10 -63 -45 -72
-37 -5 6 46 47 58 47 4 0 11 -5 14 -10z"/>
<path d="M6642 1994 c-65 -51 -84 -139 -37 -170 43 -28 155 2 155 41 0 19 -19
19 -58 -1 -42 -20 -76 -15 -80 12 -2 17 3 22 33 27 47 8 105 44 105 66 0 25
-32 51 -61 51 -13 0 -39 -12 -57 -26z m68 -22 c0 -9 -44 -32 -62 -32 -14 0 34
39 50 40 6 0 12 -4 12 -8z"/>
<path d="M12485 2004 c-16 -8 -40 -25 -52 -36 -12 -11 -37 -23 -55 -27 -18 -4
-32 -10 -31 -14 4 -12 -63 -190 -86 -227 -24 -41 -27 -60 -7 -60 14 0 96 106
117 153 9 19 21 26 56 31 81 11 163 86 163 149 0 47 -47 61 -105 31z m65 -37
c0 -33 -62 -89 -112 -101 -40 -9 -35 7 20 64 46 48 92 66 92 37z"/>
<path d="M14041 1992 c-45 -30 -96 -96 -86 -112 12 -20 33 -9 74 40 23 28 47
50 53 50 7 0 6 -5 -2 -15 -7 -8 -10 -22 -6 -30 5 -13 13 -12 56 10 45 23 50
24 50 7 0 -27 29 -62 51 -62 23 0 25 22 4 40 -8 7 -15 28 -15 46 0 31 -3 34
-29 34 -17 0 -33 -5 -37 -12 -5 -7 -10 -4 -15 10 -11 30 -47 28 -98 -6z"/>
<path d="M12858 1970 c-30 -30 -39 -45 -36 -67 9 -80 168 -32 168 51 0 41 -16
56 -58 56 -27 0 -43 -9 -74 -40z m92 -18 c0 -10 -13 -25 -29 -35 -28 -16 -61
-23 -61 -12 0 12 33 55 39 51 4 -3 13 -1 21 5 22 13 30 11 30 -9z"/>
<path d="M13520 1974 c-46 -42 -74 -89 -66 -110 9 -23 24 -16 42 18 9 17 30
43 46 58 26 24 35 27 61 19 17 -5 35 -5 39 -1 13 13 -15 40 -49 47 -27 5 -37
1 -73 -31z"/>
<path d="M3835 1974 c-32 -34 -34 -95 -5 -124 25 -25 46 -25 87 0 40 24 50 59
31 108 -12 32 -18 37 -51 40 -30 2 -43 -3 -62 -24z m80 -41 c5 -22 2 -32 -16
-46 -28 -23 -43 -18 -47 17 -7 54 50 80 63 29z"/>
<path d="M6343 1934 c-64 -68 -74 -88 -50 -97 8 -3 38 21 72 59 79 88 125 85
73 -5 -20 -36 -20 -71 1 -71 14 0 61 96 61 124 0 14 -9 32 -22 40 -42 30 -67
20 -135 -50z"/>
<path d="M10864 1968 c-21 -18 -48 -38 -62 -43 -22 -9 -23 -13 -11 -25 8 -8
19 -28 24 -44 16 -48 58 -71 123 -70 69 1 172 30 172 49 0 22 -20 22 -89 3
-84 -23 -112 -23 -145 3 -39 31 -32 44 30 59 31 8 66 22 78 32 l21 18 -28 25
c-38 34 -69 31 -113 -7z m66 -18 c-20 -13 -33 -13 -25 0 3 6 14 10 23 10 15 0
15 -2 2 -10z"/>
<path d="M13687 1951 c-36 -36 -48 -54 -45 -72 5 -35 58 -37 121 -6 l47 24 0
-29 c0 -35 16 -68 33 -68 17 0 17 162 1 167 -6 2 -24 -7 -40 -20 -37 -31 -88
-57 -111 -57 -14 0 -10 7 16 29 20 17 42 26 53 23 19 -5 24 12 12 42 -10 27
-37 17 -87 -33z"/>
<path d="M3147 1979 c-19 -11 -56 -82 -57 -106 0 -7 9 -22 20 -33 25 -25 120
-29 140 -5 18 22 8 27 -57 29 -52 1 -58 3 -55 21 2 11 10 30 18 43 12 19 18
21 35 11 32 -16 48 4 24 31 -20 22 -41 25 -68 9z"/>
<path d="M2601 1926 c-17 -24 -50 -60 -73 -79 -33 -28 -40 -39 -31 -48 9 -9
17 -9 36 4 22 14 24 14 35 -4 17 -26 51 -24 83 7 l26 25 7 -31 c4 -23 11 -31
23 -28 10 2 17 7 16 11 -2 4 -3 36 -3 72 0 80 -11 82 -65 15 -22 -27 -44 -49
-48 -50 -13 0 2 38 34 88 16 25 26 49 23 53 -12 20 -35 7 -63 -35z"/>
<path d="M2835 1929 c-59 -52 -85 -119 -46 -119 11 0 21 9 25 23 7 28 65 89
80 84 6 -2 9 -20 7 -43 -8 -75 -6 -88 10 -92 12 -2 18 12 28 64 10 57 10 69
-4 90 -21 33 -57 30 -100 -7z"/>
<path d="M3654 1925 c-8 -20 -17 -56 -21 -81 -5 -41 -4 -46 12 -43 13 3 23 23
36 69 10 36 16 71 14 78 -8 22 -26 12 -41 -23z"/>
<path d="M6228 1927 c-24 -24 -43 -96 -30 -109 16 -16 25 -5 47 55 20 52 11
81 -17 54z"/>
<path d="M7260 1840 c-9 -16 -8 -22 4 -26 21 -8 36 3 36 27 0 25 -26 25 -40
-1z"/>
<path d="M6411 1777 c-6 -7 -18 -44 -26 -81 -9 -37 -33 -111 -55 -164 -21 -53
-41 -105 -44 -114 -7 -24 -65 -58 -98 -58 -16 0 -28 4 -28 8 0 18 48 52 73 52
30 0 36 20 13 40 -36 29 -130 -54 -124 -110 3 -23 7 -25 59 -25 82 0 124 31
156 115 54 140 113 324 109 337 -7 17 -21 17 -35 0z"/>
<path d="M7416 1742 c-7 -15 -30 -70 -49 -122 -20 -52 -52 -130 -71 -173 -20
-43 -36 -80 -36 -83 0 -2 10 -9 23 -15 12 -5 33 -16 47 -24 34 -20 59 -19 98
5 47 29 74 77 66 120 -12 73 -46 83 -111 33 -18 -13 -33 -23 -33 -21 0 2 23
62 51 133 65 167 63 161 45 168 -11 4 -20 -3 -30 -21z m30 -337 c-28 -42 -63
-60 -92 -46 -14 6 -24 15 -22 20 2 5 28 30 58 55 l55 47 8 -26 c6 -18 4 -33
-7 -50z"/>
<path d="M14186 1722 c-59 -44 -77 -78 -109 -197 l-23 -90 -45 -6 c-24 -4 -45
-2 -47 2 -6 15 -42 10 -42 -5 0 -30 29 -46 71 -40 47 8 48 2 14 -66 -30 -60
-78 -115 -113 -132 -32 -16 -42 -48 -15 -47 54 2 133 87 180 196 28 65 39 73
104 73 41 0 73 25 45 36 -9 3 -36 4 -61 2 -25 -2 -45 -2 -45 0 0 1 10 42 22
90 19 77 27 92 69 134 54 54 89 63 89 22 0 -38 18 -68 34 -55 10 8 11 23 5 57
-11 60 -15 64 -52 64 -21 0 -48 -12 -81 -38z"/>
<path d="M6084 1685 c-7 -19 -14 -37 -14 -40 0 -3 -25 -68 -55 -145 -30 -77
-55 -151 -55 -164 0 -25 28 -45 34 -23 12 45 42 130 85 247 28 74 51 141 51
148 0 26 -32 10 -46 -23z"/>
<path d="M14967 1714 c-4 -4 -7 -20 -7 -34 0 -37 -20 -83 -83 -187 -62 -104
-81 -147 -73 -168 9 -26 33 -17 40 16 3 17 32 74 65 128 72 117 93 169 89 212
-3 32 -17 46 -31 33z"/>
<path d="M3721 1633 c-7 -32 -28 -104 -47 -161 -40 -120 -44 -162 -14 -162 15
0 20 7 20 28 0 16 14 68 30 117 37 106 63 212 55 225 -15 25 -33 6 -44 -47z"/>
<path d="M5315 1678 c-2 -7 -21 -58 -41 -113 -88 -243 -93 -265 -60 -265 8 0
35 24 60 53 42 48 45 49 35 20 -16 -49 -8 -87 19 -91 22 -3 23 -1 17 28 -5 22
-2 44 10 71 33 72 -12 95 -73 37 l-34 -33 17 40 c35 85 85 228 85 246 0 21
-28 26 -35 7z"/>
<path d="M9406 1644 c-29 -42 -32 -64 -14 -82 18 -18 52 -14 88 11 50 34 59
53 35 77 -11 11 -34 22 -51 26 -29 5 -35 2 -58 -32z m63 -35 c-28 -21 -54 -25
-43 -6 17 29 26 35 46 29 20 -5 20 -5 -3 -23z"/>
<path d="M3920 1658 c0 -7 -19 -50 -42 -95 -33 -64 -48 -83 -64 -83 -11 0 -23
-3 -27 -6 -10 -10 4 -34 20 -34 9 0 12 -6 9 -17 -3 -10 -10 -40 -15 -67 -12
-63 8 -86 74 -86 48 0 115 22 115 38 0 16 -30 23 -50 12 -10 -6 -38 -10 -61
-10 l-42 0 7 50 c10 73 14 78 59 87 29 6 43 14 45 27 3 16 -1 18 -31 14 l-35
-4 39 74 c44 83 49 112 19 112 -11 0 -20 -6 -20 -12z"/>
<path d="M9132 1618 c-12 -24 -31 -54 -42 -68 -18 -24 -19 -24 -33 -6 -14 19
-15 19 -53 0 -21 -11 -47 -32 -58 -47 -21 -28 -27 -88 -12 -119 5 -12 -3 -28
-32 -60 -44 -48 -86 -124 -77 -138 13 -21 32 -8 52 33 11 23 39 63 61 88 38
42 44 45 91 46 74 1 131 40 131 89 0 24 -8 43 -24 59 -14 14 -21 27 -16 30 17
10 71 115 65 125 -12 20 -31 9 -53 -32z m-101 -145 c-57 -77 -59 -79 -67 -60
-11 28 12 70 35 62 12 -3 21 0 25 10 3 8 10 15 16 15 6 0 2 -12 -9 -27z m77
-5 c31 -31 1 -69 -66 -83 l-34 -7 39 50 c42 56 44 57 61 40z"/>
<path d="M8755 1589 c-111 -27 -115 -29 -115 -55 0 -14 -4 -33 -9 -43 -18 -32
2 -46 47 -33 52 16 67 15 86 -4 23 -22 20 -47 -9 -78 -20 -21 -33 -26 -72 -26
-32 0 -43 3 -34 9 8 5 11 16 8 25 -5 12 -12 13 -29 7 -71 -26 -32 -81 58 -81
48 0 59 4 91 34 32 29 38 40 38 76 0 34 -6 47 -30 67 -23 20 -36 24 -67 20
-28 -4 -38 -1 -38 8 0 8 8 16 18 19 40 11 89 20 117 20 23 1 30 6 30 21 0 24
-30 28 -90 14z"/>
<path d="M12734 1538 c-27 -34 -52 -66 -56 -72 -5 -7 -13 -3 -23 10 -13 20
-18 21 -50 10 -40 -14 -105 -97 -105 -133 0 -13 9 -32 20 -43 11 -11 20 -22
20 -24 0 -3 -22 -37 -50 -77 -53 -77 -61 -99 -32 -98 10 0 38 32 68 77 44 67
58 81 111 107 34 17 68 36 77 44 20 17 21 66 2 83 -11 11 -8 20 24 58 53 64
73 98 65 110 -11 18 -21 11 -71 -52z m-106 -110 c15 -15 -45 -100 -67 -96 -26
5 -23 31 10 71 33 40 39 43 57 25z m62 -42 c0 -8 -14 -25 -31 -37 -31 -22 -31
-19 1 29 17 25 30 29 30 8z"/>
<path d="M9640 1571 c0 -5 -37 -53 -82 -106 -144 -167 -196 -237 -213 -282
-10 -24 -15 -47 -11 -50 12 -13 38 9 56 49 20 45 45 79 171 225 100 116 123
149 115 162 -9 13 -36 15 -36 2z"/>
<path d="M14705 1559 c-8 -25 7 -44 29 -36 22 9 20 34 -3 47 -16 8 -21 6 -26
-11z"/>
<path d="M2715 1528 c-15 -18 -35 -33 -44 -33 -12 0 -18 -14 -22 -55 -4 -30
-12 -75 -17 -99 -12 -48 -9 -61 13 -61 8 0 20 23 30 56 9 32 30 85 46 120 33
69 48 74 75 22 16 -31 37 -33 42 -4 4 19 -59 86 -81 86 -8 0 -27 -15 -42 -32z"/>
<path d="M3227 1537 c-22 -5 -45 -20 -54 -34 -15 -23 -15 -29 0 -76 15 -47 15
-53 1 -67 -15 -14 -15 -13 -5 7 14 28 -10 39 -33 14 -22 -24 -20 -48 4 -61 27
-14 57 -4 76 25 14 22 14 29 -1 75 -22 65 -10 85 47 76 33 -5 38 -4 38 14 0
28 -28 38 -73 27z"/>
<path d="M5016 1529 c-34 -26 -34 -68 -1 -107 30 -35 31 -52 7 -82 -25 -30
-55 -18 -47 20 8 34 -8 46 -30 24 -37 -38 14 -114 68 -100 28 7 67 62 67 93 0
11 -11 37 -25 57 -39 57 -29 84 24 64 31 -11 52 -3 45 16 -5 13 -53 36 -74 36
-4 0 -19 -9 -34 -21z"/>
<path d="M10283 1521 c-16 -16 -38 -30 -49 -33 -14 -2 -21 -15 -26 -48 -6 -45
-55 -185 -82 -238 -15 -29 -8 -58 14 -50 6 2 31 48 55 103 32 73 49 100 62
100 64 1 153 70 153 119 0 13 -9 35 -21 50 -28 36 -69 35 -106 -3z m77 -26
c19 -23 -3 -63 -45 -81 -19 -7 -39 -14 -44 -14 -15 0 6 60 31 87 25 27 41 29
58 8z"/>
<path d="M4198 1522 c-49 -25 -50 -63 -4 -107 41 -38 44 -50 17 -65 -31 -16
-51 -12 -51 11 0 32 -34 20 -38 -14 -3 -22 2 -29 24 -37 57 -22 124 13 124 64
0 11 -17 38 -37 59 -36 36 -37 39 -19 52 13 10 25 11 43 4 28 -10 43 -5 43 17
0 8 -1 14 -3 14 -1 0 -16 4 -34 9 -24 7 -40 5 -65 -7z"/>
<path d="M7598 1517 c-15 -12 -34 -41 -43 -64 -17 -44 -13 -65 23 -105 30 -36
161 -12 201 35 22 27 -8 31 -60 8 -43 -20 -119 -28 -119 -13 0 4 20 19 45 34
55 34 61 45 41 92 -18 43 -47 48 -88 13z m54 -34 c3 -15 -38 -53 -57 -53 -8 0
7 34 23 53 8 9 19 17 23 17 4 0 9 -8 11 -17z"/>
<path d="M13015 1516 c-27 -27 -33 -74 -13 -94 19 -19 65 -14 95 12 25 22 26
27 18 62 -9 34 -14 39 -42 42 -24 2 -39 -3 -58 -22z m58 -30 c6 -16 -11 -36
-30 -36 -16 0 -17 22 -1 38 16 16 25 15 31 -2z"/>
<path d="M2909 1506 c-33 -22 -79 -102 -79 -136 0 -24 49 -60 82 -60 48 1 119
35 112 54 -7 19 -6 19 -51 1 -40 -17 -71 -19 -92 -6 -13 8 -12 15 4 51 10 23
30 51 44 62 23 18 26 18 29 3 5 -20 -15 -44 -46 -56 -32 -12 -22 -35 14 -32
54 4 90 75 64 124 -14 25 -38 24 -81 -5z"/>
<path d="M10815 1508 c-63 -35 -83 -88 -50 -135 13 -19 13 -22 -2 -28 -10 -3
-19 -1 -21 4 -6 17 -29 13 -36 -6 -12 -29 18 -48 60 -37 51 13 64 36 42 75
-10 17 -18 38 -18 48 0 18 54 56 68 47 4 -2 14 0 22 5 13 8 12 12 -4 24 -23
18 -34 18 -61 3z"/>
<path d="M10990 1487 c-67 -39 -74 -64 -31 -103 38 -33 38 -38 4 -53 -23 -11
-29 -10 -39 3 -14 20 -30 20 -38 1 -7 -19 27 -55 52 -55 25 0 79 35 92 60 10
19 7 26 -24 55 -38 36 -38 39 22 69 18 9 41 14 52 11 23 -7 36 11 20 30 -19
23 -51 18 -110 -18z"/>
<path d="M3374 1473 c-36 -85 -27 -136 25 -148 62 -13 141 58 141 127 0 32 -3
39 -17 36 -12 -2 -19 -14 -21 -35 -4 -36 -63 -96 -90 -91 -22 5 -20 54 2 99
21 42 20 49 -5 49 -14 0 -25 -11 -35 -37z"/>
<path d="M12225 1471 c-27 -22 -51 -44 -52 -48 -4 -13 9 -26 55 -56 23 -15 42
-31 42 -36 0 -15 -52 -48 -86 -55 -24 -5 -33 -3 -37 8 -10 26 -37 19 -37 -9 0
-58 104 -54 169 5 45 42 38 85 -19 115 -37 19 -37 26 -2 47 18 10 54 16 106
17 81 1 114 13 86 31 -8 5 -31 10 -51 10 -20 0 -56 2 -80 5 -40 5 -49 1 -94
-34z"/>
<path d="M13275 1470 c-14 -22 -69 -95 -123 -162 -109 -135 -126 -163 -118
-184 8 -21 25 -17 35 9 8 19 125 169 199 252 41 46 70 97 65 112 -9 24 -33 13
-58 -27z"/>
<path d="M10530 1463 c-36 -25 -69 -65 -70 -83 -1 -43 55 -52 109 -19 27 16
32 17 28 5 -9 -23 3 -46 23 -46 15 0 19 10 22 61 4 72 -9 84 -50 47 -51 -48
-114 -68 -72 -23 13 14 38 29 54 33 17 5 31 15 31 23 0 21 -46 22 -75 2z"/>
<path d="M14375 1454 c-45 -24 -65 -45 -65 -66 0 -25 42 -44 66 -30 16 9 21 6
30 -21 6 -18 18 -33 26 -35 12 -2 15 11 14 80 -1 75 -3 83 -21 85 -11 2 -33
-5 -50 -13z"/>
<path d="M14620 1457 c0 -7 -16 -36 -35 -64 -39 -57 -40 -64 -23 -81 14 -14
50 3 46 21 -2 7 7 28 19 47 21 34 27 53 24 78 -1 16 -31 16 -31 -1z"/>
<path d="M5682 1453 c-17 -6 -52 -77 -52 -106 0 -81 143 -53 191 38 24 45 20
79 -8 73 -10 -2 -18 -12 -19 -24 -2 -47 -53 -94 -104 -94 -27 0 -25 17 5 62
14 20 25 39 25 41 0 8 -25 14 -38 10z"/>
<path d="M5461 1387 c-25 -51 -27 -80 -6 -97 30 -25 115 20 115 62 0 11 -7 32
-15 48 -12 23 -23 30 -44 30 -24 0 -33 -7 -50 -43z m64 -32 c0 -10 -10 -21
-22 -26 -26 -9 -29 1 -12 32 12 24 34 20 34 -6z"/>
<path d="M15032 1343 c5 -26 38 -29 38 -4 0 15 -6 21 -21 21 -14 0 -19 -5 -17
-17z"/>
<path d="M11417 1343 c-4 -3 -7 -15 -7 -26 0 -11 -18 -37 -41 -58 -38 -35 -44
-59 -15 -59 20 0 84 65 91 93 11 41 -7 72 -28 50z"/>
<path d="M14464 1242 c-5 -4 -51 -88 -101 -187 -66 -130 -89 -185 -83 -195 12
-19 34 -6 115 64 30 27 58 46 61 43 4 -3 -1 -24 -10 -47 -20 -51 -20 -84 0
-104 21 -22 36 -10 29 23 -3 15 1 46 10 70 20 57 19 88 -2 100 -23 12 -60 -3
-102 -42 -32 -30 -30 -23 38 107 39 76 71 144 71 152 0 16 -13 25 -26 16z"/>
<path d="M14256 1224 c-3 -9 -6 -23 -6 -32 0 -9 -14 -52 -32 -94 -22 -53 -38
-78 -50 -78 -30 0 -48 -12 -48 -32 0 -15 5 -19 20 -15 11 3 19 2 17 -1 -42
-83 -54 -147 -27 -147 8 0 16 9 18 20 2 11 15 46 29 77 24 54 27 57 69 64 49
7 77 30 50 40 -9 3 -28 4 -41 2 -30 -6 -30 -7 -5 42 24 48 49 140 43 158 -7
17 -30 15 -37 -4z"/>
<path d="M6673 1213 c-7 -3 -13 -11 -13 -18 0 -7 -16 -58 -36 -113 -33 -91
-38 -100 -67 -109 -19 -5 -33 -17 -35 -27 -3 -16 1 -18 26 -13 l29 6 -14 -41
c-17 -51 -14 -103 7 -103 9 0 16 11 18 30 1 17 10 49 18 73 14 38 19 42 51 42
27 0 34 4 31 18 -2 10 -14 18 -30 20 l-27 3 34 96 c43 118 45 149 8 136z"/>
<path d="M9063 1178 c-5 -7 -25 -53 -43 -103 -19 -49 -49 -123 -67 -164 -49
-110 -28 -124 54 -34 l53 58 -6 -56 c-5 -39 -3 -59 6 -64 21 -13 31 11 33 86
2 64 0 74 -16 77 -11 2 -30 -7 -44 -20 l-25 -23 22 55 c46 113 64 180 54 190
-8 8 -14 7 -21 -2z"/>
<path d="M12317 1182 c-12 -20 -113 -266 -133 -321 -35 -100 -17 -117 52 -50
37 36 41 38 37 17 -5 -25 19 -54 34 -45 5 3 10 33 11 66 3 69 -9 77 -55 41
-15 -11 -28 -19 -29 -17 -2 2 23 67 56 145 33 78 60 145 60 151 0 11 -28 23
-33 13z"/>
<path d="M10882 1147 c-6 -7 -14 -26 -18 -42 -4 -17 -24 -70 -46 -120 -51
-118 -62 -160 -48 -185 18 -34 39 -25 38 18 -1 24 15 76 46 147 25 61 49 126
52 146 6 38 -6 58 -24 36z"/>
<path d="M4894 1115 c-7 -19 -14 -38 -14 -43 0 -4 -18 -64 -40 -131 -23 -69
-38 -132 -34 -143 7 -25 40 -19 37 7 -1 10 7 41 17 69 38 104 81 257 75 266
-12 19 -26 10 -41 -25z"/>
<path d="M8896 1127 c-8 -12 -24 -48 -36 -79 -18 -49 -25 -58 -45 -58 -30 0
-54 -37 -31 -46 8 -3 20 -2 27 2 9 5 10 1 5 -17 -4 -13 -10 -45 -13 -71 -5
-40 -3 -48 11 -48 9 0 18 11 22 28 19 85 36 122 57 122 29 0 51 15 43 29 -4 6
-16 11 -27 11 -23 0 -21 12 12 89 23 52 22 48 4 55 -9 3 -21 -4 -29 -17z"/>
<path d="M9434 1126 c-10 -8 -16 -18 -12 -21 4 -4 0 -14 -8 -22 -19 -19 -15
-62 7 -76 36 -22 109 23 109 68 0 29 -32 65 -58 65 -10 0 -27 -6 -38 -14z m54
-49 c3 -17 -35 -43 -46 -31 -4 4 -1 9 6 11 6 3 12 14 12 25 0 23 23 19 28 -5z"/>
<path d="M12845 1128 c-2 -7 -11 -41 -19 -75 -27 -108 -39 -129 -82 -140 -46
-10 -54 -38 -11 -38 15 1 27 1 27 0 0 0 -4 -15 -10 -34 -11 -41 -3 -81 16 -81
13 0 19 13 15 34 -1 4 3 23 9 41 11 32 13 33 83 42 54 6 72 12 72 23 0 12 -13
15 -60 13 l-61 -1 23 69 c13 38 26 89 30 114 5 38 3 45 -11 45 -9 0 -18 -6
-21 -12z"/>
<path d="M2225 1121 c-6 -10 24 -94 69 -195 l26 -58 -22 -32 c-12 -17 -43 -56
-69 -86 -124 -145 -181 -260 -129 -260 14 0 20 7 20 21 0 25 68 128 152 230
113 135 263 358 250 371 -17 17 -41 -5 -91 -86 -27 -45 -58 -90 -69 -99 -17
-16 -20 -13 -54 71 -20 48 -39 97 -43 110 -6 22 -29 30 -40 13z"/>
<path d="M13116 1087 c-52 -49 -57 -69 -21 -93 20 -13 30 -14 59 -4 37 12 76
52 76 77 0 15 -44 63 -58 63 -5 0 -30 -19 -56 -43z m50 -44 c-15 -12 -35 -23
-44 -23 -13 1 -8 8 16 31 18 16 38 26 44 23 7 -5 2 -16 -16 -31z"/>
<path d="M12097 1113 c-4 -3 -7 -16 -7 -27 0 -12 -10 -49 -22 -83 -20 -59 -23
-62 -57 -65 -25 -2 -37 -8 -39 -20 -3 -14 3 -18 27 -18 l30 0 -15 -35 c-7 -19
-14 -46 -14 -60 0 -22 4 -26 23 -23 16 2 22 10 23 28 0 14 6 41 14 61 12 32
21 39 77 59 59 21 85 42 70 57 -3 3 -27 -2 -53 -11 -26 -9 -49 -14 -51 -12 -3
2 3 25 11 50 20 58 21 106 3 106 -8 0 -17 -3 -20 -7z"/>
<path d="M16524 1105 c-8 -20 4 -35 27 -35 21 0 25 20 7 38 -16 16 -27 15 -34
-3z"/>
<path d="M7157 1054 c-4 -4 -7 -18 -7 -31 0 -18 5 -24 18 -21 10 2 17 12 17
27 0 24 -15 37 -28 25z"/>
<path d="M15385 1041 c-16 -10 -39 -28 -49 -40 -11 -11 -25 -21 -32 -21 -7 0
-29 -33 -48 -73 -19 -40 -57 -115 -85 -166 -53 -97 -58 -115 -41 -126 18 -11
35 11 90 118 l53 102 48 0 c38 0 55 6 86 31 67 54 104 149 71 182 -18 18 -59
15 -93 -7z m65 -36 c0 -24 -25 -67 -57 -97 -32 -31 -93 -49 -93 -28 0 24 43
82 83 111 45 32 67 37 67 14z"/>
<path d="M15685 1031 c-16 -4 -40 -13 -52 -19 -56 -30 -105 -141 -69 -155 18
-7 21 -3 30 40 4 17 18 43 31 57 24 26 92 49 126 44 18 -3 14 -10 -26 -57 -52
-61 -56 -90 -13 -105 61 -21 158 35 158 92 0 43 -36 85 -66 78 -17 -5 -24 -2
-24 8 0 25 -36 31 -95 17z m141 -116 c-6 -18 -70 -48 -92 -43 -8 2 3 21 33 53
44 47 47 48 56 28 5 -12 7 -29 3 -38z"/>
<path d="M16613 1004 c-24 -20 -43 -42 -43 -50 0 -7 16 -24 35 -36 19 -13 35
-26 35 -30 0 -16 -45 -30 -81 -24 -42 7 -58 -6 -38 -31 10 -11 26 -14 66 -11
59 5 93 28 93 64 0 26 -35 64 -59 64 -8 0 0 11 19 25 22 16 37 22 44 15 16
-16 37 9 25 31 -15 29 -49 23 -96 -17z"/>
<path d="M16876 1018 c-41 -24 -86 -95 -86 -136 0 -13 12 -34 26 -49 23 -23
31 -25 87 -21 78 5 177 48 177 76 0 24 -29 37 -36 17 -8 -20 -106 -55 -153
-55 -77 0 -81 58 -5 78 54 15 97 53 92 85 -4 31 -52 33 -102 5z m40 -33 c-11
-8 -25 -15 -30 -15 -6 1 0 7 14 15 32 19 40 18 16 0z"/>
<path d="M14675 1012 c-32 -27 -65 -78 -65 -101 0 -12 11 -33 25 -46 28 -29
81 -32 180 -12 44 10 61 18 63 31 4 17 -1 18 -39 12 -96 -15 -166 -18 -173 -8
-3 5 8 15 26 21 64 23 97 78 66 109 -17 17 -60 14 -83 -6z m55 -26 c0 -12 -33
-36 -48 -36 -14 1 -12 5 7 20 21 19 41 26 41 16z"/>
<path d="M6114 1000 c-17 -11 -36 -31 -44 -44 -8 -16 -21 -24 -34 -23 -16 2
-21 -5 -26 -33 -4 -19 -14 -49 -22 -66 -11 -19 -13 -35 -8 -45 15 -22 38 -1
80 71 21 36 50 78 66 95 l28 30 19 -48 c18 -44 38 -59 52 -38 6 11 -22 77 -44
104 -18 22 -29 21 -67 -3z"/>
<path d="M10407 995 c-9 -8 -29 -39 -46 -67 -16 -29 -44 -66 -62 -83 l-32 -30
6 57 c4 38 1 62 -7 74 -24 32 -33 6 -32 -83 1 -82 2 -88 23 -91 29 -4 85 47
129 118 29 48 39 56 58 53 36 -7 38 10 6 40 -25 24 -30 26 -43 12z"/>
<path d="M5008 975 c-46 -31 -56 -63 -32 -104 17 -29 17 -31 -1 -51 -21 -23
-57 -28 -49 -6 8 20 -14 30 -31 16 -34 -28 -6 -70 47 -70 30 0 88 55 88 83 0
13 -8 33 -17 46 -16 23 -15 25 11 48 15 12 36 23 47 23 14 0 19 6 17 18 -5 26
-39 25 -80 -3z"/>
<path d="M7280 983 c-25 -10 -64 -43 -77 -66 -7 -12 -12 -41 -13 -64 0 -49 25
-73 76 -73 44 0 104 27 104 46 0 13 -7 15 -32 9 -18 -3 -49 -7 -68 -8 -29 -2
-36 2 -38 21 -3 16 2 22 17 22 33 0 91 40 98 68 9 37 -26 60 -67 45z m30 -38
c0 -2 -13 -11 -30 -20 -38 -19 -40 -11 -2 9 31 17 32 18 32 11z"/>
<path d="M9236 969 c-32 -25 -66 -89 -66 -124 0 -30 30 -62 66 -71 37 -9 148
27 152 49 4 22 -20 22 -82 1 -56 -19 -96 -8 -96 26 0 17 7 20 39 20 32 0 44 6
65 31 42 49 33 73 -30 85 -12 2 -33 -5 -48 -17z m50 -48 c-4 -6 -17 -11 -28
-11 -21 0 -21 1 -3 20 19 21 44 13 31 -9z"/>
<path d="M11196 969 c-36 -28 -68 -94 -64 -131 2 -20 13 -38 29 -51 l27 -19
53 24 c72 34 107 63 93 78 -8 8 -28 2 -76 -24 -50 -28 -67 -33 -76 -24 -19 19
-14 35 13 42 33 8 95 64 95 85 0 43 -51 54 -94 20z m49 -29 c-3 -5 -16 -15
-28 -21 -22 -12 -22 -12 -3 10 19 21 43 30 31 11z"/>
<path d="M15977 983 c-2 -4 -7 -20 -10 -34 -4 -15 -25 -45 -47 -68 -38 -39
-44 -61 -18 -61 5 0 27 13 47 29 20 15 55 38 79 50 42 21 42 21 42 1 0 -29 23
-25 80 16 51 37 57 35 40 -10 -12 -32 -3 -58 19 -54 17 3 28 40 30 101 1 34
-1 37 -27 37 -15 0 -44 -12 -65 -26 -37 -25 -39 -25 -52 -7 -13 17 -15 17 -43
1 -38 -23 -40 -23 -44 4 -3 22 -23 35 -31 21z"/>
<path d="M6288 959 c-62 -46 -87 -129 -48 -164 31 -28 98 -30 144 -3 50 29 60
53 20 45 -16 -2 -43 -10 -60 -17 -44 -18 -84 -6 -84 25 0 17 4 23 14 19 18 -7
52 10 89 44 34 32 34 50 1 62 -35 14 -45 12 -76 -11z m51 -22 c-2 -1 -13 -9
-24 -17 -19 -14 -19 -14 -6 3 7 9 18 17 24 17 6 0 8 -1 6 -3z"/>
<path d="M6860 972 c-51 -17 -122 -137 -106 -179 7 -17 9 -16 27 6 10 13 19
29 19 36 0 19 59 95 74 95 7 0 16 -9 19 -20 6 -24 37 -27 37 -4 0 38 -40 76
-70 66z"/>
<path d="M7585 904 c-27 -41 -51 -72 -52 -67 -2 5 -7 35 -11 68 -5 43 -11 60
-22 60 -20 0 -24 -56 -8 -120 15 -56 37 -68 70 -38 31 27 98 133 98 155 0 37
-27 16 -75 -58z"/>
<path d="M7772 967 c-30 -14 -62 -77 -62 -121 0 -49 36 -68 102 -55 54 9 148
54 148 69 0 21 -29 21 -68 1 -50 -26 -116 -41 -132 -31 -20 12 -3 40 23 40 28
0 67 34 67 59 0 19 -30 51 -46 50 -5 0 -19 -5 -32 -12z m33 -46 c-3 -6 -14
-11 -23 -11 -15 1 -15 2 2 15 21 16 32 13 21 -4z"/>
<path d="M3474 960 c-35 -14 -84 -70 -84 -96 0 -60 45 -90 118 -79 33 5 42 10
40 23 -3 13 -13 16 -41 14 -76 -6 -100 36 -47 82 24 19 38 24 60 19 22 -4 30
-2 30 9 0 33 -34 45 -76 28z"/>
<path d="M3679 932 c-47 -48 -60 -89 -33 -109 18 -13 30 -13 65 1 12 5 18 0
22 -22 6 -31 27 -45 52 -36 20 8 19 34 -1 34 -14 0 -16 8 -11 50 4 31 2 50 -4
50 -6 0 -7 9 -4 21 5 14 1 25 -12 34 -26 21 -31 19 -74 -23z m66 -21 c5 -8
-21 -31 -64 -56 -18 -10 -7 10 22 43 22 24 33 27 42 13z"/>
<path d="M3930 943 c-14 -10 -32 -16 -42 -15 -11 2 -24 -14 -42 -54 -48 -105
-27 -113 56 -22 l57 63 1 -42 c0 -23 -5 -54 -10 -69 -9 -22 -8 -31 4 -43 25
-25 36 2 43 107 6 87 -15 111 -67 75z"/>
<path d="M4563 916 c-35 -35 -44 -51 -41 -73 2 -22 9 -29 30 -31 15 -2 38 4
52 14 25 16 26 16 26 -6 0 -32 18 -60 40 -60 21 0 27 24 9 36 -7 4 -9 29 -6
70 9 105 -35 125 -110 50z m45 -33 c-21 -20 -40 -34 -43 -31 -7 7 55 68 69 68
6 0 -6 -17 -26 -37z"/>
<path d="M5170 923 c-17 -19 -39 -51 -48 -70 -15 -31 -15 -37 -1 -61 29 -53
117 -35 158 31 38 63 19 119 -46 131 -27 4 -36 0 -63 -31z m88 -41 c4 -30 -48
-82 -82 -82 -31 0 -33 15 -8 53 38 57 84 72 90 29z"/>
<path d="M7070 908 c-35 -63 -39 -98 -10 -98 12 0 20 7 20 17 0 9 12 36 26 60
24 42 26 73 5 73 -6 0 -24 -24 -41 -52z"/>
<path d="M11042 953 c-7 -3 -24 -29 -36 -57 -23 -52 -66 -96 -92 -96 -19 0
-18 13 7 70 21 49 20 85 -2 78 -14 -5 -59 -114 -59 -143 0 -49 55 -60 111 -22
20 13 44 44 60 75 14 29 31 58 37 64 7 7 12 15 12 19 0 10 -23 17 -38 12z"/>
<path d="M16355 888 c-26 -53 -32 -75 -24 -85 15 -18 49 1 49 28 0 25 28 80
48 95 19 14 7 34 -19 34 -15 0 -29 -18 -54 -72z"/>
<path d="M10548 915 c-67 -68 -75 -115 -19 -115 16 0 33 5 36 10 11 17 20 11
32 -20 11 -30 36 -40 48 -20 4 6 1 18 -6 26 -9 11 -9 23 0 53 15 51 14 58 -9
81 -28 28 -41 25 -82 -15z m56 -14 c3 -5 -11 -21 -31 -37 -37 -28 -37 -18 0
24 23 25 24 25 31 13z"/>
<path d="M2682 862 c-45 -45 -71 -80 -68 -89 5 -12 10 -12 33 1 16 8 40 12 53
9 17 -3 38 5 68 26 l42 31 0 -40 c0 -56 30 -71 88 -41 22 11 43 25 47 31 12
19 -27 23 -61 7 l-34 -17 0 33 c0 18 4 46 9 64 7 24 6 35 -4 43 -11 9 -25 1
-66 -37 -51 -47 -54 -45 -19 7 18 26 16 51 -3 48 -7 -1 -45 -35 -85 -76z"/>
<path d="M2462 882 c-30 -42 -44 -82 -37 -109 5 -20 11 -23 60 -23 61 0 98 25
109 72 8 36 -27 75 -75 83 -32 6 -39 3 -57 -23z m92 -33 c5 -4 2 -19 -8 -33
-12 -20 -25 -26 -51 -26 -41 0 -42 4 -15 48 17 27 25 32 43 26 12 -3 26 -10
31 -15z"/>
<path d="M12409 871 c-24 -24 -39 -48 -37 -58 4 -24 50 -28 90 -9 39 20 38 20
38 -4 0 -21 33 -60 50 -60 19 0 24 32 7 42 -12 6 -17 23 -17 58 0 57 -7 60
-53 26 -50 -36 -65 -42 -43 -18 11 12 25 22 33 22 21 0 11 34 -10 38 -10 2
-34 -13 -58 -37z"/>
<path d="M3085 708 c-2 -7 -6 -31 -10 -53 -3 -22 -17 -79 -32 -127 -25 -83
-27 -87 -57 -90 -42 -4 -50 -38 -8 -38 l29 0 -10 -48 c-12 -56 -4 -93 16 -73
7 7 17 35 22 64 l10 52 57 5 c61 6 73 12 65 33 -4 11 -18 13 -56 9 -28 -2 -51
-2 -51 0 0 3 8 29 18 59 25 70 46 185 38 204 -7 18 -25 20 -31 3z"/>
<path d="M2531 522 c-5 -9 -12 -34 -16 -55 -6 -33 -9 -35 -20 -21 -17 24 -35
9 -35 -31 0 -19 -10 -55 -22 -80 -16 -33 -19 -48 -11 -56 6 -6 15 -9 20 -6 19
12 88 133 104 182 l16 49 18 -27 c18 -28 55 -37 55 -14 0 21 -57 77 -79 77
-11 0 -25 -8 -30 -18z"/>
<path d="M4012 478 c-16 -16 -15 -53 4 -89 9 -18 14 -49 12 -77 -2 -39 -7 -48
-24 -50 -29 -4 -64 41 -64 83 0 38 -8 49 -27 34 -27 -23 -13 -89 30 -136 25
-28 87 -32 108 -7 21 25 24 127 5 165 -22 44 -20 49 13 43 37 -8 48 10 19 30
-27 19 -59 21 -76 4z"/>
<path d="M2706 447 c-30 -39 -56 -98 -56 -126 0 -28 47 -61 86 -61 45 0 114
29 114 47 0 15 -11 15 -82 -3 -34 -8 -78 2 -78 19 0 6 12 13 26 14 34 1 75 32
92 67 12 23 11 31 -2 52 -25 36 -68 33 -100 -9z m64 -20 c0 -8 -8 -21 -17 -29
-45 -38 -58 -30 -22 16 22 28 39 34 39 13z"/>
<path d="M4375 471 c-10 -17 4 -31 31 -31 19 0 25 5 22 18 -4 19 -43 29 -53
13z"/>
<path d="M3213 385 c-13 -31 -23 -66 -23 -80 0 -52 86 -73 147 -35 33 20 61
86 49 117 -9 24 -29 9 -39 -28 -10 -42 -40 -69 -78 -69 -41 0 -47 24 -19 76
22 43 22 74 -2 74 -7 0 -23 -25 -35 -55z"/>
<path d="M3535 429 c-4 -6 -13 -8 -19 -6 -23 9 -35 -8 -51 -71 -32 -124 -6
-138 48 -27 37 76 38 78 53 56 17 -24 34 -20 34 8 0 19 -30 51 -48 51 -6 0
-14 -5 -17 -11z"/>
<path d="M3688 375 c-12 -14 -26 -25 -32 -25 -10 0 -34 -55 -39 -90 -1 -8 5
-16 14 -18 12 -2 27 15 49 52 17 31 35 58 40 61 18 11 23 -67 8 -116 -9 -26
-13 -50 -10 -53 29 -29 68 61 58 135 -4 27 -9 56 -12 64 -9 23 -52 18 -76 -10z"/>
<path d="M4340 335 c-10 -12 -10 -19 -2 -27 15 -15 48 14 38 31 -10 15 -21 14
-36 -4z"/>
</g>
</svg>
