<?xml version="1.0" standalone="no"?>
<!DOCTYPE svg PUBLIC "-//W3C//DTD SVG 20010904//EN"
 "http://www.w3.org/TR/2001/REC-SVG-20010904/DTD/svg10.dtd">
<svg version="1.0" xmlns="http://www.w3.org/2000/svg"
 width="1872.000000pt" height="660.000000pt" viewBox="0 0 1872.000000 660.000000"
 preserveAspectRatio="xMidYMid meet">

<g transform="translate(0.000000,660.000000) scale(0.100000,-0.100000)"
fill="#000000" stroke="none">
<path d="M7239 6073 c-46 -51 -52 -63 -99 -196 l-47 -132 -37 -3 c-29 -3 -36
-7 -34 -20 2 -10 15 -18 31 -20 24 -3 27 -7 21 -25 -24 -78 -51 -134 -90 -187
-47 -64 -53 -80 -29 -80 37 0 117 124 150 231 l18 57 51 8 c38 7 52 14 54 28
4 17 0 18 -42 13 -25 -4 -46 -3 -46 1 0 4 16 54 36 111 33 98 75 184 95 196 5
3 22 -4 39 -16 43 -33 60 -13 25 30 -33 38 -63 40 -96 4z"/>
<path d="M9395 6067 c-59 -19 -70 -26 -70 -45 0 -13 -5 -26 -11 -30 -6 -4 -14
-30 -17 -59 -3 -28 -10 -60 -16 -70 -10 -19 -49 -163 -61 -225 -4 -20 -4 -42
0 -49 13 -20 40 -2 40 28 0 14 9 61 20 102 l21 76 82 0 c71 0 90 4 142 30 71
36 100 72 100 124 0 65 -75 142 -137 140 -13 0 -54 -10 -93 -22z m134 -32 c16
-8 36 -30 45 -49 15 -31 15 -39 3 -69 -11 -26 -27 -39 -68 -57 -56 -24 -165
-39 -178 -24 -5 5 -1 46 7 92 l16 83 61 19 c74 23 79 24 114 5z"/>
<path d="M8019 6018 c-1 -2 -3 -29 -5 -61 -2 -34 -14 -81 -30 -117 l-27 -60
-50 0 c-55 0 -54 -7 -18 92 25 68 27 106 6 115 -22 8 -28 -1 -32 -45 -4 -63
-43 -153 -70 -163 -25 -9 -30 -27 -10 -35 11 -4 11 -15 -1 -64 -15 -61 -12
-90 10 -90 9 0 18 25 26 66 7 37 15 71 18 75 5 9 94 13 94 5 0 -2 -7 -23 -15
-46 -36 -103 -1 -123 65 -36 23 30 48 57 56 60 19 7 18 -24 -1 -71 -18 -42
-11 -76 13 -70 10 2 16 8 15 14 -2 7 4 28 12 47 18 43 19 98 3 114 -20 20 -45
14 -83 -19 -39 -35 -38 -30 12 67 17 33 37 89 43 125 7 35 16 67 22 70 17 11
-1 29 -28 29 -13 0 -24 -1 -25 -2z"/>
<path d="M14816 5995 c-8 -9 -13 -22 -10 -29 3 -8 -4 -33 -16 -56 -16 -31 -25
-39 -33 -31 -14 14 -54 14 -62 1 -3 -5 -14 -10 -25 -10 -22 0 -80 -112 -73
-141 3 -11 17 -28 31 -39 l25 -20 -67 -101 c-37 -55 -66 -108 -64 -117 5 -27
41 -21 48 8 4 14 33 63 65 110 51 75 62 85 89 86 67 1 76 5 101 41 33 50 33
95 -1 122 l-26 21 36 71 c20 40 35 78 32 86 -7 17 -31 17 -50 -2z m-86 -180
c0 -7 -53 -96 -60 -100 -13 -8 -41 25 -34 38 31 56 48 73 71 69 12 -2 23 -5
23 -7z m64 -21 c39 -15 -6 -104 -52 -104 -28 0 -33 10 -16 36 51 85 43 77 68
68z"/>
<path d="M16003 5989 c-12 -4 -29 -21 -37 -36 -31 -56 -53 -74 -81 -67 -41 10
-79 -13 -119 -74 -36 -54 -38 -60 -33 -122 5 -58 2 -68 -22 -105 -58 -84 -100
-166 -94 -180 3 -9 10 -14 15 -13 5 2 37 51 72 108 l63 105 47 1 c60 2 115 39
150 103 31 57 34 113 8 139 -17 16 -17 19 10 56 16 22 37 46 48 53 35 25 16
48 -27 32z m-143 -168 c0 -5 -20 -39 -45 -75 -43 -64 -45 -66 -45 -36 0 37 13
65 48 102 23 25 42 29 42 9z m90 -28 c0 -35 -35 -98 -69 -122 -32 -23 -64 -31
-70 -17 -2 4 22 48 55 96 44 67 62 86 71 78 7 -6 13 -21 13 -35z"/>
<path d="M3933 5953 c-9 -3 -10 -10 -2 -24 8 -15 2 -44 -27 -127 -20 -59 -47
-130 -60 -159 -18 -41 -20 -54 -10 -62 16 -13 40 12 86 87 17 28 38 52 46 52
18 0 18 2 -11 -76 -27 -72 -25 -104 5 -104 14 0 19 7 19 28 -1 15 9 54 21 86
17 47 19 65 11 83 -12 26 -58 32 -80 11 -7 -8 -5 3 5 27 59 140 57 203 -3 178z"/>
<path d="M5565 5950 c-3 -5 -3 -15 0 -20 4 -6 -14 -74 -40 -151 -51 -154 -54
-192 -17 -197 22 -3 23 -1 18 26 -5 21 6 68 40 168 26 76 51 144 55 150 5 6 3
16 -3 22 -15 15 -45 16 -53 2z"/>
<path d="M3680 5919 c-41 -5 -113 -13 -160 -17 -66 -5 -85 -10 -85 -22 0 -19
77 -25 158 -12 55 9 57 8 57 -13 0 -12 -16 -68 -36 -124 -37 -108 -40 -144
-11 -149 12 -3 17 3 17 21 0 14 13 63 30 108 16 46 34 103 40 126 10 41 11 42
64 48 30 4 77 4 105 0 42 -6 51 -4 51 8 0 34 -80 43 -230 26z"/>
<path d="M14992 5910 c-42 -19 -59 -40 -48 -59 4 -6 26 0 55 15 79 39 88 32
44 -33 -71 -102 -90 -123 -120 -133 -37 -13 -85 -65 -81 -88 2 -8 11 -20 20
-26 14 -8 22 -6 40 11 l22 22 11 -22 c8 -16 21 -23 52 -25 36 -3 47 2 82 34
23 20 41 43 41 50 0 24 -35 15 -65 -16 -16 -17 -39 -30 -52 -30 -22 0 -23 3
-17 38 4 22 26 62 54 98 61 78 82 119 78 152 -3 23 -8 27 -38 29 -19 1 -54 -7
-78 -17z"/>
<path d="M17507 5899 c-40 -33 -46 -58 -20 -84 11 -12 26 -15 50 -12 l33 6
-14 -33 c-7 -17 -16 -61 -20 -97 -6 -54 -4 -68 9 -79 22 -18 26 -11 31 65 6
70 26 133 63 196 l21 36 -24 17 c-40 26 -86 20 -129 -15z m60 -34 c-28 -25
-57 -33 -57 -16 0 13 43 40 65 40 18 0 17 -2 -8 -24z"/>
<path d="M15604 5909 c-3 -6 -2 -15 4 -21 13 -13 -8 -85 -53 -180 -39 -80 -42
-100 -20 -118 12 -10 16 -9 20 6 6 18 12 35 63 159 36 88 50 143 38 155 -13
13 -43 13 -52 -1z"/>
<path d="M17275 5900 c-4 -6 -2 -17 4 -23 7 -10 -6 -53 -49 -160 -51 -126 -58
-150 -48 -167 7 -11 21 -20 31 -20 15 0 18 5 13 25 -6 25 20 106 85 258 28 66
31 80 19 87 -20 13 -47 12 -55 0z"/>
<path d="M10403 5884 c-8 -21 13 -42 28 -27 13 13 5 43 -11 43 -6 0 -13 -7
-17 -16z"/>
<path d="M16956 5891 c-4 -5 -4 -16 0 -24 3 -8 -5 -26 -18 -41 -21 -23 -27
-25 -61 -17 -35 8 -42 6 -72 -20 -62 -55 -82 -133 -48 -190 l17 -29 -40 -42
c-64 -67 -84 -98 -84 -129 0 -22 5 -29 20 -29 14 0 20 7 20 23 0 14 24 51 60
93 33 38 60 72 60 76 0 4 7 5 15 2 26 -10 83 17 119 57 40 43 45 76 21 123
-14 25 -13 30 3 55 11 14 22 34 25 44 4 9 11 17 17 17 5 0 10 6 10 14 0 22
-53 36 -64 17z m-66 -128 c0 -18 -84 -143 -94 -140 -6 2 -12 17 -14 35 -4 37
34 99 63 105 35 7 45 7 45 0z m50 -64 c0 -31 -17 -55 -54 -78 -18 -12 -36 -21
-39 -21 -4 0 12 29 34 65 40 63 59 74 59 34z"/>
<path d="M2726 5862 c-3 -5 -14 -42 -25 -82 -12 -41 -25 -78 -31 -84 -16 -16
-11 -33 12 -39 15 -4 29 1 45 17 13 13 36 27 51 31 39 9 102 53 102 70 0 9 -8
18 -17 21 -10 3 -27 10 -38 14 -11 5 -30 11 -41 15 -12 3 -24 15 -27 25 -5 20
-22 27 -31 12z"/>
<path d="M11584 5859 c-3 -6 0 -17 7 -25 18 -17 44 -2 36 20 -7 18 -33 21 -43
5z"/>
<path d="M5162 5828 c-7 -7 -12 -20 -12 -30 0 -25 -29 -95 -61 -147 -33 -55
-42 -43 -42 56 1 71 0 73 -23 73 -27 0 -44 -28 -24 -40 7 -4 9 -13 6 -19 -12
-18 13 -124 33 -145 11 -10 26 -16 34 -13 18 7 79 108 98 163 8 21 18 42 22
45 12 8 5 62 -8 66 -6 2 -16 -2 -23 -9z"/>
<path d="M16425 5825 c-16 -8 -37 -19 -45 -24 -8 -5 -23 -12 -32 -15 -10 -3
-18 -12 -18 -21 0 -24 76 -21 90 4 9 19 66 39 77 28 12 -12 -13 -52 -69 -113
-33 -35 -65 -64 -71 -64 -6 0 -31 -19 -54 -42 -42 -41 -56 -78 -30 -78 15 0
91 52 102 69 11 19 25 12 25 -12 0 -47 54 -71 103 -46 36 19 87 72 87 91 0 28
-19 22 -67 -23 -24 -22 -51 -39 -59 -37 -9 2 -22 20 -29 40 -11 32 -10 39 3
50 9 7 35 39 59 72 61 83 57 136 -11 136 -17 -1 -44 -7 -61 -15z"/>
<path d="M2457 5813 c-16 -15 18 -33 65 -33 28 0 59 -7 74 -17 23 -14 27 -14
40 -1 14 14 12 18 -19 37 -25 15 -51 21 -94 21 -33 0 -63 -3 -66 -7z"/>
<path d="M10095 5794 c-16 -8 -40 -25 -52 -36 -20 -19 -23 -19 -23 -4 0 25
-27 31 -55 12 -14 -9 -25 -12 -25 -6 0 20 -39 10 -46 -12 -4 -13 -25 -49 -48
-81 -33 -47 -38 -60 -26 -67 10 -6 26 1 52 22 21 16 38 33 38 38 0 5 19 23 42
41 40 32 41 33 34 9 -27 -89 -16 -91 62 -11 31 33 67 63 79 66 l23 6 -22 -60
c-18 -50 -19 -62 -9 -75 8 -9 19 -16 27 -16 18 0 28 20 16 32 -7 7 -4 29 10
69 16 48 18 62 8 74 -16 19 -47 19 -85 -1z"/>
<path d="M10315 5753 c-35 -78 -39 -97 -21 -112 13 -11 17 -10 22 5 4 11 17
43 30 73 13 29 24 62 24 72 0 38 -29 18 -55 -38z"/>
<path d="M5987 5782 c-15 -9 -40 -41 -54 -70 -25 -52 -25 -55 -10 -88 19 -40
70 -74 110 -74 15 0 46 9 68 20 37 19 40 24 37 58 -2 26 -8 38 -20 40 -14 3
-18 -3 -18 -26 0 -21 -7 -32 -25 -40 -38 -18 -61 -15 -91 11 l-27 23 49 25
c51 25 62 46 50 95 -9 35 -36 46 -69 26z m33 -52 c0 -19 -36 -47 -47 -36 -8 7
25 56 37 56 6 0 10 -9 10 -20z"/>
<path d="M8268 5790 c-9 -6 -30 -30 -47 -55 -28 -41 -29 -48 -22 -97 11 -66
54 -108 112 -108 47 0 69 8 69 26 0 10 -14 14 -48 14 -38 0 -53 5 -70 23 -31
33 -29 67 3 67 32 0 95 56 95 84 0 44 -52 69 -92 46z m52 -40 c0 -16 -38 -50
-56 -50 -16 0 -12 12 14 43 16 19 42 23 42 7z"/>
<path d="M10516 5775 c-30 -28 -31 -34 -11 -82 22 -52 19 -72 -12 -84 -31 -11
-59 -8 -56 8 4 18 -24 23 -38 7 -10 -12 -8 -19 11 -39 27 -28 56 -31 105 -11
44 19 54 54 32 116 -14 39 -14 47 -2 59 11 11 20 12 39 3 36 -16 49 3 20 32
-22 23 -57 20 -88 -9z"/>
<path d="M11525 5722 c-29 -74 -30 -115 -2 -120 13 -3 17 3 17 22 0 15 11 54
25 88 30 74 30 78 6 78 -14 0 -26 -17 -46 -68z"/>
<path d="M11794 5771 c-63 -28 -70 -44 -41 -83 38 -52 39 -56 17 -68 -33 -17
-61 -4 -54 26 8 31 -20 33 -37 3 -9 -18 -7 -26 9 -48 30 -41 77 -41 120 -1 28
26 28 39 -3 83 -23 35 -24 37 -5 47 10 5 30 10 44 10 30 0 35 24 8 39 -13 7
-30 4 -58 -8z"/>
<path d="M5261 5745 c-21 -19 -45 -49 -52 -67 -12 -28 -11 -32 11 -50 23 -18
44 -19 81 -4 13 6 16 2 12 -17 -5 -27 19 -52 42 -43 12 4 13 9 4 24 -8 13 -7
27 5 56 20 49 21 86 1 86 -8 0 -15 4 -15 9 0 12 -29 41 -41 41 -5 0 -26 -16
-48 -35z m58 -29 c9 -11 5 -19 -19 -40 -33 -27 -67 -36 -54 -13 18 30 48 67
55 67 3 0 12 -6 18 -14z"/>
<path d="M5694 5772 c-20 -12 -48 -106 -40 -135 15 -62 110 -72 164 -17 42 41
60 145 25 138 -11 -2 -20 -19 -27 -52 -14 -63 -52 -95 -93 -80 -24 8 -28 15
-26 43 1 19 10 46 21 61 15 20 18 30 9 39 -13 13 -18 13 -33 3z"/>
<path d="M9495 5766 c-41 -18 -52 -33 -65 -91 -6 -27 -15 -54 -20 -60 -12 -14
15 -48 35 -43 12 2 17 16 19 53 4 70 12 90 42 104 22 9 31 9 50 -4 48 -31 63
-2 18 34 -31 24 -38 25 -79 7z"/>
<path d="M10780 5773 c-25 -9 -58 -43 -70 -73 -18 -43 2 -92 45 -115 32 -18
35 -18 72 -1 22 10 53 28 69 41 24 19 27 26 16 37 -10 10 -16 10 -30 0 -53
-38 -93 -52 -112 -42 -28 15 -25 27 10 35 28 6 80 56 80 76 0 39 -37 58 -80
42z m34 -48 c-7 -17 -35 -35 -55 -35 -7 0 -2 11 11 25 26 28 53 34 44 10z"/>
<path d="M4146 5749 c-36 -29 -69 -95 -62 -125 17 -66 76 -80 184 -43 47 16
62 25 62 40 0 24 -3 24 -69 -2 -56 -21 -122 -22 -128 -3 -2 7 6 14 19 17 23 6
108 83 108 98 0 13 -43 39 -66 39 -12 0 -33 -9 -48 -21z m34 -49 c-46 -38 -62
-38 -25 0 16 17 36 30 44 30 10 0 3 -11 -19 -30z"/>
<path d="M6803 5760 c-42 -17 -76 -97 -53 -125 7 -8 28 -15 47 -15 47 0 93 45
93 92 0 54 -31 70 -87 48z m47 -59 c0 -17 -31 -41 -51 -41 -11 0 -18 3 -16 8
2 4 7 15 10 25 7 18 57 25 57 8z"/>
<path d="M9688 5740 c-15 -9 -68 -110 -68 -130 0 -19 33 -40 62 -40 21 0 40
10 64 34 43 43 44 77 5 117 -32 32 -38 33 -63 19z m50 -72 c4 -22 -32 -58 -58
-58 -20 0 -20 0 0 41 22 42 52 51 58 17z"/>
<path d="M15237 5636 c-6 -16 16 -40 26 -29 4 3 7 15 7 25 0 21 -25 24 -33 4z"/>
<path d="M15996 5602 c-13 -21 32 -46 55 -31 12 8 11 12 -5 24 -22 17 -42 19
-50 7z"/>
<path d="M12520 5493 c0 -63 -40 -185 -58 -178 -22 8 -93 -7 -99 -21 -3 -8 -3
-21 0 -29 5 -12 10 -12 34 0 40 21 67 20 58 -2 -30 -72 -45 -128 -40 -144 10
-32 26 -17 45 41 34 107 35 109 104 112 46 2 61 7 61 18 0 11 -14 16 -52 18
-29 2 -53 7 -53 11 0 4 9 34 20 66 11 32 20 80 20 107 0 41 -3 48 -20 48 -17
0 -20 -7 -20 -47z"/>
<path d="M8076 5498 c-8 -13 -49 -96 -91 -186 -75 -160 -99 -232 -77 -232 6 0
38 28 72 62 74 76 95 71 56 -15 -30 -64 -32 -80 -11 -97 18 -15 37 -3 30 20
-3 9 6 41 21 70 21 41 25 59 18 78 -14 40 -37 49 -78 30 l-34 -17 69 146 c38
80 69 149 69 154 0 18 -30 9 -44 -13z"/>
<path d="M10445 5383 l-51 -128 -44 -15 c-28 -10 -46 -23 -48 -34 -4 -16 0
-18 27 -13 l30 6 -20 -50 c-20 -52 -18 -89 5 -89 8 0 16 14 20 31 3 17 15 51
26 76 l20 46 50 -5 c29 -3 53 -1 57 5 8 14 -26 37 -54 37 -13 0 -23 4 -23 8 0
4 20 58 46 120 25 62 42 117 39 122 -16 26 -34 0 -80 -117z"/>
<path d="M5933 5482 c-5 -4 -10 -14 -11 -22 0 -8 -14 -49 -31 -90 -62 -153
-114 -309 -108 -324 10 -25 34 -19 60 17 106 145 112 153 115 129 2 -12 -4
-45 -13 -72 -13 -38 -14 -54 -5 -70 9 -17 14 -19 26 -10 7 7 12 15 9 19 -2 4
2 29 10 56 41 133 -21 184 -96 80 -18 -25 -33 -45 -35 -45 -5 0 69 199 96 257
27 58 28 64 11 72 -9 5 -22 7 -28 3z"/>
<path d="M7834 5458 c-6 -18 -26 -77 -44 -130 l-33 -98 -41 0 c-48 0 -71 -12
-63 -33 4 -12 16 -14 48 -10 41 6 42 5 35 -18 -23 -80 -30 -129 -19 -140 17
-17 47 -3 39 18 -4 10 1 46 10 80 l17 63 38 0 c47 0 69 8 69 26 0 10 -13 14
-45 14 -25 0 -45 2 -45 4 0 17 75 214 86 227 20 23 17 29 -14 29 -22 0 -29 -6
-38 -32z"/>
<path d="M4344 5469 c-3 -6 -2 -15 3 -20 9 -9 -21 -146 -61 -278 -9 -30 -16
-74 -16 -98 0 -36 3 -43 20 -43 16 0 20 7 20 35 0 20 18 105 40 190 22 85 40
157 40 159 0 3 7 12 16 21 9 8 13 22 10 30 -6 17 -61 20 -72 4z"/>
<path d="M2762 5448 c1 -13 -18 -75 -41 -138 -24 -63 -52 -141 -63 -173 -35
-99 -5 -117 64 -37 24 27 47 50 51 50 5 0 7 -35 5 -77 -2 -65 0 -78 13 -81 13
-2 18 10 23 66 6 63 4 89 -11 145 -8 29 -39 19 -68 -23 -15 -22 -29 -40 -31
-40 -2 0 5 24 17 53 11 28 34 93 51 142 17 50 36 93 41 96 18 12 -2 39 -28 39
-20 0 -24 -5 -23 -22z"/>
<path d="M5740 5430 c-40 -36 -42 -41 -27 -52 16 -12 16 -16 1 -63 -20 -62
-26 -67 -72 -80 -23 -7 -38 -18 -40 -29 -4 -17 1 -18 33 -13 35 6 37 5 31 -16
-4 -12 -9 -50 -13 -84 -5 -58 -4 -63 14 -63 17 0 21 9 26 63 3 34 11 77 17 95
10 27 17 32 43 32 47 0 77 11 77 26 0 15 -8 17 -57 14 -18 -1 -33 2 -33 7 0
21 45 139 57 151 16 17 16 27 0 41 -10 8 -24 1 -57 -29z"/>
<path d="M6525 5450 c-3 -5 -4 -14 -1 -19 3 -5 -7 -39 -24 -75 l-29 -66 -56 0
c-48 0 -56 -3 -53 -17 2 -13 14 -19 40 -21 l36 -3 -20 -45 c-24 -55 -18 -85
22 -114 36 -25 115 -25 115 0 0 10 -13 16 -41 18 -25 2 -49 11 -59 22 -16 17
-15 21 3 63 22 50 45 67 90 67 33 0 64 26 41 34 -8 3 -26 6 -41 8 l-27 3 34
70 c23 49 30 72 22 77 -17 11 -45 10 -52 -2z"/>
<path d="M9330 5414 c-34 -29 -65 -86 -100 -181 -16 -45 -28 -63 -41 -63 -28
0 -49 -11 -49 -26 0 -14 12 -18 38 -15 6 1 12 -4 12 -11 0 -27 -41 -124 -69
-163 -83 -116 -100 -155 -68 -155 23 0 135 181 163 263 l26 77 47 0 c26 0 51
3 54 7 14 14 -17 33 -54 33 l-39 0 20 50 c35 88 69 149 91 161 17 9 31 8 61
-2 l38 -12 -21 -23 c-22 -23 -19 -44 6 -44 18 0 55 48 55 72 0 13 -14 25 -46
38 -61 27 -86 25 -124 -6z"/>
<path d="M2566 5385 c-9 -14 -14 -30 -11 -36 4 -5 1 -32 -5 -59 -11 -46 -14
-50 -48 -56 -62 -11 -82 -22 -76 -39 5 -13 16 -15 52 -9 l45 7 -8 -29 c-16
-60 -21 -113 -12 -129 13 -23 32 -3 35 37 1 18 9 57 17 86 15 50 17 52 51 52
28 0 35 4 32 17 -2 10 -15 20 -29 23 l-26 5 18 70 c9 39 15 73 12 78 -9 15
-31 6 -47 -18z"/>
<path d="M10686 5331 c-9 -14 4 -41 21 -41 9 0 13 8 11 22 -3 23 -23 35 -32
19z"/>
<path d="M11897 5281 c-15 -10 -38 -16 -51 -14 -25 5 -46 -15 -28 -26 7 -4 2
-28 -15 -69 -26 -67 -25 -105 3 -81 8 7 21 26 28 43 21 49 75 116 92 116 9 0
27 -9 41 -20 59 -46 73 -8 16 39 -44 36 -49 37 -86 12z"/>
<path d="M12748 5227 c-35 -34 -93 -85 -130 -112 -70 -50 -78 -62 -54 -71 15
-6 91 41 114 69 9 10 24 13 50 10 22 -3 53 1 74 10 34 14 35 14 31 -4 -7 -26
14 -49 43 -49 26 0 34 27 10 36 -10 4 -12 14 -5 42 5 20 9 43 9 50 0 19 -35
14 -54 -7 -17 -19 -76 -46 -76 -35 0 3 16 24 35 47 19 22 35 46 35 53 0 31
-23 20 -82 -39z"/>
<path d="M12059 5241 c-89 -89 -18 -162 122 -126 71 18 89 29 72 46 -9 9 -28
7 -76 -6 -86 -23 -105 -15 -41 18 61 31 70 47 43 81 -31 39 -72 35 -120 -13z
m85 -9 c3 -5 -16 -19 -41 -31 -41 -20 -45 -20 -32 -4 30 38 61 53 73 35z"/>
<path d="M13093 5258 c-15 -13 -37 -28 -48 -34 -25 -13 -79 -119 -71 -139 9
-24 28 -8 89 75 33 44 64 80 69 80 6 0 16 -7 23 -17 14 -19 35 -9 35 17 0 20
-27 40 -54 40 -8 0 -27 -10 -43 -22z"/>
<path d="M4717 5243 c-51 -39 -114 -116 -99 -121 6 -2 12 -9 12 -16 0 -26 41
-65 74 -72 38 -7 66 5 120 53 37 33 45 56 24 69 -7 5 -26 -9 -47 -34 -40 -45
-78 -60 -110 -42 -33 17 -25 36 23 50 50 14 106 60 106 88 0 22 -30 52 -52 52
-8 0 -31 -12 -51 -27z m58 -23 c6 -9 -50 -50 -69 -50 -6 0 3 14 19 30 31 32
40 36 50 20z"/>
<path d="M8231 5240 c-16 -17 -33 -39 -36 -50 -4 -11 -13 -20 -20 -20 -25 0
-25 -17 -2 -61 31 -58 73 -74 147 -55 60 16 80 30 63 47 -8 8 -21 8 -47 -1
-48 -15 -92 -16 -111 0 -24 20 -18 26 30 40 43 12 95 49 95 68 0 21 -43 62
-65 62 -13 0 -37 -14 -54 -30z m69 -25 c0 -15 -48 -40 -58 -30 -8 7 29 45 45
45 7 0 13 -7 13 -15z"/>
<path d="M13590 5252 c-19 -15 -20 -21 -9 -45 7 -15 23 -34 36 -42 42 -28 23
-70 -41 -95 -36 -13 -56 1 -56 41 0 38 -16 45 -35 16 -21 -32 -6 -71 36 -92
29 -16 35 -16 75 0 49 19 84 56 84 91 0 13 -13 39 -30 57 -16 19 -30 38 -30
42 0 4 18 5 39 1 42 -6 55 2 45 28 -9 23 -85 21 -114 -2z"/>
<path d="M9513 5223 c-16 -16 -43 -49 -61 -74 -17 -26 -51 -63 -74 -83 -35
-29 -40 -38 -28 -45 10 -7 24 -4 47 10 25 16 37 18 52 10 31 -17 45 -13 99 23
50 34 51 34 41 8 -5 -14 -8 -31 -5 -39 7 -17 36 -17 36 1 0 13 41 115 60 148
14 25 12 48 -3 48 -7 0 -42 -30 -77 -66 -57 -57 -106 -94 -125 -94 -10 0 23
56 64 108 23 28 41 56 41 62 0 20 -38 10 -67 -17z"/>
<path d="M4432 5227 c-23 -28 -52 -103 -52 -138 0 -31 4 -38 29 -48 46 -19 92
6 135 73 36 57 45 90 26 101 -14 9 -40 -13 -35 -28 7 -18 -60 -103 -85 -110
-32 -8 -36 18 -11 77 13 28 24 57 24 65 3 19 -18 25 -31 8z"/>
<path d="M9802 5215 c-62 -33 -130 -145 -89 -145 16 0 57 42 57 58 0 13 68 67
76 60 2 -3 -11 -38 -30 -77 -33 -70 -37 -101 -12 -101 13 0 86 156 86 186 0
22 -18 44 -34 44 -6 -1 -30 -12 -54 -25z"/>
<path d="M10013 5228 c-27 -13 -68 -89 -60 -111 3 -9 17 -23 31 -32 45 -29
192 3 160 35 -8 8 -24 8 -55 1 -54 -13 -70 -13 -87 -2 -12 7 -11 14 2 39 18
36 30 41 74 34 24 -3 32 -1 32 11 0 9 -3 18 -7 20 -20 12 -70 15 -90 5z"/>
<path d="M13310 5233 c-8 -3 -32 -17 -54 -31 -21 -15 -48 -26 -59 -27 -14 0
-23 -8 -25 -20 -2 -11 -15 -35 -29 -53 -23 -31 -24 -52 -1 -52 6 0 44 32 84
70 99 93 117 92 69 -4 -25 -53 -24 -76 6 -76 12 0 19 7 19 20 0 11 9 36 19 57
29 58 33 89 15 107 -16 17 -20 18 -44 9z"/>
<path d="M2938 5210 c-14 -10 -31 -33 -38 -50 -9 -22 -17 -29 -30 -25 -31 10
-34 -16 -6 -41 14 -14 26 -31 26 -40 0 -21 60 -54 100 -54 54 0 81 10 78 29
-3 13 -14 15 -51 13 -32 -3 -56 2 -72 12 -34 22 -31 32 10 46 65 21 91 101 39
120 -32 13 -27 13 -56 -10z m39 -44 c-3 -8 -15 -20 -27 -26 -20 -11 -21 -10
-9 12 19 37 49 49 36 14z"/>
<path d="M10590 5166 c-18 -36 -29 -69 -25 -75 11 -19 35 -12 45 14 5 14 18
43 29 66 11 23 18 46 15 50 -13 22 -33 4 -64 -55z"/>
<path d="M3692 5197 c-25 -27 -28 -37 -8 -37 18 0 24 -17 32 -96 11 -109 44
-97 114 41 39 76 44 105 20 105 -6 0 -26 -32 -46 -71 -20 -41 -39 -68 -44 -63
-7 7 -14 55 -19 137 -2 15 -28 6 -49 -16z"/>
<path d="M6087 5155 c-21 -35 -36 -69 -32 -75 10 -15 47 -12 86 8 l36 18 -1
-34 c-1 -40 28 -68 44 -42 5 9 5 19 -1 26 -7 9 -6 26 1 55 16 57 -1 66 -57 34
-54 -32 -59 -31 -33 5 12 17 30 30 41 30 23 0 26 25 3 34 -35 14 -50 4 -87
-59z"/>
<path d="M10810 5203 c-49 -18 -85 -78 -75 -125 8 -34 40 -45 89 -28 65 21 84
77 45 131 -20 29 -30 32 -59 22z m14 -59 c3 -8 10 -12 16 -9 21 13 9 -24 -12
-39 -49 -35 -75 -10 -42 39 19 29 29 31 38 9z"/>
<path d="M11033 5195 c-12 -8 -31 -14 -43 -13 -18 2 -25 -5 -36 -36 -8 -22
-21 -47 -29 -56 -18 -20 -20 -50 -3 -50 7 0 41 30 75 68 56 58 65 65 74 50 7
-12 6 -31 -1 -59 -10 -34 -9 -44 3 -57 21 -20 33 -9 37 35 9 121 -16 161 -77
118z"/>
<path d="M4005 5176 c-78 -34 -115 -137 -52 -144 17 -2 45 7 72 22 46 27 60
32 51 17 -10 -15 12 -61 29 -61 12 0 15 8 11 38 -3 20 -5 50 -5 65 -1 20 -7
30 -20 34 -11 3 -21 13 -24 24 -6 22 -20 23 -62 5z m38 -58 c-20 -23 -72 -52
-80 -45 -16 17 59 79 84 70 11 -4 10 -10 -4 -25z"/>
<path d="M13987 5063 c-23 -22 14 -53 39 -32 11 9 11 15 3 25 -12 15 -31 18
-42 7z"/>
<path d="M3268 4568 c-13 -18 -55 -79 -92 -136 l-69 -102 -24 32 c-14 18 -33
50 -44 70 -25 49 -77 108 -95 108 -18 0 -18 -37 0 -47 7 -4 35 -42 61 -83 26
-41 55 -84 65 -95 18 -20 16 -23 -77 -165 -116 -178 -187 -306 -179 -325 11
-30 32 -12 63 53 18 37 76 135 129 217 53 83 138 213 187 290 50 77 101 151
113 166 13 14 24 30 24 37 0 24 -38 11 -62 -20z"/>
<path d="M6634 4546 c-3 -8 -3 -20 1 -26 4 -6 -10 -78 -31 -160 -30 -122 -39
-148 -50 -139 -49 40 -188 -104 -170 -176 4 -14 19 -31 34 -38 58 -30 128 19
160 112 42 118 105 379 100 412 -3 27 -35 38 -44 15z m-93 -419 c-16 -48 -54
-87 -86 -87 -52 0 -37 60 31 119 32 29 38 31 51 18 13 -12 13 -21 4 -50z"/>
<path d="M6357 4523 c-4 -3 -7 -24 -7 -45 0 -37 -9 -76 -64 -262 -32 -108 -35
-186 -7 -186 15 0 19 11 24 68 3 37 22 119 42 182 42 130 57 250 33 250 -8 0
-18 -3 -21 -7z"/>
<path d="M5546 4488 c-2 -7 -11 -55 -20 -105 -17 -98 -43 -168 -76 -210 -37
-47 -18 -127 35 -151 36 -17 83 6 130 63 46 57 48 102 4 139 -34 29 -42 31
-71 15 -18 -10 -20 -9 -14 7 16 42 46 182 46 217 0 27 -4 37 -15 37 -9 0 -17
-6 -19 -12z m64 -327 c0 -16 -16 -40 -45 -68 -39 -36 -49 -42 -65 -33 -11 6
-20 14 -20 18 0 5 20 36 45 70 41 56 47 61 65 50 11 -7 20 -24 20 -37z"/>
<path d="M13273 4464 c-58 -28 -100 -72 -172 -180 -55 -81 -97 -213 -87 -272
11 -69 99 -130 223 -156 70 -15 83 -14 83 8 0 8 -33 21 -84 33 -92 23 -161 61
-178 98 -13 29 3 126 33 194 24 54 109 170 154 210 19 17 53 36 75 42 28 9 40
17 38 28 -5 25 -29 24 -85 -5z"/>
<path d="M16278 4433 c-27 -30 -41 -62 -58 -133 -6 -25 -18 -62 -27 -84 l-17
-38 -58 5 c-43 4 -58 2 -58 -8 0 -19 22 -33 58 -37 l33 -3 -28 -36 c-15 -20
-47 -60 -70 -88 -44 -54 -54 -81 -30 -81 16 0 141 146 158 184 9 20 22 26 78
34 75 11 121 27 121 41 0 15 -37 23 -57 13 -10 -5 -37 -12 -60 -15 -38 -5 -42
-3 -33 12 5 10 19 54 30 97 12 43 28 89 36 102 16 25 53 29 84 10 16 -10 22
-10 32 0 11 11 9 17 -11 33 -35 29 -91 25 -123 -8z"/>
<path d="M8145 4438 c-28 -89 -85 -324 -81 -334 10 -26 34 -14 80 38 51 58 56
54 26 -22 -23 -59 -15 -90 25 -90 28 0 35 27 10 36 -13 5 -13 9 1 35 22 43 35
121 22 136 -17 21 -39 15 -74 -23 -19 -19 -34 -32 -34 -27 1 4 16 62 35 127
18 66 32 124 29 128 -8 12 -34 9 -39 -4z"/>
<path d="M9836 4429 c-32 -25 -58 -74 -106 -199 l-36 -94 -49 -11 c-36 -7 -51
-15 -53 -29 -4 -17 1 -18 42 -12 25 4 46 4 46 -1 0 -4 -18 -55 -40 -113 -22
-57 -40 -110 -40 -116 0 -7 -11 -26 -25 -42 -30 -35 -32 -52 -7 -52 31 0 49
29 90 145 70 194 69 192 109 200 19 3 48 3 64 0 25 -6 29 -4 29 14 0 25 -35
36 -85 27 l-35 -7 26 73 c33 91 60 146 87 175 17 19 27 21 63 16 36 -5 44 -3
44 10 0 15 -47 37 -80 37 -10 0 -29 -9 -44 -21z"/>
<path d="M15170 4436 c0 -8 27 -31 59 -50 109 -67 143 -131 127 -240 -11 -73
-41 -106 -136 -152 -46 -23 -86 -46 -88 -52 -7 -21 18 -22 70 -2 85 31 145 74
168 119 41 81 36 207 -12 274 -24 33 -145 117 -170 117 -10 0 -18 -6 -18 -14z"/>
<path d="M8714 4432 c-15 -9 0 -52 18 -52 17 0 41 38 33 50 -7 12 -35 13 -51
2z"/>
<path d="M6127 4358 c-7 -23 5 -49 22 -46 20 4 27 38 9 49 -18 12 -26 11 -31
-3z"/>
<path d="M11550 4339 c0 -20 21 -49 35 -49 16 0 19 18 9 44 -7 18 -44 22 -44
5z"/>
<path d="M10729 4283 c-42 -44 -89 -123 -89 -151 0 -14 37 -35 49 -28 5 3 12
25 15 49 4 26 20 62 38 87 29 39 32 41 39 21 11 -28 43 -17 35 13 -3 11 -6 29
-6 39 0 31 -35 18 -81 -30z"/>
<path d="M12427 4316 c-62 -17 -102 -54 -92 -86 4 -13 26 -43 48 -67 40 -43
41 -46 22 -59 -29 -21 -63 -17 -89 11 -20 21 -25 23 -35 11 -26 -32 24 -76 86
-76 39 0 93 37 93 64 0 12 -20 46 -45 75 -25 29 -45 54 -45 56 0 13 83 37 127
36 40 -1 53 3 53 13 0 13 -14 21 -60 31 -8 2 -37 -2 -63 -9z"/>
<path d="M10527 4306 c-20 -8 -45 -20 -53 -27 -9 -8 -24 -14 -33 -14 -21 0
-41 -42 -41 -85 0 -19 -16 -93 -35 -165 -41 -152 -41 -155 -16 -155 15 0 27
25 62 120 38 107 46 120 66 120 35 0 70 27 114 88 72 101 43 156 -64 118z m63
-39 c0 -29 -84 -127 -110 -127 -12 0 -15 9 -12 39 4 44 41 86 82 94 14 2 28 5
33 6 4 0 7 -5 7 -12z"/>
<path d="M11988 4271 c-56 -35 -70 -59 -66 -108 4 -49 48 -76 124 -76 59 0 90
16 64 34 -8 5 -25 8 -38 6 -37 -7 -112 13 -112 29 0 8 9 14 20 14 33 0 100 31
111 51 12 23 -2 53 -31 69 -24 13 -19 14 -72 -19z m62 -29 c0 -10 -45 -32 -63
-32 -17 1 32 40 49 40 8 0 14 -4 14 -8z"/>
<path d="M4268 4275 c-58 -32 -75 -114 -35 -161 19 -22 34 -28 80 -32 67 -5
107 3 107 23 0 12 -15 15 -69 15 -91 0 -113 20 -95 87 8 30 57 49 90 34 33
-15 54 -14 54 3 0 37 -86 57 -132 31z"/>
<path d="M4842 4265 c-29 -24 -30 -24 -35 -5 -11 42 -33 21 -45 -42 -6 -35
-15 -76 -18 -91 -11 -48 19 -29 79 48 34 45 61 71 76 73 23 4 24 2 17 -40 -13
-73 -12 -93 3 -93 31 0 55 137 29 163 -20 20 -74 14 -106 -13z"/>
<path d="M11750 4274 c-48 -21 -70 -43 -70 -71 0 -31 22 -73 51 -97 17 -15 19
-20 8 -27 -25 -16 -56 -10 -62 11 -3 11 -12 20 -21 20 -25 0 -21 -57 5 -71 44
-23 129 10 129 51 0 9 -16 31 -35 50 -19 19 -35 43 -35 55 0 27 55 55 93 48
36 -7 37 24 1 37 -14 6 -26 10 -27 10 -1 -1 -18 -8 -37 -16z"/>
<path d="M5792 4226 c-17 -30 -32 -58 -32 -63 0 -17 -60 -66 -82 -68 -27 -2
-37 -32 -13 -41 9 -4 28 -1 42 5 21 10 29 9 43 -4 22 -20 58 -19 95 4 l31 18
-4 -33 c-4 -28 0 -35 22 -45 21 -10 29 -10 39 0 9 10 8 15 -5 25 -24 17 -23
22 13 104 20 45 29 78 24 89 -6 17 -8 16 -23 -5 -38 -53 -87 -104 -113 -118
-62 -32 -64 -10 -8 91 22 41 38 79 34 85 -13 21 -31 8 -63 -44z"/>
<path d="M10900 4233 c-63 -99 -59 -153 12 -153 34 0 47 6 79 39 42 41 50 81
28 124 -16 29 -28 37 -62 37 -22 0 -33 -9 -57 -47z m88 -33 c4 -32 -46 -83
-77 -78 -21 3 -21 3 4 56 20 44 29 53 47 50 16 -2 24 -11 26 -28z"/>
<path d="M7822 4245 c-62 -52 -63 -146 -1 -177 56 -29 179 -16 179 18 0 13
-10 15 -64 9 -73 -8 -102 -2 -117 26 -14 26 5 85 32 100 27 14 64 2 49 -16 -7
-8 -9 -19 -5 -25 11 -18 34 -11 51 16 16 24 16 26 -3 45 -10 11 -35 22 -54 25
-28 5 -41 1 -67 -21z"/>
<path d="M14182 4215 c-35 -38 -40 -50 -36 -75 10 -46 37 -64 107 -67 34 -2
68 0 76 5 25 18 0 32 -54 32 -94 0 -117 27 -40 48 49 13 70 40 61 78 -5 19
-13 24 -40 24 -26 0 -41 -9 -74 -45z m78 0 c0 -2 -10 -10 -22 -16 -21 -11 -22
-11 -9 4 13 16 31 23 31 12z"/>
<path d="M14432 4227 c-17 -47 -15 -70 8 -100 27 -34 81 -45 114 -23 27 17 62
107 52 133 -6 14 -9 15 -21 2 -8 -8 -20 -32 -28 -53 -17 -51 -37 -64 -71 -48
-32 14 -35 53 -5 81 24 22 18 41 -15 41 -16 0 -25 -9 -34 -33z"/>
<path d="M14754 4241 c-47 -29 -74 -69 -74 -111 0 -47 23 -68 82 -76 82 -11
241 50 198 76 -8 5 -31 0 -59 -12 -59 -25 -132 -34 -159 -19 -33 18 -26 31 16
31 30 0 45 7 70 33 68 70 11 130 -74 78z m66 -27 c0 -12 -45 -43 -62 -44 -26
0 -22 13 10 32 27 18 52 23 52 12z"/>
<path d="M4521 4218 c-53 -54 -36 -113 33 -111 25 1 35 -5 49 -29 10 -17 21
-28 24 -24 4 4 7 39 8 79 1 59 -3 76 -20 94 -28 31 -57 28 -94 -9z m69 -50 c0
-4 -9 -12 -21 -19 -32 -17 -46 3 -25 36 17 25 18 26 31 8 8 -10 15 -21 15 -25z"/>
<path d="M11087 4158 c-19 -51 -33 -96 -31 -100 12 -19 32 -4 68 54 35 55 40
59 47 40 11 -30 23 -28 69 14 44 40 47 39 25 -13 -30 -71 -12 -98 46 -67 33
16 33 17 13 33 -19 15 -20 19 -6 59 7 23 11 49 8 57 -9 23 -47 18 -77 -11 -27
-25 -27 -26 -34 -5 -7 23 -34 28 -53 9 -9 -9 -12 -8 -12 5 0 9 -6 17 -13 17
-8 0 -29 -40 -50 -92z"/>
<path d="M13929 4238 c-4 -41 5 -135 13 -145 17 -21 74 -15 103 10 28 24 68
126 55 141 -16 17 -39 -3 -46 -41 -7 -43 -39 -83 -66 -83 -15 0 -18 8 -18 49
0 27 -3 56 -6 65 -7 19 -33 21 -35 4z"/>
<path d="M7078 4189 c-55 -58 -68 -93 -45 -116 21 -22 97 -28 121 -10 17 12
21 12 38 -5 24 -24 113 -22 113 2 0 11 -13 16 -44 18 l-43 3 6 37 c12 66 12
97 -1 95 -6 -1 -17 4 -23 12 -7 8 -26 15 -43 15 -24 0 -41 -11 -79 -51z m92
-24 c0 -41 -32 -75 -70 -75 -40 0 -43 10 -13 49 52 71 83 81 83 26z"/>
<path d="M11471 4230 c-8 -4 -11 -15 -8 -23 3 -9 -1 -43 -9 -77 -9 -33 -13
-67 -10 -75 9 -24 36 -18 36 8 0 12 9 51 20 87 11 36 20 66 20 67 0 9 -39 20
-49 13z"/>
<path d="M13665 4221 c-40 -24 -73 -94 -55 -116 16 -19 67 -19 103 0 26 13 28
13 23 -3 -2 -9 -8 -33 -12 -52 -3 -19 -29 -95 -55 -167 -53 -145 -57 -161 -34
-169 10 -4 30 10 58 42 68 78 76 84 106 84 36 0 49 17 28 37 -20 20 -68 5
-111 -35 -24 -22 -28 -24 -22 -7 4 11 20 54 36 95 47 127 69 285 40 285 -8 1
-25 6 -37 13 -28 16 -32 15 -68 -7z m58 -41 c4 -15 -2 -24 -23 -35 -54 -28
-68 -12 -25 30 29 30 41 31 48 5z"/>
<path d="M3173 4218 c-24 -12 -83 -115 -83 -146 0 -54 77 -70 129 -26 38 32
47 77 27 126 -19 45 -43 59 -73 46z m31 -64 c34 -33 2 -94 -49 -94 -30 0 -31
8 -4 65 23 49 30 53 53 29z"/>
<path d="M8826 4205 c-30 -20 -41 -23 -58 -14 -25 13 -49 -4 -31 -22 8 -8 6
-23 -8 -56 -10 -25 -17 -49 -13 -54 10 -16 32 -10 39 12 8 26 61 86 88 101 20
10 20 8 14 -66 -6 -64 -4 -78 9 -83 8 -3 17 -4 19 -1 2 2 8 44 13 93 12 121
-1 138 -72 90z"/>
<path d="M3420 4156 c-36 -64 -82 -106 -114 -106 -28 0 -36 -8 -29 -26 7 -18
54 -18 79 1 10 8 33 15 50 15 17 0 48 11 69 26 l37 25 -6 -25 c-10 -41 15 -57
67 -42 27 7 43 18 45 30 4 16 -1 18 -32 12 l-36 -7 0 45 c0 25 -5 48 -10 51
-6 4 -29 -9 -50 -29 -48 -43 -69 -47 -40 -8 24 32 31 83 13 89 -7 2 -26 -21
-43 -51z"/>
<path d="M8337 4186 c-14 -13 -30 -41 -36 -62 -20 -72 21 -106 97 -80 16 5 22
4 22 -8 0 -16 26 -46 41 -46 6 0 8 18 3 46 -5 33 -2 55 11 84 19 42 15 73 -9
64 -8 -3 -17 -16 -20 -29 -8 -30 -73 -87 -94 -83 -21 5 -18 42 4 76 13 20 21
23 50 17 25 -4 34 -2 34 8 0 41 -64 49 -103 13z"/>
<path d="M6075 4192 c-5 -4 -11 -18 -11 -32 -1 -14 -9 -45 -18 -69 -15 -40
-15 -46 -2 -60 9 -8 17 -13 18 -10 6 8 58 164 58 172 0 9 -32 9 -45 -1z"/>
<path d="M8637 4193 c-4 -3 -7 -16 -7 -27 0 -12 -9 -38 -20 -59 -21 -39 -19
-57 5 -57 18 0 55 79 55 118 0 30 -16 42 -33 25z"/>
<path d="M15808 4170 c-35 -27 -53 -72 -39 -98 33 -61 151 -20 151 52 0 61
-62 86 -112 46z m56 -26 c27 -10 18 -41 -15 -54 -42 -18 -56 -1 -29 33 24 30
22 29 44 21z"/>
<path d="M9443 4142 c-35 -27 -47 -70 -28 -98 22 -34 86 -34 120 1 33 32 31
50 -7 86 -37 33 -54 36 -85 11z m58 -43 c16 -8 18 -13 8 -25 -12 -14 -51 -19
-62 -7 -4 3 1 14 11 24 21 22 19 21 43 8z"/>
<path d="M4856 3949 c-3 -8 -7 -36 -11 -64 -4 -27 -24 -104 -46 -171 -41 -128
-48 -184 -24 -204 23 -19 36 -2 29 38 -4 29 4 66 35 157 49 144 61 224 37 244
-13 11 -16 11 -20 0z"/>
<path d="M11125 3950 c-3 -5 -4 -19 0 -29 5 -17 -44 -190 -63 -218 -4 -6 -23
-13 -42 -15 -44 -4 -49 -31 -7 -36 22 -3 27 -7 22 -20 -29 -71 -32 -157 -5
-157 11 0 17 16 21 55 10 84 25 110 66 110 41 0 73 15 73 35 0 12 -10 13 -47
8 -43 -6 -46 -5 -39 13 44 111 67 200 59 227 -9 32 -27 45 -38 27z"/>
<path d="M6304 3923 c-10 -16 -76 -93 -148 -173 -136 -151 -329 -389 -356
-439 -16 -28 -16 -27 -28 62 -19 136 -31 177 -53 177 -23 0 -23 6 1 -110 11
-52 22 -138 26 -191 l7 -96 -31 -6 c-45 -9 -92 -55 -98 -98 -5 -28 -1 -41 18
-64 21 -24 29 -27 60 -21 64 12 88 64 88 193 l0 83 25 -6 c19 -5 25 -2 25 9 0
9 -5 19 -11 22 -7 5 -5 15 6 32 31 47 253 318 325 398 139 152 190 216 190
235 0 29 -25 25 -46 -7z m-554 -832 c0 -39 -22 -81 -45 -87 -52 -13 -61 31
-16 77 33 33 61 38 61 10z"/>
<path d="M16784 3923 c-3 -10 -14 -40 -24 -68 -11 -27 -35 -97 -55 -154 -19
-57 -44 -119 -55 -138 -20 -35 -19 -53 4 -53 19 0 49 62 89 180 20 58 45 127
57 153 22 50 23 88 3 95 -7 2 -16 -5 -19 -15z"/>
<path d="M3540 3910 c-59 -28 -96 -64 -127 -124 -48 -94 -17 -208 69 -252 38
-20 154 -23 188 -5 36 19 70 52 70 68 0 19 -18 16 -47 -7 -39 -30 -92 -41
-149 -31 -99 19 -142 116 -94 211 39 77 109 120 192 120 62 0 81 -9 68 -30 -6
-8 -10 -27 -10 -42 0 -21 5 -28 19 -28 23 0 37 17 47 55 4 17 11 35 16 42 17
21 -21 32 -132 39 -51 3 -75 0 -110 -16z"/>
<path d="M14464 3916 c-3 -8 -3 -19 0 -24 8 -13 -27 -90 -75 -169 -84 -136
-110 -213 -74 -213 8 0 38 22 67 50 29 27 61 50 71 50 20 0 18 -6 -20 -58 -25
-33 -25 -62 -1 -62 12 1 59 67 70 100 3 8 2 25 -3 38 -6 17 -16 22 -42 22 -20
0 -46 -9 -63 -22 l-29 -23 33 55 c68 115 113 212 110 238 -3 30 -35 43 -44 18z"/>
<path d="M5262 3833 c-7 -43 -17 -94 -22 -113 -9 -34 -11 -35 -51 -32 -46 5
-71 -10 -51 -30 7 -7 28 -11 47 -10 l35 3 -6 -55 c-9 -74 2 -128 24 -124 14 3
17 14 14 68 -3 82 5 95 53 87 42 -7 65 0 65 18 0 8 -19 16 -51 20 -46 6 -50 9
-45 29 20 72 39 185 33 199 -15 40 -33 16 -45 -60z"/>
<path d="M16629 3883 c-5 -16 -30 -77 -53 -138 -74 -188 -80 -215 -47 -215 14
0 21 10 25 35 4 19 31 96 61 171 30 74 55 144 55 155 0 29 -29 23 -41 -8z"/>
<path d="M10062 3884 c-25 -17 -52 -72 -109 -223 l-36 -93 -70 7 c-63 6 -68 5
-65 -12 2 -13 18 -21 61 -28 l57 -10 -55 -93 c-78 -131 -107 -192 -101 -208
10 -27 25 -13 63 59 22 39 63 114 93 165 l53 92 53 0 c40 0 54 4 54 14 0 17
-22 26 -61 26 -16 0 -29 5 -29 11 0 25 103 259 114 259 7 0 17 -5 23 -11 12
-12 33 -4 33 11 0 10 -40 50 -50 50 -3 0 -16 -7 -28 -16z"/>
<path d="M7323 3868 c-5 -7 -20 -38 -32 -69 -12 -31 -30 -67 -39 -80 -18 -26
-21 -39 -25 -122 -3 -39 1 -61 10 -68 9 -8 54 -9 149 -4 118 6 135 9 132 24
-3 14 -19 16 -125 13 -105 -2 -121 -1 -127 14 -8 22 3 81 18 93 15 12 124 35
158 33 30 -1 44 21 22 39 -14 12 -47 8 -141 -17 -22 -6 -22 -6 -6 35 13 33 22
42 47 46 17 3 67 11 111 17 59 10 80 17 80 28 0 17 -34 19 -132 6 -54 -7 -63
-6 -63 8 0 19 -24 21 -37 4z"/>
<path d="M15187 3843 c-4 -4 -5 -20 -1 -37 4 -24 -6 -53 -45 -133 -28 -56 -51
-111 -51 -122 0 -34 26 -25 71 24 23 25 45 45 50 45 14 0 10 -49 -7 -81 -16
-33 -13 -59 8 -59 17 0 48 76 48 118 0 39 -33 76 -60 67 -19 -6 -19 -4 2 42
26 58 38 111 31 129 -5 15 -35 19 -46 7z"/>
<path d="M11397 3793 c-3 -4 -1 -18 4 -30 11 -29 41 -20 37 11 -3 21 -32 34
-41 19z"/>
<path d="M16387 3776 c-7 -18 1 -26 25 -26 13 0 18 6 16 17 -4 22 -34 29 -41
9z"/>
<path d="M14740 3750 c0 -15 5 -20 18 -18 9 2 17 10 17 18 0 8 -8 16 -17 18
-13 2 -18 -3 -18 -18z"/>
<path d="M3855 3706 c-31 -31 -50 -101 -36 -133 8 -18 19 -23 46 -23 20 0 45
5 56 10 27 15 52 68 45 96 -4 14 -2 24 4 24 18 0 11 29 -9 40 -34 18 -80 12
-106 -14z m61 -91 c-16 -24 -66 -37 -66 -16 0 29 24 70 43 73 32 5 44 -25 23
-57z"/>
<path d="M5517 3710 c-35 -28 -67 -98 -60 -133 6 -31 53 -72 94 -82 26 -7 78
10 111 36 12 10 15 18 8 29 -8 12 -15 11 -49 -8 -48 -27 -82 -22 -112 17 -20
25 -20 26 -2 29 48 7 64 14 92 38 37 30 39 57 9 78 -30 21 -60 20 -91 -4z m63
-33 c0 -14 -40 -37 -62 -37 -6 0 -1 11 12 25 26 27 50 33 50 12z"/>
<path d="M7609 3702 c-24 -21 -32 -38 -36 -76 -4 -34 -2 -50 8 -56 22 -14 39
10 39 56 0 34 5 46 21 54 16 9 24 8 38 -4 24 -22 41 -20 41 3 0 22 -35 51 -62
51 -10 0 -32 -13 -49 -28z"/>
<path d="M7840 3701 c-48 -26 -72 -62 -77 -118 -4 -37 -1 -52 11 -62 19 -16
22 -10 30 59 3 34 12 52 36 73 34 30 55 34 64 12 8 -22 36 -18 36 4 0 24 -26
51 -48 51 -10 0 -33 -8 -52 -19z"/>
<path d="M10718 3694 c-20 -15 -44 -42 -53 -61 -15 -31 -15 -36 -1 -58 22 -34
46 -44 113 -51 43 -4 63 -2 78 9 28 22 17 27 -58 31 -69 3 -97 16 -97 46 0 25
59 73 79 64 41 -17 51 -16 51 3 0 19 -36 43 -63 43 -7 0 -29 -12 -49 -26z"/>
<path d="M4514 3679 c-27 -18 -50 -31 -51 -30 -14 7 -23 -4 -23 -25 0 -15 -9
-57 -20 -94 -41 -137 -45 -200 -14 -200 13 0 54 114 54 151 0 15 7 19 32 19
63 0 151 123 125 175 -22 44 -39 44 -103 4z m65 -48 c-12 -34 -68 -93 -83 -88
-33 11 -4 76 48 108 37 23 48 17 35 -20z"/>
<path d="M10258 3678 c-14 -18 -32 -47 -41 -64 -15 -29 -101 -104 -119 -104
-4 0 -8 -7 -8 -15 0 -22 37 -19 71 6 16 11 29 16 29 10 0 -17 47 -13 88 8 l37
19 0 -31 c0 -22 5 -33 18 -35 12 -3 17 3 17 20 0 13 9 47 19 75 22 60 11 74
-29 38 -28 -26 -102 -67 -108 -60 -2 2 10 24 27 49 43 62 53 92 37 105 -10 9
-19 4 -38 -21z"/>
<path d="M15950 3680 c-56 -31 -110 -77 -110 -92 0 -23 34 -18 63 10 31 29
115 77 123 70 6 -7 -37 -81 -67 -116 -55 -62 -25 -96 47 -52 l32 21 7 -21 c3
-11 18 -23 32 -26 21 -6 31 -1 50 22 13 16 30 49 39 74 9 25 21 55 27 68 8 16
8 25 0 33 -15 15 -53 -23 -53 -53 0 -12 -12 -41 -26 -66 -19 -33 -29 -41 -35
-31 -4 8 -6 24 -3 35 7 27 -12 40 -31 24 -20 -16 -19 -12 6 39 43 89 -1 116
-101 61z"/>
<path d="M6885 3684 c-17 -8 -34 -22 -38 -30 -4 -8 -14 -14 -21 -14 -20 0 -68
-112 -53 -122 13 -8 23 2 74 75 17 25 42 51 54 57 22 12 22 12 16 -53 -5 -50
-3 -68 8 -77 20 -17 28 7 29 88 1 54 -2 66 -19 78 -18 11 -25 11 -50 -2z"/>
<path d="M12105 3683 c-55 -29 -56 -41 -10 -92 41 -45 43 -55 13 -75 -32 -23
-56 -20 -60 7 -4 28 -32 29 -36 0 -10 -67 61 -86 123 -32 44 39 45 70 5 106
-16 14 -30 32 -30 39 0 18 69 30 91 16 19 -12 29 -6 29 19 0 32 -74 40 -125
12z"/>
<path d="M13052 3688 c-5 -7 -13 -27 -16 -44 l-7 -31 -42 14 c-30 10 -73 13
-157 10 -103 -4 -115 -6 -115 -22 0 -23 50 -38 76 -25 26 14 147 12 199 -4
l45 -14 -27 -12 c-16 -7 -28 -19 -28 -26 0 -17 71 -24 90 -9 8 7 29 15 45 19
36 9 105 52 105 66 0 6 -9 10 -19 10 -11 0 -23 5 -27 11 -3 6 -26 20 -50 31
-24 10 -44 23 -44 28 0 14 -16 12 -28 -2z"/>
<path d="M2861 3664 c-27 -35 -53 -106 -49 -135 3 -21 9 -24 50 -27 42 -3 51
1 82 30 68 65 51 158 -29 158 -24 0 -39 -7 -54 -26z m67 -36 c31 -31 -6 -88
-58 -88 -18 0 -20 4 -14 23 21 68 46 91 72 65z"/>
<path d="M3087 3663 c-38 -27 -72 -86 -61 -104 10 -18 35 -9 44 16 11 28 57
75 73 75 6 0 7 -18 3 -47 -12 -82 -12 -87 5 -91 20 -4 28 15 36 89 9 92 -27
114 -100 62z"/>
<path d="M4935 3663 c-66 -89 -58 -159 21 -179 34 -9 155 12 165 28 15 24 -8
30 -69 18 -60 -12 -112 -8 -112 9 0 5 13 11 30 14 65 13 90 75 47 115 -31 29
-58 27 -82 -5z m60 -38 c0 -12 -12 -24 -33 -32 -33 -13 -33 -13 -21 9 26 51
54 62 54 23z"/>
<path d="M14035 3678 c-11 -6 -44 -33 -73 -60 -30 -26 -58 -48 -63 -48 -5 0
-9 -9 -9 -20 0 -11 5 -20 10 -20 17 0 62 31 108 74 l42 41 -32 -72 c-25 -58
-29 -75 -19 -86 15 -19 43 -11 72 19 l23 25 11 -43 c17 -70 75 -61 122 19 30
51 39 168 13 168 -11 0 -17 -16 -22 -57 -8 -67 -30 -113 -60 -129 -20 -11 -21
-10 -14 39 5 38 3 52 -9 62 -13 11 -20 9 -43 -11 -15 -13 -30 -28 -34 -34 -15
-19 -8 3 18 59 14 31 23 63 20 71 -6 18 -33 19 -61 3z"/>
<path d="M4117 3671 c-22 -4 -32 -15 -41 -42 -7 -20 -23 -51 -36 -68 -16 -24
-19 -36 -11 -44 13 -13 41 10 83 71 40 58 51 54 46 -15 -4 -77 13 -79 86 -12
l56 51 0 -34 c0 -35 15 -58 37 -58 9 0 11 12 6 48 -14 105 -30 113 -98 51
l-45 -42 0 30 c0 32 -25 74 -43 72 -7 -1 -25 -4 -40 -8z"/>
<path d="M6600 3639 c-41 -42 -55 -73 -48 -106 3 -15 13 -18 56 -18 43 1 57 6
82 30 38 37 42 95 8 119 -35 25 -55 19 -98 -25z m80 -34 c0 -25 -41 -55 -75
-55 -21 0 -19 8 11 47 30 40 64 45 64 8z"/>
<path d="M8042 3655 c-43 -24 -70 -53 -82 -91 -12 -36 -11 -39 14 -61 40 -34
81 -30 122 11 28 28 34 42 34 75 0 28 -7 48 -20 61 -23 23 -35 24 -68 5z m48
-70 c0 -27 -31 -65 -54 -65 -35 0 -45 11 -35 38 12 34 36 52 66 52 18 0 23 -6
23 -25z"/>
<path d="M8247 3652 c-21 -23 -37 -68 -39 -109 -1 -39 12 -56 36 -47 14 5 16
14 12 39 -9 46 11 95 38 95 13 0 31 -9 41 -20 24 -27 35 -25 35 4 0 49 -89 76
-123 38z"/>
<path d="M10527 3650 c-16 -13 -28 -16 -32 -10 -4 6 -11 8 -16 4 -11 -7 -59
-99 -59 -114 0 -23 32 -7 72 36 42 46 76 70 85 60 3 -2 -7 -27 -22 -55 -26
-46 -28 -81 -6 -81 12 0 71 114 71 138 0 43 -50 55 -93 22z"/>
<path d="M11756 3663 c-3 -4 -6 -20 -6 -37 0 -17 -11 -51 -25 -75 -30 -52 -31
-61 -5 -61 12 0 45 26 80 63 65 68 75 63 44 -24 -10 -26 -14 -54 -11 -63 9
-22 37 -20 37 3 0 10 7 35 15 54 20 49 20 123 -1 131 -27 10 -35 7 -65 -25
l-29 -31 0 30 c0 28 -20 48 -34 35z"/>
<path d="M11316 3594 c-30 -65 -32 -80 -12 -87 10 -4 24 14 45 60 17 36 28 69
25 74 -13 22 -34 5 -58 -47z"/>
<path d="M11527 3621 c-47 -42 -66 -87 -45 -108 25 -24 104 -29 128 -8 11 10
20 25 20 34 0 23 -43 104 -57 108 -6 2 -27 -10 -46 -26z m47 -47 c26 -25 20
-44 -13 -44 -38 0 -48 16 -25 41 21 23 19 23 38 3z"/>
<path d="M14815 3627 c-22 -12 -46 -35 -53 -51 -13 -25 -12 -30 9 -52 28 -30
81 -47 134 -42 27 2 40 8 40 18 0 11 -15 16 -55 20 -30 3 -65 12 -78 21 -21
15 -21 17 -5 31 32 28 64 40 89 34 36 -9 49 2 28 25 -23 25 -60 24 -109 -4z"/>
<path d="M14614 3623 c-3 -10 -13 -34 -21 -55 -15 -37 -12 -58 10 -58 15 0 50
83 45 106 -4 24 -27 29 -34 7z"/>
<path d="M16305 3610 c-3 -5 -3 -10 0 -10 4 0 -3 -14 -15 -30 -21 -29 -21 -60
-1 -60 21 0 55 64 52 98 -1 14 -27 16 -36 2z"/>
<path d="M2754 3419 c-4 -7 -15 -68 -25 -136 -11 -78 -23 -131 -33 -142 -8 -9
-18 -42 -22 -74 -9 -75 10 -107 63 -107 30 0 45 8 89 53 57 57 73 95 55 133
-8 19 -18 24 -49 24 -24 0 -49 -8 -65 -20 l-25 -20 8 32 c5 18 15 81 23 141
11 85 11 110 1 118 -8 7 -15 6 -20 -2z m96 -303 c0 -18 -59 -91 -87 -106 -12
-7 -29 -10 -38 -7 -14 6 -14 10 -1 34 23 45 76 93 102 93 14 0 24 -6 24 -14z"/>
<path d="M8403 3423 c-7 -3 -15 -19 -17 -36 -3 -18 -10 -68 -17 -112 -12 -85
-18 -95 -61 -95 -34 0 -45 -17 -25 -38 14 -13 21 -13 42 -4 26 12 26 11 21
-15 -15 -78 -17 -131 -6 -138 19 -12 34 12 37 58 5 87 12 105 42 112 15 3 32
5 37 4 40 -7 48 25 8 35 -14 4 -34 4 -45 1 -23 -8 -23 -12 -4 110 14 97 11
126 -12 118z"/>
<path d="M16227 3404 c-4 -4 -7 -15 -7 -24 0 -9 -23 -60 -51 -113 -92 -178
-111 -279 -58 -304 19 -9 35 -10 65 -2 59 16 74 35 74 90 0 73 -25 89 -95 63
-15 -6 -15 -4 0 32 9 22 34 72 56 113 39 73 54 140 33 148 -5 2 -13 0 -17 -3z
m-17 -354 c0 -37 -2 -40 -37 -49 -46 -13 -62 -1 -44 32 11 22 56 56 74 57 4 0
7 -18 7 -40z"/>
<path d="M9125 3368 c-20 -62 -55 -270 -55 -333 0 -27 4 -35 19 -35 15 0 19
11 24 73 4 40 16 121 27 180 12 59 18 112 15 117 -9 14 -25 12 -30 -2z"/>
<path d="M9247 3374 c-4 -4 -7 -19 -7 -33 0 -26 -34 -155 -65 -246 -29 -86
-32 -101 -24 -123 15 -39 36 -26 42 27 3 27 22 97 42 155 36 107 51 215 29
223 -5 2 -13 0 -17 -3z"/>
<path d="M13221 3331 c-11 -27 -21 -56 -21 -63 0 -8 -16 -47 -36 -88 -29 -62
-37 -72 -45 -57 -18 31 -65 21 -114 -24 -46 -43 -55 -71 -35 -110 14 -26 70
-25 104 2 60 47 136 170 163 263 8 28 21 61 29 73 15 24 9 53 -11 53 -7 0 -22
-22 -34 -49z m-137 -247 c10 -26 -33 -74 -66 -74 -29 0 -21 36 15 64 38 30 43
31 51 10z"/>
<path d="M11315 3360 c-3 -5 -3 -20 0 -33 7 -25 -29 -132 -48 -144 -7 -4 -30
-10 -52 -13 -51 -6 -56 -34 -7 -38 30 -3 33 -6 27 -25 -12 -36 -18 -96 -11
-113 10 -25 36 2 36 37 0 16 7 46 16 68 13 32 22 41 52 48 41 10 51 36 15 41
l-21 3 21 57 c13 36 18 67 14 84 -7 27 -32 44 -42 28z"/>
<path d="M11471 3318 c-7 -24 -32 -86 -57 -140 -60 -132 -73 -198 -40 -198 7
0 36 32 65 70 28 39 54 70 57 70 12 0 -7 -52 -37 -100 -29 -48 -31 -70 -6 -70
13 0 74 98 83 134 8 32 -12 76 -35 76 -11 0 -34 -14 -51 -32 l-32 -32 27 54
c33 65 75 175 75 195 0 8 -8 15 -18 15 -13 0 -22 -12 -31 -42z"/>
<path d="M5190 3328 c-5 -13 -22 -58 -37 -101 -26 -73 -30 -77 -53 -72 -43 11
-45 10 -45 -10 0 -12 9 -21 25 -25 24 -6 25 -10 25 -74 0 -62 3 -70 28 -92 32
-27 101 -33 132 -11 25 19 4 31 -50 29 -60 -3 -70 8 -69 73 1 31 5 59 9 63 3
4 32 9 63 12 42 4 57 9 57 20 0 11 -14 16 -52 18 l-51 3 29 79 c27 74 29 110
8 110 -5 0 -14 -10 -19 -22z"/>
<path d="M6833 3303 c-24 -5 -63 -47 -63 -69 0 -7 16 -33 35 -58 42 -55 43
-74 8 -112 l-27 -29 -8 38 c-5 24 -4 46 3 59 12 23 -2 45 -21 33 -21 -13 -30
-54 -21 -101 14 -73 42 -82 99 -30 32 30 37 40 37 79 0 35 -6 51 -32 81 -18
20 -33 41 -33 47 0 17 48 29 76 19 35 -14 54 -12 54 4 0 11 -73 50 -83 45 -1
-1 -12 -4 -24 -6z"/>
<path d="M14735 3301 c-10 -17 4 -31 31 -31 19 0 25 5 22 18 -4 19 -43 29 -53
13z"/>
<path d="M10323 3264 c-8 -21 13 -42 28 -27 13 13 5 43 -11 43 -6 0 -13 -7
-17 -16z"/>
<path d="M8643 3263 c-20 -7 -15 -31 8 -44 29 -15 45 1 30 30 -12 21 -17 23
-38 14z"/>
<path d="M7029 3201 c-91 -96 -63 -190 57 -191 42 0 81 20 71 37 -4 6 -28 8
-57 5 -39 -4 -55 -1 -70 13 -29 26 -25 30 30 31 76 1 108 41 78 97 -14 27 -38
46 -57 47 -8 0 -31 -18 -52 -39z m81 -42 c0 -11 -3 -19 -7 -19 -5 0 -25 -4
-45 -9 -21 -5 -38 -7 -38 -5 0 2 14 19 31 39 25 28 34 33 45 24 8 -6 14 -20
14 -30z"/>
<path d="M3758 3203 c-69 -75 -77 -148 -17 -178 53 -28 169 -7 169 29 0 19 -7
19 -63 4 -24 -6 -56 -8 -72 -4 l-29 7 39 18 c73 33 98 82 64 124 -26 35 -59
34 -91 0z m68 -25 c4 -6 -6 -23 -25 -40 -51 -46 -71 -31 -28 22 24 31 41 37
53 18z"/>
<path d="M2967 3202 c-24 -26 -47 -87 -47 -122 0 -46 31 -70 88 -69 67 1 126
21 130 43 4 17 0 18 -39 11 -108 -21 -191 0 -100 25 63 17 92 77 55 114 -21
21 -67 20 -87 -2z m61 -39 c-3 -17 -48 -46 -57 -38 -2 2 4 16 13 30 19 29 49
34 44 8z"/>
<path d="M4126 3159 l-60 -49 -26 25 c-46 44 -68 26 -30 -22 l20 -26 -35 -25
c-32 -23 -46 -58 -29 -75 9 -9 34 4 34 18 0 12 41 45 57 45 5 0 20 -20 35 -45
30 -49 53 -64 71 -46 8 8 6 17 -9 33 -11 13 -29 37 -42 55 l-22 32 55 42 c50
37 69 70 48 82 -5 2 -35 -18 -67 -44z"/>
<path d="M13390 3197 c-42 -20 -78 -47 -94 -73 -14 -21 -15 -28 -2 -58 8 -18
24 -41 37 -50 43 -30 180 -9 187 28 3 16 -1 18 -30 12 -87 -17 -123 -17 -143
-3 -19 15 -19 16 10 22 52 12 114 54 121 80 12 48 -30 68 -86 42z m50 -32 c0
-8 -64 -45 -78 -45 -21 0 -3 19 31 34 36 16 47 18 47 11z"/>
<path d="M15176 3169 c-71 -64 -77 -113 -20 -158 42 -33 163 -24 194 15 22 26
-2 36 -43 19 -43 -18 -118 -20 -135 -3 -20 20 -13 35 19 42 55 11 99 44 99 75
0 63 -52 68 -114 10z m74 -9 c0 -11 -33 -30 -52 -30 -7 0 -2 9 12 20 28 22 40
25 40 10z"/>
<path d="M15464 3202 c-6 -4 -28 -39 -48 -78 -60 -117 -46 -138 43 -64 l60 50
-6 -35 c-8 -48 17 -75 67 -75 41 0 51 6 43 26 -3 8 -19 14 -39 14 -39 0 -42
11 -20 75 26 72 -15 82 -82 21 l-24 -21 18 38 c18 37 11 64 -12 49z"/>
<path d="M7274 3147 c-45 -45 -54 -60 -54 -89 0 -51 42 -83 88 -67 17 7 22 5
22 -9 0 -42 -23 -149 -60 -284 -22 -81 -40 -156 -40 -168 0 -46 30 -11 93 110
l65 125 46 3 c25 2 46 6 46 11 0 17 -27 31 -61 31 -29 0 -43 -7 -63 -31 -14
-17 -26 -35 -26 -41 0 -6 -2 -9 -5 -6 -3 2 2 27 10 54 7 27 21 94 30 148 8 55
24 119 35 144 26 59 26 86 1 79 -15 -3 -21 1 -23 17 -6 42 -45 32 -104 -27z
m91 -7 c11 0 12 -6 4 -29 -15 -43 -54 -81 -84 -81 -41 0 -34 44 17 94 25 25
43 36 45 29 3 -7 11 -13 18 -13z"/>
<path d="M7554 3164 c-22 -33 -31 -119 -14 -139 42 -51 156 40 148 118 -4 42
-32 44 -36 2 -4 -35 -47 -95 -68 -95 -19 0 -18 46 1 84 8 15 15 35 15 42 0 23
-28 16 -46 -12z"/>
<path d="M12876 3179 c-39 -11 -66 -37 -88 -86 -14 -33 -16 -47 -8 -63 13 -24
44 -15 37 11 -5 18 26 78 47 91 19 13 46 9 46 -6 0 -17 27 -29 36 -15 10 16
-5 58 -24 67 -9 5 -30 6 -46 1z"/>
<path d="M13664 3162 c-50 -36 -100 -124 -80 -141 15 -13 39 9 50 46 9 29 72
83 96 83 13 0 20 -7 20 -20 0 -24 28 -27 37 -4 3 8 1 26 -5 40 -16 34 -67 33
-118 -4z"/>
<path d="M14966 3148 c-34 -51 -76 -98 -89 -98 -6 0 -7 21 -4 50 5 44 4 50
-12 50 -11 0 -22 -7 -25 -16 -11 -29 -6 -100 8 -120 14 -19 15 -19 52 1 34 18
104 97 104 116 0 5 11 9 24 9 49 0 45 33 -5 45 -22 5 -29 0 -53 -37z"/>
<path d="M4507 3160 c-53 -42 -57 -122 -10 -160 43 -33 202 -23 190 13 -3 8
-25 11 -76 8 -58 -2 -76 0 -92 14 -25 23 -24 46 2 79 25 31 64 34 79 6 15 -28
40 -25 40 4 0 52 -84 74 -133 36z"/>
<path d="M7812 3149 c-36 -35 -47 -67 -38 -104 15 -61 71 -80 143 -50 28 12
33 18 24 29 -9 10 -21 11 -57 3 -41 -10 -48 -9 -60 8 -12 17 -12 20 3 28 45
23 93 61 93 73 0 16 -39 44 -60 44 -9 0 -31 -14 -48 -31z m57 -12 c-2 -1 -13
-9 -24 -17 -19 -14 -19 -14 -6 3 7 9 18 17 24 17 6 0 8 -1 6 -3z"/>
<path d="M4906 3152 c-3 -9 -5 -34 -4 -54 2 -65 -58 -120 -97 -88 -20 17 -19
69 2 92 19 21 5 45 -21 35 -41 -16 -48 -116 -11 -152 28 -29 65 -32 106 -8 59
35 92 160 50 183 -16 8 -21 6 -25 -8z"/>
<path d="M5426 3139 c-43 -37 -55 -83 -32 -128 17 -31 63 -52 99 -43 16 4 25
31 10 33 -47 4 -83 21 -83 39 0 4 20 15 45 25 52 19 71 45 56 74 -10 18 -32
31 -51 31 -5 0 -25 -14 -44 -31z m48 -30 c-31 -12 -40 -9 -20 6 10 8 24 11 29
8 6 -4 2 -10 -9 -14z"/>
<path d="M8076 3149 c-30 -24 -65 -88 -59 -106 9 -25 30 -12 48 28 19 42 48
65 66 53 6 -4 9 -30 7 -62 -3 -61 15 -83 32 -37 18 47 12 99 -13 123 -29 27
-47 28 -81 1z"/>
<path d="M11712 3143 c-68 -62 -91 -138 -50 -167 49 -35 245 1 209 37 -7 7
-30 6 -68 -2 -78 -17 -118 -12 -118 14 0 16 9 21 42 26 46 6 83 32 83 59 0 18
-40 60 -57 60 -6 0 -24 -12 -41 -27z m52 -32 c3 -5 -1 -12 -10 -15 -27 -11
-37 -7 -24 9 14 17 26 19 34 6z"/>
<path d="M12584 3134 c-27 -28 -34 -44 -34 -74 0 -80 65 -95 125 -29 33 37 37
46 32 82 -6 45 -19 57 -61 57 -20 0 -39 -11 -62 -36z m86 -36 c0 -16 -51 -68
-67 -68 -16 0 -17 52 -1 68 16 16 68 16 68 0z"/>
<path d="M14378 3145 c-38 -25 -55 -62 -45 -90 10 -23 55 -30 92 -12 l32 15
-9 -46 c-10 -57 -15 -74 -35 -130 -15 -40 -18 -43 -46 -36 -110 24 -152 -5
-145 -100 8 -103 61 -107 145 -10 38 43 49 51 64 44 10 -6 27 -10 38 -10 31 0
26 29 -8 41 l-28 10 23 64 c13 35 29 102 36 149 12 83 11 87 -9 105 -35 33
-64 34 -105 6z m60 -32 c-4 -21 -54 -51 -65 -39 -8 8 41 56 58 56 6 0 9 -8 7
-17z m-78 -316 c0 -16 -71 -87 -87 -87 -9 0 -13 15 -13 45 0 37 4 47 21 53 27
11 79 3 79 -11z"/>
<path d="M4273 3138 c-50 -55 -54 -110 -11 -155 16 -18 32 -23 68 -23 51 0 61
5 53 26 -3 9 -21 14 -49 14 -32 0 -46 5 -53 19 -9 16 -7 20 13 25 31 8 76 44
76 62 0 20 -37 54 -58 54 -10 0 -28 -10 -39 -22z m47 -28 c0 -5 -10 -15 -22
-21 -23 -12 -23 -12 -4 10 21 23 26 26 26 11z"/>
<path d="M14673 3148 c-13 -18 -33 -90 -33 -122 0 -20 4 -27 16 -24 11 2 22
26 34 73 10 39 16 73 13 78 -6 11 -19 9 -30 -5z"/>
<path d="M9484 3126 c-16 -14 -43 -43 -59 -66 l-29 -41 -15 28 c-29 53 -65 93
-82 93 -34 0 -30 -21 10 -62 23 -22 41 -48 41 -57 0 -9 3 -25 6 -36 4 -15 -12
-39 -56 -90 -114 -131 -172 -235 -132 -235 5 0 29 30 54 68 25 37 69 93 97
125 28 32 70 86 93 119 52 77 106 138 124 138 20 0 28 21 13 31 -21 13 -31 11
-65 -15z"/>
<path d="M10435 3142 c-27 -19 -96 -113 -90 -122 12 -20 34 -9 66 33 18 23 36
46 40 51 4 4 13 -2 19 -14 9 -18 9 -28 0 -46 -13 -24 -8 -54 9 -54 13 0 41 53
41 76 0 10 -10 33 -22 51 -22 32 -43 40 -63 25z"/>
<path d="M8567 3133 c-2 -5 -5 -28 -5 -53 -1 -25 -4 -57 -7 -72 -7 -28 10 -47
27 -30 5 5 13 34 18 63 4 30 11 64 15 77 6 19 4 22 -18 22 -14 0 -28 -3 -30
-7z"/>
<path d="M10251 3074 c-38 -82 -41 -117 -8 -112 16 2 22 10 23 28 1 14 11 47
23 73 22 46 22 77 2 77 -5 0 -23 -30 -40 -66z"/>
<path d="M8776 3089 c-21 -22 -36 -48 -34 -57 4 -23 72 -28 102 -9 21 14 23
13 33 -14 12 -32 39 -47 54 -32 7 7 5 16 -7 27 -10 11 -17 35 -18 63 -1 36 -5
48 -21 54 -45 17 -72 10 -109 -32z m65 -19 c-13 -11 -31 -20 -40 -20 -12 1
-11 5 8 20 13 11 31 20 40 20 12 -1 11 -5 -8 -20z"/>
<path d="M16407 3123 c-4 -3 -7 -34 -7 -69 0 -49 4 -63 17 -68 13 -6 5 -19
-45 -69 -71 -72 -132 -169 -132 -209 0 -32 27 -40 36 -10 21 66 50 109 134
197 122 129 180 199 180 219 0 31 -27 15 -74 -43 -56 -69 -76 -71 -76 -6 0 40
-19 73 -33 58z"/>
<path d="M3086 2898 c-1 -7 -20 -68 -42 -136 l-39 -123 -32 6 c-39 7 -71 -18
-52 -41 8 -9 16 -11 21 -6 6 6 18 7 29 5 17 -5 19 -12 14 -67 -6 -65 3 -93 29
-83 11 4 14 14 10 34 -3 15 -1 46 3 67 8 36 12 40 58 54 28 8 53 19 57 25 13
21 -9 29 -47 17 -20 -7 -39 -10 -41 -7 -3 3 13 60 35 127 23 66 39 125 36 131
-9 13 -35 11 -39 -3z"/>
<path d="M3236 2898 c-2 -7 -32 -100 -67 -206 -72 -221 -71 -240 7 -179 50 39
64 45 64 26 0 -23 -23 -89 -32 -89 -12 0 -10 -34 5 -53 17 -23 30 -10 46 48
37 132 17 168 -71 131 -13 -6 -6 24 33 144 28 83 49 159 47 168 -4 20 -27 28
-32 10z"/>
<path d="M13439 2893 c-5 -71 -17 -115 -60 -215 -52 -125 -56 -150 -25 -156
20 -4 41 19 26 28 -4 3 10 48 32 100 53 128 72 203 58 230 -10 20 -29 27 -31
13z"/>
<path d="M10047 2853 c-8 -10 -38 -70 -66 -133 -28 -63 -65 -141 -81 -173 -17
-31 -28 -62 -25 -67 14 -22 57 -8 111 36 l56 46 -4 -58 c-2 -39 1 -58 9 -61
33 -11 47 138 16 156 -21 11 -46 0 -90 -42 l-33 -31 36 84 c19 47 53 121 75
165 21 44 39 84 39 88 0 13 -27 7 -43 -10z"/>
<path d="M15296 2838 c-4 -18 -24 -67 -44 -108 l-37 -75 -58 -6 c-60 -7 -84
-19 -73 -38 4 -6 26 -8 57 -4 l50 6 -26 -38 c-14 -21 -28 -49 -31 -62 -8 -30
19 -71 52 -79 51 -13 165 18 154 41 -5 11 -15 11 -101 0 -75 -10 -83 8 -35 84
l34 56 67 3 c56 2 66 6 63 20 -2 13 -17 18 -58 22 -31 3 -50 8 -43 13 17 11
75 167 69 183 -10 26 -34 15 -40 -18z"/>
<path d="M4371 2823 c-23 -46 -70 -197 -82 -267 -11 -67 -11 -79 1 -86 11 -7
25 1 52 27 l38 37 0 -33 c0 -38 15 -71 33 -71 8 0 13 27 14 90 2 104 -7 113
-65 58 l-34 -33 7 40 c4 22 21 78 37 125 41 116 44 130 25 130 -9 0 -20 -8
-26 -17z"/>
<path d="M9635 2801 c-93 -6 -115 -13 -115 -35 0 -10 21 -12 94 -8 l94 5 -50
-103 c-57 -116 -69 -169 -44 -189 22 -18 31 -7 32 37 0 23 21 79 55 149 l54
113 78 0 c59 0 77 3 77 14 0 8 -7 17 -16 20 -17 7 -123 5 -259 -3z"/>
<path d="M13195 2791 c-8 -25 1 -41 21 -41 18 0 18 34 0 49 -11 10 -16 8 -21
-8z"/>
<path d="M5275 2760 c-8 -14 13 -40 32 -40 20 0 12 44 -9 48 -9 2 -19 -2 -23
-8z"/>
<path d="M11460 2732 c0 -33 36 -74 45 -51 8 23 -10 74 -28 77 -13 3 -17 -4
-17 -26z"/>
<path d="M12637 2753 c-12 -11 -8 -41 6 -46 15 -6 41 29 32 43 -7 11 -29 13
-38 3z"/>
<path d="M4836 2722 c-6 -11 6 -27 26 -35 20 -7 31 16 15 32 -13 13 -34 14
-41 3z"/>
<path d="M13881 2704 c-56 -40 -101 -150 -69 -170 14 -9 38 23 38 53 0 13 16
40 35 61 l34 37 31 -17 c38 -21 50 -22 50 -5 0 44 -77 70 -119 41z"/>
<path d="M12393 2679 c-57 -28 -61 -48 -22 -105 l32 -47 -27 -24 c-34 -29 -46
-29 -43 0 1 16 -3 22 -18 22 -16 0 -21 -8 -23 -36 -5 -55 16 -66 73 -39 52 25
87 64 78 88 -4 9 -19 34 -35 54 l-29 37 30 16 c38 19 67 19 75 0 9 -25 36 -18
36 10 0 47 -58 58 -127 24z"/>
<path d="M10277 2666 c-7 -18 1 -26 25 -26 13 0 18 6 16 17 -4 22 -34 29 -41
9z"/>
<path d="M13644 2670 c-11 -4 -37 -24 -57 -43 -38 -35 -48 -72 -25 -95 15 -15
63 -16 89 -2 15 8 19 7 19 -4 0 -23 35 -39 49 -23 7 9 7 17 1 23 -7 7 -5 23 5
47 14 34 14 40 0 67 -9 17 -20 30 -24 30 -5 0 -15 2 -23 4 -7 3 -22 1 -34 -4z
m44 -53 c4 -18 -51 -57 -80 -57 -28 0 -21 16 19 49 40 33 56 35 61 8z"/>
<path d="M4094 2653 c-12 -2 -36 -19 -54 -38 -41 -43 -54 -123 -25 -155 27
-30 78 -35 133 -15 62 23 75 34 62 50 -9 11 -23 9 -70 -8 -68 -25 -93 -18 -98
26 -8 65 57 119 99 81 14 -13 22 -15 31 -6 25 25 -32 72 -78 65z"/>
<path d="M5610 2632 c-35 -35 -58 -106 -43 -130 16 -26 71 -27 105 -2 16 12
31 20 33 18 3 -2 -20 -251 -24 -275 -1 -2 -30 -3 -65 -3 -58 0 -67 -3 -85 -26
-17 -21 -21 -41 -21 -98 0 -43 6 -82 15 -99 14 -27 14 -28 -8 -26 -72 7 -131
-76 -72 -103 34 -15 100 5 121 38 16 23 15 26 -1 44 -18 19 -17 20 8 20 14 0
39 11 55 25 35 29 82 117 82 152 0 21 4 24 36 21 50 -4 56 18 9 37 -33 14 -35
18 -31 48 13 83 37 379 32 385 -4 3 -15 1 -26 -6 -12 -7 -21 -8 -25 -2 -13 21
-66 10 -95 -18z m86 -34 c5 -17 0 -28 -27 -50 -52 -44 -84 -36 -58 15 30 58
72 75 85 35z m-26 -418 c0 -32 -28 -92 -57 -122 -47 -50 -63 -34 -63 61 0 31
5 62 12 69 7 7 34 12 60 12 42 0 48 -3 48 -20z m-155 -246 c-16 -7 -37 -13
-45 -13 -29 0 15 24 46 25 l29 1 -30 -13z"/>
<path d="M11542 2635 c-70 -32 -75 -50 -27 -90 l38 -32 -24 -17 c-29 -20 -40
-21 -33 -2 8 21 -16 31 -33 13 -20 -20 -8 -55 22 -63 40 -10 105 38 105 77 0
6 -14 23 -31 38 l-30 28 40 17 c23 9 51 16 64 16 29 0 51 15 43 29 -12 19 -78
12 -134 -14z"/>
<path d="M12873 2621 c-37 -29 -49 -35 -46 -21 7 27 -30 45 -59 29 -69 -37
-154 -134 -138 -159 9 -15 50 -4 50 14 0 19 35 61 72 87 l30 22 -27 -41 c-25
-38 -27 -62 -4 -62 14 0 97 56 138 94 33 30 34 31 26 6 -16 -54 -12 -75 16
-78 24 -3 26 0 27 40 1 24 3 57 4 73 4 46 -28 44 -89 -4z"/>
<path d="M5392 2625 c-40 -34 -75 -104 -60 -122 12 -15 38 0 38 21 0 21 61 86
81 86 16 0 18 -5 13 -27 -4 -16 -13 -38 -21 -51 -16 -26 -2 -55 22 -46 21 8
48 119 35 144 -16 29 -71 27 -108 -5z"/>
<path d="M11360 2575 c-34 -61 -40 -79 -30 -90 15 -18 46 -20 56 -4 3 6 1 15
-6 19 -10 6 -5 22 20 64 30 53 34 86 11 86 -5 0 -28 -34 -51 -75z"/>
<path d="M13097 2638 c-9 -5 -17 -18 -17 -28 0 -10 -4 -22 -10 -25 -14 -9 -12
-62 3 -67 23 -9 37 4 37 36 0 18 7 41 15 52 8 10 15 22 15 25 0 13 -26 17 -43
7z"/>
<path d="M10383 2620 c-40 -24 -42 -47 -7 -75 23 -18 25 -24 15 -43 -6 -12
-21 -27 -33 -33 -19 -10 -20 -9 -15 10 7 28 -19 40 -41 18 -13 -13 -13 -21 -4
-42 16 -35 38 -41 78 -21 45 21 72 78 53 113 -7 12 -16 23 -21 23 -4 0 -8 4
-8 10 0 5 18 14 41 20 23 7 39 16 36 23 -6 20 -60 19 -94 -3z"/>
<path d="M15522 2610 c-33 -23 -42 -37 -42 -59 0 -34 39 -71 75 -71 34 0 75
37 75 68 0 22 -49 92 -64 92 -2 0 -22 -14 -44 -30z m54 -40 c8 0 14 -6 14 -14
0 -20 -27 -39 -45 -32 -25 9 -29 36 -9 51 11 7 21 9 22 4 2 -5 10 -9 18 -9z"/>
<path d="M3405 2610 c-40 -16 -67 -57 -67 -99 1 -39 22 -94 43 -106 13 -9 106
-8 120 0 21 14 -13 35 -54 33 -29 -1 -44 4 -53 17 -21 28 -17 45 10 45 25 0
76 50 76 75 0 8 -10 21 -22 29 -25 18 -25 18 -53 6z m17 -62 c-6 -6 -16 -7
-23 -3 -9 6 -7 12 7 22 21 15 34 -1 16 -19z"/>
<path d="M4563 2588 c-41 -44 -56 -74 -48 -99 6 -17 14 -20 45 -17 35 3 39 1
44 -25 6 -30 26 -43 52 -33 15 6 15 8 0 25 -15 17 -16 26 -5 84 10 53 10 69
-1 82 -20 24 -54 18 -87 -17z m57 -18 c0 -14 -50 -64 -57 -57 -3 3 5 20 17 36
21 31 40 40 40 21z"/>
<path d="M4963 2600 c-38 -23 -104 -108 -100 -130 4 -28 34 -22 47 9 14 36 83
101 106 101 17 0 12 -29 -13 -68 -16 -26 -11 -52 10 -52 14 0 33 33 48 84 6
22 5 36 -6 53 -19 28 -50 29 -92 3z"/>
<path d="M12559 2583 c-6 -16 -17 -41 -25 -56 -16 -32 -19 -67 -6 -67 26 0 79
108 68 137 -9 22 -26 15 -37 -14z"/>
<path d="M5222 2588 c-7 -7 -12 -18 -12 -26 0 -8 -10 -31 -21 -52 -22 -39 -20
-75 4 -68 15 5 44 63 53 106 7 38 -5 59 -24 40z"/>
<path d="M10177 2564 c-4 -4 -7 -15 -7 -24 0 -10 -9 -29 -20 -43 -25 -32 -25
-44 0 -57 17 -9 22 -6 36 27 19 45 23 94 8 100 -5 2 -13 0 -17 -3z"/>
<path d="M4750 2543 c0 -10 -7 -38 -16 -62 -16 -48 -13 -74 9 -65 14 5 47 96
47 127 0 10 -8 17 -20 17 -12 0 -20 -7 -20 -17z"/>
<path d="M6025 2524 c-12 -12 -13 -19 -4 -30 14 -17 49 3 49 28 0 22 -23 23
-45 2z"/>
<path d="M17186 2483 c-20 -58 -20 -73 -1 -73 15 0 55 77 55 106 0 8 -9 14
-19 14 -14 0 -24 -13 -35 -47z"/>
<path d="M17296 2471 c-9 -16 -16 -49 -16 -71 0 -34 3 -41 18 -38 16 3 26 34
35 112 3 31 -21 29 -37 -3z"/>
<path d="M2761 2378 c-5 -13 -14 -59 -21 -103 -6 -44 -29 -133 -52 -197 -22
-65 -37 -122 -33 -128 12 -20 34 -9 74 38 l40 47 1 -46 c0 -44 18 -77 33 -62
11 10 8 122 -3 144 -14 25 -28 24 -57 -3 l-23 -22 19 56 c21 62 48 191 53 252
3 45 -17 61 -31 24z"/>
<path d="M16949 2368 c-11 -18 -34 -63 -52 -100 -31 -65 -33 -68 -68 -68 -35
0 -66 -20 -52 -33 3 -4 21 -7 40 -7 32 0 33 -1 26 -27 -22 -80 1 -137 60 -146
66 -9 82 27 17 38 -47 8 -55 26 -39 88 10 42 13 45 51 51 30 5 39 10 36 24 -3
12 -12 16 -31 14 -15 -1 -27 0 -27 3 0 10 41 87 68 127 23 36 24 68 2 68 -6 0
-19 -15 -31 -32z"/>
<path d="M13829 2378 c-1 -7 0 -23 1 -35 0 -12 -15 -60 -35 -106 -30 -71 -40
-84 -56 -80 -16 4 -19 0 -19 -26 0 -17 5 -31 10 -31 6 0 8 -11 4 -25 -9 -36 3
-77 22 -73 12 2 17 16 18 51 2 57 11 64 89 73 46 5 57 10 55 23 -3 13 -15 16
-56 14 -29 -1 -52 0 -52 3 0 3 14 37 31 75 34 79 37 141 7 147 -10 2 -18 -2
-19 -10z"/>
<path d="M2613 2372 c-11 -7 -34 -106 -48 -204 -5 -41 -9 -47 -33 -50 -20 -2
-28 -9 -30 -27 -3 -21 -1 -23 22 -17 30 7 30 9 11 -69 -8 -33 -15 -79 -15
-102 0 -35 3 -43 19 -43 15 0 19 10 24 63 9 94 23 136 46 130 30 -8 37 17 11
37 l-23 17 22 129 c20 123 19 151 -6 136z"/>
<path d="M6829 2339 c-41 -45 -50 -76 -23 -86 16 -6 37 14 29 27 -2 4 9 20 25
35 17 16 30 34 30 41 0 30 -24 23 -61 -17z"/>
<path d="M8786 2326 c-9 -29 -24 -71 -33 -92 -16 -34 -22 -39 -48 -36 -40 5
-107 -16 -102 -31 3 -8 23 -11 61 -9 l57 4 -26 -43 c-38 -59 -44 -110 -16
-138 24 -24 61 -28 61 -6 0 8 -9 19 -21 26 -26 14 -21 50 16 109 25 39 27 40
81 40 47 0 55 3 52 18 -2 12 -15 18 -46 20 -37 3 -42 6 -36 20 24 55 51 147
47 158 -11 30 -32 12 -47 -40z"/>
<path d="M11840 2354 c-6 -14 -10 -27 -10 -29 0 -2 -34 -75 -75 -163 -41 -88
-75 -167 -75 -176 0 -32 41 -16 90 35 28 29 53 49 56 46 3 -3 0 -24 -6 -46
-11 -43 -7 -61 14 -61 14 0 40 95 35 126 -6 31 -51 30 -89 -2 l-32 -28 26 53
c42 82 106 231 106 245 0 27 -30 27 -40 0z"/>
<path d="M14687 2372 c-2 -4 -14 -40 -26 -81 -13 -41 -45 -125 -73 -187 -43
-95 -49 -116 -38 -129 15 -18 40 -3 40 24 0 9 16 50 36 91 36 75 94 238 94
264 0 15 -27 30 -33 18z"/>
<path d="M3680 2350 c-22 -22 -35 -63 -26 -85 9 -25 24 -17 36 19 6 19 18 40
26 46 18 16 18 26 -1 34 -9 3 -24 -3 -35 -14z"/>
<path d="M11684 2353 c-3 -10 -17 -48 -31 -85 -25 -68 -35 -76 -85 -70 -3 1
-11 -5 -18 -13 -17 -20 -2 -38 26 -31 28 7 29 5 8 -35 -22 -44 -15 -93 14 -97
21 -3 23 -1 17 30 -4 24 1 44 17 73 19 33 31 41 66 48 26 5 42 14 42 23 0 14
-11 18 -44 14 -14 -1 -17 3 -12 16 24 63 37 116 32 129 -7 20 -25 19 -32 -2z"/>
<path d="M12652 2340 c-27 -36 -29 -70 -4 -70 16 1 52 61 52 88 0 22 -26 12
-48 -18z"/>
<path d="M12774 2356 c-10 -27 1 -71 19 -74 14 -3 17 4 17 42 0 35 -4 46 -15
46 -9 0 -18 -6 -21 -14z"/>
<path d="M6743 2343 c-3 -10 -15 -31 -26 -46 -18 -26 -18 -30 -4 -44 14 -14
18 -11 42 25 27 41 30 72 8 80 -7 2 -16 -5 -20 -15z"/>
<path d="M7756 2338 c-8 -13 -31 -72 -51 -133 -20 -60 -45 -125 -56 -143 -24
-42 -24 -67 1 -92 59 -59 184 34 165 121 -9 39 -28 46 -70 26 l-32 -15 39 111
c21 62 41 120 44 130 9 26 -22 22 -40 -5z m15 -291 c-19 -49 -91 -75 -99 -36
-2 11 15 27 50 47 56 33 65 31 49 -11z"/>
<path d="M15987 2354 c-4 -4 -7 -13 -7 -21 0 -30 -102 -224 -136 -258 -45 -45
-43 -73 8 -98 48 -23 90 -12 142 39 37 36 44 61 26 95 -11 20 -64 27 -75 9 -3
-5 -10 -10 -14 -10 -5 0 12 42 36 93 45 91 58 146 37 154 -5 2 -13 0 -17 -3z
m3 -278 c0 -17 -51 -62 -81 -71 -38 -12 -34 7 10 46 45 40 71 49 71 25z"/>
<path d="M5979 2323 c-30 -85 -54 -137 -82 -180 -47 -74 -77 -145 -77 -181 0
-29 3 -33 23 -30 16 2 21 9 19 24 -4 28 12 67 60 146 44 74 98 200 98 229 0
29 -29 23 -41 -8z"/>
<path d="M14541 2337 c-6 -8 -18 -46 -27 -86 -11 -48 -29 -90 -55 -129 -50
-73 -52 -134 -5 -116 11 4 14 13 11 25 -4 11 7 38 30 72 25 37 43 84 59 146
12 50 20 94 17 96 -8 8 -18 5 -30 -8z"/>
<path d="M3747 2313 c-6 -33 1 -53 18 -53 13 0 25 30 25 63 0 29 -37 21 -43
-10z"/>
<path d="M5066 2321 c-3 -4 -17 -46 -32 -92 -40 -127 -49 -142 -85 -134 -35 8
-41 -15 -9 -36 20 -13 20 -16 5 -58 -20 -58 -19 -81 3 -81 13 0 22 13 31 49
17 68 31 83 82 90 31 4 45 11 47 24 3 14 -4 17 -36 17 l-40 0 34 106 c19 58
32 109 29 115 -8 11 -22 12 -29 0z"/>
<path d="M4225 2289 c-81 -12 -116 -25 -146 -53 -47 -44 -71 -94 -76 -160 -8
-98 25 -143 118 -160 72 -13 249 40 249 75 0 24 -7 24 -63 -1 -70 -31 -149
-43 -197 -30 -56 15 -74 46 -68 115 10 118 87 174 245 177 77 2 87 5 74 26
-11 18 -65 22 -136 11z"/>
<path d="M6080 2278 c0 -14 -25 -74 -55 -135 -67 -135 -86 -206 -63 -230 20
-19 41 -8 33 18 -9 27 8 76 72 206 55 113 63 155 31 161 -13 3 -18 -3 -18 -20z"/>
<path d="M16204 2265 c-8 -21 3 -47 19 -43 6 3 13 14 15 25 4 24 -26 40 -34
18z"/>
<path d="M10374 2255 c-9 -21 3 -45 21 -45 20 0 20 46 0 54 -9 3 -18 -1 -21
-9z"/>
<path d="M9652 2238 c-5 -7 -13 -24 -17 -38 -4 -13 -14 -30 -21 -38 -18 -17
-18 -27 1 -42 13 -11 13 -16 -2 -41 -13 -22 -14 -32 -6 -40 9 -9 24 -3 63 25
28 20 68 43 90 52 41 17 56 37 37 52 -7 5 -33 19 -59 31 -25 12 -49 28 -52 36
-7 18 -20 19 -34 3z"/>
<path d="M8036 2158 c-22 -30 -20 -45 5 -53 26 -8 40 10 37 44 -4 33 -23 37
-42 9z"/>
<path d="M10632 2160 c-59 -36 -88 -111 -62 -161 6 -10 25 -26 42 -35 27 -14
37 -14 70 -3 43 14 67 44 49 62 -7 7 -16 6 -28 -5 -30 -25 -54 -29 -79 -13
-30 20 -31 35 -1 35 27 0 92 43 107 70 17 32 -12 70 -53 70 -7 0 -27 -9 -45
-20z m58 -29 c0 -13 -54 -51 -72 -51 -7 0 2 14 20 30 33 30 52 38 52 21z"/>
<path d="M13058 2170 c-62 -18 -128 -90 -128 -139 0 -34 54 -61 125 -61 74 0
105 8 105 26 0 16 -2 16 -87 14 -60 -1 -103 11 -103 30 0 18 61 78 89 88 24 9
32 7 47 -9 20 -22 34 -16 34 15 0 15 -9 27 -25 34 -14 7 -27 12 -28 11 -1 0
-14 -4 -29 -9z"/>
<path d="M15012 2163 c-29 -25 -82 -128 -82 -159 0 -43 30 -24 51 31 11 28 27
61 37 74 17 21 21 22 40 10 16 -10 24 -11 33 -2 8 8 3 18 -18 37 -33 31 -35
31 -61 9z"/>
<path d="M9383 2157 c-30 -5 -54 -14 -57 -23 -8 -21 16 -27 66 -17 24 5 60 6
83 1 52 -11 90 -7 90 11 0 21 -115 39 -182 28z"/>
<path d="M14785 2151 c-39 -23 -85 -77 -85 -100 0 -10 11 -28 24 -40 19 -18
33 -22 72 -19 37 2 50 7 52 21 3 13 -4 17 -30 17 l-33 1 37 20 c21 10 45 31
54 44 15 23 15 27 0 50 -20 30 -50 32 -91 6z m55 -30 c0 -11 -45 -44 -72 -54
-31 -11 -19 11 19 38 40 27 53 31 53 16z"/>
<path d="M16343 2147 c-59 -33 -81 -109 -43 -147 27 -27 113 -29 108 -2 -2 11
-15 19 -41 22 -49 7 -51 19 -4 35 49 17 67 33 67 59 0 43 -41 59 -87 33z m33
-42 c-11 -8 -25 -15 -30 -15 -6 0 -2 7 8 15 11 8 25 15 30 15 6 0 2 -7 -8 -15z"/>
<path d="M10299 2107 c-42 -67 -49 -84 -43 -102 11 -27 49 -15 49 16 1 15 13
45 28 68 31 47 34 61 10 61 -10 0 -30 -19 -44 -43z"/>
<path d="M6225 2129 c-47 -27 -95 -93 -95 -131 0 -41 38 -62 96 -54 24 3 54
11 66 17 17 9 18 13 7 24 -11 11 -23 12 -55 3 -40 -11 -74 -7 -74 10 0 4 11 9
25 10 36 3 82 28 95 52 8 15 7 28 -2 48 -15 30 -34 37 -63 21z m16 -59 c-30
-26 -49 -26 -26 0 10 11 25 20 34 20 12 -1 10 -5 -8 -20z"/>
<path d="M7439 2100 c-46 -48 -51 -85 -15 -101 50 -23 160 26 143 62 -43 89
-72 98 -128 39z m71 -30 c13 -9 12 -12 -4 -25 -20 -15 -66 -21 -66 -8 0 11 33
43 44 43 6 0 18 -5 26 -10z"/>
<path d="M8182 2108 c-43 -35 -72 -76 -72 -102 0 -29 38 -56 78 -56 54 0 112
18 112 36 0 11 -14 14 -71 12 -84 -3 -102 13 -35 32 24 7 55 23 67 36 19 20
21 27 11 49 -16 34 -42 32 -90 -7z"/>
<path d="M11986 2096 c-25 -25 -43 -51 -42 -58 11 -63 33 -74 129 -64 70 8 97
20 97 43 0 12 -7 14 -27 9 -63 -13 -153 -19 -153 -9 0 6 16 14 35 17 19 4 46
17 60 29 22 20 24 25 12 47 -22 43 -60 39 -111 -14z m69 -6 c-3 -5 -11 -10
-16 -10 -6 0 -7 5 -4 10 3 6 11 10 16 10 6 0 7 -4 4 -10z"/>
<path d="M13466 2124 c-3 -9 -6 -23 -6 -33 0 -10 -11 -28 -25 -41 -27 -25 -34
-60 -11 -60 7 0 19 7 26 15 7 9 31 30 53 47 l39 31 -21 -41 c-25 -49 -26 -68
-5 -76 21 -8 34 1 34 22 0 9 9 41 21 71 18 49 19 56 5 70 -15 14 -19 14 -45
-2 -25 -15 -30 -15 -35 -2 -7 20 -22 19 -30 -1z"/>
<path d="M16593 2118 c-45 -34 -85 -85 -81 -105 8 -42 117 -53 165 -18 29 22
5 36 -42 25 -56 -13 -75 -12 -75 4 0 22 72 77 91 71 21 -7 31 7 23 29 -9 23
-45 20 -81 -6z"/>
<path d="M2968 2118 c-30 -25 -68 -93 -68 -123 0 -48 22 -70 68 -69 71 2 183
66 158 91 -3 3 -32 -5 -63 -19 -102 -45 -133 -44 -118 2 4 11 15 20 25 20 29
0 70 22 70 37 0 28 -31 72 -51 73 -3 0 -12 -6 -21 -12z m27 -48 c-3 -5 -11
-10 -16 -10 -6 0 -7 5 -4 10 3 6 11 10 16 10 6 0 7 -4 4 -10z"/>
<path d="M6494 2117 c-44 -25 -85 -68 -99 -101 -19 -44 -19 -52 0 -60 10 -3
23 9 40 37 36 63 70 92 105 89 33 -3 38 9 14 32 -18 19 -32 20 -60 3z"/>
<path d="M13996 2058 c-44 -69 -53 -97 -31 -105 6 -1 26 22 45 52 20 31 43 55
55 57 32 5 17 67 -16 68 -3 0 -27 -32 -53 -72z"/>
<path d="M15655 2111 c-97 -58 -70 -164 33 -130 26 9 39 21 53 54 36 81 -11
122 -86 76z m44 -44 c13 -17 -4 -42 -36 -51 -32 -10 -38 12 -12 40 26 28 32
29 48 11z"/>
<path d="M16167 2123 c-4 -3 -7 -33 -7 -65 0 -35 -7 -72 -16 -91 -17 -32 -121
-147 -134 -147 -4 0 -5 11 -2 25 3 18 0 25 -12 25 -17 0 -40 -39 -51 -87 -5
-27 -4 -33 11 -33 51 0 184 122 224 206 24 48 27 145 7 163 -8 6 -17 8 -20 4z"/>
<path d="M8415 2102 c-37 -23 -95 -88 -95 -107 0 -22 41 -45 79 -45 54 0 112
21 109 39 -2 10 -12 15 -23 13 -11 -2 -45 -6 -75 -9 l-55 -5 35 37 c19 21 50
44 68 52 18 7 32 19 29 26 -6 19 -40 19 -72 -1z"/>
<path d="M13220 2074 c-54 -50 -61 -71 -32 -97 24 -22 57 -21 107 2 76 34 90
81 36 118 -19 13 -40 23 -48 23 -8 0 -36 -21 -63 -46z m90 -38 c-14 -14 -42
-28 -64 -32 l-38 -7 16 26 c11 16 23 23 35 20 10 -3 22 0 25 6 4 6 17 11 29
11 21 0 21 0 -3 -24z"/>
<path d="M4515 2086 c-73 -33 -103 -109 -53 -133 23 -12 33 -11 62 1 78 32
110 98 64 130 -27 19 -34 19 -73 2z m55 -44 c0 -14 -32 -39 -63 -51 -34 -13
-36 3 -5 36 21 22 68 32 68 15z"/>
<path d="M4743 2088 c-18 -4 -35 -13 -38 -18 -3 -6 -14 -10 -24 -10 -18 0 -61
-85 -53 -108 8 -24 31 -11 54 30 22 41 70 79 83 66 4 -3 -5 -24 -20 -46 -29
-44 -30 -69 -3 -86 22 -14 49 7 31 25 -8 8 -4 22 13 52 42 74 24 114 -43 95z"/>
<path d="M8004 2073 c-8 -2 -10 -18 -7 -41 9 -74 -63 -231 -137 -297 l-23 -20
6 35 c3 19 8 45 12 58 6 16 3 22 -8 22 -41 0 -65 -111 -31 -144 20 -20 20 -20
55 5 74 53 169 237 169 330 0 37 -16 60 -36 52z"/>
<path d="M14166 2042 c-39 -57 -30 -92 25 -92 66 0 106 80 57 114 -34 24 -53
19 -82 -22z m64 -27 c0 -13 -37 -31 -46 -23 -2 2 3 14 12 26 16 23 34 21 34
-3z"/>
<path d="M5208 2051 c-32 -25 -63 -84 -55 -105 8 -21 26 -20 34 2 4 9 16 32
26 50 19 32 20 33 34 12 8 -11 19 -18 24 -15 13 9 11 49 -3 63 -17 17 -31 15
-60 -7z"/>
<path d="M10386 2005 c-7 -20 23 -33 34 -14 5 7 6 17 4 21 -9 13 -32 9 -38 -7z"/>
<path d="M10880 1991 c0 -22 29 -36 43 -22 7 7 6 15 -3 26 -17 21 -40 19 -40
-4z"/>
<path d="M16966 1902 c-2 -4 -7 -24 -11 -45 -6 -33 -5 -37 13 -37 11 0 22 5
24 12 6 16 121 -55 143 -89 14 -20 16 -40 12 -87 -6 -78 -35 -144 -87 -200
-41 -44 -156 -119 -232 -151 -49 -20 -53 -50 -5 -41 33 7 167 80 225 123 80
60 142 190 142 297 0 77 -32 117 -136 169 -28 14 -54 33 -57 42 -7 16 -23 20
-31 7z"/>
<path d="M13047 1849 c-99 -65 -168 -169 -187 -282 -16 -88 5 -164 53 -201 45
-35 110 -56 169 -56 42 0 49 3 46 18 -2 13 -17 19 -65 24 -136 15 -186 80
-163 210 19 100 66 174 163 250 35 28 40 30 49 15 11 -21 38 -22 38 -1 0 26
-20 54 -39 54 -10 0 -39 -14 -64 -31z"/>
<path d="M10370 1832 c-48 -24 -66 -55 -95 -162 -15 -52 -28 -101 -30 -107 -2
-7 -25 -18 -50 -24 -26 -7 -45 -17 -45 -25 0 -15 9 -17 53 -14 15 1 27 -1 27
-3 0 -27 -50 -107 -99 -159 -59 -63 -76 -98 -48 -98 14 0 63 50 124 125 18 22
40 63 49 90 19 57 32 77 45 69 17 -10 23 29 6 41 -15 11 -15 17 -2 71 27 106
45 143 76 160 27 13 32 13 59 -3 38 -22 60 -7 33 24 -26 30 -63 35 -103 15z"/>
<path d="M16599 1843 c0 -4 -2 -42 -4 -83 -6 -132 -50 -230 -113 -251 -34 -11
-62 -7 -62 10 0 15 53 44 90 51 39 6 47 28 13 41 -26 10 -118 -33 -134 -62
-28 -52 19 -96 88 -83 88 16 156 147 157 304 1 63 -2 75 -16 78 -10 2 -18 0
-19 -5z"/>
<path d="M14373 1818 c-5 -7 -16 -53 -22 -103 -7 -49 -19 -100 -27 -112 -20
-31 -18 -46 9 -71 44 -41 167 -19 167 30 0 27 -46 88 -67 88 -9 0 -25 -7 -35
-17 -17 -15 -18 -15 -18 5 0 11 7 53 15 93 13 61 13 75 2 86 -11 12 -16 12
-24 1z m78 -234 c17 -21 -3 -34 -51 -33 l-35 0 30 24 c35 29 39 30 56 9z"/>
<path d="M11354 1793 c-4 -10 -22 -59 -41 -109 l-35 -92 -49 -6 c-26 -4 -51
-10 -53 -15 -10 -15 23 -33 48 -27 l25 6 -24 -52 c-29 -62 -30 -71 -10 -88 20
-17 52 -5 36 14 -8 10 -3 28 21 75 l31 61 64 0 c56 0 63 2 63 20 0 17 -7 20
-50 20 -27 0 -50 3 -50 8 0 4 16 47 34 97 19 49 32 93 30 97 -9 14 -35 8 -40
-9z"/>
<path d="M9705 1788 c-2 -7 -11 -68 -20 -135 -8 -67 -18 -128 -21 -136 -5 -15
-54 -37 -80 -37 -20 0 -17 23 7 54 17 22 24 24 35 15 22 -18 43 5 28 29 -25
40 -79 20 -110 -40 -34 -66 -5 -105 67 -93 74 13 91 37 111 166 9 63 20 127
24 143 5 19 2 31 -7 37 -19 12 -29 11 -34 -3z"/>
<path d="M5735 1782 c-6 -4 -16 -25 -24 -47 -21 -64 -60 -125 -79 -125 -10 0
-23 -5 -29 -11 -14 -14 -6 -39 11 -33 9 3 13 -5 14 -23 2 -66 46 -118 94 -111
33 4 37 38 4 38 -30 0 -56 33 -56 72 0 24 4 27 48 33 63 9 71 12 78 30 9 24 2
26 -50 16 -26 -5 -45 -6 -44 -2 23 43 58 126 58 135 0 19 -15 35 -25 28z"/>
<path d="M13492 1763 c-11 -16 -29 -47 -41 -70 -12 -24 -28 -43 -35 -43 -7 0
-19 -7 -27 -16 -10 -13 -10 -17 1 -24 8 -5 18 -6 22 -4 4 3 8 -13 8 -35 0 -52
31 -75 104 -76 40 0 51 4 54 18 3 14 -4 17 -40 17 -57 0 -81 17 -76 55 3 29 6
30 68 40 51 8 66 14 68 29 4 17 -1 18 -58 12 l-62 -7 26 47 c14 25 26 52 26
60 0 25 -19 24 -38 -3z"/>
<path d="M7368 1753 c-14 -16 -35 -57 -48 -93 -34 -95 -48 -120 -69 -120 -25
0 -34 -27 -14 -39 18 -10 17 -12 -57 -190 -24 -58 -28 -76 -18 -82 20 -13 32
7 83 136 27 66 52 125 57 130 5 6 30 15 56 20 31 7 47 15 47 25 0 11 -10 14
-42 12 l-41 -2 19 52 c45 121 49 128 80 121 32 -6 33 -5 19 31 -12 34 -40 33
-72 -1z"/>
<path d="M2935 1739 c-4 -5 -4 -21 -1 -35 9 -32 46 -34 46 -1 0 35 -31 60 -45
36z"/>
<path d="M6003 1704 c-7 -18 9 -51 23 -46 14 3 11 55 -3 59 -7 3 -16 -3 -20
-13z"/>
<path d="M15981 1687 c-35 -57 -71 -146 -71 -176 0 -30 22 -57 39 -47 5 4 7
21 5 39 -4 24 4 51 35 113 23 45 41 87 41 93 0 23 -29 10 -49 -22z"/>
<path d="M11592 1688 c2 -13 11 -24 21 -26 22 -4 35 27 16 39 -25 16 -41 10
-37 -13z"/>
<path d="M15843 1683 c-7 -3 -13 -16 -13 -30 0 -14 -13 -47 -29 -72 -46 -76
-51 -121 -12 -121 24 0 33 11 21 25 -6 7 -4 21 7 41 45 82 53 100 53 119 0 27
-12 43 -27 38z"/>
<path d="M14658 1660 c-41 -22 -78 -64 -78 -90 0 -9 12 -27 26 -41 22 -21 35
-24 97 -24 59 0 72 3 75 17 3 15 -7 18 -65 20 -65 3 -66 4 -38 15 64 27 80 39
83 65 2 18 -4 31 -20 42 -28 20 -34 20 -80 -4z m55 -41 c-10 -10 -73 -30 -73
-23 0 10 64 43 73 37 5 -3 5 -9 0 -14z"/>
<path d="M13740 1656 c-14 -8 -31 -31 -39 -52 -13 -35 -12 -39 9 -56 29 -23
51 -23 84 3 33 26 34 68 3 97 -27 26 -25 25 -57 8z m30 -71 c-7 -8 -16 -15
-21 -15 -13 0 -11 24 3 38 18 18 35 -3 18 -23z"/>
<path d="M3057 1619 c-64 -42 -69 -65 -23 -105 36 -31 37 -33 17 -43 -29 -16
-41 -13 -41 9 0 21 -24 27 -35 9 -11 -17 3 -53 25 -67 17 -10 26 -9 58 7 73
37 76 59 14 105 l-33 24 33 26 c22 16 41 23 55 20 28 -8 41 15 18 33 -27 19
-36 17 -88 -18z"/>
<path d="M15315 1633 c-66 -34 -87 -70 -69 -118 14 -37 149 -69 149 -35 0 10
-18 19 -49 27 -56 14 -71 25 -63 47 8 19 67 57 79 50 4 -3 8 -18 8 -35 0 -37
27 -39 40 -3 12 29 0 58 -30 74 -24 13 -29 12 -65 -7z"/>
<path d="M16163 1614 c-33 -27 -43 -43 -43 -65 0 -48 68 -76 155 -63 35 5 45
10 43 23 -3 13 -14 15 -61 13 -31 -2 -57 0 -57 5 0 4 17 17 38 28 41 22 52 53
27 79 -25 25 -56 19 -102 -20z m68 -18 c-6 -8 -21 -16 -32 -19 -20 -5 -20 -5
-3 14 20 23 54 28 35 5z"/>
<path d="M8828 1590 c-29 -30 -48 -59 -48 -73 0 -36 27 -67 60 -67 36 0 123
28 132 44 15 24 -12 29 -66 12 -69 -22 -108 -17 -54 7 40 17 88 59 88 77 0 14
-37 50 -52 50 -6 0 -33 -22 -60 -50z m62 1 c0 -5 -12 -17 -27 -26 l-28 -18 24
27 c26 28 31 31 31 17z"/>
<path d="M9084 1603 c-29 -69 12 -142 65 -114 30 17 90 95 93 121 4 32 -28 40
-37 9 -4 -11 -23 -39 -43 -61 -26 -29 -37 -36 -43 -26 -13 20 -10 45 7 63 9 8
13 22 10 30 -10 27 -37 16 -52 -22z"/>
<path d="M12232 1624 c-31 -21 -27 -51 10 -86 26 -24 29 -31 17 -39 -19 -12
-33 -11 -47 3 -9 10 -15 9 -27 -2 -20 -21 -5 -40 36 -46 26 -4 41 0 62 16 35
28 34 49 -3 85 -35 34 -29 49 16 42 36 -6 48 2 38 27 -8 21 -72 21 -102 0z"/>
<path d="M8365 1612 c-40 -25 -95 -88 -95 -110 0 -28 21 -42 60 -42 20 0 41 5
48 12 22 22 13 -10 -43 -157 -30 -78 -55 -150 -55 -159 0 -28 24 -18 80 35 30
27 68 53 83 56 19 4 27 11 25 22 -5 26 -37 25 -79 -3 -21 -15 -39 -25 -39 -23
0 2 15 41 34 88 44 110 82 249 69 258 -5 3 -12 14 -16 24 -8 22 -34 22 -72 -1z
m41 -44 c10 -15 -50 -68 -77 -68 -19 0 -20 2 -8 18 16 22 62 62 71 62 4 0 10
-5 14 -12z"/>
<path d="M8569 1618 c-3 -6 -8 -54 -11 -97 -3 -47 16 -71 56 -71 58 0 139 98
119 143 -8 17 -11 18 -22 6 -6 -8 -20 -30 -29 -49 -19 -39 -66 -71 -81 -55 -5
6 -6 27 -2 50 9 50 4 75 -15 75 -8 0 -15 -1 -15 -2z"/>
<path d="M9355 1604 c-40 -21 -64 -43 -81 -76 -19 -37 -18 -54 6 -78 22 -22
90 -27 135 -10 46 18 24 35 -45 35 -45 0 -64 4 -68 14 -3 9 0 11 7 6 19 -11
58 3 96 36 42 37 45 66 9 79 -31 12 -23 13 -59 -6z m35 -39 c0 -2 -15 -12 -32
-21 l-33 -17 19 22 c17 19 46 29 46 16z"/>
<path d="M15556 1586 c-38 -35 -41 -43 -27 -65 9 -14 89 -12 122 3 12 5 14 1
11 -28 -4 -34 12 -56 28 -40 4 5 11 33 15 61 6 45 4 54 -11 60 -10 3 -26 15
-36 25 -27 27 -62 22 -102 -16z m78 -15 c6 -10 -16 -21 -41 -21 -13 0 -13 3
-3 15 14 17 36 20 44 6z"/>
<path d="M2858 1550 c-22 -74 -23 -92 -2 -88 17 3 57 113 49 136 -10 28 -31 8
-47 -48z"/>
<path d="M3783 1556 c-40 -37 -54 -58 -50 -70 10 -24 35 -31 79 -19 36 10 38
9 38 -13 0 -51 63 -81 106 -50 24 18 12 31 -29 31 -38 0 -45 21 -23 67 20 38
20 48 2 48 -7 0 -19 14 -26 30 -7 17 -19 30 -27 30 -8 0 -40 -24 -70 -54z m64
-33 c-7 -6 -25 -15 -42 -19 l-30 -6 35 30 c24 20 37 26 42 18 4 -6 2 -16 -5
-23z"/>
<path d="M4580 1587 c-19 -12 -43 -37 -53 -55 -20 -33 -20 -34 0 -59 32 -44
164 -76 171 -42 2 11 -10 18 -45 26 -26 7 -61 16 -76 22 -27 10 -27 12 -13 39
8 16 29 35 47 42 27 12 32 11 41 -3 11 -21 38 -22 38 -1 0 55 -53 70 -110 31z"/>
<path d="M4844 1600 c-46 -19 -62 -160 -18 -160 15 0 17 9 15 50 -1 14 2 38 8
52 9 24 14 26 49 21 41 -5 61 7 39 25 -19 15 -70 22 -93 12z"/>
<path d="M7075 1598 c-66 -36 -85 -93 -43 -122 34 -24 66 -19 99 13 22 23 29
39 29 69 0 51 -36 68 -85 40z m33 -46 c17 -11 5 -40 -19 -47 -37 -12 -55 25
-21 44 21 13 24 13 40 3z"/>
<path d="M5063 1580 c-37 -22 -63 -67 -63 -109 0 -42 40 -71 97 -71 37 0 45 4
55 25 9 20 9 28 -1 38 -10 9 -15 8 -25 -5 -15 -21 -56 -24 -74 -6 -14 14 -16
52 -2 43 11 -7 88 13 108 28 18 14 15 34 -8 57 -25 25 -46 25 -87 0z m52 -30
c-3 -5 -14 -10 -23 -10 -15 0 -15 2 -2 10 20 13 33 13 25 0z"/>
<path d="M6102 1584 c-25 -17 -62 -84 -62 -112 0 -48 75 -59 115 -16 30 32 32
68 5 112 -22 37 -27 38 -58 16z m29 -90 c-6 -14 -19 -24 -31 -24 -25 0 -25 7
1 49 19 31 22 33 31 17 7 -12 7 -26 -1 -42z"/>
<path d="M6346 1593 c-4 -4 -19 -7 -34 -8 -21 0 -29 -7 -37 -30 -5 -17 -18
-41 -27 -55 -22 -30 -22 -36 -3 -44 9 -3 32 13 61 44 26 27 51 47 55 44 5 -3
9 -25 9 -49 0 -45 19 -75 46 -75 8 0 14 9 14 20 0 11 -4 20 -9 20 -4 0 -11 28
-14 61 -5 58 -16 78 -43 79 -6 0 -14 -3 -18 -7z"/>
<path d="M10726 1560 c-49 -40 -87 -103 -79 -127 8 -24 28 -12 62 38 33 49 80
94 88 85 3 -2 -5 -22 -16 -45 -24 -47 -27 -81 -7 -81 19 0 68 107 64 140 -2
20 -9 26 -33 28 -23 2 -42 -7 -79 -38z"/>
<path d="M11704 1581 c-38 -23 -74 -72 -74 -99 0 -46 87 -69 129 -34 38 30 23
151 -19 152 -3 0 -19 -9 -36 -19z m35 -58 c13 -25 -5 -53 -34 -53 -35 0 -40
18 -14 46 27 29 35 30 48 7z"/>
<path d="M11976 1585 c-15 -8 -37 -15 -47 -15 -13 0 -19 -7 -19 -22 0 -12 -12
-34 -26 -49 -26 -27 -26 -49 1 -49 7 0 30 20 51 46 20 25 46 50 57 55 18 10
19 8 15 -42 -2 -43 0 -54 13 -57 27 -5 40 88 19 129 -13 23 -26 24 -64 4z"/>
<path d="M10466 1556 c-10 -19 -49 -57 -87 -85 -38 -29 -69 -58 -69 -66 0 -25
21 -28 44 -6 24 22 46 28 46 11 0 -17 45 -11 93 13 44 23 46 23 51 4 7 -28 29
-16 37 21 3 17 14 43 23 56 9 14 16 32 16 41 0 23 -28 18 -46 -9 -15 -25 -111
-92 -119 -85 -2 3 12 29 31 59 19 30 34 60 34 67 0 26 -36 12 -54 -21z"/>
<path d="M10988 1574 c-26 -14 -78 -89 -78 -112 0 -6 11 -18 23 -27 21 -13 33
-14 88 -3 45 9 64 18 64 28 0 16 -24 18 -87 8 -46 -8 -50 7 -12 52 19 21 32
29 45 25 12 -4 21 -1 25 10 7 18 6 21 -21 28 -11 3 -32 -1 -47 -9z"/>
<path d="M11503 1573 c-3 -10 -12 -33 -19 -52 -8 -18 -14 -42 -14 -52 0 -29
29 -23 41 8 6 15 17 43 26 61 14 29 14 35 2 43 -21 13 -29 11 -36 -8z"/>
<path d="M5295 1539 c-44 -39 -58 -64 -50 -89 9 -29 68 -26 121 5 l44 26 -6
-31 c-11 -52 29 -77 72 -45 16 13 17 16 4 25 -8 5 -20 8 -27 6 -8 -4 -10 11
-6 51 6 53 5 55 -18 51 -13 -2 -32 5 -41 15 -26 25 -53 21 -93 -14z m69 -24
c3 -10 -5 -20 -25 -31 -44 -22 -58 -12 -27 19 31 31 43 34 52 12z"/>
<path d="M5915 1533 c-14 -21 -25 -47 -25 -59 0 -26 24 -48 45 -40 18 7 20 33
3 39 -9 3 -6 14 10 36 23 31 24 61 3 61 -6 0 -22 -17 -36 -37z"/>
<path d="M13960 1349 c-103 -71 -167 -157 -177 -238 -6 -52 -8 -55 -72 -102
-50 -36 -72 -47 -89 -42 -21 5 -23 2 -20 -18 5 -40 41 -35 114 15 36 25 67 46
70 46 3 0 17 -9 31 -20 43 -33 163 -22 163 15 0 13 -9 15 -49 9 -55 -7 -101 1
-101 17 0 6 36 46 79 89 79 79 115 142 121 210 5 61 -5 63 -70 19z m20 -61
c-13 -43 -49 -93 -111 -153 l-51 -50 7 35 c10 51 38 92 101 149 31 28 57 51
59 51 2 0 0 -14 -5 -32z"/>
<path d="M5202 1313 c-12 -22 -29 -108 -37 -189 -6 -53 -9 -61 -25 -57 -44 12
-130 -66 -130 -117 0 -32 23 -60 48 -60 28 0 81 38 102 72 27 44 37 85 50 198
6 52 15 97 21 101 14 8 7 61 -8 66 -6 2 -16 -4 -21 -14z m-62 -294 c0 -31 -55
-89 -85 -89 -16 0 0 43 26 69 31 31 59 41 59 20z"/>
<path d="M2765 1286 c-64 -17 -90 -28 -89 -38 1 -9 -6 -15 -15 -14 -12 1 -15
-7 -14 -30 2 -17 -13 -78 -32 -134 -19 -57 -35 -116 -35 -130 0 -32 33 -65 55
-57 19 8 20 37 0 37 -19 0 -19 19 0 84 16 53 16 53 75 69 33 10 71 17 84 17
36 0 56 10 56 27 0 13 -10 15 -62 10 -35 -4 -75 -9 -91 -13 -26 -6 -27 -5 -17
20 5 15 10 42 10 59 l0 32 93 23 c50 12 107 22 125 22 27 0 33 4 30 18 -5 26
-67 25 -173 -2z"/>
<path d="M15287 1303 c-2 -5 -12 -42 -21 -83 -9 -41 -31 -115 -50 -165 -32
-85 -36 -90 -70 -99 -20 -5 -39 -6 -43 -3 -10 11 46 65 65 63 11 -1 17 6 17
19 0 35 -41 31 -80 -8 -61 -61 -56 -117 12 -117 57 0 100 24 112 62 5 18 21
64 35 101 32 84 60 203 52 222 -6 16 -22 20 -29 8z"/>
<path d="M16039 1308 c0 -2 -1 -21 -3 -43 -1 -24 -15 -63 -36 -97 -28 -46 -41
-59 -70 -65 -39 -10 -48 -36 -13 -41 20 -3 21 -5 8 -35 -23 -55 -23 -108 1
-131 18 -19 89 -21 131 -5 58 22 96 79 53 79 -11 0 -20 -4 -20 -8 0 -16 -60
-42 -99 -42 -39 0 -41 2 -41 30 0 16 7 47 16 69 14 35 20 40 55 45 21 3 57 9
79 12 45 6 56 17 37 32 -8 7 -33 8 -70 3 -31 -4 -57 -6 -57 -4 0 2 10 20 23
41 51 81 61 153 25 160 -10 2 -18 2 -19 0z"/>
<path d="M4233 1283 c-7 -3 -13 -15 -13 -27 0 -12 -14 -62 -30 -112 -47 -138
-31 -176 47 -109 l42 36 3 -53 c2 -41 7 -54 21 -56 14 -3 17 5 17 52 0 62 -16
106 -39 106 -8 0 -29 -14 -46 -30 l-31 -30 28 82 c37 110 37 154 1 141z"/>
<path d="M10511 1269 c-25 -15 -31 -23 -23 -31 8 -8 23 -8 53 2 50 17 73 6 77
-38 2 -22 -5 -39 -26 -63 -25 -29 -37 -33 -90 -37 l-61 -4 16 50 c9 27 13 57
10 67 -9 23 -43 15 -40 -10 2 -25 -18 -95 -27 -95 -4 0 -14 9 -21 21 -9 13
-20 18 -31 14 -28 -11 -21 -43 13 -60 17 -9 29 -22 26 -28 -3 -7 -17 -42 -32
-79 -15 -36 -25 -74 -21 -83 9 -25 40 -14 43 15 1 14 13 52 27 85 l25 60 63 6
c74 6 113 24 142 62 28 38 29 116 2 146 -25 27 -80 28 -125 0z"/>
<path d="M14523 1274 c-3 -9 -1 -19 6 -23 17 -11 -22 -152 -64 -228 -37 -67
-44 -107 -21 -116 18 -7 26 1 26 26 0 22 37 87 49 87 20 0 131 -75 136 -91 8
-23 45 -25 45 -3 0 20 -54 73 -98 96 -18 10 -31 22 -27 28 3 5 37 28 76 50 75
44 110 83 91 102 -8 8 -21 2 -49 -21 -31 -27 -153 -105 -153 -98 0 1 5 18 10
37 21 69 28 124 19 147 -10 26 -37 31 -46 7z"/>
<path d="M5823 1250 c-36 -22 -59 -55 -43 -65 5 -3 10 -24 10 -46 0 -32 -3
-40 -17 -38 -35 3 -43 -1 -43 -23 0 -12 6 -29 14 -37 13 -14 12 -26 -6 -90
-16 -58 -18 -79 -9 -98 12 -26 49 -28 42 -2 -7 24 -4 54 13 112 13 45 21 57
37 57 71 0 229 142 229 206 0 33 -28 44 -117 44 -60 0 -86 -5 -110 -20z m187
-31 c0 -33 -169 -173 -187 -155 -3 3 0 26 6 51 7 30 8 52 2 63 -7 12 -5 22 6
34 13 14 33 18 95 18 48 0 78 -4 78 -11z"/>
<path d="M9423 1254 c-4 -10 1 -22 10 -29 15 -11 16 -16 3 -52 -8 -22 -32 -76
-54 -121 -54 -110 -31 -131 55 -50 39 37 57 29 49 -21 -7 -45 5 -65 33 -56 20
6 30 35 13 35 -5 0 -7 13 -4 29 5 33 -22 91 -42 91 -7 0 -25 -9 -39 -20 l-26
-21 28 63 c16 35 31 76 35 92 12 50 -44 105 -61 60z"/>
<path d="M4765 1201 c-8 -15 14 -53 28 -48 18 6 15 51 -5 55 -9 2 -19 -2 -23
-7z"/>
<path d="M6892 1188 c2 -13 10 -23 18 -23 8 0 16 10 18 23 3 17 -2 22 -18 22
-16 0 -21 -5 -18 -22z"/>
<path d="M12763 1195 c-6 -18 23 -55 43 -55 24 0 26 22 3 46 -26 28 -37 30
-46 9z"/>
<path d="M14146 1183 c-10 -11 -7 -51 5 -59 13 -8 29 13 29 37 0 17 -24 32
-34 22z"/>
<path d="M8640 1154 c-35 -22 -80 -88 -80 -117 0 -37 43 -67 96 -67 53 0 94
15 94 34 0 13 -12 14 -67 10 l-68 -5 54 28 c30 16 64 41 75 57 l21 28 -28 24
c-32 28 -61 30 -97 8z m65 -33 c6 -11 -39 -45 -73 -56 -23 -7 -24 -7 -7 19 26
40 66 58 80 37z"/>
<path d="M11544 1155 c-9 -23 14 -45 26 -25 5 8 8 19 7 24 -6 17 -27 18 -33 1z"/>
<path d="M3928 1135 c-32 -18 -68 -74 -68 -107 0 -34 33 -74 73 -87 45 -15
121 -1 125 23 4 17 -1 18 -51 12 -50 -5 -59 -3 -84 18 -24 21 -26 27 -18 51 6
16 23 37 38 49 24 18 31 19 49 7 27 -17 48 1 32 27 -14 22 -62 26 -96 7z"/>
<path d="M8894 1140 c-34 -13 -84 -70 -84 -96 0 -36 37 -50 83 -31 l36 15 3
-31 c2 -23 9 -33 23 -35 19 -3 21 3 20 61 0 47 -5 68 -17 81 -10 10 -18 21
-18 26 0 13 -23 18 -46 10z m26 -60 c0 -13 -60 -43 -68 -35 -10 9 47 57 59 50
5 -4 9 -10 9 -15z"/>
<path d="M7060 1123 c-46 -31 -52 -60 -21 -100 11 -13 17 -31 14 -39 -7 -20
-59 -15 -55 5 2 8 1 20 -2 28 -9 22 -46 -3 -46 -31 0 -60 94 -76 134 -23 l21
28 -23 40 c-23 39 -23 41 -5 55 10 7 33 14 51 14 25 0 32 4 32 20 0 16 -7 20
-38 20 -21 0 -49 -8 -62 -17z"/>
<path d="M7590 1129 c-81 -33 -93 -111 -20 -134 26 -8 16 -25 -16 -25 -18 0
-24 5 -24 21 0 14 -5 19 -17 17 -24 -4 -28 -42 -7 -63 21 -20 85 -15 134 10
40 21 27 46 -35 69 -58 22 -57 45 3 66 36 12 44 13 51 1 9 -15 41 -8 41 8 0
34 -58 50 -110 30z"/>
<path d="M9119 1115 c-33 -25 -69 -77 -69 -102 0 -7 11 -20 25 -29 40 -26 175
-2 175 32 0 13 -7 15 -32 10 -135 -24 -152 -16 -92 40 32 30 42 35 70 30 38
-8 51 6 28 28 -23 23 -65 20 -105 -9z"/>
<path d="M7312 1123 c-35 -7 -90 -68 -98 -109 -13 -69 59 -98 151 -60 44 19
50 52 8 42 -16 -4 -49 -9 -75 -13 -59 -7 -66 12 -8 21 44 7 110 58 110 85 0
36 -26 46 -88 34z m38 -48 c-8 -8 -33 -22 -55 -31 l-40 -16 20 22 c21 23 49
38 75 39 13 1 13 -1 0 -14z"/>
<path d="M11661 1101 c-38 -36 -39 -46 -2 -78 31 -28 31 -52 0 -71 -24 -15
-39 -8 -39 19 0 28 -34 21 -38 -8 -5 -33 33 -66 66 -58 35 8 68 42 76 78 5 22
1 33 -20 52 -22 21 -25 27 -14 40 7 8 20 15 30 15 24 0 32 11 19 27 -18 21
-44 15 -78 -16z"/>
<path d="M12918 1109 c-33 -25 -34 -33 -8 -82 28 -52 26 -69 -7 -65 -23 2 -27
7 -25 26 3 20 0 23 -20 20 -31 -4 -35 -41 -9 -67 24 -24 89 -29 109 -9 16 16
15 67 -3 98 -22 38 -18 49 18 58 41 11 42 36 2 39 -18 2 -41 -5 -57 -18z"/>
<path d="M11916 1078 c-23 -27 -36 -52 -36 -70 0 -25 7 -32 54 -54 44 -20 68
-24 118 -22 48 2 63 7 63 18 0 11 -17 16 -70 21 -38 3 -78 9 -89 14 -16 7 -14
10 15 19 68 22 76 116 10 116 -22 0 -38 -10 -65 -42z m74 -7 c0 -11 -19 -26
-43 -34 -18 -7 -17 2 6 31 11 14 37 16 37 3z"/>
<path d="M4463 1078 c-26 -29 -53 -70 -53 -80 0 -4 11 -15 24 -23 23 -15 27
-15 65 3 l41 20 0 -25 c0 -32 17 -63 35 -63 21 0 28 19 15 36 -11 13 -11 54 1
104 3 10 -4 15 -19 15 -13 0 -30 8 -37 18 -17 24 -48 21 -72 -5z m39 -55 c-31
-23 -47 -15 -22 12 17 18 26 22 31 13 4 -7 0 -17 -9 -25z"/>
<path d="M14820 1078 c-87 -59 -42 -176 64 -166 45 4 40 31 -7 39 -45 7 -57
16 -31 25 53 17 74 28 90 45 17 19 17 21 -3 47 -27 36 -69 40 -113 10z m80
-29 c0 -11 -60 -39 -82 -39 -7 0 0 12 15 25 29 25 67 34 67 14z"/>
<path d="M3052 1075 c-38 -17 -54 -52 -50 -109 4 -50 31 -58 36 -11 5 58 13
76 37 87 20 9 28 8 45 -7 19 -17 20 -17 26 0 17 44 -35 66 -94 40z"/>
<path d="M6065 1076 c-56 -25 -94 -90 -75 -127 15 -27 42 -25 39 4 -7 58 44
103 105 92 36 -7 54 6 32 24 -22 18 -69 22 -101 7z"/>
<path d="M6510 1063 c-25 -15 -54 -27 -64 -28 -27 0 -81 -128 -61 -145 10 -8
21 1 49 39 36 49 105 116 112 108 2 -2 -1 -19 -6 -38 -6 -18 -10 -42 -10 -51
0 -29 43 -22 75 12 l28 30 11 -23 c7 -13 23 -23 39 -25 32 -4 35 10 7 38 -11
11 -20 31 -20 45 0 33 -26 33 -60 0 l-26 -25 4 36 c3 24 0 39 -9 45 -19 12
-18 12 -69 -18z"/>
<path d="M11157 1071 c-20 -10 -37 -15 -37 -10 0 5 -7 9 -15 9 -14 0 -20 -13
-16 -34 1 -5 -6 -24 -15 -42 -18 -33 -13 -69 9 -62 6 3 20 20 29 40 9 19 28
42 43 52 l25 17 -6 -41 c-4 -22 -3 -40 1 -40 5 0 28 11 52 25 l43 26 -9 -23
c-11 -32 -3 -48 24 -48 20 0 24 5 23 28 -1 15 2 39 6 54 11 37 -14 47 -60 25
-32 -16 -34 -16 -34 2 0 34 -23 42 -63 22z"/>
<path d="M12717 1083 c-2 -5 -4 -20 -5 -36 -1 -15 -11 -45 -22 -68 -22 -42
-20 -59 8 -59 11 0 22 14 30 38 22 64 31 104 25 118 -5 15 -29 19 -36 7z"/>
<path d="M4843 1065 c-33 -23 -86 -113 -78 -133 7 -18 5 -19 83 75 l23 28 -3
-65 c-3 -58 -1 -65 16 -65 15 0 19 9 23 54 5 67 -2 97 -26 110 -13 7 -24 6
-38 -4z"/>
<path d="M10658 1041 c-34 -35 -39 -45 -36 -78 2 -26 8 -39 20 -41 18 -3 33
30 29 65 -4 33 39 56 88 48 46 -8 61 7 29 29 -41 29 -86 20 -130 -23z"/>
<path d="M14167 1031 c-27 -28 -47 -58 -47 -71 0 -34 29 -21 65 30 35 50 65
64 65 31 0 -12 -6 -21 -14 -21 -24 0 -29 -20 -10 -41 24 -26 43 -24 54 7 23
59 1 114 -46 114 -11 0 -41 -22 -67 -49z"/>
<path d="M2848 1060 c-50 -29 -82 -124 -53 -153 25 -26 78 -21 115 10 28 23
32 31 27 64 -6 43 -35 88 -57 88 -8 0 -23 -4 -32 -9z m52 -88 c0 -20 -30 -41
-59 -42 -20 0 -22 3 -17 26 4 14 14 37 23 50 l15 24 19 -21 c11 -12 19 -29 19
-37z"/>
<path d="M6220 1028 c-53 -73 -49 -118 10 -118 33 0 107 51 122 85 10 22 8 29
-12 50 -16 17 -34 25 -56 25 -26 0 -38 -8 -64 -42z m67 -45 c-20 -18 -44 -33
-53 -33 -14 0 -13 4 5 33 19 31 56 50 75 39 5 -3 -7 -20 -27 -39z"/>
<path d="M6823 1063 c-20 -7 -36 -79 -23 -104 9 -16 14 -18 26 -9 7 7 12 16 9
20 -2 4 0 24 6 45 11 38 4 56 -18 48z"/>
<path d="M10889 1048 c-27 -23 -54 -98 -42 -116 32 -52 143 -7 143 58 0 55
-62 90 -101 58z m61 -58 c0 -20 -27 -40 -55 -40 -14 0 -14 3 0 29 22 44 55 50
55 11z"/>
<path d="M11453 1009 c-13 -54 -11 -69 11 -69 16 0 41 82 33 105 -12 31 -32
14 -44 -36z"/>
<path d="M16264 1020 c-23 -34 -25 -44 -16 -65 15 -31 57 -43 91 -24 35 20 41
75 11 107 -31 33 -56 28 -86 -18z m58 -52 c-6 -6 -19 -7 -29 -4 -16 7 -16 9 7
28 23 19 25 19 28 3 2 -9 -1 -22 -6 -27z"/>
<path d="M4685 1013 c-17 -40 -14 -63 9 -63 19 0 24 8 32 58 5 35 4 42 -10 42
-9 0 -22 -16 -31 -37z"/>
<path d="M14040 1024 c-14 -37 -12 -70 5 -84 22 -18 29 -6 31 56 1 41 -2 54
-12 54 -8 0 -19 -12 -24 -26z"/>
<path d="M2857 853 c-4 -3 -7 -22 -7 -42 0 -32 -6 -62 -25 -149 -5 -18 -9 -21
-19 -13 -9 8 -28 6 -68 -8 l-56 -19 20 91 c12 54 27 96 37 104 14 11 14 14 1
23 -38 26 -52 -6 -96 -207 -3 -14 -18 -28 -39 -37 -51 -22 -46 -42 8 -36 15 1
17 -4 13 -32 -6 -35 -10 -100 -7 -131 1 -13 8 -17 24 -15 16 2 21 9 19 23 -5
28 -4 62 3 122 l6 52 65 21 c36 12 67 20 70 17 3 -2 -6 -42 -20 -88 -21 -72
-22 -86 -10 -98 12 -13 16 -12 34 4 11 10 30 34 41 52 27 42 34 37 20 -15 -13
-47 -6 -72 20 -72 13 0 19 7 18 23 0 12 3 55 7 95 6 68 6 72 -14 72 -11 0 -33
-15 -48 -32 -18 -23 -25 -27 -21 -13 47 148 71 315 45 315 -8 0 -18 -3 -21 -7z"/>
<path d="M9228 799 c-53 -56 -68 -96 -68 -181 0 -57 0 -57 -32 -62 -18 -3 -49
-7 -68 -8 -23 -2 -35 -8 -35 -18 0 -12 14 -15 66 -14 l67 0 -9 -29 c-13 -45
-33 -70 -78 -97 -58 -36 -54 -74 5 -44 63 33 103 85 118 157 4 18 13 27 26 27
26 0 26 30 0 37 -17 5 -20 14 -20 59 0 68 17 109 64 154 l36 34 31 -18 c24
-14 34 -15 42 -6 9 9 5 17 -16 36 -44 38 -74 32 -129 -27z"/>
<path d="M11672 803 c-5 -10 -15 -43 -22 -73 -6 -30 -41 -113 -77 -183 -35
-71 -62 -135 -59 -143 11 -28 41 -13 98 46 l57 61 -15 -48 c-27 -83 -27 -90
-7 -101 26 -14 51 1 35 21 -7 7 -9 16 -6 20 10 9 43 150 38 159 -12 19 -43 5
-84 -34 l-42 -43 45 90 c44 89 83 217 72 236 -9 14 -23 11 -33 -8z"/>
<path d="M11523 802 c-5 -4 -12 -28 -15 -53 -3 -25 -13 -67 -23 -93 -17 -43
-20 -46 -54 -46 -50 0 -81 -10 -81 -25 0 -18 19 -23 59 -17 31 5 34 3 26 -14
-40 -97 -45 -116 -34 -135 15 -28 34 -18 36 19 0 17 14 55 30 84 22 42 34 54
58 58 38 7 48 40 12 40 l-25 0 19 50 c29 76 24 152 -8 132z"/>
<path d="M6696 777 c-31 -23 -11 -36 47 -30 56 6 97 -7 97 -30 0 -21 -64 -77
-101 -87 -59 -17 -67 -14 -71 28 -4 48 -32 52 -36 5 -4 -37 -5 -38 -32 -21
-16 10 -22 10 -32 0 -11 -11 -9 -17 10 -32 12 -10 27 -20 32 -22 7 -2 0 -40
-16 -95 -27 -96 -26 -127 3 -121 12 2 19 14 20 33 1 17 11 61 21 100 l18 69
60 11 c63 11 109 38 144 82 46 59 6 114 -88 121 -39 2 -63 -1 -76 -11z"/>
<path d="M4932 723 c2 -10 10 -18 18 -18 22 0 18 29 -3 33 -14 3 -18 -1 -15
-15z"/>
<path d="M7740 725 c0 -18 24 -30 39 -21 16 10 1 36 -20 36 -10 0 -19 -7 -19
-15z"/>
<path d="M10223 683 c-17 -6 -16 -30 1 -36 21 -8 40 17 24 30 -7 6 -19 8 -25
6z"/>
<path d="M5682 619 c-24 -12 -60 -37 -79 -55 -33 -32 -35 -35 -21 -56 8 -13
38 -32 66 -43 29 -11 52 -23 52 -27 0 -11 -66 -48 -87 -48 -10 0 -24 5 -30 11
-12 12 -33 4 -33 -11 0 -19 33 -40 61 -40 36 0 64 13 102 48 46 43 33 73 -46
102 -22 8 -40 19 -40 25 0 5 21 24 47 42 33 23 55 31 71 27 15 -4 24 0 29 11
15 40 -26 46 -92 14z"/>
<path d="M12765 630 c-46 -19 -102 -97 -91 -126 9 -23 51 -34 88 -23 18 6 43
12 56 14 30 4 28 0 -63 -195 -78 -166 -106 -253 -88 -271 13 -13 23 -3 85 84
59 82 88 103 117 85 27 -16 37 -4 23 27 -19 41 -64 34 -117 -20 l-45 -44 51
102 c55 108 112 250 124 305 6 27 4 32 -12 32 -11 0 -24 -5 -31 -12 -9 -9 -12
-9 -12 0 0 16 -37 52 -52 51 -7 0 -22 -4 -33 -9z m45 -50 c17 -31 6 -41 -67
-64 -33 -11 -30 19 6 55 35 34 47 36 61 9z"/>
<path d="M3940 601 c-25 -15 -51 -35 -59 -45 -13 -15 -15 -15 -25 6 -21 43
-41 28 -43 -32 -1 -30 -15 -108 -32 -172 -36 -137 -38 -158 -13 -158 15 0 24
20 46 98 15 53 30 105 32 115 4 14 13 16 43 11 34 -5 40 -3 75 36 63 70 83
140 47 160 -25 13 -19 14 -71 -19z m50 -29 c0 -12 -52 -83 -73 -101 -9 -7 -24
-10 -33 -7 -14 5 -14 9 3 36 27 43 103 96 103 72z"/>
<path d="M4663 557 l-48 -72 -3 52 c-2 34 -8 53 -18 57 -21 8 -27 -16 -21 -91
8 -100 30 -104 92 -16 22 31 48 65 58 75 21 22 22 54 2 62 -10 3 -29 -17 -62
-67z"/>
<path d="M4160 608 c-25 -13 -73 -97 -86 -150 -5 -24 -3 -28 14 -28 16 0 24
12 37 49 9 28 25 61 37 76 18 23 24 25 68 19 79 -10 75 27 -5 40 -24 4 -50 1
-65 -6z"/>
<path d="M5354 612 c-6 -4 -29 -33 -52 -64 -52 -71 -91 -108 -107 -102 -17 7
-29 -27 -13 -38 7 -4 22 -5 33 -2 11 3 40 6 64 5 35 -2 51 4 81 28 l37 29 -1
-41 c-1 -40 0 -42 29 -42 20 0 31 5 33 18 2 11 -3 17 -13 17 -13 0 -16 5 -10
23 4 12 9 46 12 75 7 69 -6 68 -74 -8 -81 -89 -93 -77 -26 28 18 29 33 57 33
62 0 13 -14 20 -26 12z"/>
<path d="M8080 584 c-44 -40 -68 -101 -51 -133 33 -60 211 -68 211 -9 0 16 -4
19 -22 14 -58 -18 -108 -18 -133 -2 -14 9 -25 20 -25 24 0 5 26 17 58 29 65
23 91 57 72 93 -17 33 -63 26 -110 -16z m70 -18 c-8 -8 -26 -17 -40 -20 l-25
-7 24 20 c27 25 66 31 41 7z"/>
<path d="M4326 581 c-17 -17 -30 -44 -33 -67 -4 -32 -1 -43 20 -62 21 -20 33
-23 83 -20 47 2 59 7 62 21 3 15 -5 17 -57 17 -33 0 -63 5 -66 10 -4 6 -3 10
2 9 24 -4 45 4 72 27 36 30 39 46 11 74 -28 28 -62 25 -94 -9z m68 -19 c5 -8
-6 -15 -59 -41 -5 -3 -3 4 5 15 26 33 44 42 54 26z"/>
<path d="M7312 586 c-19 -17 -36 -23 -50 -19 -18 4 -22 1 -22 -20 0 -14 -8
-39 -17 -56 -15 -25 -16 -32 -5 -43 11 -11 17 -8 35 15 12 15 34 42 49 60 l27
32 -6 -42 c-8 -58 13 -65 75 -24 l47 31 3 -30 c3 -31 27 -45 56 -34 21 8 21
34 0 34 -10 0 -15 8 -14 23 1 12 2 28 1 35 -2 19 -52 14 -89 -8 -42 -26 -43
-26 -28 13 25 60 -8 77 -62 33z"/>
<path d="M7845 599 c-25 -14 -45 -39 -45 -55 0 -7 11 -26 25 -42 l26 -31 -23
-15 c-21 -15 -23 -15 -30 5 -5 11 -14 19 -20 17 -39 -13 -3 -84 36 -72 34 11
76 44 76 60 0 9 -12 30 -26 49 -25 33 -25 34 -5 45 12 6 33 9 49 8 21 -2 27 1
27 17 0 16 -7 21 -35 22 -19 2 -44 -2 -55 -8z"/>
<path d="M13793 587 c-18 -12 -42 -40 -54 -63 -44 -81 -2 -121 117 -111 67 5
92 16 80 36 -5 7 -31 9 -76 5 -102 -10 -118 1 -50 34 64 32 94 72 70 96 -27
26 -54 27 -87 3z m32 -47 c-10 -11 -25 -20 -34 -20 -11 1 -8 8 13 26 32 29 48
24 21 -6z"/>
<path d="M12994 592 c-16 -10 -37 -82 -32 -112 4 -29 63 -56 103 -46 26 7 90
93 97 131 7 42 -28 23 -64 -35 -37 -59 -56 -70 -87 -51 -12 8 -12 16 -1 56 13
46 6 71 -16 57z"/>
<path d="M6839 577 c-50 -25 -90 -150 -53 -164 22 -8 47 25 39 54 -7 31 14 73
38 73 11 0 28 -7 38 -16 10 -9 25 -14 34 -10 14 5 14 8 0 30 -22 33 -65 48
-96 33z"/>
<path d="M13295 578 c-11 -6 -36 -26 -56 -45 l-36 -34 18 -35 c9 -19 23 -41
29 -49 27 -33 145 -30 138 3 -3 13 -12 16 -37 14 -50 -5 -81 5 -81 27 0 12 10
21 27 26 68 17 105 72 64 95 -25 13 -41 12 -66 -2z m35 -33 c0 -2 -10 -9 -22
-15 -22 -11 -22 -10 -4 4 21 17 26 19 26 11z"/>
<path d="M3025 547 c-64 -64 -54 -142 22 -173 30 -13 42 -13 77 -2 26 8 42 20
44 32 4 17 0 18 -29 11 -51 -12 -78 -9 -100 11 -10 9 -19 20 -19 23 0 3 20 17
45 30 24 13 52 35 61 49 16 24 16 26 -2 39 -30 22 -64 15 -99 -20z m55 -12 c0
-2 -10 -9 -22 -15 -22 -11 -22 -10 -4 4 21 17 26 19 26 11z"/>
<path d="M7657 573 c-4 -3 -7 -28 -7 -54 0 -51 24 -76 38 -39 18 49 -5 119
-31 93z"/>
<path d="M11848 557 c-75 -62 -51 -167 38 -167 46 0 164 39 171 56 10 27 -6
28 -75 6 -74 -24 -117 -28 -127 -12 -3 6 2 10 12 10 23 0 100 49 107 67 8 20
-3 39 -30 52 -37 17 -66 13 -96 -12z m76 -26 c7 -11 -37 -41 -59 -41 -19 0
-19 9 2 32 17 19 48 24 57 9z"/>
<path d="M5021 544 c-25 -32 -37 -91 -24 -113 6 -9 23 -17 40 -19 24 -2 37 5
66 38 43 47 45 59 15 87 -39 35 -73 37 -97 7z m72 -30 c9 -10 -32 -64 -49 -64
-17 0 -18 9 -4 44 9 24 38 35 53 20z"/>
<path d="M13504 535 c-35 -84 -3 -135 70 -113 55 17 96 61 96 104 0 19 -4 34
-10 34 -5 0 -13 0 -17 0 -5 1 -10 -14 -13 -31 -5 -33 -39 -65 -75 -71 -22 -3
-24 17 -10 80 11 46 -21 44 -41 -3z"/>
<path d="M4841 546 c-17 -20 -26 -102 -11 -111 19 -12 33 11 37 64 4 51 -7 71
-26 47z"/>
<path d="M9775 530 c-16 -16 -36 -30 -46 -30 -9 0 -22 -12 -28 -27 -6 -16 -18
-38 -27 -50 -15 -21 -15 -23 1 -29 11 -5 32 8 67 42 31 31 46 40 38 25 -8 -16
-9 -26 -1 -34 8 -8 26 0 64 26 29 20 56 37 60 37 4 0 13 -13 22 -30 17 -33 65
-44 65 -15 0 8 -4 15 -9 15 -6 0 -20 18 -32 40 -26 46 -32 47 -76 20 l-32 -19
-3 27 c-4 37 -28 38 -63 2z"/>
<path d="M7025 513 c-47 -70 -23 -117 53 -105 34 5 72 42 72 72 0 31 -39 70
-70 70 -23 0 -35 -9 -55 -37z m75 -18 c15 -18 1 -40 -30 -48 -28 -7 -35 10
-16 38 19 29 29 31 46 10z"/>
<path d="M9344 540 c-50 -20 -82 -98 -52 -128 32 -32 131 -2 142 43 7 26 -17
85 -33 85 -5 0 -15 2 -23 4 -7 3 -23 1 -34 -4z m53 -56 c8 -21 -21 -44 -54
-44 -32 0 -29 26 5 43 36 20 42 20 49 1z"/>
<path d="M9537 530 c-44 -35 -49 -130 -6 -130 17 0 18 5 13 38 -8 53 19 77 81
69 43 -4 46 -3 43 17 -4 31 -93 36 -131 6z"/>
<path d="M10518 501 c-36 -36 -49 -56 -46 -73 3 -21 8 -23 53 -23 28 1 58 5
68 9 15 7 17 3 17 -30 0 -22 -6 -61 -13 -89 -13 -49 -14 -50 -63 -60 -56 -12
-75 -38 -95 -133 -14 -67 -2 -102 35 -102 43 0 82 44 111 125 l28 75 39 -7
c35 -5 40 -4 36 12 -2 11 -16 22 -35 27 -30 8 -32 10 -22 36 10 26 30 192 29
242 0 32 -15 46 -34 31 -10 -8 -16 -9 -21 -1 -13 21 -39 9 -87 -39z m82 -11
c13 -9 12 -12 -5 -26 -25 -18 -63 -29 -73 -19 -7 7 42 55 56 55 4 0 14 -5 22
-10z m-55 -357 c-22 -62 -45 -93 -68 -93 -10 0 -3 54 15 108 9 31 34 50 65 51
9 1 5 -20 -12 -66z"/>
<path d="M10300 518 c-19 -12 -43 -21 -52 -19 -12 1 -18 -4 -18 -19 0 -11 -5
-29 -12 -39 -12 -20 -5 -51 12 -51 5 0 21 17 34 38 13 20 37 45 53 54 l30 18
6 -41 c6 -47 16 -62 35 -50 16 10 5 97 -15 117 -19 19 -32 18 -73 -8z"/>
<path d="M10121 516 c-7 -8 -11 -35 -9 -63 2 -40 6 -48 23 -48 17 0 19 6 16
55 -3 61 -12 78 -30 56z"/>
<path d="M14062 413 c5 -26 38 -29 38 -4 0 15 -6 21 -21 21 -14 0 -19 -5 -17
-17z"/>
<path d="M8567 403 c-4 -3 -7 -14 -7 -24 0 -9 -18 -32 -40 -49 -38 -30 -51
-62 -30 -75 5 -3 32 16 60 44 38 38 50 57 50 81 0 28 -17 40 -33 23z"/>
</g>
</svg>
