<?xml version="1.0" standalone="no"?>
<!DOCTYPE svg PUBLIC "-//W3C//DTD SVG 20010904//EN"
 "http://www.w3.org/TR/2001/REC-SVG-20010904/DTD/svg10.dtd">
<svg version="1.0" xmlns="http://www.w3.org/2000/svg"
 width="1872.000000pt" height="472.000000pt" viewBox="0 0 1872.000000 472.000000"
 preserveAspectRatio="xMidYMid meet">

<g transform="translate(0.000000,472.000000) scale(0.100000,-0.100000)"
fill="#000000" stroke="none">
<path d="M1968 4453 c6 -2 18 -2 25 0 6 3 1 5 -13 5 -14 0 -19 -2 -12 -5z"/>
<path d="M2024 4111 c-83 -51 -93 -110 -39 -224 39 -83 44 -128 16 -173 -20
-33 -105 -94 -131 -94 -24 0 -59 41 -66 78 -5 27 -2 35 20 53 33 26 33 39 2
39 -30 0 -66 -43 -66 -79 0 -35 39 -99 72 -119 37 -22 97 -3 155 51 85 79 94
138 38 254 -44 92 -45 120 -2 161 32 31 84 45 73 20 -18 -45 -28 -89 -23 -102
9 -22 43 -20 78 5 41 29 41 80 -2 120 -37 34 -79 38 -125 10z m102 -100 c-15
-15 -16 -13 -4 19 9 26 13 30 16 16 2 -10 -3 -26 -12 -35z"/>
<path d="M3596 3987 c-31 -62 -56 -118 -56 -125 0 -15 -62 -16 -77 -1 -12 12
-33 4 -33 -11 0 -18 33 -40 60 -40 28 0 28 -1 27 -61 0 -68 12 -88 74 -113 42
-18 71 -7 50 18 -8 9 -21 16 -31 16 -23 0 -51 32 -52 61 -5 81 9 96 95 102 46
3 59 20 28 36 -13 8 -34 8 -60 2 l-39 -8 19 44 c11 25 35 73 54 107 40 72 43
86 16 86 -14 0 -33 -29 -75 -113z"/>
<path d="M8131 4079 c-88 -210 -164 -400 -168 -421 -4 -20 -1 -29 11 -34 12
-5 36 12 81 55 35 33 68 61 74 61 11 0 7 -30 -10 -78 -15 -38 -11 -62 9 -62
15 0 22 14 34 65 30 123 -7 158 -87 84 -25 -23 -47 -40 -49 -38 -2 2 25 72 60
154 79 185 87 210 68 226 -11 9 -16 6 -23 -12z"/>
<path d="M3096 4065 c-8 -9 -13 -22 -10 -29 3 -8 -15 -65 -39 -127 -98 -249
-110 -299 -74 -299 7 0 37 30 66 66 29 36 55 64 57 61 2 -2 -2 -28 -10 -58
-14 -58 -12 -79 9 -79 16 0 18 8 40 114 13 64 13 81 3 87 -22 14 -29 11 -75
-35 -51 -51 -51 -53 18 122 47 118 59 175 40 187 -5 3 -16 -2 -25 -10z"/>
<path d="M4475 4033 c-29 -181 -75 -321 -119 -366 -19 -19 -61 -23 -71 -7 -4
6 3 26 15 45 21 34 40 46 40 25 0 -13 27 -13 35 0 9 15 -18 50 -41 50 -31 0
-94 -75 -94 -112 0 -29 40 -58 80 -58 32 0 43 6 69 37 44 54 86 161 111 287
22 113 21 136 -4 136 -10 0 -17 -14 -21 -37z"/>
<path d="M16618 4059 c-11 -6 -35 -63 -63 -153 -38 -121 -48 -143 -63 -139
-10 2 -39 -8 -65 -22 -74 -42 -99 -110 -52 -141 68 -45 146 55 214 273 24 79
35 101 46 97 16 -6 18 2 15 51 -2 38 -10 46 -32 34z m-138 -345 c0 -24 -69
-89 -81 -77 -15 15 0 42 40 68 44 29 41 28 41 9z"/>
<path d="M9624 4052 c-6 -4 -14 -20 -18 -37 -9 -38 -97 -225 -106 -225 -3 0
-11 5 -16 10 -17 17 -44 0 -44 -27 0 -22 3 -24 25 -19 30 8 29 11 8 -64 -26
-96 6 -137 92 -118 47 11 118 55 110 68 -9 15 -27 12 -70 -10 -22 -11 -54 -20
-72 -20 -39 0 -42 16 -14 95 l18 50 59 0 c46 0 59 3 62 16 2 13 -8 18 -48 23
-27 4 -50 8 -50 10 0 2 18 42 41 90 22 48 43 102 46 120 5 34 -5 50 -23 38z"/>
<path d="M13058 3972 c-21 -32 -46 -77 -55 -100 -13 -30 -22 -40 -34 -36 -21
6 -50 -22 -43 -41 7 -18 16 -19 32 -3 9 9 8 -1 -3 -31 -21 -61 -20 -143 3
-164 29 -26 73 -30 111 -10 19 10 37 24 39 31 5 15 -32 16 -60 1 -11 -6 -31
-8 -44 -5 -20 5 -24 12 -24 48 0 22 5 58 11 79 l12 38 71 3 c55 2 71 6 71 18
0 11 -15 16 -63 18 l-63 3 36 67 c20 37 46 74 57 83 11 9 18 24 16 35 -7 36
-33 24 -70 -34z"/>
<path d="M5421 4005 c-48 -15 -61 -28 -61 -64 0 -19 4 -22 21 -18 18 5 20 2
14 -20 -3 -14 -9 -39 -12 -55 -5 -24 -10 -29 -27 -24 -12 3 -24 6 -28 6 -4 0
-5 6 -2 14 8 20 -23 28 -41 10 -21 -22 -4 -49 40 -64 19 -6 35 -12 35 -14 0
-1 -9 -27 -20 -59 -24 -67 -25 -90 -5 -107 18 -15 37 -3 30 20 -3 10 4 47 16
83 l21 65 62 4 c110 7 163 49 184 146 8 35 7 46 -8 65 -15 19 -29 22 -97 24
-47 2 -96 -3 -122 -12z m182 -31 c11 -4 13 -13 7 -40 -17 -75 -68 -114 -150
-114 -45 0 -46 2 -25 79 8 30 12 58 9 62 -2 4 4 10 13 12 27 7 129 8 146 1z"/>
<path d="M10909 4010 c-15 -9 -40 -62 -112 -240 -32 -78 -37 -85 -68 -92 -19
-4 -48 -5 -65 -2 -35 6 -48 -4 -34 -26 6 -10 26 -15 59 -14 l50 0 -26 -50
c-14 -28 -52 -90 -84 -138 -55 -82 -70 -120 -51 -132 10 -6 140 188 181 270
26 54 34 62 65 68 19 4 38 12 42 18 9 14 -17 29 -40 22 -13 -5 -17 -2 -14 7
116 292 110 281 153 273 28 -5 35 -3 35 10 0 29 -57 46 -91 26z"/>
<path d="M14652 4008 c-21 -28 -42 -78 -58 -144 -10 -42 -26 -78 -39 -91 -13
-12 -31 -43 -41 -69 l-18 -47 28 -23 c34 -30 80 -31 126 -3 43 27 50 36 50 74
0 43 -25 75 -59 75 l-28 0 19 76 c11 42 30 93 43 112 13 19 22 39 19 44 -8 12
-30 10 -42 -4z m6 -300 c3 -21 -3 -30 -27 -42 -71 -37 -103 -8 -46 41 45 39
69 39 73 1z"/>
<path d="M12470 3992 c0 -26 -21 -75 -91 -214 -32 -64 -59 -124 -59 -133 0
-29 29 -27 67 4 20 17 38 29 39 28 1 -1 -3 -22 -9 -46 -10 -38 -10 -44 7 -56
10 -8 24 -11 32 -8 16 6 19 30 4 35 -7 2 -6 23 4 62 20 77 9 96 -40 67 l-32
-19 55 112 c58 120 71 178 41 184 -12 2 -18 -3 -18 -16z"/>
<path d="M15417 3898 c-26 -62 -57 -140 -71 -173 -28 -67 -34 -130 -12 -138
19 -7 26 1 26 32 0 48 10 69 30 64 11 -3 31 4 46 16 15 12 30 21 34 21 8 0 47
-77 55 -112 9 -37 41 -68 70 -68 32 0 32 23 1 38 -13 6 -26 23 -30 39 -4 15
-18 49 -32 75 l-24 48 52 26 c77 39 108 63 108 85 0 23 -23 25 -41 3 -7 -9
-58 -39 -114 -66 -55 -27 -108 -56 -117 -65 -15 -13 42 137 84 223 8 16 13 37
11 47 -10 40 -33 11 -76 -95z"/>
<path d="M11149 3977 c-48 -32 -92 -103 -136 -218 -37 -97 -39 -99 -70 -99
-41 0 -63 -9 -63 -26 0 -10 13 -14 41 -14 35 0 40 -3 34 -17 -4 -10 -13 -39
-21 -64 -13 -44 -34 -68 -114 -132 -16 -14 -19 -22 -11 -30 14 -14 44 0 98 47
34 30 46 51 68 116 15 44 28 80 29 80 9 0 114 21 129 26 15 5 17 1 11 -20 -5
-22 0 -33 31 -61 30 -29 44 -35 81 -35 38 0 45 3 42 18 -2 12 -16 19 -43 22
-44 6 -57 33 -18 38 24 4 63 46 63 68 0 17 -28 44 -47 44 -8 0 -31 -16 -50
-35 -39 -39 -51 -43 -60 -19 -5 13 -16 14 -64 9 l-58 -7 29 76 c43 111 65 149
105 184 38 34 72 41 81 17 7 -17 30 -20 39 -5 4 6 -1 22 -9 35 -21 32 -71 33
-117 2z m105 -312 c-4 -8 -11 -15 -16 -15 -6 0 -5 6 2 15 7 8 14 15 16 15 2 0
1 -7 -2 -15z"/>
<path d="M12281 3948 c-63 -161 -73 -178 -105 -178 -27 0 -51 -24 -41 -40 4
-6 16 -8 27 -4 18 5 20 3 13 -12 -32 -75 -30 -129 2 -122 13 3 17 12 15 30 -1
14 6 46 17 71 19 43 22 46 62 49 51 4 64 26 20 34 -36 7 -35 10 5 103 13 29
24 62 24 72 0 26 -29 24 -39 -3z"/>
<path d="M14331 3948 c-21 -57 -80 -236 -85 -259 -8 -35 18 -60 32 -32 5 10
12 34 16 53 3 19 22 77 41 129 19 51 35 102 35 112 0 27 -29 24 -39 -3z"/>
<path d="M14416 3938 c-2 -7 -20 -70 -40 -140 -39 -134 -42 -171 -13 -176 13
-3 17 3 17 24 0 15 16 79 36 142 19 62 34 123 32 135 -3 24 -26 35 -32 15z"/>
<path d="M6504 3875 c-9 -23 7 -36 34 -28 14 3 22 12 20 22 -4 22 -46 27 -54
6z"/>
<path d="M2614 3746 c-35 -37 -64 -70 -64 -75 0 -28 27 -16 84 38 34 34 68 61
74 61 22 0 12 -38 -23 -89 -38 -55 -42 -73 -21 -90 17 -14 41 -5 70 28 l20 22
12 -31 c27 -64 67 -29 108 97 9 28 23 54 31 57 20 7 7 36 -16 36 -21 0 -37
-28 -65 -110 -18 -53 -19 -54 -22 -22 -4 36 -24 51 -46 33 -11 -9 -11 -4 -2
29 13 51 1 74 -43 78 -28 3 -40 -5 -97 -62z"/>
<path d="M5642 3803 c-23 -9 -102 -126 -102 -150 0 -13 7 -26 15 -30 23 -8 55
26 55 58 0 15 12 41 26 58 24 29 27 30 47 16 12 -8 29 -15 39 -15 30 0 20 27
-18 49 -37 22 -41 23 -62 14z"/>
<path d="M6730 3803 c-52 -19 -65 -75 -30 -128 26 -39 25 -42 -10 -60 -29 -15
-29 -15 -37 16 -9 33 -23 39 -38 15 -12 -20 19 -86 40 -86 9 0 34 9 55 20 51
26 60 57 31 105 -25 43 -26 58 -6 75 12 10 19 10 27 2 18 -18 38 -14 38 8 0
29 -35 46 -70 33z"/>
<path d="M6947 3785 c-67 -46 -86 -117 -43 -160 40 -39 147 -48 154 -12 3 14
-4 17 -37 17 -22 0 -52 5 -67 10 -27 10 -27 10 27 38 44 22 55 33 60 59 7 37
-12 73 -39 73 -10 0 -34 -11 -55 -25z m53 -35 c0 -20 -56 -57 -68 -45 -6 6 51
65 63 65 3 0 5 -9 5 -20z"/>
<path d="M7260 3803 c-59 -22 -65 -71 -15 -119 40 -38 40 -37 19 -58 -17 -18
-69 -22 -79 -6 -11 18 -35 11 -35 -10 0 -23 34 -40 81 -40 33 0 89 47 89 74 0
9 -16 34 -36 56 -42 46 -36 67 19 72 21 2 33 9 35 21 3 13 -3 17 -30 16 -18 0
-40 -3 -48 -6z"/>
<path d="M2168 3790 c-46 -28 -77 -131 -42 -144 39 -15 76 -6 110 28 39 39 42
63 13 100 -21 27 -51 33 -81 16z m62 -62 c0 -14 -44 -48 -62 -48 -21 0 -23 12
-7 41 19 37 68 41 69 7z"/>
<path d="M8276 3781 c-64 -43 -89 -125 -40 -137 14 -4 37 -1 52 7 15 7 30 15
35 17 4 2 7 -6 7 -17 0 -27 38 -67 52 -53 6 6 6 17 -1 30 -6 11 -11 34 -11 51
0 38 -36 121 -52 121 -7 0 -26 -9 -42 -19z m37 -46 c4 -8 -5 -23 -20 -35 -45
-35 -58 -22 -22 24 23 29 34 33 42 11z"/>
<path d="M8558 3719 l-43 -81 -11 38 c-6 22 -17 39 -25 39 -19 0 -14 -104 6
-124 22 -23 41 -6 89 76 25 43 50 84 56 91 7 7 9 20 6 28 -12 31 -37 10 -78
-67z"/>
<path d="M8775 3782 c-36 -22 -51 -40 -74 -86 -15 -28 -16 -37 -5 -48 7 -7 23
-23 34 -36 19 -21 28 -23 98 -20 60 2 77 6 77 18 0 12 -16 16 -72 18 -100 4
-109 20 -36 63 66 38 78 67 41 93 -28 20 -27 20 -63 -2z m40 -32 c-3 -5 -16
-15 -28 -21 -21 -10 -21 -9 2 10 25 23 36 27 26 11z"/>
<path d="M3270 3783 c-24 -9 -70 -55 -87 -86 -11 -22 -12 -32 -2 -43 15 -18
62 -18 97 0 l27 14 0 -42 c0 -36 3 -41 24 -44 21 -3 23 -1 17 22 -4 15 1 53 9
87 16 62 13 84 -12 75 -8 -3 -21 1 -29 9 -16 16 -20 17 -44 8z m30 -58 c0 -15
-49 -45 -71 -45 -7 0 2 16 21 35 33 34 50 37 50 10z"/>
<path d="M4532 3775 c-39 -17 -65 -69 -60 -122 6 -68 72 -74 137 -14 40 37 43
96 8 129 -27 25 -40 26 -85 7z m68 -64 c0 -33 -39 -71 -73 -71 -17 0 -19 5
-14 36 8 47 23 64 58 64 25 0 29 -4 29 -29z"/>
<path d="M13794 3780 c-28 -11 -103 -98 -111 -128 -10 -41 16 -56 104 -56 66
-1 78 2 81 17 3 15 -5 17 -60 17 -94 0 -100 8 -43 69 52 55 62 60 80 34 15
-21 35 -9 35 22 0 33 -39 44 -86 25z"/>
<path d="M15808 3769 c-35 -26 -35 -49 -2 -89 l27 -31 -23 -24 c-31 -33 -41
-31 -33 5 6 33 -6 39 -31 14 -19 -18 -20 -38 -6 -65 15 -28 50 -23 93 12 44
36 47 65 12 107 -22 27 -23 31 -9 43 12 10 20 10 35 1 26 -17 39 -15 39 6 0
44 -56 56 -102 21z"/>
<path d="M14000 3739 c-41 -45 -57 -79 -45 -98 9 -16 31 -13 77 10 l41 21 -6
-23 c-8 -29 9 -59 33 -59 21 0 27 19 11 36 -5 5 -4 29 4 56 13 51 11 58 -14
58 -8 0 -25 10 -38 22 l-23 21 -40 -44z m40 -34 c-7 -9 -15 -13 -17 -11 -7 7
7 26 19 26 6 0 6 -6 -2 -15z"/>
<path d="M15058 3736 c-67 -64 -71 -97 -16 -127 24 -13 138 9 145 28 9 23 -4
26 -63 15 -82 -17 -96 -5 -51 44 30 34 37 37 51 25 25 -21 43 0 28 34 -17 36
-42 31 -94 -19z"/>
<path d="M16700 3769 c-45 -18 -100 -80 -100 -112 0 -56 52 -72 120 -37 38 20
70 62 70 95 0 17 -43 65 -57 64 -4 0 -19 -5 -33 -10z m41 -78 c-21 -38 -101
-67 -101 -37 0 19 27 46 45 46 8 0 19 10 26 21 10 19 13 20 26 6 12 -11 13
-19 4 -36z"/>
<path d="M6115 3758 c-11 -6 -29 -20 -40 -30 -19 -18 -20 -18 -27 2 -9 24 -38
17 -38 -10 0 -9 -13 -42 -28 -73 -16 -31 -25 -62 -21 -68 10 -16 56 18 109 81
24 28 44 49 46 48 2 -2 -3 -22 -11 -43 -12 -34 -12 -42 1 -55 12 -12 19 -10
58 17 34 24 43 27 39 13 -7 -26 14 -60 37 -60 27 0 36 21 15 36 -15 11 -16 18
-6 45 9 26 8 36 -1 46 -13 13 -17 11 -75 -24 -18 -11 -19 -9 -19 34 1 50 -8
59 -39 41z"/>
<path d="M12639 3751 c-37 -20 -69 -73 -62 -102 10 -37 60 -48 116 -24 13 5
17 2 17 -14 0 -22 34 -46 50 -36 14 9 13 35 -1 35 -8 0 -10 16 -6 50 5 44 4
50 -13 50 -11 0 -20 8 -22 21 -5 32 -40 41 -79 20z m32 -88 c-18 -16 -47 -17
-56 -3 -4 6 8 25 27 43 l32 32 6 -30 c5 -21 2 -34 -9 -42z"/>
<path d="M14802 3737 c-63 -65 -22 -129 62 -97 22 8 26 7 26 -9 0 -24 35 -55
55 -48 19 8 20 37 0 37 -19 0 -19 -1 4 58 21 52 15 86 -12 64 -11 -9 -18 -8
-32 8 -27 30 -66 25 -103 -13z m81 -22 c18 -13 17 -14 -12 -29 -31 -17 -61
-21 -61 -9 0 9 42 53 49 53 3 0 14 -7 24 -15z"/>
<path d="M5791 3716 c-22 -23 -34 -47 -38 -74 -5 -35 -2 -42 21 -57 23 -16 30
-16 63 -4 20 8 45 26 55 40 17 22 18 30 8 50 -14 26 -60 79 -70 79 -3 0 -21
-15 -39 -34z m66 -45 c11 -17 9 -23 -14 -41 -30 -23 -46 -22 -51 4 -4 19 24
56 42 56 6 0 17 -9 23 -19z"/>
<path d="M9771 3694 c-25 -32 -44 -98 -36 -125 9 -27 40 -42 64 -30 31 17 71
71 71 95 0 13 -7 37 -16 54 -20 40 -54 43 -83 6z m59 -59 c0 -9 -12 -28 -27
-43 -22 -21 -28 -24 -31 -11 -5 29 16 69 38 69 11 0 20 -7 20 -15z"/>
<path d="M10489 3703 c-33 -20 -59 -63 -59 -95 0 -57 80 -78 125 -34 21 21 24
33 22 83 -2 57 -3 58 -32 60 -16 2 -42 -4 -56 -14z m46 -64 c9 -26 -11 -49
-41 -49 -28 0 -32 24 -9 57 18 25 41 21 50 -8z"/>
<path d="M6407 3693 c-3 -5 -8 -29 -12 -55 -6 -41 -5 -48 9 -48 19 0 36 38 36
81 0 27 -21 41 -33 22z"/>
<path d="M11432 3665 c-25 -31 -37 -94 -22 -109 18 -18 45 7 50 50 l5 39 50 0
c39 0 49 3 47 15 -5 22 -22 30 -69 30 -32 0 -46 -5 -61 -25z"/>
<path d="M2883 3540 c-37 -22 -37 -23 -23 -51 14 -25 40 -25 40 1 0 31 43 36
80 10 16 -12 30 -23 30 -26 0 -7 -128 -87 -199 -124 -69 -37 -90 -66 -74 -103
14 -30 88 -81 108 -74 21 9 10 28 -36 60 -22 15 -39 33 -37 40 3 7 40 31 84
55 101 54 181 109 188 129 11 28 -4 52 -48 78 -52 30 -71 31 -113 5z"/>
<path d="M8856 3488 c-2 -13 -9 -52 -15 -88 -7 -36 -19 -86 -27 -111 -15 -46
-16 -47 -43 -36 -78 29 -181 -92 -125 -147 25 -26 91 -21 119 10 37 40 92 162
111 249 10 44 25 85 34 92 13 10 12 14 -7 32 -29 27 -42 26 -47 -1z m-89 -276
c9 -6 6 -17 -13 -45 -19 -29 -31 -37 -54 -37 -40 0 -40 30 1 64 32 27 46 31
66 18z"/>
<path d="M12802 3488 c-19 -24 -182 -358 -182 -373 0 -22 17 -19 69 14 l47 28
0 -46 c-1 -34 3 -46 15 -49 13 -2 18 10 24 64 8 79 -1 94 -42 74 -16 -8 -32
-16 -36 -18 -11 -5 121 258 140 280 16 18 10 38 -11 38 -8 0 -18 -6 -24 -12z"/>
<path d="M12616 3458 c-3 -18 -21 -68 -38 -110 -31 -73 -35 -78 -64 -78 -39 0
-69 -22 -61 -43 5 -14 11 -15 32 -5 14 6 27 9 30 7 2 -3 -7 -33 -21 -68 -25
-61 -26 -91 -4 -91 6 0 16 12 22 28 52 126 56 132 86 132 36 0 73 26 54 38 -7
5 -25 7 -39 4 -20 -4 -25 -2 -20 9 35 81 57 140 62 172 6 33 5 37 -13 37 -14
0 -21 -9 -26 -32z"/>
<path d="M9849 3478 c-1 -2 -3 -16 -5 -31 -3 -29 -89 -186 -108 -199 -6 -4
-17 -6 -23 -3 -17 6 -43 -4 -43 -16 0 -5 12 -14 26 -19 21 -8 25 -15 20 -33
-16 -60 -28 -147 -22 -162 10 -28 32 -1 39 48 4 23 13 65 22 94 15 52 15 52
70 63 56 12 74 25 58 41 -6 6 -25 6 -51 1 l-41 -10 30 52 c68 114 83 176 43
176 -8 0 -15 -1 -15 -2z"/>
<path d="M4336 3449 c-9 -13 -16 -33 -16 -44 0 -39 -30 -140 -76 -253 -25 -62
-43 -119 -40 -127 9 -24 33 -17 76 21 22 20 42 35 45 33 2 -3 0 -22 -5 -44
-11 -47 2 -68 26 -44 25 25 23 104 -2 129 l-21 21 -32 -27 -33 -27 17 39 c63
146 107 316 87 336 -6 6 -15 2 -26 -13z"/>
<path d="M5946 3448 c-3 -7 -7 -32 -10 -56 -4 -24 -24 -89 -46 -144 -43 -109
-51 -162 -24 -156 10 2 22 21 29 48 7 25 29 89 49 143 39 105 47 177 21 177
-9 0 -17 -6 -19 -12z"/>
<path d="M13407 3453 c-3 -5 -8 -24 -12 -43 -4 -19 -26 -68 -49 -107 -37 -65
-44 -73 -72 -73 -32 0 -54 -15 -54 -38 0 -10 8 -12 31 -7 l31 7 -16 -31 c-36
-69 -11 -104 72 -103 57 2 82 10 82 28 0 11 -13 14 -60 13 -33 -1 -63 1 -67 4
-8 9 16 63 35 79 8 7 53 15 101 18 68 4 86 8 86 20 0 12 -17 16 -78 18 l-78 3
29 52 c38 66 55 121 47 147 -6 20 -20 26 -28 13z"/>
<path d="M14349 3329 l-63 -129 -49 0 c-41 0 -48 -3 -45 -17 2 -13 14 -19 41
-21 20 -2 37 -4 37 -5 0 -1 -7 -20 -15 -42 -18 -52 -19 -81 0 -89 11 -4 20 12
35 64 l21 69 47 3 c35 2 48 7 50 21 3 14 -4 17 -37 17 l-40 0 54 111 c59 119
63 134 41 142 -10 4 -32 -33 -77 -124z"/>
<path d="M16280 3381 c-67 -135 -91 -166 -122 -163 -35 4 -118 -73 -118 -109
0 -61 51 -64 107 -6 65 67 214 318 205 345 -10 30 -35 6 -72 -67z m-151 -241
c-40 -50 -64 -56 -39 -10 8 16 52 47 68 50 2 0 -12 -18 -29 -40z"/>
<path d="M4190 3429 c-36 -4 -105 -17 -155 -29 -111 -27 -208 -29 -253 -6 -35
18 -52 14 -52 -10 0 -39 177 -62 269 -35 19 6 37 9 39 6 9 -8 -18 -109 -48
-190 -17 -42 -33 -100 -36 -130 -6 -46 -4 -54 13 -64 27 -14 33 -6 26 33 -3
22 9 74 41 168 25 75 46 149 46 166 0 28 4 31 48 41 26 6 75 12 110 14 64 4
82 11 66 26 -16 15 -48 18 -114 10z"/>
<path d="M2500 3341 c-51 -89 -52 -90 -93 -93 -51 -4 -60 -31 -11 -36 l31 -3
-15 -45 c-27 -81 22 -135 101 -113 36 10 75 44 63 56 -4 4 -27 0 -52 -10 -73
-27 -92 -8 -68 72 l14 50 58 3 c43 2 57 7 57 18 0 10 -14 17 -42 20 l-43 5 41
67 c38 62 45 98 21 98 -6 0 -33 -40 -62 -89z"/>
<path d="M7714 3402 c-6 -4 -14 -24 -17 -46 -3 -21 -29 -87 -57 -147 -53 -112
-57 -134 -28 -153 24 -15 47 6 29 27 -9 12 -1 36 40 121 64 130 80 230 33 198z"/>
<path d="M16005 3360 c-10 -16 16 -43 28 -31 11 11 2 41 -12 41 -5 0 -13 -5
-16 -10z"/>
<path d="M11674 3349 c-10 -17 5 -59 21 -59 20 0 20 56 0 63 -8 4 -17 2 -21
-4z"/>
<path d="M9056 3282 c-25 -48 -96 -132 -111 -132 -10 0 -15 10 -15 30 0 42 0
43 -12 58 -18 21 -32 -3 -29 -50 5 -84 57 -102 116 -39 48 51 95 121 95 144 0
27 -28 20 -44 -11z"/>
<path d="M6963 3293 c-28 -4 -37 -13 -64 -64 -18 -32 -35 -59 -39 -59 -7 0
-30 -45 -30 -60 0 -6 8 -10 19 -10 13 0 33 23 62 73 23 39 44 73 45 75 1 1 24
5 53 9 50 6 68 24 35 37 -16 6 -24 6 -81 -1z"/>
<path d="M14147 3294 c-13 -13 -7 -52 8 -58 17 -6 29 13 23 40 -3 19 -20 28
-31 18z"/>
<path d="M16773 3281 c-70 -32 -67 -81 7 -122 46 -26 50 -41 15 -57 -50 -23
-80 -15 -98 24 -14 29 -20 34 -32 24 -10 -8 -11 -18 -4 -40 17 -48 42 -63 95
-57 56 6 98 35 102 70 3 21 -6 33 -47 63 -28 20 -51 38 -51 40 0 6 58 34 70
34 5 0 10 -14 10 -31 0 -43 31 -35 43 11 15 59 -31 76 -110 41z"/>
<path d="M1862 3278 c-7 -7 -12 -19 -12 -27 0 -9 -9 -40 -20 -69 -41 -108 -20
-125 51 -40 28 34 63 71 76 81 l24 19 -15 -36 c-9 -21 -24 -49 -34 -64 -32
-47 -33 -51 -12 -72 24 -24 55 -26 64 -4 4 11 -1 18 -14 21 -25 7 -25 5 5 49
34 50 52 111 38 132 -17 29 -40 25 -82 -14 l-41 -36 0 30 c0 35 -11 47 -28 30z"/>
<path d="M16454 3274 c-44 -22 -104 -73 -104 -90 0 -8 -6 -14 -14 -14 -25 0
-26 -15 -5 -58 17 -33 29 -44 58 -52 43 -11 96 0 96 21 0 10 -13 14 -48 14
-30 1 -52 6 -57 15 -12 19 -6 26 31 34 17 3 50 14 74 25 33 15 44 26 50 49 8
36 -9 72 -33 72 -9 0 -31 -7 -48 -16z m46 -33 c0 -8 -27 -41 -33 -41 -1 0 -17
-4 -35 -9 -17 -5 -32 -8 -32 -5 0 6 82 64 92 64 4 0 8 -4 8 -9z"/>
<path d="M7122 3240 c-75 -54 -88 -118 -34 -161 33 -26 105 -24 110 4 3 14 -4
17 -37 17 -38 0 -71 19 -71 42 0 16 81 91 89 82 3 -4 0 -9 -7 -11 -25 -9 -44
-35 -33 -46 14 -14 111 30 111 50 0 14 -56 53 -76 53 -6 0 -30 -13 -52 -30z"/>
<path d="M2200 3222 c-43 -42 -61 -102 -40 -127 25 -31 129 -9 144 30 13 35 6
102 -12 118 -28 26 -51 21 -92 -21z m68 -47 c4 -33 -18 -55 -56 -55 -20 0 -22
4 -16 23 8 26 45 66 59 63 6 -2 12 -15 13 -31z"/>
<path d="M8432 3250 c-42 -17 -92 -64 -92 -87 0 -31 57 -41 110 -20 l38 15 6
-33 c8 -40 37 -68 68 -63 28 4 31 31 3 37 -28 5 -35 19 -35 71 0 76 -35 105
-98 80z m52 -39 c3 -5 -12 -16 -34 -25 -70 -28 -80 -16 -15 18 35 18 42 19 49
7z"/>
<path d="M9215 3249 c-41 -11 -105 -66 -105 -89 0 -36 75 -53 133 -31 22 8 24
7 20 -10 -6 -22 13 -49 34 -49 11 0 13 7 9 24 -4 15 3 41 19 72 32 62 31 68
-5 61 -16 -4 -32 -2 -35 3 -12 19 -41 27 -70 19z m39 -45 c9 -3 16 -10 16 -14
0 -11 -57 -30 -89 -30 l-26 1 28 24 c29 26 44 30 71 19z"/>
<path d="M15135 3248 c-11 -6 -37 -26 -57 -46 -35 -33 -38 -34 -54 -17 -17 16
-18 16 -31 -1 -7 -10 -13 -23 -13 -29 0 -19 -76 -208 -106 -262 -27 -50 -27
-88 -1 -77 7 2 33 46 58 96 24 50 57 111 72 135 23 37 30 43 42 33 33 -27 106
20 150 95 28 47 25 70 -8 79 -28 7 -28 7 -52 -6z m26 -56 c-12 -23 -78 -82
-91 -82 -20 0 -8 19 41 65 50 47 70 54 50 17z"/>
<path d="M15356 3253 c-36 -6 -131 -98 -138 -134 -12 -64 14 -64 47 0 31 62
72 92 125 93 44 0 54 20 21 38 -11 5 -21 9 -23 9 -2 -1 -16 -4 -32 -6z"/>
<path d="M6099 3218 c-6 -13 -27 -44 -46 -70 -29 -40 -38 -46 -53 -38 -11 6
-22 26 -26 48 -9 48 -12 52 -29 45 -8 -3 -15 -16 -15 -29 0 -34 26 -93 44
-100 12 -5 8 -17 -23 -62 -64 -96 -123 -210 -119 -234 5 -35 28 -27 42 14 20
57 103 192 176 287 72 93 103 145 93 155 -13 13 -33 5 -44 -16z"/>
<path d="M7396 3219 c-81 -64 -61 -153 24 -104 36 20 40 19 34 -13 -4 -18 -1
-32 9 -41 19 -15 20 -13 42 72 24 89 11 100 -53 51 -51 -39 -68 -43 -50 -14 7
12 24 23 38 27 37 9 42 13 29 29 -16 20 -42 17 -73 -7z"/>
<path d="M15760 3230 c0 -13 -70 -90 -82 -90 -5 0 -8 15 -7 33 4 42 -8 62 -27
46 -32 -26 -6 -129 32 -129 9 0 40 25 70 55 56 58 70 95 34 95 -11 0 -20 -4
-20 -10z"/>
<path d="M9435 3178 c-34 -33 -55 -63 -55 -76 0 -12 3 -22 7 -22 4 0 33 26 65
57 59 59 66 59 47 4 -13 -36 -6 -63 15 -55 17 6 39 81 34 115 -2 18 -10 25
-30 27 -21 3 -39 -8 -83 -50z"/>
<path d="M10552 3185 c-24 -25 -51 -45 -58 -45 -19 0 -18 -9 6 -57 28 -58 58
-66 146 -37 59 20 66 25 55 43 -7 11 -17 11 -60 -4 -28 -9 -60 -15 -72 -13
-27 4 -38 28 -14 28 28 0 92 41 103 65 8 17 7 28 -4 44 -23 32 -52 25 -102
-24z m54 -21 c-30 -21 -45 -16 -16 6 14 10 27 16 30 13 3 -2 -4 -11 -14 -19z"/>
<path d="M11767 3205 c-44 -30 -47 -50 -11 -77 20 -16 23 -23 12 -29 -21 -14
-48 -11 -42 5 8 20 -14 30 -31 16 -23 -19 -18 -46 10 -58 34 -16 50 -15 85 3
36 19 40 53 9 81 -19 17 -19 19 -3 31 10 7 30 13 44 13 32 0 41 7 33 26 -8 22
-65 16 -106 -11z"/>
<path d="M5589 3173 c-62 -58 -76 -81 -54 -89 10 -4 33 11 68 45 50 49 70 54
48 12 -16 -29 -14 -61 4 -61 16 0 45 60 45 94 0 27 -18 46 -42 46 -11 0 -42
-21 -69 -47z"/>
<path d="M15455 3199 c-89 -44 -103 -129 -23 -129 84 0 157 97 102 137 -23 17
-31 16 -79 -8z m55 -34 c0 -21 -41 -55 -67 -55 -28 0 -29 11 -3 35 11 10 20
15 20 11 0 -4 10 0 22 8 27 19 28 20 28 1z"/>
<path d="M15866 3169 c-14 -28 -22 -58 -19 -65 11 -28 49 -9 51 26 1 8 4 29 8
46 10 54 -14 50 -40 -7z"/>
<path d="M5390 3192 c-60 -29 -99 -104 -67 -130 42 -35 117 -20 142 29 16 30
19 77 7 95 -13 19 -49 22 -82 6z m37 -51 c16 -25 -9 -61 -42 -61 -35 0 -38 15
-9 49 30 36 35 37 51 12z"/>
<path d="M9951 3175 c-45 -41 -56 -69 -34 -90 19 -19 56 -19 93 0 29 15 30 15
30 -10 0 -14 5 -25 10 -25 6 0 13 -1 18 -2 4 -2 10 15 14 37 4 22 10 52 14 68
5 23 3 27 -14 27 -12 0 -25 -6 -29 -14 -10 -17 -73 -56 -91 -56 -25 0 8 41 39
47 32 6 41 36 13 47 -22 9 -20 10 -63 -29z"/>
<path d="M10272 3199 c-31 -12 -61 -49 -62 -75 0 -32 25 -47 65 -41 31 5 35 3
34 -16 0 -12 -8 -49 -17 -82 l-17 -60 -76 -3 c-58 -2 -81 -7 -93 -21 -32 -36
-48 -203 -23 -251 31 -60 99 -3 173 143 40 78 46 86 64 77 28 -15 40 -12 40
11 0 12 -8 23 -20 26 -24 6 -24 5 -5 88 19 81 17 191 -4 187 -7 -1 -18 4 -25
12 -8 10 -17 12 -34 5z m14 -68 c-8 -13 -36 -15 -36 -3 0 4 5 13 12 20 14 14
34 0 24 -17z m-36 -256 c0 -15 -72 -146 -95 -173 -39 -47 -49 -32 -42 62 8
116 8 116 78 116 32 0 59 -2 59 -5z"/>
<path d="M12918 3185 c-41 -28 -57 -67 -38 -90 14 -17 67 -20 90 -5 12 7 16 4
20 -17 6 -31 31 -49 55 -39 17 6 17 7 0 26 -15 17 -17 26 -8 55 9 28 8 38 -3
50 -8 7 -13 20 -12 27 6 25 -64 21 -104 -7z m92 -19 c0 -10 -69 -46 -86 -46
-16 1 -15 4 9 25 23 21 77 35 77 21z"/>
<path d="M4501 3153 c-36 -41 -41 -54 -39 -88 3 -32 9 -44 38 -63 30 -20 44
-23 91 -19 62 5 110 24 117 46 4 10 -4 12 -34 7 -119 -19 -124 -19 -149 -2
-30 20 -32 36 -5 36 29 0 90 58 90 86 0 23 -25 44 -54 44 -8 0 -33 -21 -55
-47z m67 -5 c-2 -6 -15 -18 -28 -27 l-24 -16 18 28 c18 27 41 38 34 15z"/>
<path d="M11580 3185 c-15 -18 -50 -111 -50 -132 0 -7 8 -13 18 -13 12 0 23
19 41 71 23 72 19 108 -9 74z"/>
<path d="M14060 3159 c-35 -49 -39 -101 -7 -107 13 -3 17 3 17 26 0 18 11 43
26 62 24 28 25 33 11 47 -14 14 -18 11 -47 -28z"/>
<path d="M2780 3101 c0 -19 23 -35 34 -24 14 15 5 43 -14 43 -13 0 -20 -7 -20
-19z"/>
<path d="M15536 2944 c-9 -8 -16 -21 -16 -27 0 -6 -34 -70 -75 -142 -95 -167
-119 -220 -107 -241 8 -15 15 -12 53 22 79 71 79 71 67 25 -11 -44 -5 -75 13
-69 17 6 52 149 40 161 -6 6 -26 0 -56 -16 l-46 -26 27 47 c126 220 146 263
126 276 -6 3 -18 -1 -26 -10z"/>
<path d="M3697 2923 c-8 -15 -20 -57 -26 -93 -31 -163 -29 -157 -61 -152 -43
6 -110 -61 -110 -110 0 -90 101 -74 151 23 11 22 31 95 45 162 31 156 32 157
55 157 32 0 20 34 -13 38 -21 3 -30 -3 -41 -25z m-83 -315 c-27 -52 -74 -78
-74 -41 0 23 49 73 72 73 18 0 18 -2 2 -32z"/>
<path d="M4440 2918 c-10 -18 -34 -78 -51 -134 l-32 -101 -43 5 c-38 4 -47 1
-74 -26 -53 -54 -33 -132 34 -132 54 0 102 76 155 246 18 58 37 104 46 108 9
3 15 18 15 36 0 40 -25 39 -50 -2z m-113 -284 c6 -17 -37 -64 -58 -64 -24 0
-26 36 -2 62 18 20 54 21 60 2z"/>
<path d="M8583 2937 c-24 -35 -48 -88 -73 -161 -17 -47 -33 -80 -40 -78 -7 1
-40 5 -74 8 -33 2 -71 7 -83 9 l-22 5 19 55 c10 30 22 75 26 101 6 41 5 46
-11 42 -14 -2 -23 -22 -36 -73 -27 -108 -35 -125 -62 -125 -30 0 -62 -23 -53
-39 5 -8 19 -10 37 -6 l30 7 -16 -40 c-20 -50 -17 -96 8 -100 13 -3 17 3 17
27 0 17 7 48 15 69 l15 38 66 -2 c35 -1 67 -4 71 -8 3 -3 17 -6 30 -6 25 0 25
0 7 -100 -5 -28 17 -67 33 -57 5 3 10 29 11 57 2 83 6 90 55 84 45 -5 74 6 63
25 -4 6 -20 11 -36 11 -60 0 -61 5 -33 83 14 40 33 86 43 102 27 47 33 72 16
78 -8 3 -18 0 -23 -6z"/>
<path d="M2955 2927 c-5 -11 -34 -110 -57 -189 -9 -34 -14 -38 -43 -38 -17 0
-34 -3 -38 -6 -13 -13 7 -34 33 -34 27 0 28 -1 19 -32 -5 -18 -9 -50 -9 -71 0
-31 3 -38 18 -35 12 2 19 17 23 56 10 75 13 80 56 84 27 2 39 8 41 21 3 14 -4
17 -32 17 -20 0 -36 4 -36 9 0 5 14 48 30 94 17 47 30 94 30 105 0 23 -28 38
-35 19z"/>
<path d="M6960 2908 c-55 -28 -85 -76 -105 -175 l-18 -82 -59 -7 c-47 -5 -58
-10 -56 -23 3 -12 15 -16 50 -14 l46 1 -28 -62 c-32 -71 -73 -140 -103 -174
-23 -25 -13 -47 16 -36 24 9 89 112 128 204 34 79 34 80 70 80 35 0 66 20 52
33 -3 4 -22 7 -40 7 -28 0 -33 3 -29 18 2 9 10 43 16 74 12 63 37 101 80 123
27 14 28 13 34 -10 9 -35 36 -33 36 3 0 55 -31 69 -90 40z"/>
<path d="M14513 2918 c-6 -7 -16 -31 -23 -53 -7 -22 -20 -51 -30 -65 -26 -38
-30 -57 -15 -70 10 -8 18 -3 34 23 34 56 72 149 67 163 -7 17 -21 18 -33 2z"/>
<path d="M12548 2903 c-22 -25 -51 -86 -81 -168 -14 -39 -35 -87 -47 -108 -19
-32 -21 -42 -11 -63 13 -30 56 -47 98 -39 38 7 63 38 63 77 0 32 -37 71 -62
64 -10 -2 -18 -1 -18 3 0 20 43 130 69 175 35 64 28 103 -11 59z m-18 -302 c0
-23 -19 -41 -45 -41 -35 0 -35 10 -2 40 34 30 47 30 47 1z"/>
<path d="M13321 2898 c-5 -13 -33 -76 -61 -141 -56 -127 -70 -188 -50 -212 21
-25 30 -17 30 25 0 22 2 40 5 40 3 0 39 -25 150 -104 7 -5 20 -6 30 -2 17 6
17 8 -1 28 -11 11 -42 36 -71 54 -28 19 -54 38 -57 43 -3 5 44 38 106 73 115
66 141 89 122 108 -7 7 -18 5 -35 -8 -29 -24 -210 -124 -214 -120 -2 2 17 46
41 98 24 52 43 104 42 114 -4 29 -26 31 -37 4z"/>
<path d="M12316 2894 c-3 -9 -6 -25 -6 -36 0 -12 -21 -66 -46 -122 -49 -106
-65 -178 -44 -191 15 -9 30 12 30 43 0 12 20 66 45 119 25 53 45 101 45 107 0
6 7 24 15 40 12 22 12 32 4 42 -15 19 -35 18 -43 -2z"/>
<path d="M15330 2884 c-6 -14 -10 -28 -10 -30 0 -3 -14 -39 -31 -80 -29 -70
-32 -74 -63 -74 -38 0 -56 -15 -56 -47 0 -27 7 -29 32 -6 28 25 30 12 8 -52
-24 -71 -25 -77 -3 -73 11 2 28 28 44 68 22 56 30 65 56 71 58 12 67 17 52 35
-8 9 -21 13 -35 10 -23 -6 -23 -6 8 71 17 43 34 85 38 93 4 8 5 21 3 28 -8 21
-33 13 -43 -14z"/>
<path d="M12251 2887 c-41 -50 -148 -325 -137 -353 12 -32 37 5 66 98 18 54
49 133 70 173 30 58 35 76 25 85 -9 7 -16 6 -24 -3z"/>
<path d="M8784 2776 c-8 -22 2 -46 21 -46 19 0 20 34 0 50 -12 10 -16 9 -21
-4z"/>
<path d="M5245 2763 c-39 -20 -105 -83 -105 -100 0 -21 39 -15 52 8 17 27 75
62 89 53 18 -11 2 -61 -41 -125 -49 -71 -49 -104 1 -87 17 6 46 26 66 44 20
19 37 33 38 32 1 -2 7 -16 12 -33 13 -40 37 -43 69 -8 49 52 73 153 40 166
-20 8 -26 -2 -26 -41 0 -29 -33 -102 -46 -102 -2 0 -9 20 -15 45 -8 33 -16 45
-30 45 -11 0 -19 -3 -19 -7 0 -5 -10 -19 -21 -33 -20 -25 -20 -25 1 15 26 50
25 85 -1 119 -24 30 -24 30 -64 9z"/>
<path d="M10535 2696 c-44 -45 -99 -95 -123 -111 -31 -20 -42 -34 -40 -49 3
-23 38 -35 39 -14 0 7 27 35 60 61 57 46 59 47 59 23 0 -40 32 -51 83 -28 l44
19 -4 -21 c-5 -25 20 -52 37 -41 6 4 9 14 6 22 -4 8 3 35 14 60 22 51 26 83 9
83 -6 0 -29 -16 -51 -35 -41 -38 -84 -62 -94 -53 -3 3 11 38 30 77 61 120 43
122 -69 7z"/>
<path d="M1843 2718 c-32 -34 -53 -69 -53 -87 0 -6 10 -19 22 -31 28 -26 87
-27 120 0 l26 20 5 -30 c5 -21 14 -31 33 -36 33 -8 54 16 25 30 -20 8 -37 68
-26 87 10 16 -15 41 -29 30 -9 -7 -17 -1 -30 19 -23 40 -54 39 -93 -2z m70
-32 l25 -25 -22 -20 c-21 -20 -66 -28 -79 -15 -7 8 8 41 31 67 19 21 16 22 45
-7z"/>
<path d="M10935 2734 c-16 -8 -38 -23 -47 -31 -17 -15 -18 -14 -18 6 0 16 -5
21 -17 19 -11 -2 -21 -20 -28 -53 -12 -50 -108 -271 -126 -289 -16 -17 -10
-46 9 -46 13 0 38 40 91 141 41 78 88 157 104 176 31 35 72 58 87 48 15 -9
-10 -61 -46 -96 -27 -27 -37 -31 -43 -20 -12 18 -41 6 -41 -17 0 -34 20 -42
59 -26 61 25 99 71 115 136 5 21 1 33 -14 48 -24 24 -45 25 -85 4z"/>
<path d="M13620 2727 c-69 -28 -74 -47 -25 -97 36 -37 36 -39 17 -49 -13 -7
-36 -8 -67 -2 -37 7 -48 6 -52 -6 -7 -19 -1 -23 48 -34 66 -15 129 14 129 60
0 6 -14 25 -30 43 -32 33 -31 37 12 56 21 9 27 8 32 -4 3 -8 12 -14 21 -14 21
0 20 56 -1 64 -22 8 -22 8 -84 -17z"/>
<path d="M2592 2724 c-26 -18 -28 -50 -7 -101 21 -49 19 -68 -9 -82 -29 -16
-46 -8 -46 23 0 29 -10 39 -27 25 -33 -28 2 -99 49 -99 11 0 36 11 55 26 38
29 43 63 17 118 -9 19 -14 41 -11 50 7 18 62 22 72 6 11 -17 35 -11 35 10 0
39 -84 55 -128 24z"/>
<path d="M7745 2731 c-44 -18 -58 -47 -51 -103 7 -62 -4 -89 -31 -72 -10 6
-18 22 -18 35 0 28 -23 32 -38 7 -26 -40 35 -97 88 -84 33 8 48 48 40 107 -6
41 -4 49 16 63 20 14 25 14 39 1 9 -8 22 -15 28 -15 20 0 13 38 -10 54 -25 18
-34 19 -63 7z"/>
<path d="M11652 2723 c-44 -21 -92 -78 -92 -109 0 -37 40 -71 94 -79 25 -4 53
-4 62 -1 29 11 8 31 -41 38 -64 9 -84 28 -65 63 12 22 66 65 82 65 3 0 8 -14
12 -31 7 -35 29 -35 34 0 10 67 -21 87 -86 54z"/>
<path d="M4062 2696 c-37 -42 -61 -111 -44 -128 16 -16 45 -1 38 18 -8 21 40
104 60 104 8 0 28 -7 43 -15 25 -12 31 -12 41 0 9 11 6 17 -13 30 -14 9 -40
18 -59 21 -30 5 -38 2 -66 -30z"/>
<path d="M3124 2678 c-34 -31 -44 -48 -42 -67 4 -36 51 -47 99 -23 35 17 36
17 31 0 -2 -10 -1 -29 2 -44 9 -34 42 -29 38 6 -1 14 1 46 6 72 9 47 9 47 -27
73 -21 14 -43 25 -49 25 -7 0 -33 -19 -58 -42z m76 -34 c-15 -17 -68 -35 -75
-24 -3 4 9 20 26 34 25 21 34 24 45 15 10 -8 11 -15 4 -25z"/>
<path d="M12743 2707 c-33 -18 -63 -62 -63 -91 0 -35 40 -45 97 -24 40 15 43
14 43 -2 0 -22 25 -44 40 -35 6 4 8 16 3 28 -4 12 -7 38 -8 57 0 22 -5 34 -12
33 -7 -2 -24 8 -37 22 -28 28 -33 29 -63 12z m30 -74 c-18 -14 -53 -18 -53 -6
0 4 10 17 22 30 21 23 23 23 36 6 11 -15 10 -20 -5 -30z"/>
<path d="M12993 2696 c-54 -26 -69 -52 -47 -84 19 -28 91 -54 125 -47 44 10
37 42 -8 36 -18 -2 -83 27 -83 37 0 15 32 24 44 12 21 -21 36 -10 36 24 0 19
-4 37 -8 40 -5 3 -31 -6 -59 -18z"/>
<path d="M3357 2681 c-47 -42 -75 -97 -58 -113 14 -14 31 2 63 61 25 46 38 38
38 -23 0 -55 15 -81 31 -55 15 24 11 126 -7 143 -21 22 -28 20 -67 -13z"/>
<path d="M7953 2697 c-62 -35 -80 -105 -39 -150 25 -27 88 -50 112 -40 24 9
11 36 -19 39 -31 3 -77 29 -77 43 0 5 8 7 19 4 23 -6 101 42 101 61 0 16 -46
56 -64 56 -6 -1 -21 -6 -33 -13z m20 -57 c-15 -9 -30 -15 -33 -13 -9 8 42 43
52 37 5 -4 -3 -14 -19 -24z"/>
<path d="M15658 2680 c-71 -45 -89 -99 -47 -141 20 -20 29 -21 113 -16 100 5
126 12 126 33 0 11 -21 13 -106 11 -72 -1 -108 2 -111 9 -2 7 14 14 39 17 43
6 64 24 75 65 5 23 -11 52 -31 52 -6 0 -32 -14 -58 -30z m32 -40 c-24 -15 -36
-11 -14 4 10 8 21 12 24 10 2 -3 -2 -9 -10 -14z"/>
<path d="M3838 2667 c-37 -32 -78 -92 -78 -114 0 -22 39 -24 83 -5 l43 19 10
-21 c5 -11 17 -22 28 -24 16 -3 18 0 12 25 -3 15 -9 51 -12 78 -11 84 -29 93
-86 42z m47 -46 c-8 -14 -65 -44 -65 -34 0 16 54 63 63 54 5 -5 6 -14 2 -20z"/>
<path d="M5598 2691 c-10 -3 -33 -21 -53 -39 -39 -38 -46 -75 -16 -92 28 -14
84 -12 106 4 17 12 22 11 42 -10 24 -27 63 -32 63 -9 0 8 -9 19 -20 25 -16 8
-20 21 -20 57 0 40 -2 45 -19 40 -11 -3 -22 1 -25 8 -6 15 -36 24 -58 16z m25
-83 c-17 -18 -73 -25 -73 -9 0 5 15 21 33 35 29 24 33 24 44 9 11 -14 10 -20
-4 -35z"/>
<path d="M11846 2660 c-20 -22 -36 -44 -36 -49 0 -21 32 -33 75 -29 39 5 45 3
45 -13 0 -9 7 -25 16 -34 15 -15 18 -15 32 -1 12 12 13 18 3 30 -9 10 -10 24
-3 48 10 36 6 58 -10 58 -5 0 -16 7 -24 15 -26 26 -59 18 -98 -25z m74 -20
c-14 -11 -34 -20 -45 -20 -18 0 -18 2 5 20 14 11 34 20 45 20 18 0 18 -2 -5
-20z"/>
<path d="M6584 2646 c-71 -70 -55 -139 26 -116 45 13 80 48 80 80 0 28 -34 80
-52 80 -6 0 -30 -20 -54 -44z m61 -41 c0 -12 -10 -23 -27 -29 -36 -13 -43 -4
-22 29 19 29 49 30 49 0z"/>
<path d="M5956 2619 c-36 -38 -62 -59 -71 -55 -8 3 -20 26 -26 51 -12 49 -25
63 -41 47 -13 -13 8 -91 32 -117 19 -20 18 -22 -56 -120 -82 -109 -114 -163
-114 -195 0 -35 28 -22 48 23 24 52 119 181 229 309 46 53 83 102 83 107 0 26
-32 7 -84 -50z"/>
<path d="M8874 2651 c-30 -18 -64 -74 -64 -105 0 -9 8 -16 20 -16 14 0 20 7
20 21 0 26 61 90 68 71 2 -8 -1 -33 -8 -57 -20 -73 11 -90 36 -20 20 58 18
102 -5 115 -26 14 -31 13 -67 -9z"/>
<path d="M14425 2651 c-83 -37 -123 -89 -93 -119 8 -8 3 -18 -21 -41 -22 -20
-31 -38 -29 -53 3 -25 64 -70 87 -66 28 6 22 26 -15 47 -31 18 -34 24 -23 37
15 19 83 54 103 54 15 0 29 24 19 34 -4 3 -24 6 -45 6 -53 0 -49 21 11 53 41
23 50 25 55 12 3 -8 12 -15 21 -15 21 0 20 56 -1 64 -22 8 -24 8 -69 -13z"/>
<path d="M8695 2633 c-3 -16 -10 -44 -15 -63 -10 -38 -1 -56 23 -47 15 6 37
100 29 125 -8 22 -32 13 -37 -15z"/>
<path d="M9083 2625 c-47 -29 -70 -73 -54 -103 12 -23 60 -37 92 -27 21 7 22
6 15 -56 -4 -35 -12 -83 -18 -106 l-10 -42 -29 14 c-43 23 -96 19 -124 -9 -48
-48 -57 -173 -15 -211 45 -40 124 11 167 108 10 22 24 37 34 37 25 0 36 22 17
33 -13 9 -13 16 -2 53 7 23 16 80 19 126 4 45 11 88 16 94 13 16 -1 74 -17 74
-8 0 -14 4 -14 10 0 5 -8 14 -18 19 -14 7 -29 4 -59 -14z m63 -57 c-11 -30
-60 -48 -78 -30 -16 16 35 62 65 60 22 -2 23 -5 13 -30z m-81 -300 c30 -14 30
-13 4 -63 -25 -48 -68 -95 -86 -95 -22 0 -36 40 -29 84 13 79 48 103 111 74z"/>
<path d="M4522 2368 c-54 -163 -57 -168 -98 -168 -28 0 -35 -3 -32 -17 2 -10
14 -19 26 -21 21 -3 23 -7 16 -50 -9 -60 -8 -80 7 -98 27 -33 120 -3 137 44 8
23 7 33 -2 41 -14 12 -36 -4 -36 -26 0 -17 -44 -38 -63 -30 -12 4 -13 15 -7
49 14 72 15 73 102 94 79 19 105 35 73 48 -9 3 -43 -1 -76 -8 -56 -14 -60 -13
-54 2 29 76 73 217 69 224 -16 25 -34 0 -62 -84z"/>
<path d="M2821 2429 c-6 -13 -19 -64 -31 -114 -11 -49 -30 -124 -40 -166 -11
-41 -20 -85 -20 -97 0 -21 17 -39 27 -29 3 3 18 61 34 129 16 68 39 156 50
197 18 66 19 76 5 89 -13 14 -16 13 -25 -9z"/>
<path d="M3166 2428 c-3 -7 -7 -29 -10 -48 -3 -19 -18 -77 -33 -127 -21 -71
-31 -93 -45 -93 -25 0 -34 -21 -14 -36 16 -11 16 -16 2 -70 -8 -32 -13 -61
-10 -66 14 -23 32 -1 50 60 19 66 19 67 57 70 46 4 51 30 7 39 -16 3 -30 7
-30 10 0 2 14 49 30 105 34 113 39 168 15 168 -9 0 -17 -6 -19 -12z"/>
<path d="M7853 2423 c-4 -10 -25 -65 -49 -123 -38 -96 -44 -105 -67 -103 -40
3 -45 -40 -6 -48 16 -4 15 -9 -2 -64 -25 -79 -25 -128 -2 -123 10 2 19 12 21
23 1 11 12 55 24 98 20 73 23 78 47 77 43 -3 51 -1 51 14 0 8 -14 17 -30 21
-36 8 -36 7 21 138 22 48 39 92 39 97 0 17 -40 11 -47 -7z"/>
<path d="M7984 2363 c-23 -52 -104 -318 -104 -341 0 -27 33 -19 65 16 l34 37
1 -40 c1 -81 37 -81 40 0 3 92 1 105 -17 105 -9 0 -27 -10 -40 -21 l-22 -22
25 91 c13 50 38 120 53 156 16 35 27 67 24 70 -17 17 -36 0 -59 -51z"/>
<path d="M11537 2358 c-25 -35 -55 -80 -67 -100 -16 -28 -30 -39 -55 -44 -19
-3 -36 -12 -39 -20 -7 -17 17 -29 39 -20 13 5 15 -2 9 -43 -6 -45 -4 -52 20
-76 21 -21 34 -26 64 -23 48 4 52 32 5 36 -43 4 -56 23 -48 71 l6 39 67 12
c90 15 102 19 102 35 0 22 -12 24 -78 10 -34 -7 -62 -9 -62 -5 0 4 25 42 56
85 50 70 62 105 35 105 -6 0 -30 -28 -54 -62z"/>
<path d="M2237 2343 c-3 -37 -21 -115 -39 -172 -20 -60 -32 -116 -30 -133 6
-41 37 -59 85 -48 50 11 75 34 83 76 14 76 -22 117 -77 88 -30 -15 -32 -15
-25 2 44 114 57 246 25 252 -13 2 -17 -10 -22 -65z m63 -251 c0 -33 -24 -59
-60 -64 -38 -5 -37 26 2 61 42 38 58 39 58 3z"/>
<path d="M6944 2402 c-18 -11 -66 -92 -90 -152 -21 -51 -25 -55 -55 -55 -45 0
-53 -30 -10 -38 28 -6 29 -8 20 -41 -20 -72 40 -131 107 -106 29 11 22 41 -10
39 -59 -5 -72 11 -56 71 10 37 11 37 72 46 50 7 64 13 66 28 4 17 -1 18 -53
12 -55 -6 -56 -6 -49 16 10 36 34 80 61 116 19 25 23 39 17 53 -5 10 -14 15
-20 11z"/>
<path d="M14969 2305 c-41 -64 -59 -85 -76 -85 -29 0 -40 -20 -19 -35 15 -11
15 -16 1 -48 -15 -37 -20 -93 -9 -121 13 -34 154 -9 154 27 0 15 -5 18 -22 13
-13 -3 -40 -9 -60 -12 -35 -6 -38 -5 -38 17 0 13 7 45 17 71 13 36 21 46 37
45 45 -4 206 15 212 25 15 24 -15 30 -108 21 -51 -6 -94 -9 -96 -8 -2 2 17 33
42 70 46 66 58 105 33 105 -7 0 -38 -38 -68 -85z"/>
<path d="M15940 2334 c-14 -37 -12 -64 5 -64 31 0 48 73 20 84 -11 4 -19 -3
-25 -20z"/>
<path d="M14216 2292 c-36 -39 -53 -99 -33 -119 21 -22 37 -7 37 33 0 25 8 42
26 59 16 15 24 31 20 40 -8 22 -19 19 -50 -13z"/>
<path d="M2544 2299 c-10 -17 23 -46 37 -32 7 7 9 19 6 27 -7 18 -33 21 -43 5z"/>
<path d="M2976 2264 c-6 -16 9 -44 24 -44 4 0 10 9 13 20 7 26 -28 48 -37 24z"/>
<path d="M11101 2174 c-37 -33 -51 -53 -49 -68 3 -18 10 -21 48 -20 25 0 54 4
64 9 16 7 18 5 13 -14 -9 -34 27 -65 66 -57 37 8 41 11 34 30 -5 11 -15 14
-36 10 l-29 -6 9 43 c6 23 12 46 15 51 4 5 -3 18 -15 29 -12 11 -21 24 -21 29
0 26 -52 6 -99 -36z m89 -10 c0 -8 -65 -44 -78 -44 -7 0 2 13 20 29 27 24 58
32 58 15z"/>
<path d="M14462 2208 c-17 -17 -15 -45 3 -52 20 -7 30 19 19 45 -7 16 -12 17
-22 7z"/>
<path d="M3334 2186 c-7 -19 14 -114 27 -122 19 -11 6 -34 -81 -142 -78 -97
-150 -205 -150 -225 0 -4 8 -7 18 -7 11 0 28 17 41 41 28 48 209 277 266 334
22 22 60 57 84 77 41 35 47 58 16 58 -8 0 -46 -29 -84 -65 -38 -36 -72 -62
-75 -56 -3 5 -12 33 -19 62 -14 54 -32 73 -43 45z"/>
<path d="M6293 2193 c-16 -6 -17 -47 -1 -90 14 -37 7 -57 -29 -80 -19 -13 -23
-12 -33 8 -9 16 -9 27 0 44 15 29 10 59 -13 63 -11 2 -17 -3 -17 -17 0 -11 -4
-23 -10 -26 -27 -17 3 -108 40 -120 21 -7 53 7 88 38 25 23 29 70 10 112 -15
32 -4 43 22 20 19 -17 50 -15 50 4 0 5 -12 19 -26 30 -26 20 -55 25 -81 14z"/>
<path d="M8519 2185 c-14 -7 -33 -29 -43 -47 -18 -34 -18 -35 3 -82 11 -27 21
-54 21 -61 0 -19 -27 -26 -34 -9 -7 20 -23 18 -35 -5 -17 -30 8 -55 47 -46 64
14 78 55 41 126 -19 38 -19 42 -4 66 11 17 22 22 33 18 30 -11 36 -10 39 6 4
16 -21 49 -35 49 -4 -1 -18 -7 -33 -15z"/>
<path d="M1937 2170 c-35 -28 -77 -93 -77 -120 0 -43 79 -33 133 18 l27 26 0
-41 c0 -40 22 -74 34 -54 9 13 4 171 -4 176 -4 2 -24 7 -46 11 -31 5 -45 1
-67 -16z m63 -33 c0 -13 -77 -77 -93 -77 -10 0 3 19 42 63 26 29 51 36 51 14z"/>
<path d="M8225 2178 c-38 -21 -75 -61 -86 -95 -10 -31 -9 -37 12 -59 18 -19
33 -24 70 -24 57 0 79 7 79 26 0 15 -2 16 -75 16 -27 0 -39 2 -25 5 68 13 107
73 80 124 -12 21 -26 23 -55 7z m8 -73 c-35 -27 -48 -16 -17 16 23 24 30 27
32 14 2 -9 -5 -23 -15 -30z"/>
<path d="M12782 2125 c-50 -53 -62 -62 -72 -50 -7 8 -9 26 -5 44 8 36 -12 52
-32 26 -20 -29 -16 -81 8 -98 20 -14 19 -17 -44 -88 -35 -41 -81 -96 -102
-124 -42 -55 -95 -160 -95 -187 0 -38 30 -15 58 45 46 98 105 174 309 399 38
42 60 74 56 83 -9 24 -17 19 -81 -50z"/>
<path d="M6520 2173 c-62 -24 -107 -92 -90 -137 21 -56 109 -86 155 -53 25 19
3 32 -47 28 -37 -2 -78 24 -78 50 0 17 70 80 81 74 17 -11 9 -26 -21 -36 -42
-15 -39 -39 4 -39 57 0 88 67 48 103 -19 18 -27 19 -52 10z"/>
<path d="M12212 2152 c-35 -32 -50 -77 -35 -101 12 -19 79 -27 98 -11 10 8 14
5 19 -15 4 -15 13 -25 25 -25 15 0 18 9 18 63 1 61 -9 95 -31 109 -24 16 -65
7 -94 -20z m78 -29 c0 -25 -30 -53 -57 -53 -30 0 -29 15 2 45 28 29 55 33 55
8z"/>
<path d="M12437 2121 c-58 -61 -65 -75 -46 -87 7 -4 34 18 65 52 29 32 56 55
60 51 4 -3 1 -27 -6 -52 -13 -46 -4 -75 18 -61 14 8 34 89 30 122 -2 24 -8 29
-34 32 -25 3 -39 -6 -87 -57z"/>
<path d="M15798 2116 c-30 -61 -33 -101 -6 -90 13 5 68 119 68 142 0 6 -7 12
-15 12 -9 0 -29 -27 -47 -64z"/>
<path d="M4724 2145 c-32 -32 -57 -91 -49 -116 15 -48 99 -42 149 10 37 39 33
77 -13 108 -43 29 -56 29 -87 -2z m75 -39 c18 -21 -1 -51 -40 -65 -52 -18 -60
-4 -29 47 21 34 50 42 69 18z"/>
<path d="M9959 2158 c-9 -7 -30 -32 -48 -55 -17 -23 -54 -55 -81 -72 -48 -29
-62 -53 -40 -66 5 -3 31 8 56 26 26 18 44 27 40 20 -4 -6 -4 -21 -1 -32 6 -19
13 -21 51 -16 25 2 53 12 63 21 26 24 31 20 19 -14 -11 -34 -5 -60 15 -60 9 0
19 21 26 55 7 30 27 77 45 103 30 45 36 72 15 72 -5 0 -36 -26 -69 -57 -75
-70 -96 -85 -115 -81 -11 2 -6 19 23 75 25 50 33 76 26 83 -7 7 -15 6 -25 -2z"/>
<path d="M8649 2121 c-29 -29 -39 -47 -39 -70 0 -38 23 -86 45 -95 46 -17 153
0 185 31 24 22 -6 34 -46 17 -40 -17 -116 -18 -131 -3 -9 9 -4 17 20 33 42 28
62 65 53 99 -9 39 -41 35 -87 -12z m51 -14 c0 -2 -12 -14 -27 -28 -24 -22 -24
-13 0 19 8 11 27 17 27 9z"/>
<path d="M13740 2136 c-19 -14 -42 -29 -51 -32 -8 -3 -21 -26 -29 -52 -7 -26
-33 -90 -57 -142 -42 -94 -52 -134 -34 -145 5 -3 18 7 28 22 23 34 83 165 83
181 0 7 14 12 30 12 59 0 123 50 139 108 19 63 -48 92 -109 48z m70 -34 c0
-32 -56 -82 -93 -82 -18 0 -18 1 0 31 33 57 93 90 93 51z"/>
<path d="M15951 2135 c-42 -36 -76 -94 -63 -107 7 -7 25 5 58 41 31 33 55 51
70 51 29 0 29 -1 4 -51 -12 -22 -18 -44 -15 -49 14 -22 34 -7 55 41 17 41 20
57 11 75 -15 34 -78 33 -120 -1z"/>
<path d="M2500 2118 c-22 -35 -23 -79 -3 -86 7 -2 17 9 23 25 6 15 15 38 21
50 12 21 6 43 -12 43 -5 0 -18 -15 -29 -32z"/>
<path d="M10298 2125 c-20 -14 -44 -22 -52 -19 -11 4 -19 -2 -26 -20 -5 -14
-14 -26 -19 -26 -17 0 -43 -59 -36 -81 4 -13 -10 -49 -44 -111 -36 -64 -48
-95 -41 -102 18 -18 43 7 86 89 35 68 45 80 78 92 66 22 104 52 126 98 43 90
5 133 -72 80z m35 -68 c-19 -32 -103 -88 -103 -68 0 6 25 37 56 69 59 59 82
59 47 -1z"/>
<path d="M2912 2105 c-16 -35 -15 -55 3 -55 14 0 45 48 45 70 0 21 -37 9 -48
-15z"/>
<path d="M14565 2102 c-59 -44 -118 -109 -111 -121 11 -17 34 -13 45 8 14 25
110 101 127 101 20 0 17 -28 -11 -87 -24 -52 -21 -69 8 -57 23 9 59 100 55
142 -3 34 -5 37 -38 40 -27 2 -46 -4 -75 -26z"/>
<path d="M13943 2084 c-50 -18 -103 -74 -103 -109 0 -17 9 -29 31 -41 29 -15
35 -14 75 1 75 28 112 93 84 146 -12 22 -30 23 -87 3z m48 -72 c-20 -37 -111
-64 -111 -32 0 17 54 60 76 60 12 0 26 6 31 13 12 19 16 -18 4 -41z"/>
<path d="M14322 2065 c-31 -39 -47 -84 -34 -97 15 -15 42 -2 42 19 0 10 9 32
20 48 11 17 20 36 20 43 0 20 -27 13 -48 -13z"/>
<path d="M15138 1898 c-14 -35 -28 -76 -32 -93 -4 -16 -34 -78 -67 -137 -32
-58 -59 -113 -59 -122 0 -37 41 -25 101 30 l25 24 0 -47 c-1 -36 3 -48 14 -48
10 0 17 20 25 73 14 91 5 103 -49 67 l-37 -25 35 67 c33 64 95 221 99 253 1 8
-5 16 -14 18 -12 2 -23 -14 -41 -60z"/>
<path d="M13302 1893 c-16 -32 -35 -76 -42 -98 -7 -22 -42 -95 -77 -163 -53
-100 -63 -125 -53 -137 21 -26 40 -17 111 51 l68 66 -20 -70 c-16 -56 -18 -76
-9 -92 13 -25 36 -21 33 6 -1 10 7 51 17 90 40 142 19 157 -81 58 -38 -38 -69
-66 -69 -63 0 3 25 50 55 104 30 55 55 106 55 113 0 7 16 47 35 89 39 84 42
103 20 103 -8 0 -28 -26 -43 -57z"/>
<path d="M14927 1904 c-4 -4 -7 -22 -7 -40 0 -44 -59 -164 -81 -164 -32 0 -66
-63 -39 -72 7 -2 5 -19 -5 -47 -20 -59 -19 -81 4 -81 14 0 21 10 26 38 3 20
15 56 27 80 l20 42 68 0 c68 0 97 13 69 31 -8 5 -35 9 -61 9 l-47 0 30 64 c21
45 29 76 27 102 -3 36 -16 52 -31 38z"/>
<path d="M1892 1887 c-8 -9 -51 -197 -52 -224 0 -1 -18 -4 -40 -8 -44 -7 -53
-15 -40 -34 5 -9 18 -12 39 -8 30 6 31 5 31 -26 0 -57 12 -107 25 -107 19 0
23 18 17 87 l-5 62 39 7 c22 4 46 8 54 8 8 1 16 8 18 17 4 21 -29 30 -67 19
l-28 -8 18 87 c10 47 20 93 24 102 8 22 -19 44 -33 26z"/>
<path d="M9371 1878 c-41 -103 -82 -184 -95 -186 -13 -3 -15 -18 -13 -87 3
-97 14 -115 66 -115 63 0 111 18 111 42 0 16 -4 19 -22 14 -13 -4 -41 -10 -64
-13 -33 -4 -42 -2 -47 12 -9 22 3 92 17 104 15 12 88 17 104 7 7 -4 15 0 19
10 10 26 -21 43 -68 37 -21 -3 -39 -3 -39 0 0 12 55 132 63 138 12 9 5 52 -10
57 -7 2 -17 -7 -22 -20z"/>
<path d="M2047 1882 c-3 -4 -9 -33 -12 -63 -3 -30 -18 -109 -32 -177 -14 -67
-23 -125 -20 -129 12 -12 38 8 73 57 42 59 54 54 54 -22 0 -59 7 -78 30 -78
16 0 18 7 14 58 -7 80 -12 98 -30 116 -21 22 -40 20 -65 -5 -19 -19 -20 -19
-15 -2 26 86 38 243 19 250 -6 2 -14 0 -16 -5z"/>
<path d="M11213 1882 c-12 -8 -93 -283 -96 -328 -1 -19 3 -29 13 -31 12 -3 22
20 43 99 15 57 37 136 49 175 21 71 18 102 -9 85z"/>
<path d="M8426 1868 c-3 -7 -7 -58 -10 -113 -8 -127 -24 -215 -45 -239 -46
-52 -111 -56 -111 -6 0 37 53 95 78 85 40 -17 52 -17 52 -1 0 23 -45 49 -74
42 -13 -3 -40 -24 -60 -46 -30 -33 -36 -47 -36 -85 0 -39 4 -46 30 -60 16 -8
36 -15 45 -15 27 0 94 39 111 65 21 33 41 127 50 240 4 50 11 93 17 96 5 4 6
16 2 28 -7 23 -43 29 -49 9z"/>
<path d="M5999 1731 c-36 -37 -38 -74 -4 -123 29 -43 32 -73 9 -82 -29 -11
-56 3 -48 26 5 16 2 19 -18 16 -52 -7 -12 -88 44 -88 22 0 60 18 70 34 15 22
8 67 -17 106 -14 22 -25 46 -25 53 0 25 37 50 64 43 29 -7 43 9 26 29 -21 25
-69 18 -101 -14z"/>
<path d="M3412 1720 c-18 -11 -35 -27 -38 -35 -4 -9 -19 -15 -38 -15 -30 0
-31 -2 -33 -43 -1 -23 -18 -96 -38 -162 -44 -147 -44 -148 -24 -153 12 -2 24
18 46 75 17 43 34 88 37 99 4 14 18 24 37 28 17 3 53 27 80 53 41 39 51 56 56
91 4 32 2 47 -12 62 -23 25 -32 25 -73 0z m48 -52 c0 -28 -40 -78 -79 -101
-17 -10 -31 -15 -31 -12 0 19 32 77 60 108 34 39 50 40 50 5z"/>
<path d="M4840 1732 c-8 -2 -34 -23 -57 -45 -39 -38 -43 -39 -43 -18 0 16 -5
22 -17 19 -13 -2 -20 -16 -23 -44 -4 -23 -14 -54 -24 -69 -20 -30 -15 -61 9
-48 8 5 40 39 71 77 59 71 81 82 45 21 -43 -74 -13 -83 82 -25 l47 29 0 -34
c0 -44 31 -77 68 -73 31 4 39 25 18 53 -11 16 -16 17 -29 6 -14 -11 -16 -6
-19 41 -4 64 -22 73 -73 34 -18 -14 -36 -26 -38 -26 -3 0 0 18 5 39 11 43 1
71 -22 63z"/>
<path d="M5729 1709 c-69 -74 -32 -139 54 -95 27 15 27 15 27 -20 0 -45 16
-74 40 -74 27 0 36 21 15 36 -15 11 -17 22 -11 69 6 52 4 59 -21 86 -36 38
-67 37 -104 -2z m66 -30 c0 -13 -52 -45 -61 -36 -2 2 5 16 17 31 22 28 44 30
44 5z"/>
<path d="M4003 1700 c-37 -22 -66 -71 -61 -103 5 -33 50 -54 88 -40 16 6 30 8
30 5 0 -12 -59 -215 -64 -219 -3 -3 -18 -1 -33 4 -40 14 -71 -1 -88 -42 -19
-43 -19 -96 -1 -139 28 -68 58 -56 107 43 24 50 38 68 49 64 41 -15 50 -15 50
1 0 8 -11 23 -24 32 -21 13 -23 19 -15 41 5 14 23 77 40 142 16 64 35 125 40
137 16 31 7 88 -13 92 -11 2 -18 -3 -18 -13 0 -15 -1 -15 -16 -1 -20 21 -32
20 -71 -4z m77 -51 c0 -11 -14 -28 -32 -39 -66 -40 -92 -13 -39 40 32 32 71
32 71 -1z m-104 -350 c3 -5 -9 -36 -27 -70 -27 -50 -34 -57 -42 -43 -12 20 -4
99 12 118 12 14 47 11 57 -5z"/>
<path d="M3606 1678 c-41 -55 -87 -139 -81 -149 4 -5 20 -9 37 -9 27 0 29 3
24 24 -6 26 47 116 69 116 21 0 28 19 15 35 -19 23 -37 18 -64 -17z"/>
<path d="M4312 1703 c-7 -3 -26 -25 -43 -49 -22 -32 -29 -54 -27 -77 4 -42 32
-44 36 -2 2 16 13 42 24 58 18 25 24 28 59 22 31 -5 39 -4 39 9 0 8 -5 18 -10
21 -19 12 -65 22 -78 18z"/>
<path d="M7779 1677 c-42 -28 -47 -57 -19 -102 22 -35 20 -55 -6 -55 -8 0 -14
9 -14 20 0 22 -28 28 -36 7 -3 -8 0 -26 5 -40 13 -33 47 -36 85 -6 32 25 33
41 4 87 l-21 35 22 18 c13 11 38 19 57 19 22 0 34 5 34 14 0 33 -64 34 -111 3z"/>
<path d="M15360 1692 c-8 -3 -28 -16 -44 -29 -17 -14 -40 -29 -53 -34 -13 -5
-23 -14 -23 -21 0 -7 -3 -23 -6 -35 -4 -15 2 -29 20 -47 20 -21 34 -26 73 -25
68 1 138 21 138 39 0 16 -7 16 -107 4 -40 -5 -62 -3 -72 5 -20 17 -9 41 18 41
11 0 38 5 59 11 33 9 37 13 37 43 0 37 -16 56 -40 48z"/>
<path d="M3734 1651 c-47 -71 -42 -151 8 -151 27 0 98 72 98 99 0 45 -36 91
-71 91 -5 0 -20 -18 -35 -39z m64 -39 c2 -13 -7 -32 -25 -49 -25 -26 -28 -27
-31 -8 -5 24 27 87 42 82 6 -2 12 -13 14 -25z"/>
<path d="M11382 1625 l-60 -65 -16 33 c-20 44 -38 58 -56 47 -11 -7 -8 -18 18
-61 38 -60 47 -42 -84 -180 -92 -97 -122 -145 -104 -163 8 -8 17 -3 33 19 12
16 57 68 101 115 43 47 110 124 149 173 44 54 77 87 89 87 15 0 19 6 16 27 -2
14 -8 28 -14 30 -6 2 -39 -26 -72 -62z"/>
<path d="M7025 1657 c-16 -12 -36 -22 -44 -22 -10 0 -25 -27 -42 -75 -15 -41
-38 -106 -52 -145 -36 -101 -42 -144 -21 -152 21 -8 27 4 59 116 36 128 39
133 71 121 64 -25 146 90 118 164 -9 23 -54 19 -89 -7z m55 -41 c0 -31 -57
-93 -71 -79 -12 12 1 45 34 81 26 28 37 28 37 -2z"/>
<path d="M7213 1663 c-4 -10 -30 -79 -59 -153 -28 -74 -55 -155 -59 -178 -6
-39 -5 -43 11 -40 23 4 57 63 85 146 19 57 23 62 49 62 43 0 87 43 104 101 8
27 13 56 9 64 -6 17 -50 20 -87 5 -17 -6 -26 -6 -26 0 0 17 -20 11 -27 -7z
m97 -43 c0 -26 -52 -83 -72 -79 -24 6 0 70 32 86 34 17 40 16 40 -7z"/>
<path d="M13083 1668 c-6 -7 -20 -42 -32 -78 -12 -36 -28 -73 -35 -83 -12 -16
-14 -14 -20 18 -9 45 -33 46 -81 4 -41 -36 -41 -36 -15 16 24 46 26 98 5 115
-16 14 -17 13 -110 -58 -76 -59 -84 -69 -61 -78 9 -3 42 13 82 42 60 43 66 45
59 23 -4 -13 -20 -45 -36 -70 -16 -25 -29 -53 -29 -62 0 -28 44 -20 99 18 47
33 51 34 51 15 0 -29 18 -60 34 -60 20 0 63 60 86 122 11 29 25 61 30 70 23
41 0 80 -27 46z"/>
<path d="M2236 1649 c-33 -26 -56 -70 -56 -108 0 -35 49 -81 86 -81 41 0 112
21 126 37 19 23 -8 32 -50 17 -70 -25 -122 -12 -122 30 0 21 6 24 55 31 50 6
55 9 55 31 0 26 -32 64 -54 64 -7 0 -25 -9 -40 -21z m39 -29 c-3 -5 -12 -10
-18 -10 -7 0 -6 4 3 10 19 12 23 12 15 0z"/>
<path d="M4473 1638 c-45 -47 -58 -84 -38 -114 16 -25 44 -30 75 -14 15 8 19
5 24 -16 10 -37 42 -28 38 10 -2 15 4 50 13 77 16 46 14 69 -5 69 -4 0 -20
-20 -35 -46 -39 -67 -105 -91 -71 -27 18 35 34 50 61 55 29 5 25 32 -5 36 -18
2 -35 -7 -57 -30z"/>
<path d="M9574 1626 c-47 -47 -53 -66 -28 -90 32 -33 96 -33 128 0 16 16 17
79 1 117 -13 31 -54 20 -101 -27z m76 -57 c0 -13 -47 -22 -65 -12 -14 8 -13
12 6 37 l23 29 18 -23 c10 -12 18 -26 18 -31z"/>
<path d="M10862 1657 c-41 -13 -92 -61 -92 -87 0 -10 8 -28 18 -40 16 -20 19
-21 31 -6 11 13 11 19 0 32 -11 14 -10 20 14 40 27 23 67 33 67 16 0 -5 -7
-32 -15 -60 -16 -54 -14 -72 9 -72 31 0 53 163 25 181 -16 10 -14 10 -57 -4z"/>
<path d="M6768 1633 c-55 -60 -65 -121 -23 -149 49 -32 135 23 135 87 0 32
-44 89 -69 89 -10 0 -29 -12 -43 -27z m65 -45 c14 -21 4 -43 -28 -64 -19 -12
-29 -14 -37 -6 -13 13 -3 55 18 77 18 18 33 16 47 -7z"/>
<path d="M7476 1616 c-52 -49 -63 -96 -27 -116 55 -29 151 9 151 59 0 30 -30
75 -60 91 -15 8 -27 2 -64 -34z m78 -38 c14 -22 -16 -47 -56 -48 -34 0 -36 16
-6 47 25 26 45 27 62 1z"/>
<path d="M8013 1638 c-71 -50 -81 -141 -20 -178 58 -35 157 -38 157 -4 0 10
-12 14 -39 14 -21 0 -53 5 -71 12 l-33 11 36 19 c44 22 60 48 51 85 -7 27 -31
63 -43 63 -4 0 -21 -10 -38 -22z m42 -45 c4 -12 -1 -24 -15 -35 -45 -37 -61
-11 -22 35 19 22 28 22 37 0z"/>
<path d="M10627 1649 c-19 -11 -57 -80 -57 -103 0 -47 81 -62 119 -22 27 29
37 85 19 108 -17 22 -58 31 -81 17z m44 -82 c-8 -20 -18 -27 -36 -27 -14 0
-25 3 -25 8 0 16 19 36 37 38 9 2 20 9 22 16 3 8 6 9 8 2 2 -6 -1 -23 -6 -37z"/>
<path d="M13473 1622 c-43 -28 -53 -45 -53 -99 0 -41 39 -73 89 -73 52 1 121
16 134 29 23 23 -7 31 -71 20 -74 -13 -112 -6 -112 20 0 15 10 19 50 23 50 5
90 29 90 55 0 21 -38 53 -62 53 -13 0 -42 -13 -65 -28z m77 -21 c0 -10 -25
-21 -48 -21 -15 1 -14 3 2 15 22 17 46 20 46 6z"/>
<path d="M13715 1586 c-14 -25 -29 -61 -32 -80 -5 -32 -3 -36 16 -36 14 0 22
8 26 28 18 82 53 113 89 77 19 -19 46 -19 46 -1 0 24 -50 56 -86 56 -29 0 -37
-6 -59 -44z"/>
<path d="M13946 1570 c-68 -76 -36 -134 74 -134 66 0 92 8 84 28 -4 10 -22 14
-69 13 -88 -3 -104 15 -33 38 29 10 60 24 68 32 13 13 12 17 -13 39 -40 35
-69 31 -111 -16z m64 -10 c-20 -13 -33 -13 -25 0 3 6 14 10 23 10 15 0 15 -2
2 -10z"/>
<path d="M4901 1439 c-73 -29 -119 -95 -172 -250 -18 -52 -33 -95 -35 -97 -1
-2 -35 -8 -75 -13 -74 -9 -125 -32 -113 -50 4 -7 19 -8 38 -4 17 4 54 11 83
14 l51 7 -44 -124 c-24 -68 -46 -127 -48 -131 -3 -4 -1 -13 4 -21 19 -30 34 1
116 236 l15 42 65 7 c53 5 65 10 62 23 -3 14 -14 16 -57 14 -60 -3 -59 -15
-12 118 44 124 93 186 151 192 20 2 24 -2 25 -22 0 -27 35 -43 35 -17 0 9 3
22 6 30 7 19 -30 57 -53 56 -10 0 -29 -5 -42 -10z"/>
<path d="M5826 1388 c-8 -29 -24 -91 -36 -138 -26 -103 -35 -120 -61 -120 -29
0 -59 -18 -59 -36 0 -13 7 -15 36 -10 l35 7 -8 -38 c-14 -69 -10 -127 10 -131
14 -3 17 4 17 35 0 21 6 61 13 88 l13 50 70 5 c52 4 69 9 69 20 0 11 -15 16
-63 18 -55 3 -63 5 -57 20 3 9 20 66 36 126 16 60 37 115 46 121 21 15 8 35
-22 35 -20 0 -26 -8 -39 -52z"/>
<path d="M10063 1393 c-8 -3 -13 -25 -13 -61 0 -69 -20 -146 -56 -219 -20 -42
-35 -59 -62 -70 -70 -29 -106 9 -40 43 23 12 32 13 44 3 19 -15 37 1 32 27 -8
45 -106 17 -143 -40 -49 -75 77 -115 155 -49 54 45 110 195 110 293 0 21 5 42
10 45 6 3 10 13 10 21 0 14 -23 17 -47 7z"/>
<path d="M9443 1343 c-7 -2 -13 -13 -13 -24 0 -10 -14 -58 -30 -107 -39 -110
-49 -192 -27 -211 24 -19 36 -5 30 37 -4 26 5 69 31 146 34 103 45 167 29 165
-5 0 -14 -3 -20 -6z"/>
<path d="M9343 1328 c-5 -7 -15 -29 -23 -48 -7 -19 -28 -71 -46 -116 -37 -88
-44 -151 -19 -161 22 -8 29 3 27 41 -2 20 9 59 24 93 40 90 73 186 68 195 -7
12 -20 10 -31 -4z"/>
<path d="M7637 1274 c-11 -11 13 -44 32 -44 27 0 34 28 11 40 -22 12 -34 13
-43 4z"/>
<path d="M6057 1253 c-9 -9 22 -43 40 -43 7 0 13 11 13 25 0 20 -5 25 -23 25
-13 0 -27 -3 -30 -7z"/>
<path d="M8735 1228 c-38 -21 -74 -61 -81 -91 -9 -41 11 -73 61 -97 49 -24
146 -28 164 -7 17 21 3 27 -58 27 -66 0 -125 25 -129 56 -4 26 59 84 89 84 12
0 35 -12 51 -26 51 -42 62 1 12 50 -18 18 -79 21 -109 4z"/>
<path d="M7781 1189 c-38 -38 -35 -60 15 -105 l35 -32 -32 -11 c-44 -15 -57
-14 -55 7 1 22 -24 22 -38 0 -19 -31 5 -53 56 -52 96 4 141 60 81 100 -65 42
-56 80 21 86 28 2 41 8 41 18 0 11 -13 16 -46 18 -41 3 -50 -1 -78 -29z"/>
<path d="M2375 1185 c-32 -31 -32 -62 2 -97 14 -15 23 -31 19 -35 -4 -4 -11
-1 -15 6 -15 24 -46 8 -46 -24 0 -25 5 -30 25 -33 32 -3 90 32 90 55 0 9 -15
29 -32 44 -28 23 -31 30 -22 46 6 10 24 20 40 23 17 3 30 12 32 23 6 28 -63
23 -93 -8z"/>
<path d="M9593 1165 c-46 -31 -83 -77 -83 -102 0 -4 21 -16 46 -27 39 -16 56
-17 117 -10 58 7 73 13 75 28 4 17 -2 18 -80 12 -67 -4 -76 -3 -48 5 48 15 70
37 70 70 0 25 -22 59 -38 59 -4 0 -31 -16 -59 -35z m57 -30 c0 -8 -1 -15 -3
-15 -1 0 -18 -4 -37 -10 l-35 -10 30 25 c35 28 45 31 45 10z"/>
<path d="M2102 1173 c-42 -21 -82 -72 -82 -106 0 -34 30 -50 86 -45 24 2 44 0
44 -4 0 -15 33 -38 56 -38 17 0 24 5 24 20 0 13 -7 20 -20 20 -25 0 -25 6 1
74 11 31 18 60 14 66 -13 22 -33 8 -50 -35 -9 -25 -25 -50 -35 -55 -27 -15
-80 -13 -80 3 0 23 55 67 82 67 34 0 43 14 22 34 -19 20 -21 20 -62 -1z"/>
<path d="M5024 1147 c-16 -19 -46 -55 -66 -80 -21 -25 -56 -53 -78 -63 -47
-21 -53 -44 -10 -44 18 0 42 11 63 30 46 40 98 42 115 4 10 -20 18 -25 39 -22
34 4 46 38 14 38 -17 0 -21 6 -21 35 0 37 -8 42 -42 24 -16 -8 -13 -1 12 29
51 64 27 111 -26 49z"/>
<path d="M7549 1163 c-9 -9 -14 -40 -14 -77 0 -53 2 -61 19 -61 16 0 19 10 21
73 3 76 -4 93 -26 65z"/>
<path d="M9025 1154 c-61 -32 -80 -65 -53 -92 16 -16 43 -15 78 3 l29 15 -1
-40 c-1 -51 16 -72 56 -68 40 4 51 38 12 38 -14 0 -26 6 -27 13 0 6 -1 41 -2
77 -2 64 -2 65 -32 68 -16 1 -43 -5 -60 -14z m30 -34 c-3 -5 -16 -15 -28 -21
-21 -10 -21 -9 2 10 25 23 36 27 26 11z"/>
<path d="M6005 1148 c-36 -106 -40 -158 -13 -158 15 0 53 143 43 160 -9 14
-25 13 -30 -2z"/>
<path d="M2557 1143 c-15 -14 -7 -101 11 -123 18 -22 17 -25 -26 -132 -24 -60
-41 -116 -38 -124 12 -30 33 -12 50 44 24 77 118 274 139 291 23 19 21 41 -3
41 -14 0 -31 -16 -52 -50 -17 -27 -35 -47 -39 -44 -5 3 -9 27 -9 55 0 34 -4
49 -13 49 -8 0 -17 -3 -20 -7z"/>
<path d="M2852 1120 c-42 -30 -82 -93 -82 -130 0 -30 19 -24 38 12 25 49 94
116 100 99 3 -8 -3 -29 -13 -47 -17 -32 -15 -64 4 -64 13 0 51 77 51 104 0 64
-34 73 -98 26z"/>
<path d="M3061 1118 c-44 -21 -81 -68 -81 -101 0 -32 45 -67 86 -67 60 0 114
20 114 43 0 16 -4 18 -27 12 -107 -27 -155 -9 -116 43 11 15 39 34 62 42 27 9
41 20 39 30 -5 22 -28 22 -77 -2z"/>
<path d="M6185 1129 c-31 -15 -65 -71 -65 -107 0 -23 7 -36 25 -48 32 -21 69
-12 106 26 35 34 37 70 8 111 -21 30 -40 35 -74 18z m52 -81 c-6 -22 -42 -48
-67 -48 -20 0 -9 52 16 77 23 23 27 24 41 10 10 -10 13 -24 10 -39z"/>
<path d="M6405 1116 c-10 -7 -26 -11 -36 -9 -13 4 -19 -5 -28 -44 -18 -72 -17
-77 1 -81 12 -2 22 7 31 30 8 18 26 44 41 57 25 23 27 24 45 7 11 -10 21 -30
23 -45 5 -43 33 -33 32 12 -2 67 -62 108 -109 73z"/>
<path d="M5240 1096 c-30 -20 -37 -21 -48 -9 -19 19 -41 0 -41 -35 1 -15 -2
-39 -6 -54 -11 -43 13 -35 69 22 27 28 51 48 53 46 3 -3 -1 -20 -8 -39 -13
-37 -6 -71 13 -65 19 7 44 115 32 135 -16 25 -26 25 -64 -1z"/>
<path d="M5368 1046 c-48 -80 -49 -101 -3 -116 50 -16 135 3 135 31 0 22 1 22
-55 8 -59 -15 -80 -7 -64 23 26 50 51 68 96 68 30 0 45 5 50 15 7 21 7 21 -62
28 l-60 6 -37 -63z"/>
<path d="M10171 1006 c-12 -14 -5 -46 10 -46 12 0 31 39 24 50 -9 14 -21 12
-34 -4z"/>
</g>
</svg>
