<?xml version="1.0" standalone="no"?>
<!DOCTYPE svg PUBLIC "-//W3C//DTD SVG 20010904//EN"
 "http://www.w3.org/TR/2001/REC-SVG-20010904/DTD/svg10.dtd">
<svg version="1.0" xmlns="http://www.w3.org/2000/svg"
 width="1872.000000pt" height="484.000000pt" viewBox="0 0 1872.000000 484.000000"
 preserveAspectRatio="xMidYMid meet">

<g transform="translate(0.000000,484.000000) scale(0.100000,-0.100000)"
fill="#000000" stroke="none">
<path d="M9790 3889 c0 -17 -27 -113 -61 -215 -33 -101 -59 -194 -57 -206 2
-15 11 -24 26 -26 20 -3 23 0 17 17 -4 14 15 89 54 209 66 204 74 252 41 252
-16 0 -20 -7 -20 -31z"/>
<path d="M6697 3887 c-3 -7 -3 -25 0 -39 5 -27 -41 -203 -59 -225 -6 -7 -25
-13 -44 -13 -36 0 -54 -17 -33 -31 8 -5 25 -9 38 -9 18 0 22 -4 16 -17 -11
-26 -18 -110 -12 -127 12 -30 37 -6 37 35 0 21 7 56 15 77 14 35 21 40 63 48
31 6 47 14 47 24 0 11 -10 14 -37 13 -45 -3 -45 -3 -13 102 25 79 31 129 19
159 -7 19 -30 21 -37 3z"/>
<path d="M13150 3870 c-7 -5 -15 -23 -16 -42 -4 -52 -57 -178 -108 -261 -75
-120 -58 -138 51 -58 37 27 71 47 76 44 5 -3 8 -21 7 -42 -3 -55 -1 -61 15
-61 17 0 30 59 20 97 -14 56 -42 67 -85 33 -38 -29 -41 -24 -15 23 13 23 37
80 54 126 40 111 41 166 1 141z"/>
<path d="M5433 3858 c-6 -7 -25 -60 -42 -118 -17 -58 -45 -146 -62 -197 -18
-50 -29 -98 -26 -107 8 -21 37 -21 37 0 0 8 22 81 49 162 64 193 78 249 64
263 -7 7 -13 6 -20 -3z"/>
<path d="M11303 3853 c-3 -10 -12 -34 -20 -53 -73 -177 -116 -333 -97 -353 13
-13 34 7 34 32 0 27 43 161 94 295 26 67 28 96 6 96 -6 0 -13 -8 -17 -17z"/>
<path d="M12770 3844 c-74 -13 -163 -23 -198 -24 -55 0 -63 -2 -60 -17 3 -15
15 -18 73 -18 39 0 94 3 123 7 35 5 52 4 52 -4 0 -6 -18 -56 -41 -112 -47
-118 -59 -185 -36 -205 23 -19 36 -5 30 32 -3 24 7 64 41 150 25 65 46 126 46
136 0 15 12 21 63 30 35 6 97 11 139 11 80 0 94 5 77 27 -17 20 -153 15 -309
-13z"/>
<path d="M2391 3836 c-6 -7 -30 -51 -52 -97 -23 -46 -59 -115 -81 -153 l-40
-69 -38 69 c-21 38 -45 102 -55 142 -17 73 -37 106 -59 99 -17 -6 -20 -40 -3
-52 8 -6 20 -37 27 -70 6 -33 32 -98 57 -143 l45 -84 -31 -41 c-122 -162 -238
-368 -225 -400 13 -36 70 -2 60 36 -3 11 6 41 18 66 36 71 159 252 194 288 18
17 32 36 32 42 0 6 18 40 40 76 46 75 150 280 150 295 0 15 -26 12 -39 -4z"/>
<path d="M14778 3803 c-7 -16 -40 -80 -74 -143 -62 -115 -89 -198 -82 -255 2
-18 9 -30 18 -30 11 0 17 17 22 65 7 65 19 92 116 276 27 49 40 86 36 97 -9
25 -23 21 -36 -10z"/>
<path d="M9104 3693 c1 -18 7 -29 19 -31 13 -3 17 3 17 27 0 24 -5 31 -19 31
-13 0 -18 -7 -17 -27z"/>
<path d="M15876 3681 c-9 -14 4 -41 19 -41 18 0 26 15 19 34 -7 17 -29 21 -38
7z"/>
<path d="M10878 3662 c-10 -2 -18 -8 -18 -14 0 -19 -62 -137 -81 -154 -18 -16
-19 -16 -19 19 0 59 -29 115 -52 101 -11 -7 -10 -48 1 -59 6 -6 11 -32 13 -59
2 -33 9 -52 20 -60 25 -15 88 49 128 130 34 69 36 102 8 96z"/>
<path d="M11647 3636 c-38 -34 -67 -89 -67 -126 0 -31 35 -60 73 -60 35 0 127
41 147 65 24 29 -19 29 -75 1 -62 -32 -99 -31 -103 2 -3 17 1 22 20 22 33 0
108 50 115 78 14 58 -54 70 -110 18z m58 -22 c-11 -9 -29 -20 -40 -26 -17 -9
-16 -6 4 16 14 14 32 26 40 26 13 -1 12 -4 -4 -16z"/>
<path d="M6134 3633 c-24 -17 -84 -126 -90 -163 -6 -35 -4 -40 13 -40 14 0 22
9 26 28 3 15 20 53 37 84 29 53 33 56 56 48 37 -15 64 -12 64 5 0 23 -85 52
-106 38z"/>
<path d="M11491 3602 c-34 -67 -131 -140 -131 -99 0 6 11 34 25 60 26 48 26
67 0 67 -20 0 -67 -105 -63 -143 3 -29 7 -32 38 -35 28 -2 46 5 83 33 51 39
102 116 93 140 -9 25 -25 17 -45 -23z"/>
<path d="M14287 3608 c-18 -42 -107 -142 -118 -131 -4 4 -9 34 -11 66 -3 64
-17 87 -38 62 -22 -26 7 -168 36 -179 34 -13 174 140 174 190 0 35 -27 30 -43
-8z"/>
<path d="M5572 3607 c-11 -12 -30 -46 -42 -74 -12 -29 -26 -53 -30 -53 -15 0
-31 29 -37 65 -4 26 -10 35 -22 33 -35 -8 -3 -128 35 -128 17 0 -6 -44 -93
-175 -57 -86 -69 -135 -33 -135 13 0 20 7 20 20 0 11 27 61 61 112 34 51 86
144 116 206 31 62 60 115 64 118 13 8 11 21 -5 27 -8 3 -23 -4 -34 -16z"/>
<path d="M9905 3616 c-35 -16 -70 -52 -79 -83 -10 -31 18 -79 56 -99 57 -30
212 -4 240 40 16 25 -13 28 -61 7 -59 -25 -137 -28 -169 -5 -22 15 -22 15 29
42 64 34 77 51 61 86 -13 29 -32 32 -77 12z m40 -36 c-3 -6 -21 -18 -38 -27
-30 -15 -31 -15 -17 2 8 9 23 21 35 25 27 12 27 12 20 0z"/>
<path d="M13356 3600 c-19 -17 -45 -51 -57 -76 -49 -101 30 -136 209 -92 31 8
42 15 40 27 -4 19 0 19 -111 2 -77 -13 -90 -13 -103 1 -25 25 -7 42 73 68 42
14 78 30 80 36 6 18 -45 64 -71 64 -14 0 -41 -14 -60 -30z m70 -19 c-3 -5 -15
-11 -26 -14 -17 -4 -19 -3 -9 9 12 15 44 20 35 5z"/>
<path d="M4039 3568 c-56 -61 -74 -101 -55 -118 10 -8 25 6 65 60 28 38 55 70
61 70 13 0 13 -74 1 -118 -12 -40 -4 -64 18 -60 17 3 29 57 30 139 1 49 -19
79 -54 79 -10 0 -40 -24 -66 -52z"/>
<path d="M4884 3599 c-57 -37 -94 -135 -62 -167 7 -7 30 -12 51 -12 32 0 46 7
78 39 44 44 48 70 20 117 -24 39 -51 47 -87 23z m66 -76 c0 -23 -47 -63 -75
-63 -36 0 -31 43 12 92 14 16 17 16 39 1 13 -8 24 -22 24 -30z"/>
<path d="M5127 3601 c-56 -36 -118 -110 -124 -146 -5 -30 -3 -35 13 -35 12 0
27 16 42 44 13 24 39 58 58 77 29 28 34 30 34 13 0 -10 -9 -39 -21 -63 -32
-72 -5 -102 30 -33 35 70 39 143 7 155 -7 3 -25 -2 -39 -12z"/>
<path d="M8824 3610 c-36 -14 -36 -37 0 -121 5 -11 -1 -19 -19 -27 -46 -21
-71 -12 -43 16 21 21 -4 34 -30 16 -24 -17 -29 -53 -10 -72 18 -18 69 -14 106
8 42 26 48 44 28 86 -27 57 -22 68 23 60 43 -7 60 6 41 29 -14 16 -63 19 -96
5z"/>
<path d="M10909 3581 c-64 -63 -47 -124 29 -105 32 8 38 6 47 -11 18 -34 40
-25 40 16 0 21 8 45 18 56 19 22 22 49 6 59 -6 3 -16 1 -22 -5 -15 -15 -27
-14 -27 3 0 13 -20 26 -42 26 -6 0 -28 -17 -49 -39z m70 -42 c1 -10 -59 -33
-66 -25 -4 3 7 20 22 36 26 27 30 29 37 13 3 -10 7 -21 7 -24z"/>
<path d="M7122 3564 c-48 -49 -82 -109 -75 -131 8 -23 22 -14 49 30 15 23 38
54 52 69 l25 27 18 -22 c16 -20 18 -20 24 -5 10 25 -8 72 -29 76 -10 2 -36
-16 -64 -44z"/>
<path d="M8035 3577 c-41 -41 -44 -70 -11 -92 17 -12 30 -13 49 -6 23 9 26 7
36 -19 10 -30 47 -48 76 -36 25 9 17 34 -12 38 -28 3 -28 4 -28 73 l0 70 -38
3 c-32 3 -43 -2 -72 -31z m65 -21 c0 -18 -40 -47 -52 -40 -10 6 29 54 44 54 4
0 8 -6 8 -14z"/>
<path d="M3467 3582 c-26 -28 -44 -85 -38 -116 9 -45 104 -90 140 -67 21 13 6
28 -36 36 -50 9 -63 21 -63 60 0 53 61 90 75 44 4 -12 13 -19 23 -17 21 4 17
48 -6 66 -23 18 -76 15 -95 -6z"/>
<path d="M6279 3559 c-66 -72 -62 -138 10 -160 65 -19 219 37 187 68 -3 4 -40
-4 -81 -17 -62 -20 -79 -21 -101 -11 -22 10 -25 16 -19 39 3 15 19 40 35 56
25 25 32 28 52 19 22 -11 21 -12 -24 -32 -28 -13 -48 -29 -48 -38 0 -33 96 5
124 50 8 12 5 22 -14 42 -36 39 -75 34 -121 -16z"/>
<path d="M15755 3573 c-4 -15 -18 -53 -32 -84 -25 -56 -25 -83 1 -73 20 8 68
120 64 151 -4 37 -26 41 -33 6z"/>
<path d="M7388 3574 c-21 -7 -53 -24 -70 -37 -18 -13 -40 -26 -48 -29 -25 -9
-57 -75 -43 -89 9 -9 28 2 78 49 82 77 101 81 77 16 -17 -46 -17 -46 7 -65 28
-23 71 -25 71 -4 0 9 -11 20 -25 25 -25 10 -25 10 -9 47 38 87 28 110 -38 87z"/>
<path d="M9379 3567 c-32 -34 -51 -76 -43 -99 5 -18 12 -20 53 -15 25 2 54 8
64 12 15 6 17 1 17 -38 0 -61 -36 -177 -56 -177 -8 0 -32 9 -54 20 -56 28 -94
26 -120 -7 -19 -24 -21 -37 -17 -88 4 -48 11 -64 31 -82 38 -33 79 -17 146 56
33 35 65 61 80 63 31 4 41 38 11 38 -20 0 -20 1 -4 43 21 56 27 237 9 262 -17
24 -50 13 -41 -14 6 -21 -9 -37 -48 -46 -34 -9 -35 4 -2 39 29 31 31 42 10 50
-8 3 -24 -4 -36 -17z m-22 -340 l42 -22 -39 -43 c-62 -66 -99 -55 -100 30 0
63 25 73 97 35z"/>
<path d="M14374 3546 c-67 -66 -54 -114 27 -103 34 4 42 2 46 -13 6 -24 32
-34 39 -15 3 8 3 18 0 23 -3 5 -1 26 5 47 15 53 0 62 -46 25 -38 -30 -83 -42
-69 -17 17 30 39 47 60 47 30 0 38 15 18 34 -23 24 -32 20 -80 -28z"/>
<path d="M14844 3582 c-23 -14 -54 -78 -54 -109 0 -68 90 -82 147 -23 52 54
63 69 57 85 -10 26 -33 17 -59 -25 -58 -91 -135 -77 -84 16 23 42 19 73 -7 56z"/>
<path d="M15141 3572 c-19 -9 -48 -33 -63 -53 -28 -35 -29 -38 -15 -71 17 -41
55 -58 126 -58 60 0 91 9 91 26 0 16 -2 16 -85 14 -38 -1 -67 4 -79 13 -18 13
-17 15 20 27 81 26 107 65 68 104 -19 20 -21 20 -63 -2z m25 -48 c-19 -13 -46
-19 -46 -9 0 8 55 34 60 28 3 -2 -4 -11 -14 -19z"/>
<path d="M15950 3568 c-19 -13 -35 -28 -37 -35 -2 -6 10 -27 27 -46 l31 -36
-38 -10 c-30 -9 -39 -8 -46 4 -11 20 -33 19 -42 -2 -11 -29 30 -55 74 -47 53
10 91 32 91 53 0 11 -11 33 -25 50 -24 28 -25 31 -8 39 10 5 30 12 46 16 15 3
27 13 27 21 0 23 -62 19 -100 -7z"/>
<path d="M3761 3546 c-52 -83 -3 -123 72 -58 16 14 17 14 12 0 -9 -23 13 -98
32 -105 23 -9 32 16 17 45 -9 18 -11 44 -7 83 l6 56 -39 6 c-64 11 -71 9 -93
-27z m59 -9 c0 -2 -10 -12 -21 -23 -22 -19 -22 -19 -10 4 10 18 31 31 31 19z"/>
<path d="M6956 3546 c-8 -20 -28 -41 -45 -50 -57 -30 -78 -15 -45 33 11 16 13
26 6 33 -30 30 -76 -57 -53 -101 33 -61 189 20 179 93 -5 33 -26 29 -42 -8z"/>
<path d="M9205 3566 c-34 -15 -125 -105 -125 -123 0 -31 26 -22 69 25 25 28
57 56 70 62 23 12 23 11 17 -21 -12 -68 24 -73 42 -6 9 33 8 41 -9 58 -22 22
-24 22 -64 5z"/>
<path d="M2398 3546 c-22 -16 -68 -113 -68 -142 0 -36 67 -47 120 -19 50 26
85 106 62 142 -9 14 -56 33 -80 33 -9 0 -25 -7 -34 -14z m72 -36 c34 -21 -33
-106 -78 -98 l-21 3 21 47 c17 40 28 51 58 57 3 0 12 -3 20 -9z"/>
<path d="M2621 3506 c-45 -61 -57 -71 -86 -71 -15 0 -20 -7 -20 -25 0 -34 39
-39 70 -10 19 18 27 20 43 11 36 -19 61 -12 106 30 32 29 43 35 39 21 -9 -36
15 -64 50 -60 37 3 45 31 10 36 -20 3 -21 7 -16 52 5 41 3 51 -11 56 -13 5
-33 -9 -73 -50 -66 -68 -91 -75 -67 -18 43 97 17 113 -45 28z"/>
<path d="M9001 3481 c-23 -50 -22 -75 4 -65 17 7 58 92 50 104 -13 21 -31 8
-54 -39z"/>
<path d="M11967 3453 c-14 -13 -7 -33 11 -33 26 0 34 11 21 27 -13 14 -22 16
-32 6z"/>
<path d="M12166 3361 c-17 -19 -106 -221 -106 -242 0 -8 -13 -9 -43 -5 -32 5
-47 3 -56 -8 -14 -17 -8 -21 42 -30 31 -6 37 -11 32 -24 -15 -39 -33 -135 -28
-148 12 -33 32 -11 46 54 24 104 32 120 64 124 37 4 45 38 9 38 l-26 0 21 53
c11 28 35 83 54 121 32 64 36 86 16 86 -4 0 -16 -8 -25 -19z"/>
<path d="M6237 3333 c-2 -5 -5 -24 -5 -43 -1 -21 -26 -86 -66 -168 -36 -73
-66 -142 -66 -153 0 -22 28 -26 36 -4 3 8 25 30 48 49 l43 35 -1 -62 c-1 -51
2 -62 17 -65 14 -3 17 4 17 35 0 21 5 55 11 76 14 51 4 80 -24 71 -12 -3 -33
-16 -46 -28 -20 -18 -17 -9 17 59 50 100 64 149 52 181 -9 24 -25 31 -33 17z"/>
<path d="M16356 3308 c-8 -18 -22 -67 -31 -108 -16 -70 -58 -163 -92 -202 -15
-16 -17 -16 -41 2 -13 11 -31 20 -39 20 -32 0 -72 -32 -93 -74 -19 -40 -20
-49 -8 -73 10 -21 21 -29 47 -31 31 -3 41 3 110 75 91 94 125 153 154 270 12
49 27 89 32 90 16 3 18 45 3 54 -21 14 -28 11 -42 -23z m-191 -354 c0 -10 -11
-31 -24 -46 -41 -47 -74 -31 -46 21 25 49 70 65 70 25z"/>
<path d="M16948 3324 c-3 -3 -30 -54 -59 -114 -51 -106 -53 -109 -88 -112 -25
-2 -37 -8 -39 -20 -3 -14 3 -18 26 -18 l29 0 -14 -67 c-16 -78 -14 -118 6
-118 10 0 18 22 27 71 19 116 15 111 97 118 94 9 107 13 100 33 -5 13 -18 15
-80 9 l-73 -6 41 81 c56 113 60 125 45 138 -7 6 -15 8 -18 5z"/>
<path d="M7552 3276 c-11 -22 -28 -68 -37 -101 -10 -33 -30 -93 -46 -133 -46
-115 -34 -172 37 -172 37 0 99 42 119 80 19 36 19 44 -1 86 -19 41 -48 45 -90
12 -26 -21 -27 -21 -20 -3 5 11 21 62 36 113 16 52 35 101 44 111 21 23 20 38
-3 44 -14 3 -24 -5 -39 -37z m43 -273 c6 -24 1 -33 -31 -60 -37 -33 -84 -44
-84 -21 0 13 89 108 101 108 4 0 10 -12 14 -27z"/>
<path d="M4566 3278 c-8 -18 -22 -59 -31 -90 -16 -50 -21 -56 -44 -55 -17 1
-26 -4 -29 -15 -2 -13 3 -18 18 -18 21 0 22 -3 16 -53 -12 -97 29 -147 107
-131 29 6 43 15 45 28 4 17 -1 18 -40 12 -61 -9 -73 3 -71 65 0 28 5 55 11 61
5 5 40 12 78 16 52 5 69 11 69 22 0 12 -14 15 -67 14 l-68 -1 7 26 c3 14 14
48 25 75 19 49 18 76 -2 76 -6 0 -17 -15 -24 -32z"/>
<path d="M3522 3263 c-6 -16 -16 -48 -22 -73 -11 -43 -61 -163 -102 -244 -34
-69 0 -116 75 -102 46 9 107 74 107 115 0 68 -36 104 -80 81 l-21 -11 20 39
c11 22 29 73 41 113 11 40 25 76 31 80 16 9 2 29 -20 29 -11 0 -23 -12 -29
-27z m18 -294 c0 -50 -83 -110 -112 -81 -14 14 2 41 52 86 45 41 60 40 60 -5z"/>
<path d="M8565 3167 c-29 -69 -32 -72 -65 -74 -19 -1 -41 -2 -47 -2 -7 -1 -13
-10 -13 -21 0 -16 7 -20 31 -20 21 0 30 -4 26 -12 -32 -88 -32 -87 -11 -115
33 -44 83 -73 125 -73 40 0 61 17 38 31 -8 5 -26 9 -42 9 -17 0 -41 13 -63 33
l-37 33 21 46 c19 43 22 45 71 52 42 6 52 10 49 24 -3 12 -12 16 -36 14 -18
-1 -32 0 -32 3 0 3 11 33 25 66 14 33 23 64 20 69 -14 23 -32 5 -60 -63z"/>
<path d="M5973 3172 c0 -72 -5 -82 -47 -82 -33 0 -62 -20 -49 -33 3 -4 19 -7
35 -7 l28 0 -20 -40 c-31 -60 -23 -110 18 -110 10 0 12 8 7 29 -4 21 1 43 19
79 22 43 30 50 68 58 53 11 61 40 11 38 l-32 -2 2 54 c1 39 -2 57 -13 64 -25
16 -27 12 -27 -48z"/>
<path d="M12724 3209 c-10 -16 23 -46 36 -33 6 6 8 18 4 27 -7 19 -29 22 -40
6z"/>
<path d="M15460 3203 c-5 -10 -40 -78 -76 -151 -87 -177 -80 -198 38 -112 37
27 68 48 68 46 0 -2 -7 -20 -15 -39 -8 -20 -15 -55 -15 -77 0 -34 3 -41 18
-38 11 2 18 14 20 33 1 17 10 53 19 81 9 28 13 59 10 68 -10 25 -50 19 -92
-14 -21 -16 -39 -30 -41 -30 -4 0 3 16 59 131 26 53 47 101 47 108 0 17 -29
13 -40 -6z"/>
<path d="M7884 3195 c-8 -21 3 -45 20 -45 20 0 29 16 21 40 -7 23 -33 27 -41
5z"/>
<path d="M10023 3135 c-34 -15 -90 -69 -98 -96 -17 -52 67 -133 130 -127 41 4
49 38 8 38 -38 0 -75 21 -89 49 -16 32 -10 45 38 80 34 25 44 28 64 19 31 -14
54 3 35 25 -17 21 -55 26 -88 12z"/>
<path d="M6419 3082 c-60 -60 -75 -115 -39 -144 27 -22 52 -23 138 -2 74 18
106 39 83 53 -8 5 -41 1 -83 -11 -76 -22 -111 -21 -116 3 -2 12 11 19 51 28
88 19 114 50 87 102 -20 36 -67 25 -121 -29z m89 -4 c-2 -6 -22 -17 -44 -25
l-39 -13 30 24 c32 27 59 34 53 14z"/>
<path d="M11639 3085 c-6 -24 -17 -49 -25 -55 -15 -13 -8 -40 11 -40 6 0 20
10 31 21 24 27 94 72 101 65 3 -3 -4 -23 -16 -46 -25 -48 -26 -66 -7 -73 17
-7 66 90 66 129 0 37 -31 47 -76 24 -43 -23 -44 -23 -43 -12 3 20 -2 32 -16
32 -9 0 -19 -17 -26 -45z"/>
<path d="M3770 3105 c0 -17 36 -39 44 -26 4 5 3 16 0 25 -8 20 -44 21 -44 1z"/>
<path d="M11249 3100 c-90 -48 -121 -108 -78 -151 27 -27 122 -24 127 4 3 14
-4 17 -48 17 -69 0 -77 22 -24 67 46 38 65 41 79 12 13 -29 30 -21 28 14 -1
30 -19 57 -37 57 -6 -1 -27 -9 -47 -20z"/>
<path d="M14524 3112 c-5 -4 -18 -28 -28 -55 -10 -26 -35 -71 -56 -99 -38 -49
-42 -68 -17 -68 7 0 39 27 71 60 62 62 76 70 76 46 0 -26 16 -26 65 -2 l47 24
-8 -26 c-4 -15 -8 -40 -8 -57 -1 -26 3 -30 27 -33 30 -4 61 14 51 29 -3 5 -14
9 -25 9 -23 0 -23 1 -4 47 31 74 11 98 -54 66 -36 -18 -41 -18 -55 -4 -13 12
-22 13 -46 4 -27 -10 -29 -10 -20 7 12 22 13 60 3 60 -5 0 -13 -4 -19 -8z"/>
<path d="M17174 3098 c-5 -8 -27 -19 -50 -26 -52 -15 -76 -42 -72 -78 4 -37
45 -53 88 -37 29 11 30 11 30 -21 0 -41 15 -56 57 -56 40 0 46 26 8 36 -21 5
-25 12 -25 41 0 19 -5 43 -10 53 -7 13 -7 28 0 46 8 21 8 31 -4 42 -12 12 -15
12 -22 0z m-24 -64 c0 -18 -24 -44 -40 -44 -27 0 -25 24 3 38 26 12 37 14 37
6z"/>
<path d="M11515 3090 c-3 -5 -12 -7 -19 -4 -17 6 -92 -59 -101 -87 -8 -25 20
-59 47 -59 27 0 80 28 100 54 10 11 18 35 18 52 0 40 -29 70 -45 44z m5 -60
c0 -13 -35 -38 -64 -46 -26 -6 -27 -5 -17 14 15 28 50 52 67 45 8 -3 14 -8 14
-13z"/>
<path d="M12350 3079 c-40 -24 -90 -69 -90 -81 0 -4 11 -15 24 -23 20 -14 29
-14 62 -2 l39 13 0 -35 c0 -26 5 -36 18 -39 13 -3 17 3 17 23 0 14 5 46 11 70
9 36 8 47 -6 69 -21 31 -30 32 -75 5z m40 -37 c0 -9 -44 -32 -58 -32 -10 1 38
40 49 40 5 0 9 -4 9 -8z"/>
<path d="M2297 3061 c-45 -41 -64 -84 -49 -116 9 -20 19 -25 51 -25 33 0 40
-4 45 -24 7 -27 44 -42 53 -20 3 8 0 21 -7 29 -10 12 -7 25 15 69 25 49 26 56
14 82 -21 44 -75 45 -122 5z m83 -29 c0 -25 -51 -72 -78 -72 -30 0 -28 13 9
55 34 38 69 47 69 17z"/>
<path d="M2604 3071 c-18 -11 -35 -24 -39 -31 -5 -8 -11 -8 -19 -1 -19 16 -41
-15 -56 -77 -13 -56 -3 -87 19 -60 6 7 34 42 63 78 58 72 74 65 43 -16 -31
-80 4 -102 36 -24 21 52 24 121 7 138 -16 16 -17 15 -54 -7z"/>
<path d="M10531 3065 c-17 -15 -35 -24 -40 -21 -9 6 -71 -76 -71 -93 0 -27 33
-14 76 30 26 27 52 49 56 49 4 0 6 -30 5 -67 -2 -55 1 -68 13 -68 11 0 17 19
24 79 13 110 -6 138 -63 91z"/>
<path d="M14883 3078 c-22 -37 -62 -125 -63 -140 -1 -50 73 -63 132 -23 39 26
68 89 50 107 -11 11 -42 -16 -42 -37 0 -20 -49 -55 -77 -55 -21 0 -23 3 -17
23 4 12 17 38 29 57 16 26 20 41 14 58 -10 25 -15 27 -26 10z"/>
<path d="M7214 3062 c-32 -25 -46 -59 -39 -93 15 -68 65 -77 125 -22 51 45 53
86 5 114 -39 23 -65 23 -91 1z m66 -52 c16 8 20 8 20 -4 0 -15 -50 -56 -68
-56 -18 0 -22 44 -5 69 l16 25 8 -22 c7 -19 12 -21 29 -12z"/>
<path d="M7976 3051 c-55 -36 -71 -94 -37 -125 36 -33 151 -33 151 -1 0 11
-13 15 -52 15 -72 0 -90 13 -39 28 21 7 49 21 62 31 21 16 22 22 11 45 -14 32
-53 35 -96 7z m54 -25 c0 -2 -7 -7 -16 -10 -8 -3 -12 -2 -9 4 6 10 25 14 25 6z"/>
<path d="M10194 3049 c-40 -25 -62 -72 -44 -94 17 -21 53 -19 99 5 l39 19 -11
-40 c-8 -33 -7 -43 6 -56 17 -18 41 -8 33 13 -3 8 1 42 9 76 13 59 13 63 -5
80 -25 24 -86 22 -126 -3z m86 -24 c0 -9 -82 -46 -88 -40 -10 10 40 45 66 45
12 0 22 -2 22 -5z"/>
<path d="M13528 3037 c-45 -34 -66 -73 -54 -102 5 -14 16 -16 56 -13 41 2 50
0 50 -14 0 -29 12 -48 30 -48 14 0 17 8 16 43 -1 24 6 57 14 72 12 22 12 29 3
32 -7 3 -13 12 -13 22 0 22 -19 41 -41 41 -10 0 -37 -15 -61 -33z m62 -26 c0
-28 -27 -51 -58 -51 l-27 1 37 34 c44 40 48 42 48 16z"/>
<path d="M13817 3052 c-22 -24 -21 -28 3 -59 23 -29 26 -75 8 -91 -7 -5 -24
-13 -37 -17 -23 -7 -23 -6 -17 28 8 41 -5 55 -28 31 -21 -20 -20 -68 0 -89 20
-19 66 -13 104 14 31 22 38 78 16 123 -9 17 -16 33 -16 35 0 1 18 3 40 3 28 0
40 4 40 14 0 31 -87 37 -113 8z"/>
<path d="M4154 3045 c-28 -19 -48 -69 -40 -100 10 -39 64 -61 123 -49 35 6 49
14 51 28 4 17 -1 18 -50 12 -40 -5 -58 -3 -73 8 -19 14 -19 17 -5 43 11 19 24
28 41 29 13 0 31 4 38 9 11 6 11 11 -4 22 -24 17 -55 17 -81 -2z"/>
<path d="M8215 3041 c-17 -10 -39 -37 -49 -60 -18 -39 -18 -42 -2 -60 22 -25
83 -35 120 -21 24 9 26 13 15 26 -8 10 -21 13 -36 9 -13 -3 -34 -3 -48 1 -23
6 -24 7 -10 35 18 34 49 52 75 44 23 -7 36 11 20 30 -17 20 -49 19 -85 -4z"/>
<path d="M12606 2988 c-27 -68 -28 -72 -11 -84 20 -15 38 -9 32 9 -2 7 7 37
20 66 13 30 21 61 19 68 -12 29 -33 9 -60 -59z"/>
<path d="M3214 3014 c-50 -53 -58 -106 -17 -116 48 -12 133 40 133 82 0 25
-42 70 -66 70 -9 0 -32 -16 -50 -36z m73 -38 c-4 -12 -69 -48 -75 -41 -3 2 2
15 11 28 16 25 71 36 64 13z"/>
<path d="M15132 3020 c-37 -27 -82 -82 -82 -102 0 -4 8 -14 17 -23 13 -14 29
-16 76 -12 61 6 84 17 72 37 -4 7 -27 9 -68 5 l-62 -6 48 45 c31 29 58 46 74
46 18 0 24 5 21 18 -5 29 -50 26 -96 -8z"/>
<path d="M3875 3007 c-43 -43 -47 -86 -10 -122 20 -20 34 -25 78 -25 35 0 59
5 66 14 18 21 -3 30 -63 28 l-51 -3 31 16 c18 9 42 27 55 41 19 20 21 29 13
52 -8 22 -16 28 -47 30 -32 3 -43 -2 -72 -31z m79 -22 c-4 -8 -10 -15 -14 -15
-4 0 -19 -11 -34 -25 l-26 -24 0 23 c0 25 33 55 62 55 11 1 15 -4 12 -14z"/>
<path d="M12772 3000 c-23 -17 -42 -34 -42 -39 0 -5 -9 -11 -20 -14 -14 -4
-20 -14 -20 -35 0 -41 20 -52 39 -21 32 51 88 99 115 99 34 0 34 -25 1 -88
-28 -52 -32 -82 -11 -82 20 0 76 113 76 154 0 63 -70 76 -138 26z"/>
<path d="M16453 3015 c-31 -21 -64 -80 -57 -99 11 -29 62 -33 133 -10 15 4 22
4 18 -3 -11 -17 18 -47 38 -39 13 5 15 10 7 18 -7 7 -5 21 10 49 35 69 -3 95
-57 39 -27 -28 -88 -50 -102 -36 -11 11 39 56 62 56 29 0 37 10 24 27 -15 17
-49 17 -76 -2z"/>
<path d="M3730 2941 c0 -89 -38 -185 -94 -238 -50 -48 -66 -53 -66 -22 0 14
-5 19 -17 17 -24 -4 -29 -51 -8 -71 21 -22 61 -7 119 44 62 54 108 172 104
262 -2 50 -6 62 -20 65 -16 3 -18 -5 -18 -57z"/>
<path d="M7800 2967 c0 -126 -76 -297 -132 -297 -19 0 -22 12 -19 73 2 27 -1
37 -13 37 -21 0 -28 -15 -28 -65 -2 -79 51 -108 114 -63 57 40 118 203 118
316 0 25 -4 32 -20 32 -16 0 -20 -7 -20 -33z"/>
<path d="M5235 2918 c-2 -7 -5 -24 -7 -38 -2 -16 -21 -38 -53 -62 -55 -42 -64
-55 -41 -64 18 -7 100 47 120 79 8 12 16 38 18 57 2 27 -1 35 -15 38 -9 2 -19
-2 -22 -10z"/>
<path d="M6597 2779 c-9 -6 -44 -49 -76 -97 -57 -84 -117 -151 -135 -151 -5 0
-14 -10 -20 -23 -6 -12 -23 -28 -36 -35 -31 -15 -62 -52 -54 -64 11 -18 37 -8
80 30 39 34 52 40 103 43 l58 3 -19 -53 c-18 -50 -16 -102 3 -102 5 0 12 0 17
0 4 0 8 17 9 39 0 21 11 61 24 87 12 27 22 52 21 56 -1 3 12 44 27 91 31 90
43 178 26 183 -5 2 -18 -1 -28 -7z m-34 -161 c-27 -90 -34 -98 -91 -98 -20 0
-19 5 23 55 24 30 55 73 67 94 13 22 24 39 25 38 1 -2 -10 -41 -24 -89z"/>
<path d="M5330 2735 c-17 -25 -42 -70 -55 -100 -21 -47 -28 -54 -56 -57 -43
-4 -49 -26 -10 -34 30 -6 31 -9 31 -55 0 -64 27 -84 101 -77 55 6 95 32 70 47
-8 5 -26 5 -42 -1 -15 -5 -40 -8 -56 -6 -25 3 -28 7 -28 43 l0 40 50 3 c75 4
95 10 89 27 -5 11 -22 15 -65 15 -34 0 -59 4 -59 10 0 16 39 91 66 127 13 17
24 39 24 47 0 30 -29 16 -60 -29z"/>
<path d="M14282 2733 c-6 -10 -13 -34 -17 -53 -12 -60 -67 -172 -79 -160 -5 5
-21 10 -35 10 -53 0 -139 -131 -109 -167 17 -21 84 -16 112 10 52 46 177 324
163 361 -8 21 -24 20 -35 -1z m-120 -274 c-3 -29 -40 -69 -64 -69 -27 0 -22
25 13 65 35 39 56 41 51 4z"/>
<path d="M14006 2651 c-9 -14 4 -41 20 -41 8 0 14 10 14 25 0 25 -23 35 -34
16z"/>
<path d="M4338 2629 c-32 -8 -145 -88 -152 -107 -10 -23 25 -25 52 -4 66 51
103 74 109 68 4 -4 -13 -44 -37 -89 -45 -86 -48 -117 -11 -117 11 0 35 13 54
29 32 29 34 29 45 10 29 -47 100 -6 123 71 7 23 20 45 28 48 40 14 34 42 -9
42 -25 0 -30 -5 -45 -52 -26 -80 -72 -122 -63 -58 8 54 -17 59 -64 14 l-41
-39 31 56 c33 58 42 123 20 131 -7 3 -25 2 -40 -3z"/>
<path d="M14486 2623 c-3 -4 -6 -17 -6 -30 0 -31 34 -28 38 3 3 21 -20 39 -32
27z"/>
<path d="M2242 2605 c-12 -9 -29 -29 -37 -46 -18 -33 -11 -55 33 -101 27 -30
24 -58 -7 -58 -23 0 -40 25 -34 50 5 20 -8 32 -24 22 -24 -15 -19 -65 9 -92
41 -38 100 -20 114 36 5 19 -2 36 -30 71 l-36 47 22 23 c14 15 33 23 55 23 27
0 34 4 31 18 -4 23 -66 28 -96 7z"/>
<path d="M12442 2611 c-15 -9 -5 -41 13 -41 8 0 17 5 21 11 9 15 -18 40 -34
30z"/>
<path d="M15880 2590 c-6 -11 -14 -44 -17 -73 -4 -37 -13 -59 -30 -75 -41 -38
-13 -55 42 -26 17 9 66 28 110 43 55 18 81 31 83 44 2 9 -2 17 -9 17 -19 0
-133 61 -142 76 -11 20 -24 17 -37 -6z"/>
<path d="M2835 2590 c-3 -5 1 -22 9 -38 8 -15 15 -50 17 -77 2 -47 -1 -55 -59
-134 -63 -85 -78 -133 -47 -144 17 -7 28 8 30 38 0 11 23 50 50 85 66 87 163
212 176 228 12 15 5 42 -10 42 -6 0 -29 -26 -52 -57 l-42 -56 -12 46 c-16 63
-43 94 -60 67z"/>
<path d="M11401 2570 c-30 -17 -62 -30 -71 -30 -28 0 -40 -22 -87 -157 -57
-167 -59 -173 -40 -173 18 0 45 43 77 121 20 50 26 56 64 67 84 22 172 133
146 182 -14 26 -25 25 -89 -10z m40 -48 c-15 -28 -79 -82 -98 -82 -21 0 22 57
67 88 37 25 47 23 31 -6z"/>
<path d="M8815 2556 c-62 -29 -115 -72 -115 -95 0 -22 46 -66 84 -81 39 -14
88 -4 84 18 -2 11 -15 17 -40 17 -40 2 -91 30 -86 47 8 22 117 75 143 70 28
-5 30 0 15 29 -14 24 -24 24 -85 -5z"/>
<path d="M3078 2522 c-90 -96 -99 -152 -26 -152 32 0 47 7 75 35 32 32 35 39
29 73 -9 46 -10 53 -5 71 9 33 -30 19 -73 -27z m37 -72 c-7 -22 -50 -48 -61
-37 -4 4 6 23 21 43 29 38 53 35 40 -6z"/>
<path d="M11603 2560 c-45 -10 -61 -26 -74 -71 -9 -30 -9 -42 0 -53 19 -22 40
-8 39 25 -1 38 12 51 65 64 26 6 42 16 42 25 0 18 -27 21 -72 10z"/>
<path d="M1942 2535 c-77 -65 -64 -179 17 -148 24 9 33 8 42 -3 15 -19 49 -18
49 1 0 8 -4 15 -10 15 -14 0 -13 67 1 76 14 8 2 56 -18 72 -25 18 -48 15 -81
-13z m58 -34 c0 -21 -46 -81 -61 -81 -18 0 -8 39 17 69 30 36 44 39 44 12z"/>
<path d="M9751 2530 c-39 -28 -44 -30 -55 -15 -10 15 -17 11 -59 -34 -30 -32
-45 -55 -41 -65 9 -23 17 -21 90 24 36 22 67 40 69 40 2 0 1 -8 -2 -19 -7 -28
11 -34 52 -17 l35 15 -15 -28 c-12 -23 -12 -31 -1 -46 11 -16 16 -12 44 39 47
83 40 107 -25 80 l-33 -13 3 31 c3 42 -12 44 -62 8z"/>
<path d="M10315 2542 c-26 -16 -31 -17 -41 -4 -15 20 -31 8 -39 -27 -3 -16
-17 -43 -30 -61 -13 -18 -22 -37 -19 -41 12 -20 38 -6 93 46 32 30 60 55 63
55 4 0 1 -15 -4 -34 -15 -48 -4 -81 32 -96 38 -16 90 2 90 31 0 21 -12 24 -40
9 -32 -17 -53 -2 -45 34 3 17 7 47 8 66 2 28 -2 36 -18 38 -11 1 -33 -6 -50
-16z"/>
<path d="M12027 2539 c-27 -20 -29 -21 -41 -4 -18 24 -35 11 -34 -26 1 -21 -8
-40 -30 -62 -35 -36 -40 -52 -17 -61 10 -4 42 19 91 66 l76 72 -4 -43 c-2 -25
2 -46 8 -48 6 -2 27 8 48 22 45 30 50 31 36 5 -18 -34 -9 -74 19 -78 33 -5 51
15 28 33 -17 12 -17 15 4 58 36 74 12 97 -55 52 -20 -14 -39 -25 -41 -25 -2 0
-5 12 -7 28 -4 35 -42 40 -81 11z"/>
<path d="M12605 2540 c-35 -23 -64 -59 -65 -79 0 -8 9 -25 21 -37 24 -26 20
-39 -16 -48 -17 -4 -31 -1 -41 9 -18 18 -34 11 -34 -14 0 -45 57 -54 110 -18
54 36 59 52 27 85 l-28 29 30 26 c17 14 40 28 50 32 23 7 17 35 -8 35 -9 0
-29 -9 -46 -20z"/>
<path d="M3250 2461 c-86 -82 -92 -89 -73 -99 17 -9 25 -6 54 24 30 31 35 33
46 18 16 -21 77 -15 133 15 l40 21 0 -30 c0 -34 23 -50 60 -40 32 8 33 34 1
38 -22 4 -23 7 -17 53 8 60 1 61 -68 15 -51 -34 -106 -54 -106 -38 0 5 13 27
28 48 29 39 31 64 7 64 -7 0 -54 -40 -105 -89z"/>
<path d="M4631 2529 c-40 -24 -70 -83 -55 -107 15 -23 60 -27 90 -7 23 15 24
15 24 -9 0 -13 7 -29 15 -36 17 -14 20 -9 29 55 3 22 7 49 8 60 2 14 -2 20
-14 19 -10 -1 -20 6 -23 16 -8 26 -39 30 -74 9z m48 -42 c8 -11 3 -18 -24 -33
-42 -23 -52 -15 -24 19 23 30 32 33 48 14z"/>
<path d="M9328 2534 c-16 -8 -28 -10 -28 -4 0 5 -6 10 -14 10 -8 0 -18 -18
-24 -43 -7 -24 -24 -55 -42 -72 -16 -16 -30 -34 -30 -40 0 -7 -10 -16 -23 -22
-12 -6 -50 -34 -84 -62 -64 -53 -112 -131 -128 -209 -5 -24 -13 -33 -33 -38
-56 -12 -102 -37 -102 -56 0 -21 12 -23 42 -7 11 6 33 15 48 19 l28 8 -14 -59
c-19 -79 -46 -132 -105 -201 -27 -31 -49 -61 -49 -67 0 -24 32 -9 72 35 70 76
95 124 128 252 l11 42 53 0 c37 0 56 4 59 14 7 18 -13 26 -64 26 -21 0 -39 4
-39 10 0 5 10 35 21 67 16 45 36 72 87 121 35 34 68 62 72 62 4 0 12 -11 18
-25 13 -27 42 -34 42 -10 0 9 -7 31 -14 50 -11 26 -12 35 -3 35 7 0 38 28 70
62 32 35 53 53 47 40 -13 -27 -7 -52 14 -52 8 0 34 8 58 19 l43 18 0 -31 c0
-25 5 -32 24 -34 20 -3 23 0 18 19 -3 12 2 38 12 60 27 54 15 63 -48 34 -29
-14 -57 -25 -61 -25 -4 0 -7 14 -6 32 1 38 -16 45 -56 22z"/>
<path d="M11735 2536 c-11 -8 -31 -35 -44 -61 -19 -38 -21 -51 -12 -71 21 -46
107 -15 138 51 16 34 16 36 -4 63 -24 32 -50 38 -78 18z m45 -67 c-10 -18 -49
-49 -62 -49 -10 0 3 30 27 62 14 19 23 23 32 16 9 -7 10 -16 3 -29z"/>
<path d="M12905 2538 c-11 -6 -37 -27 -57 -46 -46 -44 -52 -92 -15 -116 37
-24 171 -25 203 -2 30 23 6 35 -54 27 -69 -10 -126 -1 -130 20 -2 13 8 18 43
21 72 9 107 54 69 92 -18 19 -31 20 -59 4z m34 -42 c-2 -2 -15 -7 -29 -10
l-25 -7 25 15 c21 12 42 14 29 2z"/>
<path d="M9040 2515 c-77 -55 -102 -115 -55 -137 30 -14 88 1 129 33 30 24 35
67 10 104 -20 31 -39 31 -84 0z m50 -70 c-13 -15 -78 -40 -86 -32 -9 9 47 66
69 69 25 3 34 -16 17 -37z"/>
<path d="M4923 2510 c-18 -11 -39 -17 -48 -14 -9 4 -17 -1 -20 -12 -4 -11 -13
-32 -21 -47 -36 -71 -9 -74 56 -7 27 28 52 50 57 50 4 0 8 -21 8 -47 0 -41 3
-48 20 -48 17 0 19 6 17 35 -2 20 1 47 6 60 19 52 -16 66 -75 30z"/>
<path d="M7432 2503 c-5 -10 -14 -34 -21 -53 -6 -19 -21 -48 -34 -63 l-22 -28
0 66 c0 47 -4 68 -15 75 -8 5 -17 7 -20 5 -8 -5 -5 -183 3 -191 3 -4 20 -1 36
6 33 13 74 67 92 120 7 19 19 40 27 46 8 6 12 16 8 22 -11 18 -44 14 -54 -5z"/>
<path d="M7607 2482 c-31 -32 -37 -45 -37 -80 0 -60 33 -92 94 -92 54 0 99 16
93 33 -2 8 -22 11 -63 9 -45 -3 -63 0 -73 12 -23 27 -9 48 42 63 53 15 62 38
27 73 -28 28 -41 25 -83 -18z"/>
<path d="M9996 2479 c-53 -47 -57 -74 -15 -98 23 -13 30 -12 65 5 40 19 52 42
38 72 -4 9 -7 26 -8 37 -2 33 -30 28 -80 -16z m49 -39 c7 -11 -42 -37 -51 -27
-9 9 15 37 32 37 7 0 16 -4 19 -10z"/>
<path d="M14857 2504 c-23 -12 -31 -13 -43 -3 -13 10 -17 10 -24 -1 -5 -8 -7
-17 -5 -20 2 -4 -18 -32 -45 -63 -28 -30 -50 -60 -50 -66 0 -28 46 -5 111 54
71 65 98 80 84 48 -29 -69 -14 -78 64 -38 l49 24 5 -29 c5 -21 15 -31 42 -40
48 -16 117 -4 113 18 -3 13 -13 16 -38 14 -56 -5 -80 5 -80 33 0 13 5 27 10
30 17 11 11 35 -9 35 -10 0 -39 -11 -62 -25 l-44 -25 -5 33 c-6 38 -30 45 -73
21z"/>
<path d="M15554 2508 c-4 -6 1 -17 10 -26 13 -13 36 -16 112 -16 58 1 100 6
107 13 20 20 -13 32 -68 27 -27 -3 -74 -2 -103 3 -32 5 -55 4 -58 -1z"/>
<path d="M7862 2474 c-11 -22 -23 -54 -27 -71 -6 -28 -4 -33 13 -33 23 0 58
35 43 44 -14 9 8 56 26 56 8 0 23 -4 33 -10 13 -7 21 -6 29 4 16 19 -8 36 -58
43 -38 5 -40 4 -59 -33z"/>
<path d="M12338 2467 c-22 -51 -23 -77 -3 -77 16 0 58 88 51 107 -10 25 -31
12 -48 -30z"/>
<path d="M13880 2444 c-17 -37 -28 -74 -26 -81 11 -29 32 -9 59 54 24 58 26
69 13 81 -13 13 -18 6 -46 -54z"/>
<path d="M14573 2493 c-4 -10 -19 -33 -35 -51 -37 -44 -37 -76 2 -92 60 -25
120 10 120 69 -1 40 -14 62 -47 79 -29 16 -32 15 -40 -5z m47 -73 c0 -22 -6
-29 -25 -34 -41 -10 -47 3 -19 40 29 38 44 36 44 -6z"/>
<path d="M8110 2450 c-18 -27 -36 -50 -40 -50 -5 0 -10 17 -12 37 -2 27 -8 39
-20 41 -15 3 -18 -4 -18 -47 0 -27 5 -53 11 -57 17 -10 6 -34 -70 -153 -40
-62 -71 -119 -69 -128 4 -24 27 -28 35 -6 15 42 236 373 249 373 17 0 18 12 2
28 -21 21 -35 13 -68 -38z"/>
<path d="M14371 2440 c-6 -22 -9 -45 -6 -51 12 -18 38 -5 41 21 2 14 5 34 6
45 2 11 -4 21 -13 23 -11 2 -19 -10 -28 -38z"/>
<path d="M5664 2378 c-9 -15 27 -41 39 -29 13 13 1 41 -17 41 -8 0 -18 -5 -22
-12z"/>
<path d="M11652 2308 c-7 -7 -12 -20 -12 -30 0 -23 -32 -88 -72 -145 -24 -36
-34 -43 -62 -43 -35 0 -62 -21 -51 -40 3 -5 17 -7 31 -4 13 3 24 4 24 1 0 -2
-11 -30 -26 -62 -14 -32 -24 -67 -22 -79 7 -47 190 -14 218 39 21 39 0 51 -33
21 -29 -27 -95 -49 -128 -44 -19 3 -18 7 13 68 l33 65 55 8 c91 14 100 17 100
33 0 14 -10 16 -59 12 l-59 -4 38 71 c39 70 55 134 35 142 -6 2 -16 -2 -23 -9z"/>
<path d="M5136 2293 c-2 -10 -10 -45 -16 -78 -7 -33 -23 -95 -37 -137 -21 -70
-26 -78 -49 -78 -33 0 -64 -17 -64 -35 0 -21 17 -27 39 -13 29 18 32 8 16 -45
-14 -48 -11 -81 8 -74 6 2 20 32 32 68 l22 64 39 0 c28 0 39 4 39 15 0 8 -9
16 -20 18 -44 7 -45 9 -29 54 22 63 63 241 58 250 -9 14 -33 8 -38 -9z"/>
<path d="M3211 2278 c-5 -13 -28 -82 -50 -155 l-41 -132 -48 -7 c-25 -4 -55
-7 -66 -8 -24 -1 -31 -19 -13 -34 10 -8 28 -9 61 -3 l48 9 -8 -27 c-14 -49
-10 -95 9 -99 12 -3 17 3 17 20 0 14 7 45 16 71 14 41 20 47 43 47 36 0 66 23
58 44 -7 17 -37 23 -37 6 0 -5 -9 -10 -20 -10 -17 0 -19 3 -11 18 19 36 80
254 74 268 -8 21 -22 17 -32 -8z"/>
<path d="M4477 2293 c-4 -3 -7 -27 -7 -53 0 -48 -12 -123 -31 -192 -10 -39
-11 -39 -34 -24 -50 33 -86 16 -134 -64 -58 -96 9 -141 111 -75 52 35 96 128
116 252 9 54 23 103 31 109 11 9 11 14 0 32 -13 21 -39 29 -52 15z m-84 -307
c16 -13 16 -15 -4 -40 -20 -26 -68 -56 -89 -56 -18 0 -11 26 20 68 32 45 44
49 73 28z"/>
<path d="M12577 2243 c-9 -32 -25 -79 -37 -105 -18 -41 -25 -48 -49 -48 -37 0
-88 -18 -94 -34 -3 -7 -2 -19 3 -26 6 -10 13 -9 31 4 13 9 33 16 45 16 22 0
21 -2 -13 -68 -21 -41 -32 -74 -28 -85 11 -28 24 -20 45 27 37 88 67 124 102
128 39 4 46 31 10 36 -26 4 -26 3 6 92 28 75 31 113 11 118 -11 2 -20 -13 -32
-55z"/>
<path d="M12752 2278 c-20 -25 -162 -321 -162 -339 0 -33 18 -30 65 11 25 22
55 45 66 51 20 10 20 9 -1 -31 -25 -50 -23 -85 5 -85 13 0 19 6 18 19 0 10 10
41 23 70 49 104 18 122 -85 49 -19 -14 -12 6 38 105 57 114 73 162 52 162 -5
0 -13 -6 -19 -12z"/>
<path d="M6006 2258 c-8 -13 -22 -40 -32 -61 -16 -34 -17 -39 -2 -53 21 -21
38 -10 38 24 0 15 9 38 20 52 11 14 20 33 20 43 0 24 -27 21 -44 -5z"/>
<path d="M6068 2243 c-9 -10 -25 -44 -37 -77 -17 -45 -19 -61 -10 -72 20 -24
39 -16 39 16 0 17 10 52 23 78 31 63 21 96 -15 55z"/>
<path d="M7100 2234 c-6 -14 -10 -31 -10 -39 0 -8 -11 -40 -25 -72 l-26 -59
-44 1 c-25 0 -45 2 -45 5 0 3 7 27 15 55 16 50 14 75 -5 75 -12 0 -33 -46 -49
-107 -11 -39 -15 -43 -54 -50 -51 -10 -58 -36 -10 -41 l32 -3 -15 -47 c-20
-69 -19 -102 6 -102 14 0 20 7 20 23 0 27 28 128 39 139 4 4 28 12 53 17 l47
8 -20 -51 c-10 -28 -19 -59 -19 -68 0 -31 33 -20 72 25 l38 42 -2 -48 c-2 -47
11 -75 30 -63 5 3 10 37 11 76 2 78 -9 92 -55 72 -30 -14 -30 -13 1 48 29 58
59 165 50 180 -11 17 -25 11 -35 -16z"/>
<path d="M4143 2238 c-6 -7 -22 -39 -37 -72 -20 -45 -23 -62 -15 -72 16 -20
39 -17 39 5 0 10 11 44 25 75 24 54 25 76 6 76 -5 0 -13 -6 -18 -12z"/>
<path d="M4044 2232 c-6 -4 -21 -37 -34 -74 -20 -56 -22 -69 -11 -82 7 -9 19
-16 27 -16 18 0 29 21 15 30 -9 5 -7 20 9 59 28 73 26 105 -6 83z"/>
<path d="M2094 2155 c-7 -18 12 -45 32 -45 15 0 18 18 8 44 -8 20 -33 21 -40
1z"/>
<path d="M14831 2157 c-13 -17 10 -54 27 -43 16 10 15 31 -2 45 -10 8 -16 8
-25 -2z"/>
<path d="M8428 2091 c-13 -22 -31 -42 -40 -45 -11 -2 -18 -14 -18 -28 0 -13
-9 -41 -20 -63 -24 -47 -25 -65 -5 -65 15 0 55 57 84 119 38 83 38 83 77 66
60 -25 76 2 22 35 -51 31 -74 26 -100 -19z"/>
<path d="M13975 2080 c-91 -24 -155 -68 -155 -106 0 -24 46 -67 64 -61 21 7
18 38 -3 44 -12 3 -21 9 -21 13 0 26 120 80 180 80 25 0 31 4 28 18 -4 19 -45
25 -93 12z"/>
<path d="M2250 2072 c-31 -10 -90 -64 -90 -82 0 -11 14 -35 31 -55 29 -33 30
-35 9 -35 -12 0 -29 4 -39 9 -10 6 -23 6 -32 1 -12 -8 -12 -12 2 -25 25 -25
92 -31 112 -10 24 23 21 39 -13 78 l-29 34 22 22 c13 11 35 21 50 21 15 0 27
5 27 10 0 6 0 13 1 17 1 10 -34 21 -51 15z"/>
<path d="M10161 2058 c-45 -22 -101 -83 -101 -109 0 -8 11 -26 24 -38 20 -19
33 -22 82 -19 44 2 59 7 59 18 0 11 -14 16 -55 18 -30 2 -59 7 -64 13 -17 16
80 102 111 99 5 -1 9 5 11 13 5 24 -24 27 -67 5z"/>
<path d="M10378 2050 c-36 -30 -78 -101 -78 -133 0 -9 9 -26 20 -37 24 -24 95
-26 184 -5 67 16 83 27 63 43 -10 8 -27 7 -68 -3 -63 -17 -145 -20 -154 -5 -3
6 -3 19 0 30 5 16 15 20 46 20 31 0 47 7 70 29 71 71 -4 126 -83 61z m57 -30
c-10 -11 -25 -20 -33 -20 -12 0 -12 4 3 20 10 11 25 20 33 20 12 0 12 -4 -3
-20z"/>
<path d="M13683 2058 c-18 -18 -24 -19 -37 -8 -21 16 -41 0 -49 -38 -3 -15
-33 -72 -66 -127 -65 -107 -83 -161 -60 -176 21 -13 45 17 82 105 18 43 37 78
42 79 82 6 149 49 166 107 11 35 10 42 -6 60 -23 26 -45 25 -72 -2z m47 -33
c0 -24 -52 -74 -85 -81 -29 -6 -29 -5 20 45 52 53 65 61 65 36z"/>
<path d="M14060 2020 c-30 -32 -55 -67 -55 -77 0 -10 13 -24 29 -32 43 -20
113 11 141 61 19 35 19 38 2 72 -25 53 -51 48 -117 -24z m84 -28 c-14 -22 -81
-59 -90 -49 -4 4 12 26 36 48 31 29 46 37 54 29 7 -7 7 -16 0 -28z"/>
<path d="M14372 2043 l-43 -36 3 29 c4 42 -28 46 -37 4 -4 -17 -22 -51 -41
-75 -36 -48 -40 -60 -24 -70 14 -9 48 11 114 68 53 46 57 48 43 20 -9 -17 -13
-33 -10 -37 13 -13 50 -5 96 19 26 14 47 24 47 21 0 -2 -7 -20 -15 -41 -25
-58 10 -82 80 -55 23 9 25 13 15 25 -8 9 -21 13 -36 9 -30 -8 -30 -6 1 57 13
29 22 56 19 60 -7 11 -47 12 -59 1 -6 -5 -28 -19 -49 -32 l-39 -24 6 25 c20
71 20 69 -4 69 -13 0 -43 -17 -67 -37z"/>
<path d="M4586 2037 c-71 -93 -57 -172 31 -165 53 4 52 31 -2 38 l-39 5 24 16
c44 29 80 71 80 93 0 54 -57 62 -94 13z m35 -40 c-13 -12 -20 -15 -16 -7 14
26 28 41 33 35 3 -3 -5 -16 -17 -28z"/>
<path d="M7288 2050 c-31 -24 -58 -78 -58 -117 0 -20 10 -39 30 -58 27 -26 38
-30 88 -29 66 0 109 18 93 38 -9 10 -23 11 -60 3 -37 -7 -55 -6 -77 4 -38 19
-41 37 -9 49 80 30 108 83 63 114 -29 21 -40 20 -70 -4z m33 -52 c-34 -26 -48
-22 -21 7 12 13 27 22 33 18 6 -4 1 -14 -12 -25z"/>
<path d="M8602 2050 c-52 -32 -69 -102 -32 -135 33 -30 165 -5 178 34 4 11 -3
13 -34 7 -22 -4 -59 -10 -84 -13 l-45 -5 46 30 c56 36 65 56 39 82 -25 25 -27
25 -68 0z"/>
<path d="M9923 2044 c-43 -25 -43 -25 -43 -4 0 35 -32 20 -43 -20 -5 -19 -15
-42 -23 -51 -18 -20 -18 -49 0 -49 8 0 36 18 61 40 25 22 55 45 66 50 17 9 19
7 19 -17 0 -15 -7 -37 -15 -47 -19 -25 -19 -56 -1 -56 32 0 65 97 57 168 -2
19 -32 14 -78 -14z"/>
<path d="M15275 2063 c-34 -9 -113 -75 -126 -105 -27 -65 34 -106 143 -94 73
7 104 22 88 41 -8 9 -21 10 -48 4 -56 -13 -116 -11 -138 5 -26 19 -15 27 45
31 93 7 138 44 111 93 -16 27 -38 34 -75 25z m45 -52 c0 -5 -20 -14 -44 -20
-60 -15 -63 -14 -35 8 36 28 79 34 79 12z"/>
<path d="M9407 2040 c-35 -28 -68 -127 -47 -141 18 -11 54 27 46 48 -15 37 39
85 79 69 20 -7 32 23 14 35 -24 15 -65 10 -92 -11z"/>
<path d="M12881 2024 c-18 -20 -38 -48 -44 -61 -10 -22 -8 -28 12 -44 39 -32
212 -21 219 14 3 16 -4 17 -92 11 -64 -5 -96 -3 -96 3 0 6 20 14 44 17 64 10
83 27 71 63 -9 23 -17 29 -46 31 -31 3 -41 -2 -68 -34z m79 -8 c0 -2 -9 -6
-20 -9 -11 -3 -18 -1 -14 4 5 9 34 13 34 5z"/>
<path d="M4812 2015 l-37 -34 18 -31 c21 -39 22 -64 2 -80 -10 -9 -15 -9 -15
-1 0 14 -27 15 -35 1 -3 -6 -3 -19 0 -30 8 -26 45 -26 79 1 30 24 34 64 11
109 -14 28 -14 30 7 44 13 8 33 17 46 21 33 10 28 35 -8 35 -21 0 -42 -11 -68
-35z"/>
<path d="M9159 2011 c-46 -46 -50 -77 -14 -113 24 -24 98 -44 117 -32 23 14 4
33 -37 40 -43 6 -73 24 -41 24 22 0 75 51 77 75 3 39 -1 45 -32 45 -23 0 -42
-10 -70 -39z m46 -21 c-10 -11 -23 -20 -29 -20 -6 1 0 10 13 20 30 26 39 26
16 0z"/>
<path d="M9559 2012 c-33 -31 -42 -46 -46 -83 -5 -41 -2 -48 22 -67 44 -35
176 -26 183 12 3 16 -2 17 -61 11 -81 -9 -107 -1 -107 30 0 17 4 23 14 19 16
-6 83 20 108 43 16 14 16 18 2 44 -22 43 -63 40 -115 -9z m67 -17 c-26 -19
-42 -19 -26 0 7 8 20 15 29 15 13 -1 13 -3 -3 -15z"/>
<path d="M14972 2029 c-43 -13 -49 -31 -26 -80 15 -35 16 -42 3 -50 -19 -12
-43 -11 -56 2 -15 15 -33 3 -33 -21 0 -35 73 -42 114 -9 29 23 33 47 11 88
-14 27 -13 29 8 35 12 3 33 3 45 -1 17 -4 22 -1 22 15 0 31 -28 38 -88 21z"/>
<path d="M5250 2013 c-40 -21 -68 -65 -72 -113 -3 -29 0 -35 17 -35 14 0 20 7
21 22 3 65 38 99 96 95 28 -2 46 14 32 28 -19 19 -60 20 -94 3z"/>
<path d="M11761 2004 c-59 -49 -24 -113 54 -98 64 12 88 93 32 109 -12 4 -29
9 -38 11 -9 3 -31 -7 -48 -22z m79 -34 c0 -14 -39 -32 -56 -26 -7 3 -11 11 -9
18 6 15 65 22 65 8z"/>
<path d="M14740 1985 c-17 -25 -30 -53 -28 -63 4 -21 43 -23 43 -2 0 8 11 32
23 52 22 35 23 58 2 58 -5 0 -23 -20 -40 -45z"/>
<path d="M5704 1998 c-11 -13 -29 -36 -39 -52 -17 -28 -18 -29 -31 -11 -8 10
-14 26 -14 35 0 22 -19 40 -36 33 -20 -7 -18 -23 10 -78 l25 -48 -41 -61 c-69
-101 -115 -226 -91 -249 8 -9 33 12 33 29 0 39 52 140 136 264 52 77 94 144
94 150 0 18 -26 11 -46 -12z"/>
<path d="M1980 1975 c-12 -19 -24 -50 -27 -69 -4 -29 -1 -39 22 -60 15 -14 36
-26 46 -26 28 0 23 35 -6 48 -14 6 -25 16 -25 22 0 21 29 80 39 80 6 0 11 9
11 20 0 33 -36 24 -60 -15z"/>
<path d="M3286 1934 c-40 -52 -44 -74 -19 -99 13 -14 28 -16 65 -12 63 8 88
22 88 52 0 43 -18 74 -47 81 -15 4 -33 11 -40 16 -8 6 -23 -6 -47 -38z m92
-40 c3 -22 -19 -34 -65 -34 -29 0 -29 14 -2 41 25 25 63 22 67 -7z"/>
<path d="M5356 1948 c-37 -49 -42 -82 -17 -107 25 -25 42 -26 88 -4 30 14 73
64 73 84 0 3 -11 18 -25 33 -36 39 -86 36 -119 -6z m90 -23 c8 -19 -12 -44
-45 -56 -49 -19 -51 29 -2 56 34 18 40 18 47 0z"/>
<path d="M15627 1896 c-10 -8 -15 -20 -11 -29 5 -15 9 -15 36 -1 29 15 33 37
7 41 -8 2 -22 -3 -32 -11z"/>
<path d="M9414 1775 c-9 -14 -33 -64 -54 -112 -37 -87 -38 -88 -76 -91 -60 -5
-66 -41 -7 -42 22 0 22 0 -8 -65 -37 -83 -38 -112 -1 -126 44 -17 110 -5 143
27 31 30 36 48 17 60 -6 4 -21 -4 -33 -20 -17 -21 -34 -29 -69 -33 -30 -4 -46
-2 -46 6 0 6 14 42 31 81 35 76 36 77 139 72 19 -1 42 2 50 8 27 17 -5 32 -69
33 -35 0 -61 5 -61 11 0 5 20 52 45 103 25 50 45 97 45 103 0 19 -30 10 -46
-15z"/>
<path d="M6706 1748 c-2 -7 -20 -58 -41 -113 -21 -55 -48 -129 -61 -165 -13
-36 -28 -72 -32 -80 -11 -18 -4 -40 11 -40 7 0 41 26 76 57 l64 58 -8 -35
c-15 -65 -12 -85 12 -88 19 -3 22 1 22 25 0 15 3 52 7 81 l7 52 -31 0 c-18 0
-43 -10 -61 -26 -17 -14 -31 -23 -31 -20 0 2 16 45 36 93 64 156 76 196 62
205 -18 11 -28 10 -32 -4z"/>
<path d="M3669 1673 c-43 -41 -101 -136 -122 -205 -3 -9 -19 -19 -35 -23 -31
-6 -49 -30 -31 -41 6 -3 21 -3 33 0 22 5 23 4 16 -32 -16 -82 -33 -128 -61
-160 -43 -48 -15 -77 28 -29 33 35 50 76 69 165 l17 82 50 15 c27 8 53 13 56
10 4 -2 13 0 21 5 13 8 13 12 -1 26 -15 15 -22 15 -67 1 l-51 -14 10 26 c19
48 57 106 98 145 35 34 44 38 75 33 20 -3 38 -1 42 4 11 19 -18 39 -58 39 -33
0 -47 -8 -89 -47z"/>
<path d="M11963 1621 c-38 -84 -42 -89 -79 -98 -50 -11 -61 -43 -15 -43 l30 0
-20 -45 c-24 -53 -22 -98 4 -103 12 -3 17 3 17 22 0 14 10 50 23 81 l22 55 63
-2 c69 -2 67 1 41 -64 -12 -30 -8 -64 8 -64 5 0 32 21 61 46 28 25 52 43 52
40 0 -3 -7 -21 -16 -40 -9 -19 -14 -42 -10 -51 7 -19 42 -16 38 3 -1 7 7 30
18 52 11 21 20 51 20 65 0 21 -5 25 -28 25 -15 0 -39 -11 -55 -25 -42 -40 -33
-11 33 108 33 60 60 112 60 118 0 5 -8 9 -17 9 -12 0 -34 -29 -65 -83 -26 -45
-50 -90 -54 -100 -4 -11 -11 -14 -18 -9 -6 5 -31 9 -55 10 -24 0 -45 3 -48 5
-2 2 12 39 32 82 40 89 41 95 17 95 -13 0 -29 -25 -59 -89z"/>
<path d="M7907 1643 c-19 -27 -40 -59 -46 -71 -10 -18 -18 -22 -36 -18 -29 7
-42 -19 -16 -34 18 -9 18 -12 4 -52 -17 -49 -12 -102 13 -129 34 -38 134 -33
134 6 0 13 -8 15 -43 10 -71 -11 -90 22 -64 110 14 43 31 52 107 54 60 2 90
10 90 27 0 20 -9 21 -82 15 -38 -4 -68 -4 -68 0 0 3 16 27 36 53 33 43 39 76
15 76 -5 0 -25 -21 -44 -47z"/>
<path d="M15625 1661 c-45 -27 -61 -49 -99 -134 -35 -77 -36 -77 -75 -77 -41
0 -67 -20 -58 -44 5 -12 11 -13 36 -3 43 16 47 4 18 -45 -42 -71 -104 -136
-145 -149 -51 -16 -65 -28 -51 -45 9 -11 20 -10 62 7 61 23 122 84 173 177 34
60 37 62 75 62 36 0 39 -2 33 -24 -17 -71 117 -86 182 -21 31 31 34 100 5 110
-25 7 -68 -3 -106 -25 -20 -12 -37 -15 -50 -10 -11 5 -35 9 -53 9 -30 1 -33 3
-26 24 28 91 93 167 144 167 24 0 29 -5 32 -27 2 -17 9 -28 18 -28 22 0 25 58
5 79 -22 22 -83 20 -120 -3z m135 -239 c0 -37 -68 -70 -112 -56 -18 5 -16 8
16 30 34 23 72 42 89 43 4 1 7 -7 7 -17z"/>
<path d="M6290 1636 c0 -14 28 -36 45 -36 4 0 5 10 3 23 -4 26 -48 38 -48 13z"/>
<path d="M2192 1613 c2 -11 14 -19 31 -21 22 -3 27 1 27 17 0 17 -6 21 -31 21
-24 0 -30 -4 -27 -17z"/>
<path d="M3400 1600 c0 -24 26 -38 42 -22 8 8 8 15 -2 27 -18 21 -40 19 -40
-5z"/>
<path d="M14420 1581 c0 -25 20 -38 31 -20 15 23 10 39 -11 39 -13 0 -20 -7
-20 -19z"/>
<path d="M13382 1561 c-22 -17 -53 -46 -69 -66 -15 -20 -38 -48 -50 -61 -13
-14 -23 -29 -23 -33 0 -4 -25 -53 -55 -108 -57 -103 -66 -133 -41 -133 19 0
44 36 94 135 l41 81 39 -4 c35 -3 45 1 82 34 59 53 77 97 71 172 -2 21 -47 13
-89 -17z m48 -36 c0 -26 -28 -72 -56 -94 -65 -51 -69 -4 -6 62 49 50 62 57 62
32z"/>
<path d="M10320 1565 c-12 -15 -10 -77 6 -147 5 -23 2 -28 -21 -34 -15 -4 -37
-1 -51 6 -22 12 -22 14 -6 26 24 18 2 39 -31 30 -49 -12 -44 -54 9 -86 46 -26
87 -25 120 3 27 24 27 25 16 82 -19 94 -18 98 23 91 30 -6 35 -4 35 12 0 32
-77 44 -100 17z"/>
<path d="M5892 1555 c-38 -17 -142 -112 -142 -131 0 -30 23 -23 65 20 62 64
135 106 135 78 0 -5 -20 -40 -44 -78 -25 -37 -42 -72 -40 -76 7 -12 62 -10 69
2 11 17 25 11 35 -15 10 -25 39 -33 75 -19 17 7 75 123 75 149 0 8 9 17 20 20
25 8 26 31 1 44 -26 15 -47 -5 -61 -59 -17 -64 -48 -120 -66 -120 -14 0 -15 7
-10 39 7 44 -4 57 -32 42 -18 -10 -18 -8 1 30 16 32 18 45 9 65 -13 28 -40 31
-90 9z"/>
<path d="M2411 1515 c-37 -42 -59 -109 -44 -133 25 -40 134 -39 141 1 3 15 -2
17 -52 11 -31 -4 -56 -4 -56 -1 0 4 18 16 41 27 48 25 76 78 59 110 -17 31
-54 25 -89 -15z m49 -24 c-11 -21 -29 -36 -36 -29 -4 5 33 48 42 48 2 0 0 -9
-6 -19z"/>
<path d="M6388 1519 c-55 -35 -59 -52 -22 -90 14 -15 23 -32 20 -38 -9 -15
-43 -14 -48 1 -5 13 -38 4 -38 -11 0 -19 32 -41 59 -41 30 0 81 34 81 53 0 6
-14 26 -31 43 l-31 32 40 21 c23 12 53 21 67 21 20 0 26 4 23 18 -6 30 -66 26
-120 -9z"/>
<path d="M7422 1517 c-37 -26 -48 -30 -45 -17 11 40 -18 27 -50 -23 -50 -78
-56 -92 -47 -106 6 -10 28 3 87 52 l80 66 -19 -55 c-22 -66 -13 -97 30 -92 33
4 45 38 13 38 -20 0 -20 0 -2 53 11 30 25 64 32 76 12 18 12 23 -1 31 -22 14
-23 13 -78 -23z"/>
<path d="M13546 1517 c-29 -29 -42 -85 -29 -124 16 -48 38 -35 38 23 0 64 15
82 68 86 29 2 42 8 42 18 0 11 -13 16 -47 18 -40 3 -52 -1 -72 -21z"/>
<path d="M14787 1500 c-40 -36 -47 -47 -47 -79 0 -25 7 -44 19 -55 37 -34 206
-30 206 4 0 12 -13 14 -65 12 -66 -3 -120 9 -120 28 0 5 12 10 26 10 59 0 112
60 87 99 -19 31 -56 24 -106 -19z m73 -10 c0 -9 -32 -30 -46 -30 -4 0 1 9 11
20 19 21 35 26 35 10z"/>
<path d="M10534 1511 c-68 -41 -92 -102 -54 -136 19 -17 73 -18 112 -1 13 6
17 2 20 -21 2 -20 9 -29 25 -31 20 -3 21 0 16 60 -6 88 -11 106 -33 128 -25
25 -46 25 -86 1z m68 -47 c11 -23 9 -28 -12 -45 -28 -21 -90 -26 -90 -6 1 24
56 76 83 77 4 0 13 -12 19 -26z"/>
<path d="M10986 1504 c-14 -15 -26 -32 -26 -38 0 -6 -9 -20 -21 -30 -21 -17
-21 -18 -3 -36 11 -11 25 -27 33 -36 16 -19 72 -15 156 12 60 20 73 30 58 45
-8 8 -32 5 -85 -10 -41 -12 -82 -21 -91 -21 -29 0 -19 25 20 51 48 32 61 53
44 73 -20 24 -55 19 -85 -10z"/>
<path d="M12353 1517 c-58 -33 -81 -107 -43 -142 36 -32 160 -33 160 0 0 10
-16 15 -62 17 -47 2 -58 6 -43 12 60 27 82 78 47 109 -22 20 -30 20 -59 4z
m37 -40 c0 -8 -11 -19 -25 -25 -29 -13 -32 -6 -8 20 19 21 33 23 33 5z"/>
<path d="M10868 1503 c-9 -10 -18 -27 -22 -39 -3 -11 -17 -31 -31 -44 -21 -20
-23 -20 -19 -3 7 26 -13 76 -29 70 -19 -6 -20 -136 -1 -144 22 -8 62 25 106
88 39 56 48 89 25 89 -8 0 -21 -8 -29 -17z"/>
<path d="M14541 1504 c-19 -14 -22 -23 -18 -53 4 -32 1 -37 -27 -51 -22 -11
-31 -22 -31 -40 0 -35 50 -40 89 -9 29 23 29 26 10 102 -6 27 -6 28 37 25 38
-3 44 0 44 16 0 27 -70 33 -104 10z"/>
<path d="M15970 1511 c-48 -9 -55 -15 -90 -66 -32 -46 -31 -75 1 -75 12 0 19
7 19 20 0 11 12 33 28 50 28 31 72 41 120 25 18 -6 22 -4 22 13 0 14 -10 24
-31 31 -18 6 -32 10 -33 10 -1 -1 -17 -4 -36 -8z"/>
<path d="M14021 1501 c-7 -5 -21 -6 -31 -4 -12 3 -22 -3 -30 -19 -7 -12 -32
-43 -56 -68 -30 -32 -41 -49 -35 -59 7 -11 16 -10 47 9 22 13 54 37 72 54 23
21 31 25 26 12 -13 -34 18 -37 73 -6 62 35 67 36 52 11 -17 -26 -4 -53 23 -49
17 2 22 11 25 45 4 39 1 44 -23 55 -22 10 -32 9 -63 -8 l-36 -20 0 25 c0 27
-20 37 -44 22z"/>
<path d="M4521 1440 c-44 -40 -68 -56 -76 -50 -14 12 -35 -7 -35 -32 0 -29 26
-32 64 -9 l34 22 7 -21 c10 -31 61 -31 106 1 27 19 30 19 54 3 25 -16 27 -16
43 0 16 16 15 17 -5 22 -18 5 -22 13 -20 37 3 44 -16 44 -65 -1 -71 -64 -85
-62 -48 7 29 53 33 82 12 81 -4 -1 -36 -28 -71 -60z"/>
<path d="M9573 1482 c-37 -29 -73 -84 -73 -114 0 -42 39 -64 90 -49 37 11 90
60 90 84 0 25 -60 96 -80 96 -3 1 -15 -7 -27 -17z m54 -61 c13 -20 8 -30 -27
-54 -53 -37 -77 -6 -36 48 27 36 44 37 63 6z"/>
<path d="M13733 1492 c-6 -4 -17 -19 -23 -32 -6 -14 -22 -40 -35 -59 -31 -42
-31 -47 0 -67 55 -36 149 23 149 93 0 52 -52 90 -91 65z m52 -59 c8 -22 -45
-73 -77 -73 -21 0 -21 0 -2 23 63 76 68 78 79 50z"/>
<path d="M14320 1450 c-33 -52 -36 -83 -7 -88 11 -2 17 3 17 16 0 10 14 38 30
61 17 23 28 46 25 51 -13 21 -34 8 -65 -40z"/>
<path d="M2071 1455 c-27 -47 -28 -91 -1 -105 25 -13 56 -5 64 16 6 16 -17 30
-34 19 -21 -13 -9 33 13 48 18 12 20 19 11 33 -17 29 -30 27 -53 -11z"/>
<path d="M3330 1435 c-34 -60 -36 -90 -5 -90 11 0 19 6 17 13 -1 7 9 34 23 60
28 53 31 72 11 72 -8 0 -29 -25 -46 -55z"/>
<path d="M7569 1478 c-24 -20 -49 -65 -49 -88 0 -27 45 -45 77 -31 33 15 55
55 51 93 -3 29 -7 33 -33 36 -16 2 -37 -3 -46 -10z m41 -42 c0 -16 -26 -46
-41 -46 -13 0 -11 7 7 35 18 28 34 33 34 11z"/>
<path d="M4070 1463 c0 -10 14 -42 30 -72 l30 -55 -33 -35 c-50 -53 -75 -94
-79 -126 -4 -42 28 -47 37 -6 6 26 79 122 124 161 40 35 112 130 106 140 -12
20 -30 10 -73 -40 -24 -28 -47 -50 -52 -50 -5 0 -20 21 -32 48 -24 48 -58 70
-58 35z"/>
<path d="M4307 1443 c-13 -21 -32 -44 -41 -52 -26 -22 -20 -58 12 -68 37 -13
71 -2 95 30 19 25 20 29 6 74 -19 61 -40 66 -72 16z m43 -45 c0 -18 -12 -33
-32 -41 -26 -9 -30 5 -6 30 24 26 38 30 38 11z"/>
<path d="M6206 1433 c-31 -33 -33 -59 -6 -73 16 -9 22 -8 26 4 3 8 3 19 0 24
-3 6 1 15 9 22 8 7 15 18 15 26 0 25 -19 24 -44 -3z"/>
<path d="M2617 1413 c-16 -15 -6 -34 15 -31 29 4 38 38 10 38 -10 0 -22 -3
-25 -7z"/>
<path d="M2215 1380 c-8 -14 3 -30 21 -30 8 0 14 9 14 20 0 21 -24 28 -35 10z"/>
<path d="M2947 1265 c-10 -9 -17 -26 -17 -39 0 -12 -15 -67 -33 -121 -33 -97
-35 -100 -66 -103 -27 -3 -32 -7 -29 -25 2 -15 10 -22 25 -21 21 0 21 -2 16
-68 -5 -58 -4 -68 10 -68 17 0 22 13 32 92 4 35 13 52 31 65 23 17 24 22 13
45 -9 22 -9 34 5 69 26 63 46 161 37 177 -7 12 -10 11 -24 -3z"/>
<path d="M2275 1225 c-15 -24 -50 -104 -80 -177 -56 -141 -70 -156 -123 -136
-33 11 -42 10 -42 -6 0 -22 27 -38 65 -38 38 0 37 2 18 -73 -11 -45 -47 -104
-65 -109 -27 -7 -17 -31 12 -31 34 0 75 65 97 156 18 69 21 75 53 85 19 6 36
16 38 22 4 13 -34 26 -48 17 -6 -4 -4 10 5 32 9 21 32 79 52 130 20 50 45 102
55 115 l18 23 20 -24 c24 -27 51 -22 43 9 -7 26 -40 50 -70 50 -16 0 -30 -13
-48 -45z"/>
<path d="M3067 1253 c-2 -5 -7 -21 -11 -38 -4 -16 -18 -57 -31 -90 -13 -33
-44 -112 -69 -177 -44 -111 -49 -148 -21 -148 6 0 31 26 53 58 60 86 69 91 68
39 -1 -57 25 -59 36 -2 4 22 11 55 14 72 10 48 -17 54 -67 14 l-39 -32 21 53
c39 96 87 243 82 250 -6 10 -31 10 -36 1z"/>
<path d="M4662 1063 c-16 -21 -36 -51 -45 -68 -21 -42 -71 -87 -110 -100 -24
-8 -33 -17 -35 -37 -3 -24 0 -28 22 -28 14 0 41 14 60 30 32 29 35 30 41 11
11 -35 43 -36 91 -2 24 17 43 27 43 23 -6 -37 20 -59 55 -46 22 8 20 25 -3 31
-18 4 -18 7 -1 71 10 37 16 70 13 75 -11 18 -34 4 -52 -31 -17 -33 -92 -112
-106 -112 -3 0 -5 13 -5 29 0 17 13 44 31 67 37 46 59 93 52 111 -8 21 -19 15
-51 -24z"/>
<path d="M4998 1051 c-71 -14 -89 -49 -59 -110 22 -43 19 -66 -10 -81 -23 -13
-42 -13 -34 0 3 6 3 15 0 20 -10 15 -45 -7 -45 -29 0 -30 26 -44 67 -36 75 14
99 65 63 136 -28 55 -22 60 90 63 33 1 39 31 8 40 -26 7 -29 6 -80 -3z"/>
<path d="M5213 1043 c-52 -9 -105 -114 -95 -186 7 -44 34 -52 109 -32 66 18
82 30 65 47 -7 7 -28 5 -65 -6 -68 -20 -64 -20 -70 4 -3 12 0 20 8 20 24 0
116 91 113 113 -4 25 -36 45 -65 40z m22 -51 c-6 -4 -25 -21 -43 -37 l-34 -30
22 38 c14 24 29 37 43 37 12 0 17 -3 12 -8z"/>
<path d="M2401 998 c-61 -104 -85 -138 -97 -138 -8 0 -14 -8 -14 -19 0 -16 9
-18 63 -19 41 -1 70 4 86 15 22 14 25 14 33 -1 19 -33 55 -10 37 25 -4 9 0 32
12 58 10 24 16 47 13 52 -11 19 -34 7 -50 -26 -18 -39 -67 -85 -90 -85 -21 0
-18 10 21 74 19 32 35 67 35 77 0 30 -28 22 -49 -13z"/>
<path d="M3505 1008 c-27 -21 -85 -129 -85 -158 0 -8 4 -21 8 -28 16 -24 38
-1 51 51 24 94 58 132 91 102 23 -21 40 -19 40 4 0 22 -35 51 -61 51 -9 0 -29
-10 -44 -22z"/>
<path d="M3243 1005 c-30 -21 -63 -78 -63 -108 0 -16 10 -34 28 -47 22 -18 37
-21 80 -18 58 5 87 23 63 38 -8 4 -29 6 -47 3 -38 -6 -84 3 -84 17 0 6 11 10
24 10 35 0 76 37 76 69 0 48 -36 65 -77 36z m27 -50 c-7 -8 -17 -15 -23 -15
-5 0 -2 9 8 20 21 23 35 19 15 -5z"/>
<path d="M2637 989 c-19 -11 -50 -69 -61 -111 -4 -18 -1 -32 11 -43 16 -16 17
-16 30 1 7 10 13 32 13 49 0 29 29 85 30 58 0 -17 27 -16 33 1 6 14 -18 56
-31 56 -4 0 -15 -5 -25 -11z"/>
<path d="M5402 813 c4 -22 43 -25 43 -3 0 8 -11 16 -23 18 -19 3 -23 0 -20
-15z"/>
</g>
</svg>
