<?xml version="1.0" standalone="no"?>
<!DOCTYPE svg PUBLIC "-//W3C//DTD SVG 20010904//EN"
 "http://www.w3.org/TR/2001/REC-SVG-20010904/DTD/svg10.dtd">
<svg version="1.0" xmlns="http://www.w3.org/2000/svg"
 width="1872.000000pt" height="680.000000pt" viewBox="0 0 1872.000000 680.000000"
 preserveAspectRatio="xMidYMid meet">

<g transform="translate(0.000000,680.000000) scale(0.100000,-0.100000)"
fill="#000000" stroke="none">
<path d="M10325 6290 c8 -13 45 -13 65 0 11 7 3 10 -28 10 -26 0 -41 -4 -37
-10z"/>
<path d="M3044 6115 c-5 -11 -21 -15 -59 -15 -30 0 -87 -7 -127 -16 -40 -9
-161 -24 -268 -33 -176 -14 -195 -18 -198 -35 -4 -18 1 -19 109 -12 63 4 138
10 167 13 l52 6 0 -30 c0 -16 -13 -87 -30 -159 -33 -143 -38 -225 -15 -244 23
-19 32 -4 27 48 -3 32 5 89 23 168 15 65 30 140 34 166 4 26 9 50 12 52 9 9
174 36 221 36 49 0 50 0 44 -27 -3 -16 -20 -91 -37 -168 -38 -171 -43 -200
-35 -221 6 -15 10 -14 32 7 14 13 34 38 45 56 36 58 63 39 47 -32 -11 -49 -3
-87 18 -83 11 2 17 17 20 48 9 95 7 114 -16 132 -29 23 -33 23 -68 -7 l-29
-24 24 107 c49 222 55 282 28 282 -9 0 -18 -7 -21 -15z"/>
<path d="M5974 6106 c-63 -28 -154 -165 -169 -257 -5 -32 -12 -40 -33 -45 -44
-11 -82 -34 -82 -49 0 -19 18 -19 63 0 20 8 39 15 43 15 4 0 5 -42 2 -93 -5
-99 -15 -125 -73 -201 -38 -51 -44 -76 -17 -76 25 1 102 119 118 182 8 29 14
85 14 125 l0 73 34 0 c19 0 45 -4 59 -9 14 -5 30 -6 38 0 26 15 -13 40 -75 46
l-57 6 7 31 c11 54 65 144 111 187 40 37 49 41 82 35 20 -3 42 -14 50 -26 16
-24 41 -27 41 -4 0 28 -19 52 -51 63 -41 14 -67 13 -105 -3z"/>
<path d="M14154 6102 c-6 -4 -23 -46 -38 -94 -33 -110 -96 -245 -130 -281 -29
-31 -34 -68 -11 -87 27 -22 103 -31 139 -16 69 29 112 114 82 161 -19 29 -45
31 -87 9 -17 -8 -32 -14 -34 -12 -2 2 10 32 27 68 41 91 84 238 72 250 -5 5
-14 6 -20 2z m16 -348 c0 -29 -40 -82 -69 -92 -16 -6 -43 -7 -61 -3 l-33 6 64
53 c65 53 99 65 99 36z"/>
<path d="M7089 6098 c0 -2 -2 -14 -5 -27 -2 -14 -20 -74 -39 -134 -19 -61 -35
-116 -35 -122 0 -7 -19 -16 -42 -21 -30 -6 -44 -15 -46 -28 -4 -17 0 -18 33
-13 36 6 37 5 31 -21 -12 -54 -19 -131 -12 -147 11 -29 36 2 36 44 0 20 6 59
13 86 l13 50 48 3 c38 3 47 6 44 20 -2 12 -15 18 -41 20 -20 2 -37 5 -37 7 0
2 18 60 40 129 39 123 42 156 14 156 -8 0 -14 -1 -15 -2z"/>
<path d="M4155 6080 c-3 -5 -3 -15 0 -20 4 -6 -1 -54 -10 -108 -26 -161 -24
-153 -47 -141 -51 27 -118 -40 -118 -117 0 -49 14 -64 69 -71 37 -5 41 -3 60
28 12 19 26 50 31 69 20 67 63 337 57 354 -7 18 -32 22 -42 6z m-62 -318 c15
-16 14 -21 -3 -60 -16 -35 -24 -43 -42 -40 -32 4 -36 55 -8 91 25 32 32 33 53
9z"/>
<path d="M4627 6083 c-3 -5 -5 -26 -4 -48 0 -22 -16 -97 -36 -166 -20 -69 -39
-143 -42 -165 -8 -46 8 -94 30 -94 13 0 15 8 10 43 -5 32 3 74 34 182 47 168
55 207 46 234 -6 20 -29 29 -38 14z"/>
<path d="M8952 6067 c-5 -7 -9 -28 -9 -48 -1 -19 -18 -79 -39 -132 l-38 -97
-43 0 c-36 0 -43 -3 -43 -20 0 -16 7 -20 31 -20 26 0 30 -3 24 -17 -4 -10 -10
-42 -13 -70 -4 -49 -3 -53 17 -53 17 0 21 6 21 35 0 19 7 52 16 74 14 36 19
39 75 51 46 10 59 17 57 29 -4 17 -25 19 -69 8 l-26 -7 34 90 c41 111 52 174
30 183 -9 3 -20 0 -25 -6z"/>
<path d="M15369 6060 c-9 -5 -22 -24 -29 -42 -7 -18 -29 -57 -48 -85 -35 -52
-45 -58 -99 -54 -11 1 -24 -2 -27 -7 -8 -14 19 -34 48 -36 19 -1 22 -4 15 -18
-5 -9 -9 -37 -9 -61 0 -38 5 -49 31 -71 17 -14 40 -26 52 -27 45 -2 72 3 87
17 22 21 1 36 -36 25 -21 -6 -41 -4 -62 5 -27 11 -32 18 -32 48 0 61 18 86 60
86 21 0 58 3 84 6 40 6 46 10 46 30 0 31 -15 38 -42 20 -22 -16 -98 -23 -98
-9 0 3 6 14 14 22 7 9 32 43 54 75 31 45 39 63 30 73 -12 15 -17 16 -39 3z"/>
<path d="M11581 6027 c-34 -12 -61 -41 -49 -52 3 -4 27 1 52 9 80 27 210 13
188 -20 -4 -5 -38 -36 -75 -68 -65 -54 -71 -57 -115 -54 -41 3 -47 6 -44 23 7
46 6 58 -5 62 -6 2 -19 -10 -28 -26 -18 -36 -30 -39 -38 -10 -4 13 -12 20 -24
17 -29 -5 -28 -40 1 -63 l26 -21 -34 -75 c-39 -85 -60 -155 -52 -175 11 -29
32 -12 43 35 6 27 27 83 46 124 l35 75 59 -5 c72 -7 93 3 186 87 83 76 88 101
25 130 -49 22 -144 26 -197 7z"/>
<path d="M14451 5917 c-14 -14 -14 -54 0 -62 12 -8 38 23 39 46 0 21 -24 31
-39 16z"/>
<path d="M7274 5909 c-3 -6 3 -20 14 -31 11 -11 25 -17 31 -14 15 10 14 22 -5
40 -18 19 -30 20 -40 5z"/>
<path d="M8397 5870 c-19 -16 -40 -43 -47 -59 -6 -16 -20 -31 -31 -34 -12 -3
-19 -14 -19 -29 -1 -12 -7 -34 -14 -47 -8 -14 -12 -31 -9 -38 9 -23 40 4 74
64 48 87 73 123 85 123 6 0 17 -15 25 -32 16 -37 33 -40 37 -6 3 28 -32 88
-53 88 -8 0 -30 -13 -48 -30z"/>
<path d="M12614 5876 c-7 -19 3 -36 22 -36 10 0 14 8 12 22 -4 26 -26 36 -34
14z"/>
<path d="M4309 5843 c-37 -32 -68 -95 -69 -140 0 -65 76 -99 155 -68 49 18 62
32 47 47 -6 6 -26 4 -58 -7 -38 -13 -55 -15 -76 -6 -43 16 -36 44 15 59 52 16
97 58 97 89 0 18 -9 28 -35 39 -43 18 -38 19 -76 -13z m68 -37 c-4 -13 -69
-48 -76 -41 -9 10 52 63 66 58 7 -3 12 -11 10 -17z"/>
<path d="M8558 5819 c-31 -17 -70 -95 -66 -131 6 -60 97 -97 172 -68 14 5 26
16 26 25 0 13 -9 14 -55 9 -42 -5 -60 -3 -80 10 -38 25 -33 52 11 59 64 11 93
56 58 91 -18 18 -41 20 -66 5z m42 -38 c0 -5 -7 -12 -16 -15 -24 -9 -28 -7
-14 9 14 17 30 20 30 6z"/>
<path d="M12732 5800 c-23 -16 -42 -36 -42 -42 0 -7 15 -27 32 -45 26 -27 30
-37 22 -51 -16 -25 -41 -26 -47 -1 -7 26 -31 20 -35 -10 -8 -50 53 -68 102
-30 35 28 36 77 0 110 l-25 24 21 17 c12 10 38 18 57 18 27 0 34 4 31 18 -6
31 -67 27 -116 -8z"/>
<path d="M9122 5744 c-72 -67 -92 -80 -124 -83 -5 -1 -8 -7 -8 -15 0 -22 28
-27 67 -11 25 11 40 12 47 5 15 -15 42 -12 88 10 50 24 49 24 42 6 -5 -13 20
-46 35 -46 5 0 14 7 21 15 10 12 9 16 -3 21 -15 5 -14 11 3 57 11 29 20 55 20
60 0 14 -27 7 -45 -13 -25 -28 -114 -84 -122 -76 -8 8 46 85 69 97 21 11 25
49 5 49 -8 0 -50 -34 -95 -76z"/>
<path d="M13028 5791 c-25 -16 -49 -39 -53 -51 -18 -58 65 -109 152 -94 32 6
48 14 48 24 0 11 -11 14 -45 12 -25 -1 -56 1 -70 4 -25 6 -25 6 9 22 46 23 58
44 45 79 -13 38 -31 39 -86 4z m38 -37 c-30 -21 -42 -17 -15 5 13 11 26 17 29
14 3 -2 -4 -11 -14 -19z"/>
<path d="M3264 5777 c-31 -28 -37 -42 -41 -84 -5 -46 -3 -52 23 -72 24 -19 37
-22 80 -18 61 6 114 31 114 53 0 17 -6 17 -86 -7 -44 -13 -98 -5 -91 14 2 7
21 18 42 25 51 17 65 29 65 58 0 27 -32 64 -55 64 -8 0 -32 -15 -51 -33z m66
-28 c0 -10 -50 -32 -57 -25 -2 2 6 13 18 25 21 20 39 20 39 0z"/>
<path d="M9965 5791 c-73 -33 -79 -66 -20 -105 30 -20 32 -37 6 -60 -18 -16
-20 -16 -35 6 -9 12 -16 28 -16 35 0 18 -27 16 -34 -2 -11 -30 32 -95 64 -95
25 0 80 62 80 90 0 16 -12 35 -32 51 l-32 27 34 17 c20 10 44 15 61 11 31 -6
42 4 33 28 -8 22 -59 20 -109 -3z"/>
<path d="M10592 5781 c-51 -37 -75 -72 -66 -96 6 -15 16 -17 74 -12 58 5 69 3
83 -14 9 -10 23 -19 31 -19 23 0 31 22 13 35 -13 9 -15 21 -11 44 4 19 2 31
-4 31 -6 0 -17 12 -24 28 -18 37 -46 38 -96 3z m61 -39 c-9 -23 -23 -32 -53
-32 -25 1 -25 1 8 31 34 31 56 31 45 1z"/>
<path d="M13765 5796 c-17 -7 -45 -30 -63 -50 -33 -38 -41 -73 -20 -94 17 -17
103 -15 138 3 96 50 43 184 -55 141z m51 -46 c22 0 16 -37 -8 -54 -24 -17 -98
-22 -98 -7 0 17 64 71 78 66 7 -3 20 -5 28 -5z"/>
<path d="M6079 5758 c-52 -68 -92 -109 -116 -119 -27 -10 -31 -39 -5 -39 9 0
29 6 43 14 24 12 28 12 43 -5 22 -26 69 -24 103 5 28 24 29 24 29 4 -1 -27 31
-49 43 -29 5 8 7 20 4 26 -2 7 3 38 12 69 28 96 6 114 -44 36 -34 -52 -78 -90
-106 -90 -14 0 -9 14 24 76 23 42 39 80 35 85 -11 19 -33 8 -65 -33z"/>
<path d="M7651 5786 c-13 -7 -32 -11 -41 -9 -11 3 -22 -8 -35 -36 -10 -23 -24
-46 -32 -52 -7 -6 -13 -20 -13 -30 0 -28 34 -23 50 7 12 22 62 67 96 87 8 5
11 -11 10 -51 -1 -44 2 -57 14 -57 11 0 17 17 23 64 4 36 6 70 3 78 -7 17 -44
16 -75 -1z"/>
<path d="M9470 5785 c-14 -7 -32 -16 -41 -19 -19 -5 -63 -130 -55 -153 9 -22
23 -8 72 69 42 66 46 69 74 63 37 -8 42 16 8 39 -27 19 -27 19 -58 1z"/>
<path d="M14854 5766 c-125 -85 -94 -176 55 -162 87 8 141 24 141 41 0 18 -20
24 -46 15 -34 -13 -132 -23 -159 -16 -38 10 -29 43 23 83 51 38 68 41 75 12 7
-27 31 -20 35 10 9 58 -50 67 -124 17z"/>
<path d="M5029 5748 c-17 -24 -38 -56 -47 -73 l-16 -30 -9 35 c-15 59 -27 82
-40 77 -15 -5 -11 -62 8 -116 l13 -39 -67 -103 c-103 -159 -120 -192 -127
-240 -5 -34 -2 -48 9 -58 23 -18 37 -5 31 28 -10 46 2 66 247 446 33 50 59 96
59 103 0 26 -31 10 -61 -30z"/>
<path d="M12162 5777 c-5 -6 -18 -32 -29 -57 -11 -25 -27 -51 -36 -59 -10 -7
-17 -19 -17 -27 0 -34 27 -21 90 41 l69 68 -11 -42 c-15 -59 2 -68 56 -30 38
29 41 29 48 10 12 -35 78 -57 78 -26 0 8 -9 19 -20 25 -15 8 -19 19 -17 42 3
42 -18 46 -67 13 -35 -23 -37 -24 -31 -5 8 26 -3 60 -19 60 -7 0 -25 -9 -40
-21 -21 -16 -26 -17 -26 -5 0 21 -16 28 -28 13z"/>
<path d="M14585 5778 c-62 -34 -100 -96 -83 -134 15 -33 60 -48 126 -41 60 6
85 25 80 61 -4 26 -26 32 -35 9 -10 -27 -23 -33 -78 -32 -46 1 -47 2 -17 9 51
12 101 60 102 97 0 37 -53 55 -95 31z m55 -37 c0 -13 -49 -47 -77 -53 -20 -5
-21 -4 -13 13 17 31 90 63 90 40z"/>
<path d="M4743 5768 c-27 -13 -68 -89 -60 -111 8 -22 65 -22 95 -1 21 14 23
14 31 -8 12 -32 39 -54 51 -42 6 6 3 24 -10 49 -11 22 -20 50 -20 62 0 25 -32
63 -52 62 -7 0 -23 -5 -35 -11z m28 -69 c-42 -34 -58 -16 -20 22 16 16 24 18
33 9 8 -9 5 -16 -13 -31z"/>
<path d="M6392 5760 c-18 -11 -39 -20 -48 -20 -17 0 -69 -104 -59 -120 11 -18
23 -11 59 40 19 27 50 57 67 66 l32 16 -7 -29 c-19 -87 -19 -93 1 -93 14 0 22
11 31 45 28 105 0 141 -76 95z"/>
<path d="M6635 5761 c-35 -21 -65 -62 -65 -89 0 -10 10 -28 23 -40 19 -18 35
-22 95 -22 74 0 122 14 122 36 0 9 -22 11 -95 7 -85 -5 -95 -4 -101 12 -10 24
46 76 74 68 26 -6 36 12 16 31 -20 21 -32 20 -69 -3z"/>
<path d="M7382 5725 c-52 -56 -62 -81 -40 -103 40 -40 147 16 148 76 0 24 -35
82 -48 82 -4 0 -31 -25 -60 -55z m68 -24 c0 -23 -36 -51 -64 -51 -17 0 -15 5
14 35 39 40 50 43 50 16z"/>
<path d="M14389 5773 c-1 -5 0 -47 1 -96 2 -113 -18 -156 -121 -260 -94 -94
-113 -97 -117 -19 -3 44 -6 53 -20 50 -39 -7 -22 -130 20 -144 37 -12 69 7
148 88 109 111 130 156 130 273 0 57 -4 95 -12 103 -14 14 -28 16 -29 5z"/>
<path d="M9681 5759 c-58 -23 -161 -120 -161 -151 0 -31 23 -20 78 35 53 54
97 85 107 75 4 -3 -8 -27 -24 -54 -35 -54 -39 -79 -15 -88 20 -8 37 2 30 19
-2 7 9 34 25 59 31 50 37 84 17 104 -14 14 -24 14 -57 1z"/>
<path d="M11744 5741 c-44 -27 -89 -123 -68 -144 10 -9 46 12 39 23 -8 14 21
66 47 84 20 14 24 14 46 0 18 -12 27 -13 36 -4 8 9 4 17 -17 36 -34 29 -43 30
-83 5z"/>
<path d="M12515 5734 c-9 -15 -20 -44 -22 -65 -5 -35 -3 -39 16 -39 15 0 21 6
21 23 1 12 7 33 15 47 31 55 4 85 -30 34z"/>
<path d="M11931 5706 c-42 -43 -52 -99 -22 -116 23 -12 77 -5 99 13 13 10 7
72 -9 93 -5 6 -6 13 -3 17 3 3 -3 10 -14 16 -16 8 -25 4 -51 -23z m35 -72 c-6
-17 -36 -19 -36 -2 0 6 8 20 18 31 15 17 17 17 20 3 2 -10 1 -24 -2 -32z"/>
<path d="M7166 5682 c-26 -51 -21 -82 13 -82 25 0 32 10 21 30 -6 12 -5 23 5
36 8 11 15 29 15 42 0 38 -28 25 -54 -26z"/>
<path d="M8124 5543 c-12 -40 -38 -92 -76 -155 -35 -59 -44 -68 -69 -68 -22 0
-29 -5 -29 -20 0 -13 7 -20 19 -20 19 0 19 -1 0 -50 -25 -65 -24 -76 6 -105
19 -20 34 -25 73 -25 50 0 90 19 78 38 -4 6 -26 8 -59 5 -72 -7 -87 9 -63 70
26 69 35 76 106 84 52 6 65 12 68 27 4 17 -2 18 -57 14 l-61 -4 21 30 c39 60
79 146 79 171 0 29 -28 35 -36 8z"/>
<path d="M5452 5518 c-7 -7 -12 -24 -12 -40 0 -36 -79 -247 -102 -274 -24 -27
-23 -46 7 -74 32 -30 100 -24 150 15 31 23 36 32 33 63 -4 49 -41 64 -93 39
l-35 -16 31 82 c17 45 38 105 47 134 20 67 7 104 -26 71z m38 -311 c0 -23 -35
-47 -76 -54 -37 -6 -38 -5 -24 12 18 22 70 55 88 55 6 0 12 -6 12 -13z"/>
<path d="M7460 5509 c-7 -11 -9 -23 -7 -25 7 -7 -55 -157 -87 -215 -39 -68
-109 -141 -129 -133 -10 3 -17 12 -17 18 0 21 47 58 82 65 21 4 34 14 36 25 4
17 -1 18 -37 13 -102 -13 -163 -128 -85 -158 73 -27 162 78 252 298 23 56 39
109 36 117 -9 22 -31 20 -44 -5z"/>
<path d="M9492 5482 c-17 -21 -38 -54 -48 -74 -13 -28 -25 -39 -53 -45 -41
-10 -49 -36 -13 -41 16 -3 21 -8 18 -20 -30 -92 -23 -160 18 -181 33 -18 100
-10 104 12 3 14 -4 17 -42 17 -61 0 -69 17 -50 103 22 93 37 105 127 98 18 -2
27 2 27 13 0 23 -34 37 -71 29 -35 -7 -35 -4 6 52 34 47 36 52 21 64 -11 9
-20 4 -44 -27z"/>
<path d="M3622 5488 c-7 -7 -12 -21 -12 -32 0 -10 -16 -67 -36 -125 -50 -144
-55 -168 -38 -182 16 -13 33 -3 75 45 l25 29 0 -54 c-1 -45 2 -54 17 -54 15 0
19 11 22 72 5 89 -8 107 -55 73 -16 -12 -30 -26 -30 -32 0 -6 -2 -9 -5 -7 -2
3 8 44 25 91 36 106 44 152 33 172 -7 13 -12 13 -21 4z"/>
<path d="M2967 5448 c-3 -24 -29 -92 -58 -153 -28 -60 -57 -127 -65 -148 -28
-79 13 -89 86 -21 27 25 54 43 60 39 7 -4 8 -25 4 -57 -6 -45 -5 -50 12 -46
36 7 41 128 6 147 -21 12 -59 -3 -96 -37 -34 -31 -34 -32 35 118 56 122 69
191 38 198 -12 2 -18 -8 -22 -40z"/>
<path d="M12302 5455 c-72 -34 -174 -133 -202 -196 -26 -62 -20 -99 21 -133
44 -37 92 -48 204 -44 86 3 100 5 103 21 3 15 -7 17 -102 17 -120 0 -175 16
-197 56 -12 23 -10 31 15 80 32 62 90 117 164 157 41 22 55 25 76 17 14 -5 26
-13 25 -17 -3 -21 2 -33 15 -33 17 0 25 29 15 57 -7 19 -17 25 -69 39 -8 2
-39 -7 -68 -21z"/>
<path d="M13515 5436 c-68 -90 -122 -311 -75 -311 11 0 17 16 22 55 9 73 41
163 79 221 28 44 31 69 9 69 -5 0 -21 -15 -35 -34z"/>
<path d="M13982 5432 c-11 -9 -34 -37 -52 -62 -20 -29 -41 -47 -58 -50 -31 -6
-40 -46 -10 -44 13 1 15 -5 11 -31 -4 -24 0 -38 15 -53 20 -20 104 -38 122
-27 24 15 7 32 -42 41 -50 9 -53 11 -51 38 1 16 4 30 6 33 2 2 29 0 59 -5 61
-9 78 -7 78 14 0 14 -21 21 -74 26 -42 4 -42 21 -2 62 35 35 45 59 27 70 -5 3
-18 -2 -29 -12z"/>
<path d="M15854 5415 c-9 -21 3 -45 21 -45 20 0 20 46 0 54 -9 3 -18 -1 -21
-9z"/>
<path d="M2802 5353 c-15 -27 -62 -186 -62 -208 0 -10 -3 -16 -6 -12 -3 3 -6
23 -6 44 0 53 -5 57 -43 34 l-34 -20 9 25 c23 59 2 102 -43 90 -30 -7 -117
-83 -117 -102 0 -24 35 -15 66 17 16 17 37 35 48 41 17 9 18 7 12 -18 -4 -16
-21 -51 -37 -78 -17 -26 -28 -55 -25 -62 10 -25 51 -15 86 21 l34 35 10 -32
c6 -17 19 -36 28 -42 28 -17 45 9 72 113 13 51 29 97 36 101 14 9 9 62 -7 67
-6 2 -16 -4 -21 -14z"/>
<path d="M3210 5326 c0 -33 18 -43 35 -20 9 13 10 23 3 31 -17 21 -38 15 -38
-11z"/>
<path d="M8926 5327 c-59 -34 -64 -48 -31 -91 27 -35 27 -37 10 -56 -22 -25
-33 -25 -31 -2 1 11 -6 17 -19 17 -16 0 -21 -8 -23 -41 -4 -56 15 -61 75 -21
57 38 68 75 33 112 -26 27 -22 38 20 55 28 11 33 10 54 -9 24 -22 36 -19 36
10 0 21 -37 49 -65 49 -11 0 -38 -10 -59 -23z"/>
<path d="M15530 5327 c-130 -66 -138 -84 -58 -120 l53 -24 -30 -15 c-17 -8
-38 -13 -47 -11 -14 3 -18 -2 -18 -21 0 -32 18 -33 78 -6 68 31 68 69 2 101
l-33 16 39 27 c44 30 59 32 81 11 16 -16 33 -12 33 9 0 13 -37 56 -48 56 -4 0
-27 -11 -52 -23z"/>
<path d="M6510 5331 c0 -4 -17 -36 -37 -71 -27 -46 -57 -78 -105 -114 -40 -29
-68 -58 -68 -68 0 -27 16 -22 72 21 45 34 54 37 78 28 20 -8 34 -6 60 6 42 21
43 21 37 -3 -6 -22 15 -56 30 -47 5 4 10 20 11 36 1 27 16 63 44 103 10 14 10
20 0 30 -9 9 -17 7 -34 -9 -36 -32 -119 -85 -124 -80 -3 3 10 26 29 51 35 46
54 97 42 116 -7 12 -35 13 -35 1z"/>
<path d="M6792 5310 c-35 -25 -42 -36 -42 -64 0 -22 9 -45 26 -65 22 -26 23
-32 10 -37 -23 -9 -47 3 -40 20 8 20 -3 36 -21 30 -29 -12 -24 -64 9 -86 32
-21 106 6 106 38 0 9 -11 30 -25 48 -14 18 -25 40 -25 48 0 22 35 49 72 57 19
4 34 14 36 24 6 30 -58 22 -106 -13z"/>
<path d="M15184 5312 c-5 -4 -21 -23 -34 -42 -49 -72 -111 -138 -145 -154 -26
-13 -35 -23 -35 -41 0 -14 5 -25 11 -25 11 0 66 38 106 73 13 12 39 20 65 21
24 1 51 5 60 10 13 6 17 2 20 -25 4 -37 31 -60 49 -42 9 9 9 16 -1 28 -12 14
-11 33 6 99 5 21 3 26 -13 26 -11 0 -28 -9 -37 -19 -20 -22 -74 -46 -83 -37
-4 3 8 26 25 50 32 44 40 70 24 80 -4 2 -12 2 -18 -2z"/>
<path d="M5670 5286 c-19 -13 -47 -38 -62 -54 -24 -26 -26 -33 -18 -64 6 -20
19 -39 32 -45 42 -19 178 21 178 53 0 18 -6 17 -105 -10 -27 -7 -53 -12 -57
-9 -19 11 -3 30 43 52 61 28 84 65 54 87 -24 18 -24 18 -65 -10z"/>
<path d="M6978 5263 c-49 -43 -87 -100 -88 -131 0 -7 11 -24 25 -37 30 -31 82
-33 143 -5 38 17 42 22 42 55 0 29 -3 36 -17 33 -10 -2 -19 -13 -21 -25 -5
-37 -97 -58 -122 -28 -21 25 11 61 60 68 44 6 88 29 97 53 3 8 2 25 -1 39 -11
42 -56 34 -118 -22z m82 -2 c0 -5 -7 -12 -16 -15 -24 -9 -28 -7 -14 9 14 17
30 20 30 6z"/>
<path d="M16240 5277 c-117 -71 -97 -143 29 -107 19 5 36 8 38 6 3 -2 0 -21
-6 -43 -10 -38 -11 -38 -55 -35 -24 2 -54 -1 -66 -8 -45 -24 -67 -141 -34
-188 11 -16 25 -22 54 -22 33 0 41 5 60 36 13 19 30 56 40 82 l18 47 83 5 c66
4 84 8 84 20 0 12 -16 16 -76 18 l-75 3 13 77 c7 42 15 84 18 92 2 8 0 22 -5
30 -9 13 -12 13 -24 -3 -14 -18 -14 -17 -21 2 -8 27 -10 27 -75 -12z m68 -44
c-10 -12 -71 -33 -93 -33 -5 1 3 11 18 24 30 24 94 32 75 9z m-34 -195 c-3
-13 -17 -45 -31 -71 -19 -39 -28 -48 -46 -45 -18 2 -23 10 -25 46 -5 63 17 92
69 92 37 0 40 -2 33 -22z"/>
<path d="M9110 5270 c-40 -43 -54 -82 -43 -127 10 -45 54 -72 103 -65 42 6 37
37 -6 38 -68 2 -71 28 -9 66 58 35 75 70 50 98 -26 29 -62 25 -95 -10z m65
-20 c-3 -5 -20 -19 -37 -32 -31 -21 -31 -11 0 25 16 18 48 24 37 7z"/>
<path d="M10225 5281 c-51 -31 -87 -76 -83 -102 2 -20 10 -25 40 -27 20 -2 46
2 58 8 17 9 20 8 20 -13 0 -28 17 -47 42 -47 19 0 25 25 8 35 -6 4 -9 38 -8
83 3 76 3 77 -22 80 -14 1 -38 -6 -55 -17z m19 -68 c-29 -23 -54 -30 -54 -15
1 4 17 20 38 35 45 34 60 15 16 -20z"/>
<path d="M10495 5276 c-21 -17 -34 -21 -42 -14 -18 15 -30 2 -36 -39 -3 -21
-9 -50 -12 -65 -6 -22 -4 -28 9 -28 8 0 23 12 33 28 25 40 85 102 100 102 18
0 16 -14 -8 -61 -11 -23 -18 -47 -15 -55 11 -28 32 -12 55 42 19 43 22 62 15
82 -13 37 -59 41 -99 8z"/>
<path d="M13212 5270 c-23 -16 -42 -36 -43 -43 -1 -6 -4 -1 -8 13 -10 37 -41
39 -42 3 0 -38 -31 -151 -52 -192 -13 -26 -14 -37 -6 -47 19 -23 27 -16 61 53
31 62 36 67 78 77 103 26 150 81 117 135 -22 37 -55 37 -105 1z m73 -36 c0
-13 -16 -27 -48 -43 -26 -13 -51 -21 -54 -18 -9 10 75 89 89 85 7 -3 13 -13
13 -24z"/>
<path d="M13605 5281 c-47 -28 -84 -77 -78 -101 8 -31 43 -50 88 -49 58 1 89
12 93 32 3 16 -3 17 -61 11 -77 -8 -102 10 -28 20 62 8 76 24 59 62 -12 27
-26 44 -38 44 -3 0 -19 -8 -35 -19z m30 -41 c-3 -5 -11 -10 -16 -10 -6 0 -7 5
-4 10 3 6 11 10 16 10 6 0 7 -4 4 -10z"/>
<path d="M15984 5280 c-63 -29 -117 -130 -70 -130 7 0 27 20 44 45 28 40 69
70 81 59 2 -2 -3 -20 -11 -41 -15 -39 -14 -73 3 -73 5 0 12 0 17 0 4 0 7 8 8
18 0 9 8 38 18 64 10 26 16 54 13 63 -9 21 -53 19 -103 -5z"/>
<path d="M8243 5258 c-17 -18 -36 -44 -43 -57 -11 -22 -10 -27 10 -43 26 -21
35 -22 81 -7 40 14 69 37 69 55 0 26 -45 83 -66 84 -11 0 -34 -15 -51 -32z
m72 -38 c7 -11 -63 -45 -73 -36 -3 3 3 15 13 26 19 21 50 26 60 10z"/>
<path d="M11746 5243 c-30 -27 -55 -53 -55 -59 -3 -36 63 -11 97 37 l16 23 7
-24 c3 -14 0 -41 -8 -59 -15 -38 -11 -61 10 -61 25 0 45 86 34 141 -13 63 -30
64 -101 2z"/>
<path d="M3295 5266 c-71 -32 -107 -114 -66 -155 36 -36 153 -26 138 12 -4 11
-17 13 -56 9 -41 -4 -52 -1 -57 12 -14 38 44 96 96 96 24 0 27 25 4 34 -21 8
-24 8 -59 -8z"/>
<path d="M11534 5270 c-28 -11 -74 -67 -74 -90 0 -31 28 -50 74 -50 69 0 105
55 75 113 -20 37 -36 43 -75 27z m41 -90 c-7 -11 -75 -14 -75 -3 0 4 9 17 21
29 21 22 21 22 40 3 11 -11 17 -24 14 -29z"/>
<path d="M12836 5251 c-69 -55 -98 -111 -58 -111 27 0 62 29 62 50 0 11 9 24
20 30 17 9 20 6 26 -25 7 -41 24 -44 68 -15 30 19 30 19 43 -1 8 -10 22 -19
32 -19 22 0 36 29 18 36 -9 3 -12 16 -9 34 7 45 -21 49 -69 10 -22 -17 -41
-30 -43 -29 -1 2 -6 17 -12 34 -13 40 -33 42 -78 6z"/>
<path d="M14244 5256 c-52 -24 -64 -39 -64 -82 0 -41 36 -55 136 -52 80 3 89
5 92 23 3 19 -3 20 -89 20 -65 0 -93 4 -96 13 -3 8 6 12 29 12 18 0 44 7 56
16 25 18 29 59 6 68 -19 7 -11 10 -70 -18z"/>
<path d="M15766 5239 c-27 -42 -31 -69 -10 -76 14 -5 53 55 56 87 5 38 -17 33
-46 -11z"/>
<path d="M4277 5259 c-24 -14 -47 -62 -47 -98 0 -58 76 -93 125 -58 23 18 6
30 -44 31 -30 1 -37 5 -39 24 -2 13 4 35 13 49 15 22 22 25 56 20 42 -5 53 2
43 27 -7 18 -78 22 -107 5z"/>
<path d="M12600 5244 c-41 -18 -50 -30 -50 -66 0 -53 87 -82 130 -43 26 23 26
65 -1 99 -23 30 -31 31 -79 10z m48 -60 c7 4 12 1 12 -7 0 -8 -8 -17 -19 -20
-23 -6 -51 9 -51 28 0 20 23 24 36 7 6 -8 16 -12 22 -8z"/>
<path d="M4936 5239 c-15 -4 -37 -16 -47 -25 -11 -10 -19 -12 -19 -6 0 31 -30
6 -59 -50 -45 -88 -27 -95 55 -19 74 67 111 80 99 34 -12 -46 -11 -57 7 -61
12 -2 20 7 28 38 19 69 -7 105 -64 89z"/>
<path d="M4520 5219 c-63 -39 -75 -69 -36 -94 21 -14 29 -14 64 -2 l41 14 3
-41 c2 -32 7 -42 23 -44 19 -3 21 3 22 55 1 32 3 69 5 83 2 17 -2 25 -12 25
-8 0 -21 6 -28 13 -19 17 -42 15 -82 -9z m60 -27 c0 -7 -17 -18 -62 -40 -5 -2
-8 1 -8 7 0 6 12 17 28 25 31 17 42 19 42 8z"/>
<path d="M3136 5218 c-3 -7 -12 -34 -21 -60 -17 -47 -14 -68 10 -68 16 0 50
102 42 125 -8 18 -26 20 -31 3z"/>
<path d="M16737 5039 c-8 -19 -24 -87 -37 -152 -17 -87 -26 -115 -34 -107 -34
28 -146 -44 -146 -94 0 -39 35 -69 73 -62 38 8 50 18 88 74 24 36 37 76 62
198 25 120 29 156 20 165 -10 10 -16 5 -26 -22z m-94 -305 c9 -10 -20 -61 -38
-68 -50 -19 -63 19 -19 53 27 21 46 26 57 15z"/>
<path d="M7565 5019 c-4 -5 -15 -41 -26 -80 -11 -39 -40 -116 -65 -170 -69
-151 -48 -192 51 -98 l55 52 -15 -38 c-9 -20 -14 -44 -11 -51 7 -19 36 -18 36
1 0 9 6 28 14 43 22 43 24 93 4 106 -15 9 -27 2 -73 -44 l-56 -55 40 86 c34
75 58 143 78 225 5 22 -21 41 -32 23z"/>
<path d="M4460 5008 c-1 -2 -3 -28 -6 -58 -2 -30 -12 -81 -21 -113 -13 -48
-20 -58 -42 -63 -54 -12 -61 -16 -61 -33 0 -26 10 -31 31 -18 27 17 32 4 15
-38 -20 -48 -21 -95 -2 -95 8 0 18 10 21 23 4 12 15 45 26 73 19 48 23 52 61
57 48 6 70 23 48 37 -8 5 -27 6 -42 3 -31 -6 -34 1 -18 42 15 39 31 151 24
169 -5 13 -33 24 -34 14z"/>
<path d="M4630 4985 c-5 -14 -13 -38 -16 -53 -4 -15 -29 -85 -56 -156 -42
-111 -47 -132 -35 -144 12 -12 22 -5 68 47 29 34 57 61 61 61 16 0 7 -42 -17
-78 -30 -44 -35 -105 -7 -100 9 2 19 14 21 28 1 14 12 37 23 52 29 41 35 94
13 118 -23 26 -43 25 -73 -2 -18 -17 -24 -19 -19 -7 49 137 87 248 87 253 0 3
-9 6 -20 6 -13 0 -24 -10 -30 -25z"/>
<path d="M7367 4958 c-8 -29 -22 -87 -31 -129 l-17 -76 -49 5 c-45 4 -50 3
-50 -16 0 -17 7 -21 43 -24 l42 -3 3 -45 c4 -52 15 -68 36 -51 10 8 12 24 9
51 l-6 39 42 7 c55 9 68 26 47 59 -17 26 -36 26 -36 0 0 -12 -29 -30 -36 -22
-5 4 43 214 52 228 6 10 -12 28 -28 29 -4 0 -13 -24 -21 -52z"/>
<path d="M9060 4997 c0 -8 -20 -80 -44 -159 -55 -176 -62 -220 -42 -237 19
-16 22 -8 36 72 13 75 22 84 93 93 l44 6 -5 -75 c-4 -66 -2 -77 17 -96 25 -25
39 -27 48 -5 4 10 0 20 -10 26 -12 6 -17 23 -17 57 0 54 40 201 70 261 24 47
25 56 5 64 -17 6 -52 -57 -80 -144 l-17 -55 -54 -1 c-30 0 -54 2 -54 6 0 4 9
33 20 64 27 80 30 129 8 134 -11 2 -18 -3 -18 -11z"/>
<path d="M11860 4998 c0 -7 -36 -85 -80 -173 -44 -88 -80 -170 -80 -183 0 -46
29 -37 96 29 64 63 83 64 47 1 -9 -16 -14 -36 -10 -45 8 -20 37 -23 37 -3 0 7
7 27 15 42 19 38 19 88 -1 108 -8 9 -17 16 -20 16 -2 0 -27 -24 -55 -52 -28
-29 -49 -48 -47 -42 1 6 31 67 65 135 68 134 79 171 51 177 -10 2 -18 -2 -18
-10z"/>
<path d="M2792 4993 c-17 -7 -68 -110 -83 -168 -8 -33 -19 -50 -36 -58 -29
-13 -26 -43 4 -40 20 2 22 -3 25 -55 2 -43 7 -57 18 -57 12 0 16 15 18 67 3
72 1 69 69 83 38 8 61 31 46 46 -7 7 -17 8 -29 1 -11 -5 -34 -12 -52 -15 -31
-6 -33 -5 -27 16 14 47 64 147 74 147 6 0 11 9 11 20 0 20 -12 24 -38 13z"/>
<path d="M2926 4978 c-14 -21 -43 -121 -83 -279 -16 -64 -14 -99 6 -99 5 0 25
15 45 33 38 37 46 32 46 -27 0 -40 33 -77 52 -58 9 9 9 15 0 24 -7 7 -12 23
-12 36 0 38 -22 104 -37 109 -8 3 -26 -5 -40 -18 -23 -22 -25 -22 -20 -4 4 11
20 72 38 135 17 63 36 121 41 127 12 14 4 43 -11 43 -6 0 -17 -10 -25 -22z"/>
<path d="M13472 4948 c-36 -53 -172 -318 -172 -336 0 -24 25 -11 77 40 54 54
69 49 32 -11 -20 -34 -22 -72 -4 -78 15 -5 65 107 65 145 0 37 -18 49 -50 32
-18 -10 -15 1 21 72 22 46 52 98 66 116 23 31 25 62 4 62 -6 0 -23 -19 -39
-42z"/>
<path d="M11663 4963 c-3 -10 -17 -52 -31 -93 -23 -64 -31 -76 -57 -85 -16 -5
-33 -14 -37 -19 -11 -16 4 -38 22 -33 16 4 16 0 -3 -58 -22 -69 -19 -95 14
-95 17 0 20 4 15 23 -5 23 25 119 46 144 5 6 16 9 24 6 18 -7 64 5 64 16 0 5
-9 19 -20 32 -20 24 -20 24 -35 5 -20 -27 -19 -19 11 70 14 42 23 83 20 90 -8
20 -27 17 -33 -3z"/>
<path d="M8136 4953 c-2 -10 -14 -58 -26 -108 -12 -49 -23 -97 -26 -105 -3
-12 -13 -15 -37 -12 -28 3 -38 -2 -70 -37 -21 -24 -37 -51 -37 -65 0 -31 43
-66 70 -59 32 9 85 78 103 135 27 87 64 243 59 256 -6 18 -30 14 -36 -5z m-83
-278 c7 -17 -50 -78 -64 -69 -15 9 -10 29 12 58 23 29 44 34 52 11z"/>
<path d="M16063 4953 c-35 -102 -70 -181 -103 -236 -58 -95 -40 -111 66 -57
32 16 59 30 60 30 0 0 0 -19 0 -42 -1 -36 2 -43 19 -46 18 -2 20 4 22 68 3 87
-8 94 -74 51 -25 -17 -49 -31 -53 -31 -3 0 11 34 31 75 43 89 73 180 64 195
-10 15 -25 12 -32 -7z"/>
<path d="M14594 4935 c-9 -21 5 -37 27 -30 11 4 31 0 44 -9 33 -21 33 -62 1
-125 -34 -66 -67 -103 -126 -141 -28 -18 -50 -36 -50 -41 0 -21 31 -19 68 5
118 74 201 232 162 307 -22 40 -114 66 -126 34z"/>
<path d="M15871 4932 c-4 -9 -14 -35 -21 -57 -27 -84 -47 -113 -82 -117 -38
-4 -46 -31 -10 -36 26 -4 27 -9 6 -61 -18 -45 -16 -76 5 -76 8 0 22 28 36 70
18 60 25 70 46 73 51 6 69 13 69 27 0 10 -11 15 -34 15 l-34 0 29 73 c15 39
28 77 29 83 0 20 -29 24 -39 6z"/>
<path d="M13237 4914 c-4 -4 -7 -18 -7 -31 0 -13 -9 -41 -20 -63 -16 -31 -27
-40 -55 -46 -25 -4 -35 -11 -35 -25 0 -11 7 -19 15 -19 19 0 19 2 -6 -54 -11
-26 -18 -54 -15 -62 7 -19 36 -18 36 1 0 9 12 38 26 66 l25 51 26 -17 c19 -13
28 -14 37 -5 8 9 5 17 -14 33 l-26 22 23 40 c15 25 22 53 21 74 -3 33 -17 49
-31 35z"/>
<path d="M5485 4878 c-53 -46 -93 -110 -107 -167 -10 -43 -9 -53 6 -76 22 -34
77 -57 124 -53 50 4 51 32 2 36 -50 4 -88 21 -95 43 -12 36 15 97 66 154 38
41 56 54 70 50 30 -10 43 4 23 26 -24 27 -48 24 -89 -13z"/>
<path d="M14274 4867 c-70 -48 -94 -88 -94 -154 0 -49 4 -59 34 -89 26 -26 43
-34 69 -34 45 0 67 9 67 26 0 10 -13 14 -45 14 -62 0 -85 24 -85 89 0 46 3 52
47 90 25 23 60 45 77 49 38 10 41 36 5 40 -16 2 -43 -9 -75 -31z"/>
<path d="M5806 4882 c-7 -11 10 -27 40 -36 41 -12 58 -43 58 -101 -1 -69 -18
-95 -99 -148 -62 -40 -76 -59 -55 -72 15 -9 148 81 169 115 43 71 33 183 -18
220 -34 24 -86 36 -95 22z"/>
<path d="M6675 4799 l-35 -31 0 27 c0 45 -31 27 -45 -26 -6 -26 -26 -65 -44
-88 -20 -25 -31 -48 -27 -57 5 -13 12 -11 44 14 20 17 63 58 96 91 32 34 62
61 68 61 14 0 -2 -70 -24 -107 -11 -18 -17 -37 -13 -43 9 -14 32 -12 38 3 3 8
29 33 58 58 l52 44 -6 -57 c-8 -66 -2 -88 23 -88 21 0 33 14 22 24 -4 4 -7 39
-7 78 0 90 -16 105 -68 65 -31 -23 -34 -24 -30 -7 3 11 2 31 -1 45 -9 37 -55
34 -101 -6z"/>
<path d="M10687 4805 c-9 -8 -21 -32 -27 -52 -21 -71 -29 -79 -82 -91 -60 -14
-135 -15 -143 -2 -3 5 12 18 34 29 43 23 58 50 42 79 -23 44 -65 35 -99 -20
-33 -54 -36 -80 -11 -112 22 -28 24 -28 100 -24 48 3 87 11 102 21 23 15 26
15 31 1 11 -30 28 -8 53 69 13 42 29 77 36 77 7 -1 30 -7 51 -15 22 -8 43 -12
48 -9 17 11 -14 44 -50 54 -50 14 -68 13 -85 -5z m-207 -60 c0 -2 -10 -10 -22
-16 -21 -11 -22 -11 -9 4 13 16 31 23 31 12z"/>
<path d="M12079 4791 c-33 -20 -51 -41 -63 -70 -19 -49 -11 -73 34 -96 54 -28
181 -8 188 29 4 17 0 18 -34 12 -102 -19 -113 -19 -141 -1 l-27 18 48 12 c60
15 66 22 69 76 3 55 -13 59 -74 20z m35 -35 c-3 -8 -15 -16 -27 -19 -21 -6
-21 -6 2 14 28 23 32 24 25 5z"/>
<path d="M10303 4793 c-25 -75 -73 -146 -73 -108 0 21 -40 95 -52 95 -18 0
-20 -33 -4 -60 9 -16 16 -47 16 -69 0 -30 5 -43 17 -48 33 -13 132 125 133
185 0 26 -28 30 -37 5z"/>
<path d="M9590 4783 c-29 -20 -69 -64 -70 -76 0 -4 7 -10 16 -14 11 -4 23 3
36 21 11 14 29 31 40 37 19 10 20 9 14 -17 -4 -16 -18 -40 -32 -55 -46 -48
-24 -80 42 -59 26 9 39 9 47 1 6 -6 20 -11 30 -11 26 0 87 63 87 90 0 13 8 29
18 36 16 12 16 14 -5 35 -32 33 -53 19 -53 -35 0 -34 -6 -50 -22 -66 l-22 -21
-8 21 c-8 21 -33 27 -43 10 -15 -24 -22 -7 -9 20 9 16 14 44 12 62 -2 27 -8
34 -28 36 -14 1 -36 -5 -50 -15z"/>
<path d="M9941 4773 c-32 -25 -61 -76 -61 -108 0 -34 37 -55 101 -55 52 0 60
2 57 18 -2 13 -16 18 -58 22 l-55 5 48 25 c26 13 48 31 48 39 4 46 -12 81 -35
81 -6 0 -26 -12 -45 -27z m47 -38 c-2 -1 -14 -8 -28 -15 -25 -13 -25 -13 -6 8
10 12 23 19 28 16 5 -3 8 -7 6 -9z"/>
<path d="M13601 4734 c-56 -62 -63 -90 -28 -121 40 -37 172 -39 172 -2 0 10
-13 14 -45 15 -78 1 -100 4 -100 13 0 5 17 11 38 15 43 6 92 46 92 73 0 30
-29 63 -55 63 -15 0 -40 -18 -74 -56z m84 -4 c0 -17 -51 -48 -61 -37 -10 9 37
58 50 54 6 -2 11 -10 11 -17z"/>
<path d="M4835 4758 c-19 -11 -62 -58 -78 -85 -5 -7 -3 -29 3 -47 17 -53 77
-70 145 -42 44 19 49 52 8 42 -67 -15 -101 -18 -107 -8 -4 6 8 18 26 28 18 9
41 23 51 32 23 21 22 69 -2 82 -24 12 -21 12 -46 -2z m20 -48 c-3 -5 -16 -15
-28 -21 -22 -12 -22 -12 -3 10 19 21 43 30 31 11z"/>
<path d="M5110 4755 c-9 -10 -16 -12 -25 -5 -18 15 -41 -9 -63 -67 -31 -83
-12 -89 53 -18 58 65 68 62 33 -10 -20 -42 -21 -47 -6 -61 17 -17 42 -10 35 9
-2 7 4 29 15 50 25 51 21 111 -8 115 -11 2 -27 -4 -34 -13z"/>
<path d="M7032 4745 c-47 -60 -52 -123 -11 -145 22 -12 122 -16 139 -5 5 3 10
13 10 20 0 11 -15 14 -61 14 -77 -1 -93 12 -43 38 50 26 61 44 46 77 -15 34
-54 35 -80 1z m48 -19 c0 -2 -8 -10 -17 -17 -16 -13 -17 -12 -4 4 13 16 21 21
21 13z"/>
<path d="M13941 4761 c-8 -5 -19 -7 -25 -5 -6 2 -16 0 -22 -4 -13 -8 -54 -86
-54 -102 0 -19 38 -10 53 14 9 13 30 34 46 45 l29 21 -9 -35 c-13 -45 -4 -75
23 -75 16 0 19 5 15 20 -3 12 -1 34 3 51 17 57 -17 97 -59 70z"/>
<path d="M16274 4734 c-56 -58 -39 -113 30 -100 52 10 86 41 86 80 0 67 -62
78 -116 20z m74 -21 c-4 -20 -53 -51 -64 -40 -10 9 35 57 53 57 8 0 13 -8 11
-17z"/>
<path d="M3143 4748 c-5 -7 -22 -34 -37 -60 l-27 -48 22 -30 c28 -37 72 -52
119 -40 71 18 80 23 80 41 0 23 4 22 -65 4 -82 -21 -94 -11 -45 36 45 44 50
71 18 93 -27 19 -52 20 -65 4z m41 -37 c3 -4 -6 -19 -21 -32 l-26 -24 17 33
c17 34 22 37 30 23z"/>
<path d="M9322 4709 c-53 -80 -52 -139 1 -139 32 0 84 38 98 72 11 27 10 35
-7 66 -10 19 -28 39 -40 43 -17 6 -26 -1 -52 -42z m62 -25 c7 -20 -9 -50 -34
-64 -37 -20 -41 -4 -9 46 23 37 34 42 43 18z"/>
<path d="M15475 4742 c-42 -26 -95 -89 -95 -112 0 -12 14 -29 33 -40 44 -27
180 -25 185 3 3 15 -5 17 -68 17 -72 0 -116 13 -105 31 4 5 11 7 16 4 5 -4 15
-3 22 2 6 4 27 13 46 18 40 12 62 55 41 80 -16 20 -39 19 -75 -3z m45 -26 c0
-2 -7 -7 -16 -10 -8 -3 -12 -2 -9 4 6 10 25 14 25 6z"/>
<path d="M15054 4658 c-28 -41 -48 -80 -46 -86 6 -18 30 -14 41 7 6 10 29 34
53 52 l41 33 -6 -31 c-3 -18 -2 -35 4 -38 5 -4 32 7 59 24 28 17 51 31 53 31
1 0 2 -19 2 -42 0 -33 4 -43 18 -46 13 -3 17 3 17 26 0 16 7 49 15 72 8 23 15
46 15 51 0 18 -38 8 -81 -21 -53 -36 -57 -36 -61 -7 -2 16 -9 22 -28 21 -14
-1 -30 6 -36 14 -8 12 -20 0 -60 -60z"/>
<path d="M7724 4700 c-63 -41 -66 -111 -7 -123 52 -10 153 52 153 94 0 44 -94
62 -146 29z m100 -29 c7 -11 -12 -27 -55 -45 -47 -20 -67 -7 -41 25 17 21 22
22 37 9 15 -12 18 -12 26 3 11 19 25 22 33 8z"/>
<path d="M4081 4675 c-42 -36 -42 -60 2 -51 34 7 59 32 55 55 -5 24 -24 23
-57 -4z"/>
<path d="M12844 4635 c-16 -25 -13 -55 5 -55 12 0 51 53 51 69 0 21 -40 11
-56 -14z"/>
<path d="M10814 4603 c-3 -16 -27 -47 -53 -70 -36 -32 -43 -44 -34 -54 9 -9
23 -4 61 26 58 44 77 77 62 106 -15 27 -29 24 -36 -8z"/>
<path d="M8222 4577 c-14 -16 -6 -27 20 -27 13 0 18 6 16 17 -4 22 -22 27 -36
10z"/>
<path d="M5980 4448 c-59 -194 -54 -183 -86 -188 -38 -7 -47 -40 -10 -40 23 0
25 -2 16 -26 -15 -37 -12 -91 4 -97 21 -8 35 12 30 47 -3 17 1 42 8 56 11 21
23 26 68 30 40 4 55 9 55 20 0 11 -13 16 -47 18 -27 2 -48 4 -48 5 0 1 18 60
39 132 22 71 37 133 35 137 -3 5 -12 8 -19 8 -10 0 -25 -36 -45 -102z"/>
<path d="M13533 4508 c-5 -7 -15 -33 -22 -58 -7 -25 -37 -99 -68 -164 -55
-119 -77 -196 -54 -196 21 0 62 33 87 69 l24 36 0 -29 c0 -15 -7 -40 -16 -56
-17 -28 -14 -60 6 -60 15 0 50 79 50 115 0 30 -23 75 -39 75 -4 0 -17 -9 -29
-20 -12 -12 -22 -19 -22 -16 0 3 20 46 44 96 49 101 76 194 59 211 -7 7 -13 6
-20 -3z"/>
<path d="M8585 4491 c-32 -13 -50 -40 -38 -52 8 -8 5 -24 -10 -54 -18 -36 -26
-42 -44 -38 -30 7 -40 -20 -20 -50 13 -20 12 -30 -10 -102 -27 -92 -27 -138 1
-143 26 -5 42 13 27 32 -10 12 -8 31 9 95 l22 81 52 0 c89 0 206 74 206 130 0
32 -20 66 -51 84 -34 20 -115 30 -144 17z m133 -57 c12 -8 22 -24 22 -35 0
-43 -104 -104 -168 -97 l-31 3 26 53 c20 42 22 56 13 67 -29 35 87 42 138 9z"/>
<path d="M11146 4403 c-22 -68 -61 -150 -86 -178 -10 -11 -21 -38 -24 -60 -9
-50 13 -74 71 -82 73 -9 152 72 139 143 -10 50 -43 64 -89 36 l-35 -20 28 61
c47 104 56 157 26 157 -7 0 -20 -26 -30 -57z m60 -178 c19 -48 -60 -120 -108
-98 -22 10 -21 11 30 61 57 55 69 61 78 37z"/>
<path d="M4314 4418 c-3 -18 -21 -67 -40 -108 -58 -133 -68 -220 -26 -220 15
0 18 8 18 48 -1 34 12 78 47 163 26 65 45 124 41 133 -10 27 -32 18 -40 -16z"/>
<path d="M12300 4428 c-1 -13 -11 -48 -24 -78 -21 -51 -25 -55 -55 -55 -37 0
-58 -22 -47 -50 6 -17 7 -17 25 -1 26 24 33 7 16 -40 -31 -87 -9 -124 75 -124
84 0 168 36 143 61 -9 9 -21 8 -53 -5 -52 -21 -129 -21 -136 -1 -3 8 2 37 11
64 16 48 18 50 58 53 49 4 60 31 15 36 -33 4 -34 7 -8 63 26 59 26 99 0 99
-14 0 -20 -7 -20 -22z"/>
<path d="M14244 4426 c-10 -8 -15 -20 -11 -30 8 -19 3 -31 -81 -209 -75 -160
-73 -177 14 -121 78 50 80 50 94 10 14 -44 47 -71 67 -54 11 9 10 15 -5 32
-21 23 -44 84 -37 96 12 20 -30 17 -63 -3 -20 -13 -43 -27 -50 -31 -7 -4 5 27
26 71 36 72 92 213 92 233 0 15 -28 19 -46 6z"/>
<path d="M16177 4434 c-4 -4 -7 -19 -7 -33 0 -33 -60 -160 -106 -224 -57 -79
-33 -95 64 -42 39 22 42 22 42 5 0 -10 -10 -20 -22 -24 -23 -6 -23 -6 6 -32
l29 -26 15 28 c17 32 11 112 -9 125 -9 5 -21 1 -34 -10 -40 -36 -39 -28 4 60
30 59 45 102 45 130 1 39 -11 58 -27 43z"/>
<path d="M3231 4387 c-21 -52 -55 -158 -75 -229 -19 -72 -19 -79 -4 -94 21
-21 40 -9 32 20 -3 14 13 76 40 158 25 75 46 140 46 146 0 22 -31 21 -39 -1z"/>
<path d="M3357 4403 c-3 -4 -10 -34 -16 -66 -6 -31 -15 -66 -21 -76 -5 -11
-17 -45 -25 -76 -15 -60 -8 -95 20 -95 19 0 29 18 17 33 -7 9 -2 38 17 97 37
113 45 164 27 179 -8 7 -16 8 -19 4z"/>
<path d="M9647 4383 c-21 -21 7 -49 33 -33 11 7 11 11 1 24 -15 17 -24 20 -34
9z"/>
<path d="M11461 4374 c-25 -18 -30 -74 -6 -74 8 0 15 5 15 10 0 6 9 10 20 10
15 0 20 7 20 29 0 35 -20 45 -49 25z"/>
<path d="M3105 4358 c-11 -34 -9 -52 7 -56 19 -4 32 27 22 52 -7 19 -23 21
-29 4z"/>
<path d="M5436 4310 c-20 -23 -40 -38 -45 -35 -15 9 -33 -24 -48 -88 -20 -86
-20 -101 -3 -104 10 -2 27 23 53 80 20 45 48 95 61 112 l23 29 17 -32 c31 -60
56 -33 30 33 -21 57 -40 58 -88 5z"/>
<path d="M2638 4280 c-56 -29 -76 -44 -72 -55 8 -21 16 -20 95 21 39 19 73 34
75 31 2 -2 -16 -45 -41 -96 -25 -51 -43 -97 -39 -102 8 -14 42 -11 70 8 25 16
26 15 51 -11 14 -16 31 -25 40 -22 8 3 16 6 19 6 6 0 44 78 44 91 0 6 7 26 16
44 12 26 13 38 4 54 -22 43 -49 17 -50 -49 0 -14 -9 -43 -19 -65 l-18 -40 -13
28 c-14 29 -46 36 -69 15 -16 -15 -15 -13 23 76 48 111 12 132 -116 66z"/>
<path d="M16797 4288 c-17 -19 -52 -60 -75 -92 -45 -60 -58 -62 -64 -11 -2 20
-9 31 -22 33 -17 4 -18 -1 -13 -49 9 -71 25 -87 65 -63 31 18 162 174 162 193
0 25 -23 20 -53 -11z"/>
<path d="M16975 4304 c-40 -20 -74 -53 -91 -87 -20 -37 -2 -75 46 -100 64 -33
230 -6 230 38 0 19 -10 19 -71 -1 -57 -19 -133 -14 -156 9 -14 13 -12 16 15
21 38 9 112 72 112 96 0 18 -27 40 -47 40 -4 0 -21 -7 -38 -16z m20 -49 c-34
-28 -54 -33 -34 -9 12 14 44 32 59 33 3 0 -8 -11 -25 -24z"/>
<path d="M13766 4293 c-7 -16 16 -43 35 -43 18 0 20 23 3 41 -21 24 -30 24
-38 2z"/>
<path d="M4445 4259 c-48 -44 -55 -70 -29 -107 18 -26 10 -49 -12 -31 -22 18
-46 3 -42 -28 4 -37 43 -42 81 -13 31 24 33 43 12 84 -15 29 -15 31 17 63 26
27 39 33 61 30 32 -4 44 8 27 28 -23 28 -68 18 -115 -26z"/>
<path d="M5605 4255 c-15 -19 -29 -52 -32 -74 -5 -36 -3 -40 27 -56 31 -16 37
-16 97 0 65 18 82 30 65 47 -6 6 -29 4 -66 -7 -63 -19 -86 -15 -86 13 0 21 36
72 51 72 18 0 9 -29 -11 -35 -11 -4 -20 -15 -20 -26 0 -16 4 -19 23 -13 55 16
74 65 39 97 -29 27 -58 20 -87 -18z"/>
<path d="M9150 4244 c-66 -52 -118 -161 -73 -152 10 2 25 19 35 39 9 19 36 53
60 74 l43 39 14 -52 c14 -53 36 -68 48 -34 7 20 43 62 54 62 4 0 -2 -23 -14
-50 -19 -46 -20 -52 -5 -66 17 -18 42 -10 35 10 -3 7 4 33 14 57 36 79 3 119
-60 74 l-36 -25 -13 30 c-16 40 -45 38 -102 -6z"/>
<path d="M10024 4266 c-34 -15 -76 -64 -93 -109 -27 -70 37 -108 150 -88 66
11 90 24 73 41 -6 6 -33 5 -77 -2 -81 -13 -119 -2 -110 32 4 14 13 21 27 19
44 -3 58 2 87 30 34 35 36 44 9 71 -23 23 -25 23 -66 6z m17 -57 c-13 -11 -26
-17 -29 -14 -8 8 20 35 37 35 12 -1 11 -5 -8 -21z"/>
<path d="M10826 4225 c-71 -69 -77 -128 -13 -133 32 -3 43 2 72 31 36 36 43
65 26 110 -16 41 -37 39 -85 -8z m54 -40 c0 -17 -39 -55 -57 -55 -16 0 -16 5
-3 31 6 10 17 19 25 19 8 0 15 5 15 10 0 6 5 10 10 10 6 0 10 -7 10 -15z"/>
<path d="M3956 4239 c-49 -39 -71 -104 -42 -128 15 -13 58 2 104 35 l23 17 -3
-54 c-3 -45 0 -54 16 -57 23 -5 46 15 29 26 -7 5 -9 28 -4 75 8 73 7 76 -26
95 -33 18 -67 15 -97 -9z m64 -28 c0 -11 -58 -61 -71 -61 -12 0 -3 17 24 48
21 22 47 30 47 13z"/>
<path d="M6218 4209 c-30 -50 -98 -109 -125 -109 -17 0 -17 -29 1 -36 8 -3 28
2 45 10 19 10 32 12 36 6 10 -16 58 -11 91 9 l32 19 5 -28 c6 -30 34 -47 51
-30 7 7 6 14 -2 22 -7 7 -12 27 -12 45 0 38 -22 53 -49 35 -30 -22 -73 -44
-77 -40 -2 3 12 29 31 59 19 30 35 62 35 72 0 33 -30 16 -62 -34z"/>
<path d="M6505 4240 c-20 -13 -35 -37 -48 -72 -24 -70 -25 -82 -7 -85 11 -3
27 19 50 67 31 63 35 68 50 55 21 -19 26 -19 34 0 5 15 -25 55 -41 55 -5 0
-21 -9 -38 -20z"/>
<path d="M9756 4238 c-21 -29 -20 -40 4 -71 25 -32 25 -33 -5 -53 -24 -16 -27
-16 -39 1 -15 21 -36 12 -36 -14 0 -44 49 -53 101 -18 42 28 48 61 19 92 -12
13 -19 28 -15 34 8 13 35 15 35 2 0 -5 7 -12 15 -15 24 -9 30 22 10 44 -25 27
-70 26 -89 -2z"/>
<path d="M11601 4229 c-40 -39 -41 -78 -3 -120 22 -24 37 -32 68 -33 52 -1 53
23 0 38 -47 13 -57 31 -21 40 27 7 65 39 65 56 0 17 -39 50 -59 50 -11 0 -33
-14 -50 -31z m54 -28 c-3 -6 -14 -11 -23 -11 -15 1 -15 2 2 15 21 16 32 13 21
-4z"/>
<path d="M11899 4235 c-73 -48 -69 -127 7 -141 51 -9 118 7 122 29 3 17 -1 18
-51 12 -94 -12 -121 24 -52 69 25 17 28 17 46 0 16 -15 19 -15 25 -1 9 24 -14
57 -39 56 -12 0 -38 -11 -58 -24z"/>
<path d="M13031 4209 c-28 -27 -51 -57 -51 -65 0 -26 30 -14 66 26 20 22 39
39 41 37 2 -2 -5 -32 -16 -67 -11 -34 -17 -68 -14 -76 9 -23 42 -16 84 18 37
30 40 30 57 14 11 -9 26 -14 35 -10 25 9 57 67 57 102 0 26 4 31 28 34 36 4
36 32 0 36 -34 4 -68 -28 -68 -65 0 -16 -7 -37 -15 -47 -14 -19 -15 -18 -15
12 0 45 -20 41 -74 -15 l-46 -48 15 50 c8 28 15 58 15 67 0 17 -25 48 -39 48
-5 0 -31 -23 -60 -51z"/>
<path d="M8690 4228 c-31 -34 -21 -138 14 -138 18 0 28 40 15 56 -6 7 -9 23
-7 36 4 29 51 37 78 13 18 -17 40 -13 40 6 0 5 -9 18 -20 29 -28 28 -93 27
-120 -2z"/>
<path d="M14928 4223 c-46 -25 -88 -85 -88 -124 0 -39 101 -92 126 -66 8 8 9
20 3 35 -9 23 -35 30 -41 11 -3 -9 -10 -9 -27 0 -18 10 -21 18 -16 39 9 36 22
50 68 73 36 19 38 19 35 2 -4 -29 11 -46 28 -32 21 17 18 66 -5 79 -27 14 -29
13 -83 -17z"/>
<path d="M16416 4235 c-41 -14 -96 -61 -96 -81 0 -31 33 -47 87 -41 50 5 53 4
53 -17 0 -28 26 -54 40 -40 10 10 -5 80 -22 101 -7 9 -5 18 7 29 38 38 -7 70
-69 49z m37 -41 c12 -13 -43 -45 -70 -42 l-28 3 35 22 c36 23 52 28 63 17z"/>
<path d="M6693 4220 c-18 -11 -33 -23 -33 -27 0 -5 -18 -28 -40 -53 -39 -43
-47 -69 -24 -77 7 -2 35 25 63 61 44 55 68 76 87 76 11 0 1 -35 -23 -78 -25
-45 -27 -82 -4 -82 12 0 71 121 71 147 0 22 -29 53 -51 53 -8 0 -29 -9 -46
-20z"/>
<path d="M7373 4225 c-52 -37 -83 -135 -47 -149 29 -11 56 -6 87 16 l30 22 15
-22 c16 -24 62 -30 62 -8 0 8 -7 16 -15 20 -10 3 -15 19 -15 46 0 22 -4 40
-10 40 -5 0 -20 11 -34 25 -29 29 -43 31 -73 10z m36 -87 c-53 -45 -79 -31
-42 22 25 37 35 41 56 22 18 -16 18 -18 -14 -44z"/>
<path d="M4614 4197 c-44 -53 -45 -102 -2 -127 25 -14 31 -13 63 4 26 14 38
29 45 57 10 37 0 87 -17 90 -47 8 -67 3 -89 -24z m72 -44 c-12 -47 -57 -68
-64 -30 -4 19 32 57 54 57 13 0 15 -6 10 -27z"/>
<path d="M8876 4187 c-54 -70 -18 -139 52 -103 39 20 48 50 27 99 -19 47 -45
48 -79 4z m38 -64 c-23 -17 -30 -2 -13 28 11 21 12 21 22 4 7 -14 6 -21 -9
-32z"/>
<path d="M9555 4208 c-41 -113 -41 -118 -15 -118 15 0 23 12 35 52 8 28 15 58
15 65 0 17 -29 17 -35 1z"/>
<path d="M11387 4213 c-4 -3 -7 -35 -7 -70 0 -82 -28 -150 -80 -192 -21 -17
-41 -31 -44 -31 -2 0 -6 12 -8 28 -4 36 -32 36 -36 -1 -4 -31 21 -77 41 -77 7
0 37 21 66 47 74 65 101 125 101 226 0 57 -3 77 -13 77 -8 0 -17 -3 -20 -7z"/>
<path d="M13692 4198 c-5 -7 -13 -24 -17 -38 -4 -14 -16 -39 -26 -56 -16 -26
-17 -33 -6 -43 11 -8 18 -7 29 7 26 28 61 111 54 127 -7 18 -20 19 -34 3z"/>
<path d="M13895 4191 c-37 -22 -85 -77 -85 -97 0 -8 11 -26 25 -40 22 -21 33
-25 78 -22 38 2 52 7 52 18 0 11 -13 16 -47 18 -59 4 -79 24 -52 53 27 30 68
49 91 43 28 -8 41 16 18 33 -25 18 -44 16 -80 -6z"/>
<path d="M15195 4196 c-17 -7 -45 -30 -63 -50 -27 -31 -31 -40 -21 -58 9 -17
18 -20 57 -16 l47 5 0 -36 c0 -29 4 -37 21 -39 19 -3 21 2 20 40 0 24 7 60 17
81 19 39 19 39 -4 63 -26 27 -32 28 -74 10z m50 -35 c8 -14 -44 -51 -72 -51
-30 0 -22 15 21 41 35 21 42 23 51 10z"/>
<path d="M15473 4176 c-27 -16 -45 -20 -51 -14 -14 14 -32 1 -32 -22 0 -10
-16 -39 -35 -65 -34 -43 -38 -65 -13 -65 6 0 44 32 84 70 75 73 102 87 89 48
-4 -13 -9 -37 -12 -54 -4 -28 -1 -33 25 -42 24 -8 33 -7 42 3 8 10 6 17 -10
28 -18 12 -20 19 -11 35 22 42 8 102 -23 102 -6 0 -30 -11 -53 -24z"/>
<path d="M3007 4155 c-20 -41 -22 -76 -6 -92 18 -18 40 -4 33 21 -3 12 2 37
10 57 8 20 12 39 9 43 -14 14 -30 4 -46 -29z"/>
<path d="M4600 4028 c-44 -13 -157 -127 -189 -192 -19 -40 -23 -59 -18 -107
11 -120 62 -172 171 -173 66 0 208 38 227 61 19 22 1 28 -44 15 -133 -39 -183
-45 -227 -31 -56 18 -80 51 -87 120 -7 71 11 110 86 192 84 91 146 107 171 46
7 -16 10 -39 6 -53 -4 -15 0 -28 9 -36 16 -13 35 -6 35 15 0 7 6 15 12 17 9 3
6 18 -11 51 -39 76 -74 95 -141 75z"/>
<path d="M12401 3966 c-11 -25 -32 -92 -47 -151 -21 -84 -29 -103 -40 -94 -17
14 -71 -11 -110 -52 -19 -20 -28 -40 -28 -63 0 -50 20 -69 67 -63 77 10 95 46
167 329 8 31 18 48 31 51 15 4 19 14 19 46 0 59 -30 57 -59 -3z m-81 -281 c0
-2 -7 -19 -15 -38 -23 -55 -76 -85 -89 -51 -8 20 60 91 87 91 9 0 17 -1 17 -2z"/>
<path d="M6460 3978 c-1 -2 -3 -21 -7 -43 -3 -22 -18 -66 -34 -97 -23 -45 -34
-57 -56 -60 -33 -4 -43 -27 -14 -35 25 -6 25 -1 1 -58 -11 -26 -20 -58 -20
-71 0 -34 40 -71 85 -80 48 -9 110 6 110 26 0 11 -14 15 -61 15 -62 0 -94 14
-94 42 0 9 12 42 26 74 28 63 32 65 117 59 18 -1 27 3 27 14 0 21 -16 28 -61
28 l-39 -1 20 39 c28 54 41 121 28 137 -9 11 -27 18 -28 11z"/>
<path d="M8797 3883 c-83 -175 -116 -308 -80 -320 6 -2 24 10 40 28 15 18 40
46 55 63 l28 31 -17 -46 c-9 -25 -13 -54 -10 -63 8 -21 37 -21 37 1 0 10 7 37
16 60 13 34 15 49 6 68 -16 35 -38 31 -83 -14 -22 -21 -39 -38 -39 -37 0 18
58 164 89 223 46 88 49 103 23 103 -14 0 -31 -27 -65 -97z"/>
<path d="M13423 3923 c-14 -32 -47 -119 -73 -193 -27 -74 -51 -143 -55 -152
-5 -12 -2 -20 10 -24 12 -5 33 11 76 57 l60 64 -7 -35 c-3 -19 -13 -47 -20
-62 -19 -37 -18 -58 4 -58 32 0 71 125 53 173 -13 34 -37 34 -73 0 l-28 -27
24 70 c13 38 38 104 55 146 31 73 33 98 10 98 -6 0 -22 -26 -36 -57z"/>
<path d="M5934 3962 c-12 -8 -109 -287 -119 -343 -5 -26 -2 -39 9 -48 20 -17
38 -5 31 20 -4 11 18 90 52 189 38 111 54 173 48 179 -6 6 -15 7 -21 3z"/>
<path d="M11766 3939 c-2 -8 -7 -27 -11 -44 -4 -16 -29 -70 -57 -120 -56 -99
-66 -148 -32 -153 17 -2 21 2 21 26 0 16 22 68 52 120 58 102 72 151 47 171
-13 11 -16 11 -20 0z"/>
<path d="M11827 3812 c-73 -147 -91 -218 -63 -241 22 -18 53 -6 36 14 -20 24
-3 81 67 217 61 118 69 148 40 148 -7 0 -42 -62 -80 -138z"/>
<path d="M14815 3923 c-11 -50 -57 -166 -97 -244 -41 -79 -42 -109 -5 -109 12
0 43 21 70 48 l50 47 -7 -35 c-18 -91 -18 -97 -2 -103 10 -4 18 -1 21 6 8 28
25 114 27 147 4 49 -25 51 -78 6 l-41 -35 38 90 c47 107 65 170 56 192 -10 26
-26 20 -32 -10z"/>
<path d="M9473 3928 c-6 -7 -27 -62 -46 -123 -19 -60 -44 -132 -56 -159 -16
-36 -19 -52 -10 -62 15 -18 47 -4 114 51 31 25 58 45 61 45 2 0 -2 -13 -11
-30 -8 -16 -15 -38 -15 -48 0 -23 35 -56 49 -47 15 8 14 32 -1 37 -9 3 -6 19
11 57 40 94 2 108 -94 36 -33 -25 -61 -45 -63 -45 -1 0 4 12 11 28 28 57 80
253 70 263 -7 7 -13 6 -20 -3z"/>
<path d="M16284 3926 c-73 -32 -186 -168 -200 -241 -7 -39 11 -77 55 -119 45
-43 119 -48 195 -13 33 15 56 32 56 41 0 21 -19 20 -71 -4 -86 -38 -160 -19
-188 48 -10 24 -9 36 3 67 36 86 125 175 190 191 29 7 29 6 23 -29 -9 -54 16
-69 43 -25 25 42 25 44 -5 73 -27 28 -55 31 -101 11z"/>
<path d="M14642 3873 c-11 -27 -28 -74 -37 -105 -13 -47 -21 -58 -46 -67 -35
-12 -37 -47 -3 -44 20 2 20 1 6 -66 -17 -77 -12 -111 13 -91 8 7 15 18 15 25
0 36 34 155 44 154 37 -4 53 23 20 35 -21 8 -13 59 22 135 29 64 29 71 5 71
-13 0 -25 -15 -39 -47z"/>
<path d="M10285 3890 c-9 -14 4 -50 18 -50 7 0 19 5 27 10 12 7 12 13 4 27
-13 21 -39 28 -49 13z"/>
<path d="M8395 3769 c-60 -49 -72 -67 -51 -75 9 -4 32 8 58 30 63 54 75 44 38
-29 -34 -66 -21 -92 32 -64 16 9 24 7 39 -10 11 -12 25 -21 31 -21 20 0 98 89
99 113 2 36 -2 51 -17 67 -13 13 -16 13 -24 1 -5 -8 -5 -22 0 -30 10 -20 -1
-49 -32 -81 l-23 -25 -3 28 c-4 29 -28 37 -50 15 -10 -10 -10 -6 -2 19 6 17
10 46 8 65 -5 50 -40 49 -103 -3z"/>
<path d="M11178 3771 c-49 -31 -58 -46 -58 -97 0 -24 6 -38 23 -48 36 -23 89
-29 112 -12 26 19 17 26 -34 31 -53 6 -61 11 -61 40 0 41 77 88 106 64 25 -21
42 6 19 31 -25 27 -53 25 -107 -9z"/>
<path d="M9060 3761 c0 -23 30 -37 41 -19 9 15 -8 38 -27 38 -8 0 -14 -9 -14
-19z"/>
<path d="M10428 3764 c-51 -27 -57 -63 -16 -92 26 -19 22 -47 -8 -67 -15 -9
-23 -12 -20 -6 10 16 -3 51 -19 51 -15 0 -32 -81 -20 -99 12 -21 45 -11 85 25
46 42 54 88 20 119 -25 23 -19 32 30 45 50 13 55 40 8 40 -18 -1 -45 -7 -60
-16z"/>
<path d="M13023 3758 c-58 -31 -143 -100 -143 -115 0 -23 36 -14 76 20 41 36
83 61 89 55 3 -2 -9 -24 -25 -48 -30 -45 -38 -84 -21 -95 5 -3 28 2 50 11 41
16 41 16 62 -10 26 -33 41 -33 81 3 25 22 33 39 39 82 4 30 10 64 14 76 5 17
3 25 -10 29 -25 10 -34 -5 -41 -71 -4 -39 -14 -68 -27 -82 -27 -30 -40 -19
-33 28 8 52 -9 58 -50 18 -41 -39 -42 -35 -9 28 44 83 23 111 -52 71z"/>
<path d="M16787 3760 c-30 -24 -97 -130 -97 -154 0 -9 6 -16 13 -16 13 0 97
102 97 119 0 5 5 13 12 17 8 5 9 -8 4 -49 -4 -39 -3 -57 5 -57 6 0 38 23 71
50 61 51 86 59 80 24 -10 -56 -7 -69 16 -72 18 -3 23 1 21 15 -1 10 1 30 6 46
10 35 -16 77 -49 77 -13 0 -42 -14 -64 -30 l-42 -30 0 24 c0 24 -23 56 -39 56
-5 0 -20 -9 -34 -20z"/>
<path d="M17328 3771 c-72 -6 -106 -27 -94 -56 6 -16 8 -16 29 -2 16 10 63 18
141 23 100 6 116 9 114 23 -4 18 -74 23 -190 12z"/>
<path d="M6710 3748 c-50 -32 -70 -57 -70 -90 0 -45 37 -107 73 -124 30 -14
37 -14 69 -1 44 18 77 62 60 79 -9 9 -19 5 -39 -14 -42 -38 -61 -41 -89 -13
-34 34 -30 48 19 65 34 12 44 22 53 50 22 66 -12 88 -76 48z m40 -38 c0 -9
-41 -30 -58 -30 -9 1 41 39 51 40 4 0 7 -5 7 -10z"/>
<path d="M7493 3755 c-28 -13 -83 -75 -83 -94 0 -28 26 -19 65 23 51 56 72 54
77 -7 3 -41 4 -42 45 -45 34 -3 47 2 76 27 39 35 48 57 36 89 -10 28 -39 19
-39 -12 0 -26 -38 -66 -63 -66 -12 0 -17 9 -17 33 0 17 -4 37 -8 43 -11 18
-58 22 -89 9z"/>
<path d="M11424 3741 c-62 -45 -80 -69 -67 -89 11 -18 58 -21 101 -7 18 6 22
4 22 -13 0 -22 27 -49 37 -38 4 4 6 23 4 42 -1 20 4 45 13 59 28 43 11 76 -22
43 -9 -9 -12 -7 -12 10 0 31 -28 28 -76 -7z m60 -32 c-8 -13 -74 -42 -81 -36
-6 6 59 47 75 47 7 0 10 -5 6 -11z"/>
<path d="M4944 3726 c-40 -40 -47 -89 -15 -106 36 -19 90 -12 116 15 46 45 27
104 -38 119 -24 6 -34 1 -63 -28z m72 -32 c14 20 14 20 14 0 0 -28 -19 -44
-52 -44 -31 0 -35 10 -15 40 11 19 13 19 25 3 13 -17 14 -17 28 1z"/>
<path d="M5228 3736 c-42 -25 -123 -130 -113 -146 12 -20 31 -9 74 45 65 81
74 87 66 42 -4 -20 -4 -44 -1 -54 6 -14 12 -11 41 17 19 19 36 32 38 29 2 -2
8 -16 15 -31 9 -22 18 -28 42 -28 27 0 30 3 30 31 0 27 -3 31 -21 26 -19 -5
-20 -3 -15 29 9 44 -14 55 -54 26 l-28 -21 -6 30 c-7 35 -19 36 -68 5z"/>
<path d="M5998 3723 c-51 -52 -57 -85 -24 -116 40 -37 83 -42 184 -21 23 5 30
30 10 36 -7 3 -33 1 -58 -4 -51 -10 -93 -3 -110 17 -9 11 -7 13 7 9 28 -6 107
39 111 63 4 24 -31 53 -63 53 -12 0 -37 -17 -57 -37z m63 -17 c-6 -8 -21 -16
-32 -19 -20 -5 -20 -5 -3 14 20 23 54 28 35 5z"/>
<path d="M11991 3730 c-23 -17 -45 -38 -48 -48 -4 -9 -14 -23 -22 -29 -14 -12
-14 -14 -1 -26 8 -7 20 -21 26 -32 6 -10 21 -27 35 -37 20 -15 31 -16 71 -7
53 12 81 35 54 45 -9 3 -35 1 -59 -5 -36 -9 -44 -8 -54 6 -18 24 -16 31 10 38
66 21 107 81 75 113 -19 19 -42 14 -87 -18z m43 -35 c-29 -22 -42 -17 -15 6
13 11 26 17 29 14 3 -3 -3 -12 -14 -20z"/>
<path d="M2686 3729 c-35 -28 -78 -103 -74 -131 2 -13 15 -28 31 -36 23 -11
32 -11 59 2 39 20 38 20 38 -9 0 -22 31 -51 42 -39 3 2 3 27 0 54 -3 29 1 63
8 81 8 18 9 33 4 37 -5 4 -15 19 -21 35 -15 33 -49 36 -87 6z m58 -45 c5 -20
1 -33 -16 -51 -32 -34 -58 -47 -70 -35 -12 12 4 46 40 85 32 34 38 34 46 1z"/>
<path d="M10211 3728 c-35 -96 -36 -99 -21 -108 21 -13 26 -12 45 6 11 12 13
20 5 29 -7 9 -6 23 5 48 19 46 19 47 -5 47 -12 0 -24 -9 -29 -22z"/>
<path d="M13634 3719 c-53 -41 -64 -57 -64 -97 0 -52 45 -92 105 -92 52 0 85
14 85 35 0 12 -11 14 -57 9 -51 -5 -60 -4 -77 15 -15 16 -16 21 -5 21 9 0 36
13 62 30 52 33 61 64 29 93 -25 23 -33 22 -78 -14z m51 -28 c-3 -6 -21 -18
-38 -27 l-32 -15 33 31 c32 29 53 35 37 11z"/>
<path d="M3800 3714 c-17 -15 -38 -40 -46 -56 -14 -27 -14 -32 0 -54 32 -48
103 -40 151 18 32 38 31 53 -4 89 -36 36 -60 37 -101 3z m84 -42 c6 -11 -4
-25 -34 -45 -56 -39 -84 0 -35 49 20 20 29 23 44 14 11 -5 22 -14 25 -18z"/>
<path d="M4020 3726 c-5 -5 -10 -15 -10 -22 0 -7 -16 -36 -35 -64 -37 -55 -40
-73 -12 -78 10 -2 26 13 43 40 37 57 75 98 91 98 18 0 27 -44 14 -68 -12 -23
-5 -52 13 -52 7 0 19 18 26 40 11 33 11 45 -1 77 -14 37 -16 38 -67 39 -28 0
-56 -4 -62 -10z"/>
<path d="M16522 3704 c-49 -41 -56 -80 -20 -114 28 -25 64 -25 106 0 55 33 63
95 18 132 -32 26 -58 22 -104 -18z m91 -39 c8 -19 -41 -57 -67 -53 -13 2 -22
12 -24 27 -2 15 0 21 7 17 6 -4 21 0 33 8 28 20 44 20 51 1z"/>
<path d="M2967 3711 c-16 -10 -37 -17 -46 -14 -13 3 -23 -12 -45 -67 -19 -50
-25 -75 -17 -83 12 -12 41 8 41 28 0 18 79 105 96 105 18 0 18 -31 -1 -77 -8
-19 -15 -46 -15 -58 0 -24 29 -43 34 -22 1 6 10 35 19 63 21 64 21 93 1 122
-19 27 -31 27 -67 3z"/>
<path d="M5621 3714 c-29 -8 -57 -17 -62 -20 -18 -11 -40 -66 -66 -162 -39
-147 -38 -142 -15 -142 21 0 31 20 54 104 12 45 16 49 46 51 80 6 173 130 130
173 -15 15 -19 14 -87 -4z m59 -34 c0 -13 -58 -78 -80 -90 -15 -8 -18 -5 -16
20 3 37 30 68 65 73 14 2 27 5 29 6 1 0 2 -3 2 -9z"/>
<path d="M15014 3686 c-52 -51 -57 -84 -18 -123 23 -22 31 -25 71 -19 25 3 52
11 59 17 25 21 3 31 -49 25 -36 -5 -52 -4 -58 6 -14 21 -11 25 19 33 67 16 90
55 54 88 -26 24 -29 22 -78 -27z"/>
<path d="M9168 3678 c-87 -94 -49 -153 73 -113 48 16 70 37 55 53 -4 3 -29 -1
-55 -11 -52 -18 -81 -22 -81 -9 0 18 63 83 77 78 19 -8 30 24 12 35 -26 16
-42 9 -81 -33z"/>
<path d="M13840 3694 c-6 -14 -10 -30 -10 -35 0 -6 -9 -29 -20 -51 -42 -88
-12 -92 53 -8 70 90 96 80 57 -21 -12 -29 -18 -59 -16 -66 10 -24 40 -10 48
22 4 17 13 49 19 72 10 33 10 47 1 69 -12 24 -17 26 -52 21 -30 -4 -40 -2 -40
9 0 24 -30 15 -40 -12z"/>
<path d="M15633 3698 c-63 -17 -97 -103 -55 -141 29 -26 61 -20 98 17 35 35
43 70 24 105 -13 25 -29 29 -67 19z m37 -61 c0 -16 -41 -57 -57 -57 -18 0 -16
40 3 61 16 18 54 15 54 -4z"/>
<path d="M15790 3685 c-35 -13 -45 -33 -53 -110 -4 -35 35 -25 47 12 6 18 21
43 34 55 23 23 23 23 38 3 10 -14 13 -32 8 -61 -4 -32 -2 -42 10 -47 19 -7 22
-2 31 44 4 23 1 49 -10 77 -19 47 -37 51 -105 27z"/>
<path d="M8973 3653 c-3 -10 -13 -26 -21 -36 -12 -14 -13 -22 -3 -43 6 -14 17
-24 23 -22 15 5 42 84 34 103 -7 20 -25 19 -33 -2z"/>
<path d="M3285 3538 c-2 -7 -16 -78 -31 -157 l-27 -143 -44 5 c-24 2 -46 0
-50 -6 -8 -14 26 -37 55 -37 23 0 24 -2 16 -37 -4 -21 -8 -54 -8 -73 -1 -29 3
-35 19 -35 15 0 20 7 20 25 0 14 4 45 9 70 l8 45 40 -3 c35 -4 39 -2 36 14 -2
13 -13 20 -34 22 l-30 3 28 132 c32 154 34 187 13 187 -9 0 -17 -6 -20 -12z"/>
<path d="M2802 3473 c-9 -17 -16 -46 -60 -260 -19 -93 -16 -121 10 -110 9 3
21 40 32 104 9 54 25 136 36 182 11 46 17 88 14 92 -8 14 -23 10 -32 -8z"/>
<path d="M4093 3414 c-4 -11 1 -22 12 -30 23 -17 39 -4 30 25 -8 25 -33 28
-42 5z"/>
<path d="M6559 3379 c-7 -13 -8 -42 -4 -79 8 -67 -1 -108 -18 -91 -20 20 -44
12 -76 -24 -50 -58 -53 -115 -6 -137 55 -25 96 18 130 135 12 42 15 75 10 117
-6 55 -6 58 13 53 26 -6 36 12 16 31 -22 22 -51 20 -65 -5z m-20 -216 c-27
-72 -62 -103 -76 -67 -7 19 25 64 58 81 13 7 25 13 26 13 1 0 -2 -12 -8 -27z"/>
<path d="M5777 3384 c-4 -4 -7 -18 -7 -31 0 -14 -20 -76 -45 -140 -47 -119
-56 -181 -30 -203 22 -18 34 -4 28 38 -4 29 5 64 42 155 29 74 45 130 43 149
-3 31 -17 45 -31 32z"/>
<path d="M2902 3271 c-35 -35 -62 -90 -62 -124 0 -50 61 -70 142 -45 42 12 61
36 56 71 -4 29 -32 28 -36 -1 -6 -42 -113 -59 -120 -19 -3 13 4 17 30 17 51 0
78 24 78 69 0 66 -39 80 -88 32z m48 -31 c0 -20 -25 -38 -37 -26 -5 5 24 46
34 46 1 0 3 -9 3 -20z"/>
<path d="M4201 3261 c-40 -37 -40 -70 1 -116 29 -34 30 -37 14 -53 -16 -16
-18 -16 -36 6 -21 26 -36 28 -44 6 -6 -17 35 -64 56 -64 7 0 28 9 46 20 43 26
44 65 2 105 -35 34 -37 46 -11 69 14 13 28 16 55 11 29 -6 36 -4 36 9 0 19
-30 36 -63 36 -14 0 -39 -13 -56 -29z"/>
<path d="M2488 3237 c-30 -24 -61 -41 -70 -39 -14 3 -18 -3 -18 -26 0 -16 -10
-89 -21 -163 -28 -175 -28 -174 -4 -174 15 0 21 9 26 35 15 78 43 205 46 209
2 3 9 -1 15 -7 7 -7 25 -12 41 -12 63 0 131 112 106 176 -21 57 -50 58 -121 1z
m85 -18 c16 -60 -76 -158 -97 -103 -13 33 -5 54 36 88 48 42 54 43 61 15z"/>
<path d="M4824 3263 c-42 -21 -65 -63 -71 -132 -5 -49 -3 -59 12 -65 22 -8 35
9 28 35 -3 11 0 40 7 65 10 33 21 49 43 61 28 14 33 14 59 -1 26 -16 29 -16
35 0 8 21 -30 54 -61 53 -11 0 -35 -7 -52 -16z"/>
<path d="M3429 3220 c-23 -24 -41 -54 -45 -76 -5 -30 -2 -40 22 -65 24 -25 35
-29 78 -29 70 0 100 17 104 58 2 24 -1 32 -13 32 -8 0 -19 -8 -22 -17 -4 -10
-11 -21 -17 -25 -18 -12 -91 -9 -104 4 -16 16 -15 28 3 28 23 0 87 35 109 59
19 21 19 22 -4 46 -34 36 -66 32 -111 -15z m76 -10 c-3 -6 -21 -17 -38 -26
l-32 -17 24 27 c23 25 59 37 46 16z"/>
<path d="M5273 3240 c-41 -25 -50 -59 -27 -98 18 -31 13 -64 -8 -61 -28 3 -38
-2 -38 -20 0 -22 25 -34 51 -26 10 3 28 22 39 41 l22 34 -23 36 -22 37 23 19
c16 13 32 17 51 13 31 -7 46 9 29 30 -17 21 -59 19 -97 -5z"/>
<path d="M4019 3193 c-25 -60 -23 -118 6 -118 16 0 20 7 21 35 1 59 3 69 25
89 24 22 18 41 -12 41 -14 0 -26 -14 -40 -47z"/>
<path d="M4988 3229 c-27 -15 -68 -92 -68 -127 0 -37 39 -72 82 -72 40 0 101
27 95 42 -4 13 -13 13 -74 2 -37 -7 -63 8 -63 36 0 15 7 17 43 13 51 -6 77 13
77 57 0 50 -47 75 -92 49z m52 -49 c0 -15 -7 -20 -25 -20 -27 0 -32 9 -13 28
18 18 38 14 38 -8z"/>
<path d="M6177 3207 c-19 -18 -37 -43 -41 -55 -4 -13 -16 -22 -27 -22 -27 0
-24 -29 5 -40 13 -5 27 -18 31 -30 10 -30 61 -53 102 -45 25 4 33 11 31 23 -3
12 -12 16 -34 14 -31 -3 -90 34 -69 44 35 15 76 47 91 69 13 21 15 31 6 50
-16 36 -54 32 -95 -8z m43 -32 c-13 -14 -28 -25 -33 -25 -6 0 0 11 13 25 13
14 28 25 33 25 6 0 0 -11 -13 -25z"/>
<path d="M6017 3223 c-4 -3 -7 -15 -7 -25 0 -21 -30 -81 -58 -117 l-19 -23
-27 56 c-19 39 -33 56 -47 56 -24 0 -24 -4 5 -65 14 -27 29 -62 35 -77 6 -16
17 -28 25 -28 34 0 145 182 132 216 -6 15 -28 19 -39 7z"/>
<path d="M5451 3156 c-33 -35 -52 -91 -41 -121 8 -20 16 -25 46 -25 104 0 140
122 46 156 -27 10 -33 9 -51 -10z m63 -49 c13 -21 -18 -57 -50 -57 -21 0 -23
2 -13 27 20 54 42 64 63 30z"/>
<path d="M6639 3049 c-8 -16 -8 -24 1 -33 9 -8 16 -5 31 13 10 13 19 27 19 32
0 18 -40 8 -51 -12z"/>
<path d="M8206 3028 c-3 -7 -14 -47 -26 -88 -12 -41 -45 -132 -72 -202 -28
-70 -48 -134 -44 -143 9 -25 34 -17 80 25 l44 41 -15 -51 c-17 -58 -12 -80 16
-80 16 0 20 6 19 28 -1 15 9 62 21 105 28 103 16 126 -36 65 -16 -17 -40 -45
-55 -62 l-27 -31 30 74 c49 122 99 276 99 304 0 28 -27 39 -34 15z"/>
<path d="M8011 2998 c-5 -13 -19 -66 -32 -119 l-23 -97 -39 -8 c-38 -9 -68
-36 -55 -49 3 -4 22 -2 42 3 29 8 36 8 36 -3 0 -15 -33 -104 -51 -142 -12 -22
-6 -43 12 -43 11 0 63 112 79 170 10 37 13 39 53 42 56 4 59 32 4 36 -30 3
-37 7 -33 20 15 52 46 183 46 196 0 24 -29 19 -39 -6z"/>
<path d="M16255 2963 c-23 -153 -80 -329 -97 -299 -11 19 -27 20 -81 4 -57
-17 -107 -67 -107 -107 0 -43 38 -81 81 -81 92 0 228 263 241 465 2 40 0 50
-14 53 -13 2 -18 -6 -23 -35z m-121 -339 c8 -20 -4 -41 -42 -78 -37 -35 -82
-31 -82 7 0 32 11 44 56 67 48 24 60 24 68 4z"/>
<path d="M6613 2968 c-5 -7 -38 -100 -73 -206 -54 -162 -62 -195 -50 -202 16
-10 47 6 92 48 l27 25 -14 -54 c-16 -61 -12 -89 14 -89 24 0 33 11 21 25 -6 7
-3 30 7 64 26 89 -7 128 -63 76 -15 -14 -28 -24 -30 -22 -4 4 49 169 74 232
11 28 22 64 24 79 3 31 -13 45 -29 24z"/>
<path d="M11015 2938 c-41 -36 -71 -90 -110 -199 l-27 -76 -51 -9 c-36 -6 -52
-14 -52 -24 0 -11 11 -15 48 -13 26 1 47 -2 47 -5 -1 -19 -41 -165 -51 -184
-6 -11 -29 -40 -51 -64 -26 -28 -38 -49 -34 -60 5 -14 9 -13 34 5 54 38 100
119 123 216 11 50 26 93 32 97 7 4 36 8 65 8 46 0 53 3 50 18 -3 14 -14 17
-61 17 -31 0 -57 1 -57 2 0 0 15 41 34 90 33 84 93 173 119 173 6 0 24 -12 39
-27 21 -20 31 -24 40 -15 23 23 -38 82 -87 82 -8 0 -30 -14 -50 -32z"/>
<path d="M13454 2933 c-8 -41 -82 -229 -115 -295 -16 -32 -36 -58 -44 -58 -34
0 -60 -81 -33 -108 17 -17 90 -15 137 4 64 25 87 76 55 122 -20 29 -42 28 -77
-5 l-29 -28 25 50 c49 98 117 279 117 312 0 41 -27 45 -36 6z m-24 -378 c0
-18 -35 -41 -75 -51 l-30 -7 40 36 c43 39 65 46 65 22z"/>
<path d="M9352 2912 c-42 -37 -131 -174 -154 -238 -11 -30 -16 -34 -49 -34
-38 0 -74 -24 -63 -41 3 -5 23 -6 44 -3 l38 6 -32 -115 c-18 -63 -43 -131 -55
-152 -26 -44 -15 -70 18 -41 26 23 53 92 82 204 l24 92 47 -6 c39 -5 49 -4 54
11 9 22 -23 56 -35 37 -5 -8 -15 -10 -29 -5 -21 8 -20 11 33 108 57 103 124
183 144 171 6 -4 11 -23 11 -42 0 -28 4 -35 18 -32 23 4 28 62 7 94 -22 34
-53 30 -103 -14z"/>
<path d="M2848 2926 c-109 -7 -200 -15 -204 -19 -3 -3 -4 -13 -1 -21 5 -12 17
-15 49 -11 24 2 82 7 131 10 71 4 87 3 87 -9 0 -8 -18 -67 -40 -132 -48 -140
-57 -201 -37 -228 20 -28 52 -15 37 15 -15 28 -7 69 41 208 21 63 39 122 39
133 0 13 8 18 33 19 175 7 242 15 242 29 0 20 -113 22 -377 6z"/>
<path d="M12056 2925 c-3 -9 -6 -29 -6 -43 0 -15 -13 -63 -28 -107 l-27 -80
-45 -5 c-32 -4 -46 -10 -48 -22 -3 -15 4 -18 33 -18 36 0 37 0 29 -32 -13 -54
-11 -92 6 -95 11 -3 19 14 30 59 l15 63 53 -1 c45 -2 52 1 52 17 0 14 -10 20
-40 25 -22 4 -40 8 -40 10 0 1 12 39 26 82 25 80 29 152 8 159 -6 2 -14 -3
-18 -12z"/>
<path d="M7180 2908 c0 -12 -10 -53 -22 -91 l-21 -69 -44 6 c-37 5 -43 3 -43
-13 0 -20 18 -31 51 -31 22 0 22 0 8 -60 -5 -24 -8 -55 -4 -67 7 -31 54 -53
110 -53 39 0 46 3 43 18 -2 12 -16 18 -48 22 -76 9 -79 15 -55 98 15 50 17 52
70 68 36 10 55 21 55 31 0 13 -9 15 -45 11 -25 -3 -45 -3 -45 1 0 3 7 28 15
55 21 69 20 96 -5 96 -14 0 -20 -7 -20 -22z"/>
<path d="M10181 2916 c-6 -7 -28 -46 -49 -87 -33 -61 -44 -75 -69 -80 -39 -8
-53 -17 -53 -36 0 -12 7 -14 34 -9 l33 6 -18 -56 c-23 -69 -24 -117 -4 -138
36 -35 166 -29 173 8 4 17 -1 18 -52 12 -103 -13 -113 3 -75 118 l21 65 74 12
c68 11 74 14 74 36 0 29 -26 41 -43 20 -7 -8 -29 -17 -49 -19 l-38 -4 40 73
c22 39 40 74 40 76 0 12 -30 14 -39 3z"/>
<path d="M5170 2888 c-11 -18 -30 -52 -42 -75 -16 -30 -31 -44 -50 -48 -16 -3
-41 -8 -58 -11 -21 -4 -30 -11 -30 -25 0 -21 -1 -21 56 -10 l42 8 -14 -33
c-20 -48 -18 -107 5 -128 29 -26 76 -37 98 -21 21 16 15 24 -23 31 -57 10 -67
41 -38 114 15 37 40 55 70 49 41 -7 46 16 7 33 -16 7 -29 13 -31 14 -2 1 10
26 27 56 17 30 31 60 31 66 0 24 -31 11 -50 -20z"/>
<path d="M6410 2918 c0 -2 -9 -55 -20 -118 -11 -63 -20 -115 -20 -116 0 0 -25
-6 -55 -13 -59 -13 -68 -20 -56 -39 6 -10 19 -10 50 -3 31 7 41 6 38 -2 -2 -7
-13 -38 -23 -70 -16 -53 -16 -59 -2 -73 19 -20 41 -9 33 15 -3 10 6 47 19 82
24 64 24 64 66 67 32 3 41 7 38 20 -2 11 -15 18 -34 20 l-30 3 16 102 c18 107
17 127 -6 127 -8 0 -14 -1 -14 -2z"/>
<path d="M13982 2848 c-14 -14 2 -48 23 -48 19 0 20 34 2 49 -10 8 -17 7 -25
-1z"/>
<path d="M3435 2813 c-4 -21 -18 -72 -31 -113 -26 -80 -31 -144 -13 -156 15
-9 29 14 29 48 0 15 11 60 24 101 32 98 37 150 14 155 -13 2 -18 -6 -23 -35z"/>
<path d="M12305 2820 c-7 -23 1 -40 20 -40 16 0 29 35 20 50 -10 17 -33 11
-40 -10z"/>
<path d="M3581 2770 c-30 -28 -67 -55 -81 -62 -31 -13 -58 -64 -43 -79 7 -7
16 -5 26 5 9 9 22 16 29 16 20 0 73 -55 88 -90 13 -30 50 -43 50 -17 0 20 -55
102 -82 123 l-24 18 63 54 c35 30 62 59 60 66 -8 24 -34 14 -86 -34z"/>
<path d="M8386 2719 c-19 -16 -38 -39 -41 -50 -4 -10 -13 -19 -21 -19 -22 0
-17 -36 10 -67 22 -25 30 -28 84 -26 59 1 102 15 102 32 0 16 -26 19 -75 10
-27 -5 -50 -7 -52 -5 -2 2 12 19 31 38 40 40 54 81 36 103 -18 22 -35 18 -74
-16z m15 -52 l-23 -22 17 28 c10 15 20 25 23 22 3 -3 -5 -16 -17 -28z"/>
<path d="M9460 2736 c0 -18 26 -39 39 -32 5 3 7 15 4 26 -6 22 -43 28 -43 6z"/>
<path d="M15096 2708 c-20 -23 -39 -52 -42 -64 -3 -13 -32 -43 -64 -69 -39
-30 -57 -51 -53 -60 7 -20 7 -20 61 17 26 18 54 33 62 33 8 1 22 2 31 3 10 1
39 17 65 35 l49 32 -3 -45 c-4 -53 16 -82 43 -60 11 9 12 16 2 30 -11 19 -9
30 20 133 9 30 -31 20 -83 -22 -27 -21 -59 -43 -71 -50 -18 -9 -16 -3 13 41
56 82 32 119 -30 46z"/>
<path d="M11150 2675 c-27 -36 -68 -77 -91 -92 -35 -23 -38 -28 -25 -41 13
-13 18 -13 40 2 22 14 26 14 26 2 0 -26 38 -29 80 -7 l40 21 -3 -22 c-2 -26
27 -37 36 -14 3 8 9 42 13 75 8 76 -3 79 -58 16 -34 -39 -68 -58 -68 -39 0 3
20 33 45 66 48 64 54 82 31 91 -10 4 -33 -16 -66 -58z"/>
<path d="M15453 2727 c-18 -7 -42 -20 -54 -31 l-22 -19 59 -53 c57 -52 58 -54
40 -69 -25 -19 -60 -19 -76 0 -15 18 -30 11 -30 -15 0 -38 67 -52 119 -25 54
27 47 84 -14 131 -33 25 -35 28 -18 38 10 5 36 13 58 16 26 3 40 10 40 20 0
19 -58 23 -102 7z"/>
<path d="M3086 2670 c-41 -46 -56 -88 -35 -101 22 -14 52 -10 87 11 18 11 34
20 37 20 2 0 5 -15 7 -32 2 -26 8 -34 26 -36 22 -3 23 -1 16 35 -14 77 -20 88
-42 87 -15 0 -22 5 -22 17 0 10 -9 23 -19 28 -16 9 -25 4 -55 -29z m44 -35 c0
-13 -28 -35 -45 -35 -9 0 28 49 38 50 4 0 7 -7 7 -15z"/>
<path d="M3833 2690 c-82 -50 -81 -177 2 -192 33 -7 153 16 168 31 22 22 -11
28 -81 15 -58 -11 -70 -11 -91 3 l-25 16 52 26 c86 43 102 89 40 110 -17 6
-31 11 -32 11 -1 0 -15 -9 -33 -20z m52 -30 c6 -9 -53 -45 -61 -37 -4 4 43 47
52 47 1 0 5 -4 9 -10z"/>
<path d="M5424 2696 c-39 -17 -84 -75 -84 -107 0 -66 68 -99 161 -79 64 14 94
35 65 46 -10 4 -44 1 -76 -6 -52 -11 -63 -11 -85 4 -33 22 -32 31 6 34 69 5
120 53 99 92 -6 11 -15 20 -20 20 -4 0 -14 2 -22 5 -7 2 -27 -2 -44 -9z m32
-51 c-27 -21 -53 -20 -36 0 7 8 22 15 34 15 21 -1 21 -1 2 -15z"/>
<path d="M9830 2699 c-31 -13 -70 -48 -70 -64 0 -7 11 -28 24 -48 l24 -35 -30
-13 c-30 -12 -39 -8 -51 25 -2 5 -9 6 -15 2 -18 -11 -14 -51 7 -70 18 -17 22
-17 63 2 69 30 75 44 45 95 l-26 43 30 18 c17 10 38 15 49 11 31 -10 44 4 24
26 -19 21 -36 23 -74 8z"/>
<path d="M14303 2681 c-108 -78 -112 -158 -6 -153 38 1 43 -1 39 -16 -3 -9
-10 -39 -17 -67 -20 -83 -36 -108 -67 -102 -62 12 -99 -28 -112 -123 -10 -69
0 -110 26 -110 24 0 76 58 110 124 l29 57 59 -2 c42 -2 61 1 64 10 6 19 -17
31 -65 31 l-41 0 18 48 c10 26 23 74 30 107 6 33 18 81 26 107 14 42 14 50 0
76 -12 24 -34 42 -50 42 -2 0 -21 -13 -43 -29z m53 -36 c13 -33 -5 -64 -43
-74 -64 -18 -69 1 -16 53 41 40 51 43 59 21z m-107 -344 c11 -7 8 -18 -14 -60
-15 -28 -36 -58 -47 -67 -17 -17 -18 -16 -12 17 11 70 16 84 31 102 18 19 22
20 42 8z"/>
<path d="M9595 2685 c-56 -23 -117 -120 -101 -161 8 -22 23 -9 44 39 11 23 31
53 45 65 l25 24 7 -22 c9 -29 29 -20 33 17 4 41 -15 55 -53 38z"/>
<path d="M11636 2650 c-47 -51 -60 -92 -34 -118 15 -15 117 -16 153 -2 15 6
25 16 22 23 -3 8 -25 11 -75 8 -60 -2 -72 0 -72 13 0 25 66 85 88 79 25 -6 38
13 22 32 -23 28 -56 17 -104 -35z"/>
<path d="M12589 2675 c-28 -21 -35 -23 -37 -10 -7 33 -30 12 -55 -54 -31 -80
-32 -81 -13 -81 8 0 40 27 72 60 55 58 88 79 102 65 4 -4 7 -34 7 -68 0 -49 3
-62 16 -65 13 -2 17 9 22 54 12 114 -36 156 -114 99z"/>
<path d="M13603 2668 c-59 -61 -64 -117 -12 -143 30 -16 124 -21 133 -7 11 18
-12 31 -59 34 -47 3 -48 4 -24 15 14 6 38 25 52 43 26 30 26 33 12 61 -22 41
-61 39 -102 -3z m67 -22 c0 -14 -41 -46 -60 -46 -6 0 -2 14 10 30 22 31 50 40
50 16z"/>
<path d="M14003 2657 c-46 -49 -77 -103 -68 -117 10 -16 31 2 75 63 54 75 73
70 58 -18 -5 -30 26 -30 40 0 16 35 15 66 -4 93 -24 34 -56 27 -101 -21z"/>
<path d="M15749 2675 c-56 -29 -109 -87 -109 -120 0 -38 43 -60 112 -58 63 3
102 17 95 36 -4 13 -20 14 -87 3 -31 -4 -51 -2 -63 6 -31 23 -11 43 45 45 59
2 101 27 106 63 4 23 -20 51 -42 50 -6 -1 -32 -12 -57 -25z m51 -35 c-8 -6
-22 -10 -30 -9 -9 0 -5 6 10 14 27 14 44 10 20 -5z"/>
<path d="M4672 2665 c-23 -13 -44 -19 -47 -14 -10 15 -35 10 -35 -7 0 -9 -16
-35 -36 -60 -34 -41 -40 -74 -15 -74 6 0 43 29 83 64 40 35 74 63 76 61 2 -1
-4 -21 -13 -43 -18 -45 -17 -77 3 -77 15 0 52 95 52 131 0 39 -22 45 -68 19z"/>
<path d="M11386 2668 c-36 -20 -75 -79 -76 -115 0 -26 38 -13 50 17 14 34 64
80 86 80 20 0 17 -27 -7 -67 -20 -32 -20 -63 0 -63 14 0 61 86 61 113 0 28
-29 57 -56 56 -10 0 -36 -10 -58 -21z"/>
<path d="M12202 2668 c-5 -7 -18 -37 -28 -65 -14 -40 -16 -55 -7 -64 16 -16
47 -3 39 16 -3 8 4 36 14 61 19 43 19 64 1 64 -5 0 -13 -6 -19 -12z"/>
<path d="M12333 2626 c-59 -59 -67 -90 -29 -107 20 -9 33 -7 71 11 25 12 53
33 61 45 14 22 14 27 -8 64 -13 23 -27 41 -33 41 -5 0 -34 -24 -62 -54z m58
-40 c-7 -8 -25 -19 -42 -25 -27 -9 -28 -9 -19 9 15 28 52 52 64 40 6 -6 5 -15
-3 -24z"/>
<path d="M13878 2663 c-39 -45 -53 -125 -24 -136 20 -8 36 15 29 41 -3 13 3
36 16 58 28 48 13 75 -21 37z"/>
<path d="M4788 2616 c-14 -29 -19 -52 -14 -70 17 -68 146 -26 146 48 0 42 -26
66 -73 66 -34 0 -39 -4 -59 -44z m90 -18 c-3 -23 -52 -58 -64 -46 -4 4 -1 21
6 38 9 22 19 30 37 30 19 0 24 -4 21 -22z"/>
<path d="M6764 2641 c-57 -35 -85 -101 -48 -115 27 -10 73 -7 109 8 l35 15 0
-30 c0 -25 23 -51 34 -38 2 2 6 37 9 77 6 76 0 87 -35 55 -17 -15 -18 -15 -18
3 0 45 -37 55 -86 25z m45 -72 c-8 -5 -27 -9 -44 -9 l-30 1 34 31 35 31 10
-22 c7 -17 6 -25 -5 -32z"/>
<path d="M9391 2584 c-31 -58 -36 -75 -25 -87 14 -13 35 8 59 61 22 48 24 58
12 70 -13 12 -19 6 -46 -44z"/>
<path d="M16577 2443 c-4 -3 -7 -27 -7 -52 0 -25 -7 -65 -16 -88 -15 -39 -20
-43 -50 -43 -18 0 -45 -5 -59 -10 -23 -9 -25 -13 -15 -25 9 -11 23 -13 53 -8
35 5 39 4 34 -11 -16 -42 -38 -140 -35 -160 4 -29 32 -27 36 4 2 14 12 57 24
97 l20 71 47 7 c66 9 81 15 81 31 0 18 -30 21 -87 9 -22 -5 -22 -5 -8 36 19
54 20 149 2 149 -8 0 -17 -3 -20 -7z"/>
<path d="M9406 2418 c-2 -7 -16 -61 -31 -120 l-27 -107 -52 -3 c-43 -3 -51 -6
-51 -23 0 -18 6 -20 45 -17 l45 3 -3 -76 c-4 -71 -3 -77 14 -73 15 2 20 13 22
48 5 105 7 107 65 115 63 9 68 11 60 31 -5 13 -16 15 -56 10 -45 -6 -49 -5
-43 11 19 49 48 183 43 197 -8 19 -26 21 -31 4z"/>
<path d="M9579 2428 c-1 -2 -2 -23 -3 -48 -1 -30 -21 -87 -59 -174 -60 -135
-68 -170 -41 -180 22 -8 47 8 84 54 18 23 35 39 37 36 3 -3 0 -27 -7 -55 -14
-57 -6 -94 18 -89 11 2 17 14 18 33 0 17 4 48 8 70 8 47 -6 95 -29 95 -8 0
-34 -19 -56 -42 l-41 -43 15 35 c8 19 32 72 52 118 42 97 52 141 36 171 -10
18 -27 28 -32 19z"/>
<path d="M10942 2420 c-45 -10 -57 -23 -37 -40 18 -15 19 -32 4 -100 -7 -32
-16 -50 -25 -50 -10 0 -13 7 -8 25 5 21 3 25 -14 25 -12 0 -25 -7 -30 -16 -10
-18 -5 -54 7 -54 4 0 15 -6 25 -13 16 -12 16 -16 1 -60 -21 -63 -17 -112 10
-112 15 0 19 6 17 25 -2 14 5 51 14 83 14 47 21 57 39 57 35 0 144 60 191 105
52 49 59 93 22 119 -24 17 -154 21 -216 6z m195 -46 c7 -18 -26 -55 -82 -93
-45 -31 -103 -56 -110 -49 -3 3 0 28 7 56 10 46 9 54 -6 71 -17 19 -17 20 11
24 15 2 61 5 101 6 57 1 74 -2 79 -15z"/>
<path d="M6875 2378 c-31 -136 -45 -191 -47 -192 -2 -2 -22 -8 -45 -15 -30 -8
-43 -17 -43 -30 0 -28 9 -31 40 -13 38 22 45 12 30 -42 -15 -55 -7 -99 18 -94
10 2 16 12 15 23 -1 11 3 46 9 77 l12 57 48 6 c42 6 48 10 48 31 0 31 -24 41
-45 20 -40 -39 -43 -16 -16 99 11 44 17 83 15 87 -10 16 -34 7 -39 -14z"/>
<path d="M13661 2378 c-4 -13 -11 -41 -16 -63 -9 -52 -45 -137 -90 -213 -19
-33 -35 -68 -35 -76 0 -26 29 -30 58 -9 53 38 55 38 49 7 -6 -34 9 -77 26 -71
7 2 13 23 14 48 1 24 4 65 7 92 8 57 -4 61 -52 15 l-34 -33 36 71 c39 78 81
217 72 240 -8 21 -25 17 -35 -8z"/>
<path d="M14547 2393 c-4 -3 -7 -18 -7 -32 0 -14 -14 -66 -32 -114 l-33 -89
-53 4 c-41 4 -55 1 -59 -10 -8 -19 15 -32 60 -32 l37 0 0 -47 c0 -54 5 -65 38
-82 25 -13 108 -6 118 11 10 16 -6 58 -21 58 -8 0 -15 -6 -15 -14 0 -16 -41
-29 -65 -20 -12 5 -15 17 -13 48 l3 41 90 15 c50 8 89 18 88 23 -6 28 -10 29
-82 18 -41 -6 -76 -10 -78 -7 -2 2 8 32 22 67 33 79 45 169 23 169 -8 0 -18
-3 -21 -7z"/>
<path d="M13481 2367 c-5 -12 -14 -56 -20 -97 -7 -41 -13 -75 -14 -76 -1 0
-22 -5 -47 -10 -61 -12 -63 -40 -2 -37 23 1 42 0 42 -2 0 -3 -11 -35 -25 -71
-19 -51 -22 -70 -14 -80 18 -22 26 -9 56 82 25 78 30 85 53 83 41 -2 50 0 50
15 0 15 -21 26 -51 26 -17 0 -19 5 -14 38 13 80 18 97 27 109 13 17 3 43 -17
43 -8 0 -19 -10 -24 -23z"/>
<path d="M15715 2367 c-36 -118 -60 -184 -68 -194 -5 -7 -25 -13 -44 -13 -27
0 -34 -4 -31 -17 2 -11 14 -19 29 -21 l26 -3 -19 -65 c-20 -65 -19 -94 4 -94
8 0 21 28 32 71 24 92 44 113 102 106 25 -2 47 0 50 5 11 18 -19 38 -57 38
-22 0 -39 1 -39 3 0 2 11 37 25 77 14 40 25 81 25 91 0 20 -29 34 -35 16z"/>
<path d="M4376 2337 c-18 -44 -54 -198 -62 -267 -5 -44 -3 -58 9 -69 22 -18
38 -5 31 24 -7 29 30 219 56 287 10 26 15 49 12 52 -14 15 -33 3 -46 -27z"/>
<path d="M3907 2354 c-4 -4 -7 -32 -7 -63 0 -50 -31 -195 -43 -208 -3 -2 -14
0 -25 6 -29 16 -49 4 -77 -44 -39 -65 -30 -115 21 -115 35 0 71 37 103 103 32
67 74 248 69 294 -3 27 -26 42 -41 27z m-77 -334 c-13 -24 -39 -50 -51 -50
-15 0 -10 23 11 58 17 28 23 32 35 22 11 -9 12 -17 5 -30z"/>
<path d="M5255 2332 c-65 -40 -129 -135 -141 -211 -15 -93 46 -141 183 -144
63 -2 78 1 78 13 0 11 -18 17 -75 22 -116 12 -150 33 -150 90 1 64 113 215
151 203 23 -7 34 12 19 30 -16 20 -29 19 -65 -3z"/>
<path d="M5630 2315 c-13 -16 -6 -35 14 -35 47 0 81 -109 57 -182 -14 -42 -82
-110 -112 -112 -25 -1 -33 -14 -20 -35 22 -35 123 35 160 113 22 45 28 127 12
169 -13 32 -70 97 -86 97 -7 0 -18 -7 -25 -15z"/>
<path d="M12087 2314 c-10 -11 5 -34 22 -34 25 0 33 11 20 27 -12 14 -31 17
-42 7z"/>
<path d="M15375 2268 c-30 -16 -65 -50 -65 -63 0 -6 16 -35 35 -65 41 -64 44
-86 11 -94 -42 -10 -59 2 -52 39 8 43 -19 57 -36 19 -15 -33 -1 -74 34 -94 24
-13 32 -13 70 0 39 13 43 19 46 50 2 26 -6 49 -32 90 l-35 55 27 17 c29 19 87
24 97 8 9 -15 25 -12 32 5 13 36 -83 60 -132 33z"/>
<path d="M16803 2255 c-18 -8 -34 -20 -34 -27 -3 -33 5 -56 31 -89 28 -35 28
-37 11 -53 -25 -23 -55 -21 -48 3 6 23 -15 35 -32 18 -28 -28 4 -77 50 -77 29
0 89 54 89 79 0 10 -13 30 -30 46 -36 34 -39 60 -7 69 33 9 35 8 39 -16 6 -42
33 -27 36 20 l3 42 -38 0 c-21 -1 -53 -7 -70 -15z"/>
<path d="M2404 2239 c-10 -16 5 -59 20 -59 17 0 25 18 18 42 -5 20 -29 31 -38
17z"/>
<path d="M12244 2230 c-53 -12 -94 -47 -94 -80 0 -30 29 -65 62 -76 26 -8 22
-18 -15 -36 -31 -15 -37 -15 -66 -1 -25 13 -35 13 -44 4 -9 -9 -6 -16 13 -31
39 -30 70 -31 120 -6 37 19 46 29 48 54 3 27 -2 33 -37 52 -46 23 -52 43 -18
64 37 23 73 28 87 11 7 -8 16 -12 21 -9 16 10 9 43 -10 54 -22 11 -23 11 -67
0z"/>
<path d="M6272 2206 c-31 -27 -82 -117 -82 -146 0 -22 22 -41 36 -32 5 4 11
20 12 35 2 35 17 64 50 100 33 35 40 34 50 -5 11 -42 42 -51 42 -13 0 14 -7
39 -15 55 -19 37 -52 39 -93 6z"/>
<path d="M8023 2210 c-40 -24 -42 -51 -8 -96 29 -38 30 -47 9 -68 -20 -20 -63
-21 -70 -1 -9 22 -44 19 -44 -4 0 -28 38 -51 81 -51 29 0 43 7 63 31 33 39 33
63 -1 107 -25 33 -25 35 -8 48 23 17 47 18 63 2 18 -18 34 9 21 34 -13 24 -65
23 -106 -2z"/>
<path d="M7505 2211 c-11 -5 -33 -23 -49 -41 -32 -37 -63 -137 -48 -152 17
-17 30 0 46 56 19 64 62 106 108 106 23 0 29 4 26 18 -4 19 -50 27 -83 13z"/>
<path d="M12473 2191 c-117 -85 -121 -167 -10 -192 68 -15 160 3 155 30 -2 10
-11 15 -23 13 -55 -10 -143 -6 -158 7 -23 18 -21 34 2 26 44 -14 141 56 141
100 0 51 -48 58 -107 16z m65 -23 c-5 -14 -65 -58 -79 -58 -19 0 -7 18 28 43
41 29 57 34 51 15z"/>
<path d="M7142 2185 c-17 -14 -47 -48 -67 -75 -27 -36 -43 -50 -61 -50 -28 0
-31 -12 -8 -31 14 -11 21 -10 46 4 28 16 32 16 48 2 24 -22 62 -19 103 9 l35
24 6 -29 c4 -23 11 -29 31 -29 16 0 25 6 25 15 0 8 -5 15 -11 15 -8 0 -10 18
-6 60 6 56 5 60 -13 60 -12 0 -24 -10 -30 -24 -10 -28 -76 -76 -103 -76 -18 0
-18 2 3 33 40 61 55 96 43 108 -7 7 -20 2 -41 -16z"/>
<path d="M11641 2186 c-12 -13 -30 -23 -39 -22 -18 1 -73 -101 -65 -121 9 -23
30 -14 56 25 44 62 74 95 86 91 8 -3 5 -17 -9 -44 -39 -77 -13 -88 61 -25 l48
40 3 -37 c2 -27 8 -39 22 -41 25 -5 44 14 28 30 -7 7 -12 31 -12 54 0 24 -5
46 -11 49 -5 4 -27 -4 -47 -18 l-38 -25 -2 26 c-4 47 -45 56 -81 18z"/>
<path d="M7730 2183 c-14 -9 -31 -25 -38 -35 -11 -15 -17 -16 -27 -8 -17 14
-35 5 -35 -16 0 -8 -9 -32 -20 -54 -25 -49 -25 -60 0 -60 12 0 39 24 71 65 50
64 85 93 97 81 3 -4 -2 -31 -12 -61 -21 -60 -17 -85 15 -85 17 0 20 5 16 21
-3 11 1 39 9 61 19 55 18 85 -5 98 -27 14 -43 13 -71 -7z"/>
<path d="M11111 2175 c-31 -27 -68 -106 -56 -124 8 -14 52 -14 60 -1 4 6 1 17
-5 25 -9 11 -8 21 6 45 22 36 45 45 74 30 26 -14 52 -6 44 13 -6 17 -47 37
-74 37 -10 0 -32 -11 -49 -25z"/>
<path d="M6501 2164 c-54 -45 -55 -132 -1 -154 45 -19 153 -2 158 24 4 17 -1
18 -60 12 -62 -7 -98 -2 -98 14 0 5 20 20 45 34 55 33 71 58 49 80 -23 23 -58
20 -93 -10z m49 -19 c0 -2 -10 -9 -22 -15 -22 -11 -22 -10 -4 4 21 17 26 19
26 11z"/>
<path d="M11331 2142 c-37 -58 -39 -85 -9 -106 38 -27 95 -16 125 23 34 44 -3
131 -57 131 -22 0 -34 -9 -59 -48z m87 -35 c3 -21 -2 -29 -22 -38 -25 -12 -56
-7 -56 9 0 19 43 63 59 60 9 -2 17 -15 19 -31z"/>
<path d="M4044 2170 c-28 -11 -60 -53 -74 -96 -24 -73 43 -111 139 -79 55 18
69 31 53 47 -8 8 -23 6 -52 -6 -51 -20 -84 -20 -100 -1 -11 13 -10 14 3 9 10
-3 32 7 57 27 31 25 40 39 38 57 -4 32 -36 53 -64 42z m-3 -73 l-33 -32 16 32
c8 17 21 33 28 36 25 9 21 -4 -11 -36z"/>
<path d="M11979 2133 c-30 -67 -30 -107 -2 -111 18 -3 22 2 21 25 0 15 7 45
16 67 20 48 20 66 1 66 -9 0 -25 -20 -36 -47z"/>
<path d="M15965 2162 c-50 -31 -97 -91 -93 -120 3 -25 7 -27 48 -27 25 0 55 4
66 8 18 6 23 3 28 -17 7 -27 34 -42 50 -26 7 7 6 14 -2 22 -17 17 -15 34 12
77 29 45 21 75 -14 53 -17 -10 -20 -10 -20 2 0 15 -26 46 -38 46 -4 0 -21 -8
-37 -18z m47 -46 c16 -12 16 -14 -6 -35 -13 -12 -40 -25 -61 -28 l-39 -6 23
31 c20 28 47 51 61 51 3 0 13 -6 22 -13z"/>
<path d="M4552 2162 c-28 -4 -82 -76 -82 -109 0 -35 35 -47 85 -31 l40 13 10
-40 c8 -31 15 -41 34 -43 37 -6 51 16 23 36 -20 15 -22 26 -21 78 1 34 -1 66
-5 72 -9 14 -57 28 -84 24z m52 -57 c3 -9 -11 -21 -38 -34 -23 -12 -45 -21
-49 -21 -16 0 -5 23 22 51 30 29 54 31 65 4z"/>
<path d="M9805 2158 c-39 -21 -75 -62 -75 -85 0 -39 27 -80 61 -92 18 -6 59
-11 91 -11 51 0 59 2 56 18 -2 13 -17 18 -68 22 -64 5 -90 13 -90 30 0 4 12
11 28 15 47 11 72 33 72 63 0 47 -32 64 -75 40z m21 -54 c-30 -21 -44 -16 -17
7 13 11 27 17 30 13 3 -3 -3 -12 -13 -20z"/>
<path d="M16205 2148 c-21 -19 -27 -33 -28 -73 -2 -38 1 -50 13 -50 9 0 18 16
23 45 11 53 19 60 70 60 31 0 38 3 35 18 -5 28 -79 29 -113 0z"/>
<path d="M2665 2118 c-74 -86 -94 -157 -52 -179 49 -27 176 -1 202 42 15 23
-12 31 -46 14 -48 -25 -89 -35 -116 -29 -34 9 -25 36 16 48 41 12 101 71 101
101 0 58 -56 60 -105 3z m42 -35 c-34 -35 -44 -25 -11 11 14 15 29 25 32 21 3
-3 -6 -18 -21 -32z"/>
<path d="M4864 2070 l-58 -79 -24 40 c-17 29 -21 44 -13 52 13 13 -4 37 -25
37 -34 0 -25 -72 17 -131 l20 -29 -110 -162 c-116 -172 -135 -213 -106 -241
23 -23 33 -14 32 28 -1 34 26 78 170 280 23 33 63 89 87 125 24 36 56 76 70
89 28 27 35 71 12 71 -8 0 -41 -36 -72 -80z"/>
<path d="M13809 2110 c-62 -65 -66 -120 -9 -120 17 0 40 4 50 10 15 8 19 5 24
-15 4 -16 13 -25 25 -25 18 0 19 7 16 82 -2 65 -7 84 -21 95 -28 21 -45 16
-85 -27z m56 -46 c-37 -37 -79 -50 -54 -16 36 47 52 59 69 55 16 -4 15 -9 -15
-39z"/>
<path d="M2322 2108 c-26 -34 -55 -107 -56 -144 -1 -43 24 -84 51 -84 17 0 17
12 -4 48 -16 28 -16 32 2 78 10 26 29 58 42 70 12 12 23 26 23 33 0 15 -45 14
-58 -1z"/>
<path d="M2420 1976 c0 -20 16 -29 40 -21 32 10 25 35 -10 35 -19 0 -30 -5
-30 -14z"/>
<path d="M2834 1979 c-3 -6 -2 -15 4 -21 15 -15 56 -5 60 15 3 13 -3 17 -27
17 -16 0 -33 -5 -37 -11z"/>
<path d="M2947 1924 c-4 -4 -7 -25 -7 -46 0 -21 -25 -117 -56 -214 -30 -97
-53 -183 -50 -190 12 -32 42 -12 84 54 l43 67 -7 -47 c-7 -56 1 -88 25 -88 15
0 17 11 17 86 -1 73 -4 89 -19 98 -15 9 -22 6 -43 -19 -13 -16 -24 -27 -24
-24 0 4 14 51 31 105 32 101 44 214 23 221 -5 2 -13 0 -17 -3z"/>
<path d="M2784 1885 c4 -22 0 -70 -11 -120 -15 -76 -19 -85 -39 -85 -37 0 -74
-18 -74 -36 0 -14 7 -15 41 -10 39 6 41 5 37 -16 -31 -145 -39 -191 -34 -204
13 -34 30 -3 52 97 31 135 28 129 69 129 45 0 49 28 4 37 -27 5 -30 9 -25 32
32 151 29 211 -10 211 -13 0 -15 -7 -10 -35z"/>
<path d="M7992 1898 c-7 -7 -12 -20 -12 -30 0 -10 -14 -55 -31 -98 l-30 -80
-39 0 c-23 0 -40 -5 -43 -14 -8 -19 1 -26 35 -26 33 0 35 -12 12 -70 -9 -22
-14 -47 -10 -55 12 -32 32 -12 51 53 20 66 21 67 58 70 29 3 37 7 37 23 0 14
-7 19 -29 19 l-29 0 29 73 c37 95 38 172 1 135z"/>
<path d="M9455 1890 c-11 -12 -32 -29 -47 -38 -29 -17 -38 -52 -13 -52 17 0
118 80 119 95 2 19 -40 16 -59 -5z"/>
<path d="M12039 1874 c-10 -12 -10 -20 -1 -35 11 -17 7 -33 -26 -107 -36 -83
-39 -87 -69 -87 -39 0 -47 -7 -38 -35 5 -16 12 -20 29 -16 22 5 23 3 18 -44
-5 -56 11 -88 34 -69 7 6 10 17 7 25 -3 8 -2 34 1 59 7 46 10 48 79 60 29 5
37 10 35 23 -3 13 -12 16 -41 14 -20 -2 -37 1 -37 6 0 5 14 39 30 75 17 37 30
78 30 91 0 53 -24 72 -51 40z"/>
<path d="M12686 1875 c-3 -9 -6 -38 -6 -64 0 -64 -27 -142 -49 -140 -46 4 -67
-4 -107 -45 -47 -47 -57 -85 -30 -121 18 -25 78 -25 104 -1 27 23 76 118 100
191 27 82 33 188 11 193 -9 2 -19 -4 -23 -13z m-75 -283 c-24 -47 -56 -76 -76
-69 -25 10 -17 41 18 74 57 54 87 52 58 -5z"/>
<path d="M5165 1831 c-9 -27 -36 -107 -61 -177 -53 -150 -56 -167 -30 -172 12
-3 35 14 69 50 45 48 49 50 43 25 -9 -38 1 -67 23 -67 24 0 33 11 20 26 -7 9
-6 29 4 67 8 30 11 60 7 67 -12 20 -47 2 -82 -41 -17 -21 -33 -37 -35 -36 -2
2 19 69 46 148 27 79 47 147 45 151 -13 21 -34 3 -49 -41z"/>
<path d="M16285 1853 c-11 -47 -32 -104 -74 -201 -44 -100 -51 -139 -24 -149
12 -5 28 6 55 38 43 49 47 47 18 -11 -24 -47 -25 -69 -5 -76 23 -9 51 4 37 18
-8 8 -6 21 9 50 27 54 30 111 5 116 -10 2 -31 -6 -47 -17 l-29 -22 26 58 c49
108 65 156 62 186 -4 40 -26 46 -33 10z"/>
<path d="M6739 1843 c-6 -16 -13 -45 -16 -67 -5 -33 -3 -38 12 -35 20 4 50 91
41 115 -9 22 -26 16 -37 -13z"/>
<path d="M14153 1858 c-4 -7 -17 -33 -28 -58 -79 -174 -75 -168 -119 -182 -48
-15 -57 -44 -13 -41 31 2 31 2 16 -50 -8 -28 -7 -42 1 -53 17 -19 27 -10 34
32 13 65 25 81 67 88 21 3 41 11 45 17 10 16 -17 29 -45 22 -13 -3 -22 -2 -19
3 12 21 78 164 87 187 12 30 -10 59 -26 35z"/>
<path d="M14302 1853 c-6 -10 -22 -49 -37 -88 -15 -38 -50 -114 -77 -168 -68
-133 -56 -164 31 -82 26 25 51 45 53 45 3 0 1 -18 -4 -40 -11 -43 -5 -74 14
-68 17 6 38 107 27 135 -9 26 -46 31 -68 11 -8 -8 -6 1 4 21 34 68 102 240 97
246 -11 11 -32 4 -40 -12z"/>
<path d="M9650 1835 c-5 -14 -10 -31 -10 -36 0 -5 -12 -31 -27 -58 -24 -43
-33 -50 -63 -53 -43 -4 -58 -38 -17 -38 l25 0 -19 -51 c-23 -60 -18 -84 21
-104 55 -28 160 -13 160 23 0 8 -20 9 -62 6 -47 -4 -68 -2 -82 9 -19 14 -19
15 5 63 22 45 28 49 77 60 61 13 67 17 58 39 -4 12 -13 14 -28 10 -61 -18 -59
-20 -32 33 28 55 36 112 17 119 -7 3 -17 -7 -23 -22z"/>
<path d="M16099 1823 c-54 -148 -50 -142 -94 -145 -29 -2 -41 -8 -43 -22 -6
-28 12 -40 36 -25 32 20 36 5 13 -46 -27 -61 -28 -105 -2 -105 14 0 20 9 24
33 3 17 13 53 22 80 17 46 18 47 60 47 56 0 75 8 75 31 0 22 -32 39 -38 21 -3
-11 -62 -18 -62 -8 0 2 11 33 25 70 23 62 25 96 4 96 -5 0 -14 -12 -20 -27z"/>
<path d="M7771 1801 c-17 -11 -8 -39 14 -48 9 -3 21 -1 28 6 16 16 -22 54 -42
42z"/>
<path d="M5725 1773 c8 -35 10 -37 30 -29 25 9 15 50 -14 54 -21 3 -23 1 -16
-25z"/>
<path d="M8717 1756 c-6 -16 11 -36 30 -36 14 0 16 10 7 34 -8 20 -30 21 -37
2z"/>
<path d="M14596 1742 c-9 -14 6 -52 20 -52 18 0 24 13 17 38 -5 22 -27 30 -37
14z"/>
<path d="M13916 1718 c-14 -19 -14 -24 -2 -37 19 -18 46 -7 46 19 0 11 0 23 1
28 1 17 -31 11 -45 -10z"/>
<path d="M10542 1703 c-39 -19 -64 -63 -66 -115 -1 -58 21 -73 101 -71 70 2
98 17 87 46 -6 18 -34 24 -34 8 0 -5 -21 -12 -46 -16 -35 -5 -50 -3 -62 8 -21
21 -9 44 28 52 31 7 90 50 90 65 0 15 -31 40 -48 40 -9 0 -32 -8 -50 -17z"/>
<path d="M16816 1702 c-35 -56 -77 -154 -73 -166 11 -27 33 -18 113 49 43 36
82 65 86 65 15 0 8 -37 -12 -63 -11 -14 -20 -32 -20 -41 0 -20 42 -41 64 -33
20 8 21 37 1 37 -19 0 -19 9 0 34 21 28 20 105 -1 113 -20 8 -71 -19 -124 -64
-22 -19 -37 -27 -34 -19 3 9 10 16 15 16 5 0 9 12 9 28 0 33 -15 59 -24 44z"/>
<path d="M8824 1675 c-22 -34 -22 -79 0 -104 21 -23 18 -49 -6 -65 -25 -15
-47 7 -28 29 22 26 -4 43 -30 20 -24 -22 -25 -43 -4 -73 21 -30 68 -29 99 3
31 30 32 73 4 108 -28 37 -12 67 37 67 28 0 35 4 32 18 -2 12 -15 18 -45 20
-36 3 -44 -1 -59 -23z"/>
<path d="M9195 1671 c-32 -23 -41 -26 -50 -15 -14 19 -26 7 -58 -54 -50 -99
-33 -107 56 -27 54 49 85 68 75 47 -40 -91 -45 -132 -16 -132 19 0 75 168 64
195 -8 22 -25 18 -71 -14z"/>
<path d="M12273 1680 c-37 -22 -73 -86 -73 -129 0 -47 38 -66 123 -64 71 2
105 16 87 38 -7 9 -24 10 -63 3 -57 -10 -112 3 -105 24 3 7 25 24 50 38 25 14
53 31 62 39 24 20 20 50 -10 61 -33 13 -34 13 -71 -10z m56 -23 c-2 -2 -17
-11 -34 -21 l-30 -17 24 20 c13 12 28 21 34 21 6 0 8 -1 6 -3z"/>
<path d="M3134 1654 c-20 -25 -29 -51 -32 -90 -5 -64 11 -90 62 -99 44 -9 140
24 144 49 4 21 -1 20 -90 -5 -54 -15 -78 -3 -78 37 0 20 5 24 28 24 61 0 90
50 56 98 -23 33 -58 28 -90 -14z m62 -33 c-4 -6 -17 -11 -28 -11 -21 0 -21 1
-3 20 19 21 44 13 31 -9z"/>
<path d="M5368 1653 c-20 -21 -42 -51 -48 -68 -10 -26 -9 -32 10 -47 28 -22
37 -22 81 0 l34 18 -3 -32 c-5 -40 13 -74 38 -74 23 0 25 12 8 40 -11 17 -9
31 10 83 37 100 37 97 14 97 -11 0 -22 -6 -24 -12 -3 -8 -9 -4 -17 10 -19 35
-60 29 -103 -15z m81 -16 c13 -16 -18 -50 -61 -66 -38 -14 -37 5 1 47 33 35
43 39 60 19z"/>
<path d="M11095 1663 c-34 -37 -43 -88 -20 -113 21 -23 122 -47 137 -32 17 17
1 30 -45 37 -61 10 -63 14 -15 38 49 25 63 62 32 84 -28 21 -61 15 -89 -14z
m51 -28 c-26 -19 -42 -19 -26 0 7 8 20 15 29 15 13 -1 13 -3 -3 -15z"/>
<path d="M11384 1676 c-39 -28 -96 -107 -96 -134 0 -42 43 -72 106 -72 56 0
100 20 76 35 -8 5 -37 7 -65 6 -38 -2 -57 2 -69 14 -15 15 -15 19 3 43 11 15
33 40 50 56 24 23 34 27 43 18 16 -16 38 -15 38 1 0 18 -32 47 -51 47 -8 0
-24 -6 -35 -14z"/>
<path d="M13674 1665 c-14 -14 -24 -36 -24 -53 0 -32 -28 -75 -36 -54 -8 18
-28 15 -57 -8 -32 -25 -41 -25 -27 -1 14 26 13 74 -2 89 -22 22 -56 12 -132
-39 -49 -34 -76 -58 -76 -70 0 -25 32 -25 55 1 21 23 104 80 117 80 15 0 8
-32 -18 -76 -25 -43 -26 -47 -10 -62 16 -16 19 -16 56 6 39 22 40 22 40 2 0
-46 67 -7 111 65 11 17 19 42 19 56 0 14 9 34 20 44 24 22 25 31 4 39 -9 3
-25 -4 -40 -19z"/>
<path d="M16512 1662 c-94 -97 -104 -132 -52 -176 38 -31 78 -39 155 -29 47 6
61 12 63 27 4 18 -1 18 -71 12 -49 -4 -83 -3 -100 5 -30 14 -44 39 -21 39 8 0
37 11 64 25 64 32 76 67 36 102 -35 29 -42 29 -74 -5z m53 -32 c3 -5 -8 -16
-24 -25 -42 -21 -48 -19 -21 10 25 27 35 30 45 15z"/>
<path d="M4817 1631 c-72 -80 -73 -120 -4 -151 49 -23 72 -24 133 -9 33 9 44
16 44 31 0 17 -4 19 -32 11 -53 -13 -127 -8 -146 10 -15 15 -13 20 15 59 38
52 69 61 83 23 11 -30 33 -29 38 2 4 28 -35 63 -69 63 -18 0 -38 -12 -62 -39z"/>
<path d="M15328 1620 c-54 -56 -59 -75 -23 -92 21 -9 32 -8 63 8 20 10 40 20
43 22 4 1 10 -9 13 -23 4 -14 17 -30 30 -35 32 -12 80 2 84 24 3 15 -2 17 -35
14 -37 -3 -38 -2 -41 32 -2 19 -10 50 -18 68 -23 49 -56 44 -116 -18z m82 -9
c0 -4 -19 -18 -42 -31 l-43 -23 34 36 c31 32 51 40 51 18z"/>
<path d="M5647 1633 c-27 -54 -50 -131 -44 -147 10 -24 37 -20 37 7 0 12 12
49 25 82 14 33 25 66 25 73 0 23 -29 12 -43 -15z"/>
<path d="M6725 1641 c-22 -10 -64 -37 -93 -60 -44 -35 -51 -45 -42 -61 5 -10
19 -22 31 -25 20 -7 19 -9 -19 -49 -69 -72 -77 -111 -26 -134 51 -24 138 -6
115 22 -6 7 -22 11 -36 8 -13 -2 -36 -1 -50 2 -24 6 -25 7 -10 35 16 32 78 85
112 95 32 10 49 34 34 49 -8 8 -19 8 -41 0 -22 -8 -33 -8 -45 1 -15 11 -13 15
17 38 48 37 96 59 121 58 37 -3 47 0 47 14 0 30 -57 34 -115 7z"/>
<path d="M7679 1633 c-5 -16 -15 -41 -21 -56 -8 -20 -8 -31 0 -39 13 -13 44
-3 41 14 -1 7 3 26 9 41 7 16 12 37 12 48 0 29 -29 23 -41 -8z"/>
<path d="M11737 1615 c-37 -43 -93 -82 -104 -71 -3 3 0 19 6 37 15 43 14 59
-5 59 -8 0 -22 -16 -30 -35 -26 -64 -14 -105 32 -105 48 0 172 111 161 144 -7
22 -24 14 -60 -29z"/>
<path d="M8616 1574 c-40 -84 -42 -109 -11 -109 11 0 19 6 17 13 -1 7 12 42
29 78 28 58 30 67 17 80 -13 14 -19 7 -52 -62z"/>
<path d="M5825 1626 c-35 -15 -100 -84 -110 -116 -5 -15 -2 -25 6 -31 14 -8
39 6 39 23 0 19 42 68 70 83 l29 15 -2 -67 c-2 -61 0 -68 17 -68 16 0 19 9 22
69 3 54 0 74 -13 88 -19 21 -19 21 -58 4z"/>
<path d="M10740 1620 c0 -13 12 -25 38 -36 39 -16 39 -17 -15 -50 -15 -10 -16
-14 -5 -25 11 -12 19 -10 51 8 l38 22 24 -37 c14 -21 34 -38 47 -40 29 -4 28
13 -3 50 -33 39 -32 54 5 73 17 9 30 20 30 26 0 20 -31 21 -63 1 l-33 -19 -49
23 c-59 29 -65 29 -65 4z"/>
<path d="M14646 1575 c-36 -36 -66 -72 -66 -80 0 -33 24 -22 84 40 55 57 65
63 76 50 11 -13 11 -23 0 -55 -13 -41 -8 -74 12 -68 6 2 18 26 25 53 13 43 13
52 -3 87 -25 56 -49 51 -128 -27z"/>
<path d="M13806 1560 c-28 -62 -27 -80 3 -80 13 0 20 10 24 36 3 20 14 45 23
55 9 10 14 25 11 34 -12 30 -35 14 -61 -45z"/>
<path d="M14477 1548 c-15 -46 -15 -54 -2 -67 20 -20 37 -3 41 41 2 18 4 42 6
53 2 11 -3 21 -12 22 -11 3 -21 -12 -33 -49z"/>
<path d="M17184 1505 c-7 -18 2 -45 14 -45 11 0 32 46 25 54 -12 11 -34 6 -39
-9z"/>
<path d="M11830 1391 c-5 -11 -10 -29 -10 -40 0 -11 -17 -63 -37 -115 -31 -79
-41 -96 -67 -107 -34 -15 -42 -45 -13 -42 16 1 18 -4 12 -38 -8 -44 1 -79 19
-79 8 0 16 24 22 63 l9 62 48 3 c39 3 48 6 45 20 -2 11 -15 18 -36 20 -27 3
-32 7 -27 20 30 69 81 229 78 240 -7 18 -31 14 -43 -7z"/>
<path d="M3136 1358 c-4 -23 -25 -103 -46 -178 -42 -145 -47 -170 -29 -170 6
0 38 25 71 55 33 30 64 53 69 50 14 -10 11 -37 -11 -77 -11 -21 -17 -44 -14
-53 9 -22 44 -19 44 4 0 10 7 32 15 47 19 37 19 74 -1 102 -20 29 -42 28 -84
-3 -18 -14 -35 -23 -37 -22 -2 2 5 28 15 58 30 85 55 198 48 214 -11 30 -33
15 -40 -27z"/>
<path d="M7422 1263 c-32 -132 -83 -254 -116 -282 -9 -7 -24 -10 -36 -6 -28 9
-20 46 20 95 21 27 34 34 55 32 21 -2 26 1 23 14 -5 28 -33 40 -61 27 -31 -14
-85 -91 -93 -132 -5 -23 -1 -35 19 -55 54 -54 105 -25 160 91 38 82 102 315
93 339 -15 40 -33 6 -64 -123z"/>
<path d="M2725 1370 c-208 -4 -230 -7 -233 -22 -3 -17 13 -18 221 -18 248 0
290 4 285 29 -4 19 14 18 -273 11z"/>
<path d="M9392 1368 c-5 -7 -28 -50 -51 -95 -42 -85 -51 -92 -96 -74 -27 11
-50 -6 -34 -25 6 -8 19 -14 28 -14 38 -1 42 -14 21 -76 -36 -102 0 -164 86
-148 45 8 72 29 58 44 -9 9 -22 8 -54 -1 -39 -12 -44 -11 -57 7 -17 22 -12 54
18 124 16 37 27 50 43 50 48 1 121 26 125 45 3 19 -5 19 -97 -1 l-34 -7 32 64
c18 35 39 72 47 81 16 18 10 38 -11 38 -8 0 -18 -6 -24 -12z"/>
<path d="M13689 1351 c-6 -17 -28 -66 -49 -109 -34 -72 -40 -79 -76 -87 -25
-7 -40 -16 -42 -29 -3 -15 1 -18 22 -14 14 3 26 4 26 3 0 -2 -11 -23 -25 -46
-30 -53 -30 -54 -5 -79 32 -32 96 -27 153 11 29 19 47 38 47 50 0 26 -13 24
-62 -11 -44 -32 -108 -42 -108 -16 0 7 15 36 33 62 29 45 36 49 77 52 68 5 81
42 14 42 -19 0 -34 2 -34 4 0 15 64 136 72 136 5 0 8 12 6 27 -4 41 -36 43
-49 4z"/>
<path d="M11991 1348 c-4 -13 -12 -45 -16 -73 -4 -27 -29 -99 -56 -159 -28
-60 -47 -115 -45 -123 10 -26 34 -12 76 42 24 31 44 54 46 53 1 -2 -2 -24 -8
-50 -12 -50 -6 -78 14 -78 13 0 38 101 38 149 0 28 -25 45 -47 32 -18 -9 -18
-6 3 57 27 80 35 163 17 169 -7 3 -17 -6 -22 -19z"/>
<path d="M15095 1343 c-3 -15 -18 -59 -34 -98 -20 -51 -34 -74 -54 -83 -29
-14 -37 -42 -11 -42 10 0 13 -6 10 -17 -11 -36 -24 -118 -20 -125 9 -14 32 -9
38 8 3 9 6 26 6 38 0 12 7 43 16 68 11 34 20 45 32 42 9 -2 23 0 31 5 16 10 6
31 -15 31 -18 0 -18 -1 12 74 26 65 29 116 7 123 -7 3 -15 -8 -18 -24z"/>
<path d="M15262 1353 c-5 -10 -23 -54 -41 -99 -17 -44 -54 -118 -81 -165 -28
-46 -50 -92 -50 -101 0 -32 37 -20 92 29 44 39 54 44 56 29 2 -10 -4 -36 -13
-57 -18 -39 -15 -69 7 -69 18 0 40 64 45 132 6 75 -11 84 -68 39 l-39 -32 34
63 c46 84 98 218 92 235 -7 18 -24 16 -34 -4z"/>
<path d="M10349 1337 c-44 -30 -82 -85 -124 -182 -29 -69 -39 -82 -67 -91 -18
-6 -35 -19 -36 -29 -3 -14 2 -17 27 -13 26 4 31 2 25 -11 -4 -9 -17 -49 -30
-90 -13 -40 -31 -82 -40 -93 -14 -14 -15 -21 -5 -31 24 -24 46 9 86 127 l40
118 57 -5 c43 -4 58 -2 62 9 7 18 -24 34 -68 34 -20 0 -36 2 -36 5 0 2 11 30
26 62 55 125 108 183 155 168 30 -10 43 4 23 26 -23 25 -54 24 -95 -4z"/>
<path d="M5870 1336 c-6 -9 -9 -20 -5 -26 4 -7 -5 -49 -20 -95 -27 -79 -30
-84 -59 -87 -23 -2 -31 -8 -31 -23 0 -15 6 -19 22 -17 21 3 22 0 16 -30 -13
-59 -9 -92 10 -96 12 -2 17 3 17 18 0 12 5 41 11 66 12 45 12 45 53 42 50 -4
57 20 11 35 -16 5 -31 11 -32 12 -2 1 8 35 22 75 28 83 31 113 11 129 -10 9
-16 8 -26 -3z"/>
<path d="M8150 1284 c-49 -46 -138 -203 -126 -222 9 -15 -22 -115 -60 -190
-26 -52 -34 -76 -26 -84 23 -23 102 130 126 244 7 31 24 38 101 41 37 1 51 6
53 18 4 21 -39 30 -95 20 l-42 -8 15 36 c21 52 60 104 95 130 29 22 31 22 44
4 11 -14 16 -15 26 -6 10 10 10 18 1 38 -18 39 -55 33 -112 -21z"/>
<path d="M2730 1296 c-5 -13 -14 -53 -20 -88 -6 -34 -20 -110 -32 -166 -16
-82 -18 -109 -9 -129 13 -28 37 -26 33 3 -3 23 45 293 62 351 7 24 11 45 8 48
-13 12 -33 3 -42 -19z"/>
<path d="M7887 1268 c-60 -52 -101 -109 -122 -176 -16 -49 -19 -51 -60 -58
-42 -6 -65 -27 -44 -40 6 -3 26 -3 46 1 30 5 34 4 29 -12 -2 -10 -10 -37 -16
-60 -6 -25 -21 -49 -37 -61 -28 -20 -25 -42 6 -42 29 0 52 35 72 107 21 73 29
83 76 83 17 0 35 5 39 11 10 17 -17 30 -54 26 -28 -3 -31 -1 -26 18 15 53 48
105 94 150 46 45 52 48 61 32 16 -28 39 -4 30 31 -11 40 -40 37 -94 -10z"/>
<path d="M14603 1290 c-63 -38 -143 -185 -143 -263 0 -12 -4 -27 -8 -34 -11
-17 -95 -35 -103 -21 -9 15 -29 0 -29 -22 0 -25 22 -31 75 -21 l44 8 -15 -36
c-22 -53 -65 -103 -112 -129 -43 -24 -56 -52 -24 -52 58 0 157 104 184 193 10
33 17 39 55 49 50 12 59 21 38 38 -11 9 -23 9 -44 2 l-28 -10 9 41 c16 75 30
111 65 164 36 55 65 72 88 53 12 -10 16 -9 21 5 8 20 -7 49 -27 53 -8 1 -28
-7 -46 -18z"/>
<path d="M3416 1253 c-3 -4 -6 -17 -6 -30 0 -31 34 -28 38 3 3 21 -20 39 -32
27z"/>
<path d="M6601 1233 c-26 -32 -35 -65 -26 -92 8 -25 15 -26 40 -7 16 11 17 17
7 29 -10 12 -8 20 13 45 14 16 25 35 25 41 0 21 -39 11 -59 -16z"/>
<path d="M4311 1226 c-10 -12 -8 -17 9 -26 29 -15 49 2 30 25 -16 19 -24 19
-39 1z"/>
<path d="M5662 1208 c2 -12 11 -24 21 -26 14 -3 18 1 15 20 -2 12 -11 24 -21
26 -14 3 -18 -1 -15 -20z"/>
<path d="M7604 1215 c-8 -21 3 -45 20 -45 16 0 31 34 21 50 -9 15 -35 12 -41
-5z"/>
<path d="M13363 1195 c-55 -33 -61 -56 -30 -104 l26 -38 -25 -12 c-32 -14 -31
-15 -37 10 -8 28 -31 19 -35 -14 -4 -35 28 -53 71 -38 61 22 85 64 51 91 -36
31 -36 49 -2 70 18 11 45 20 61 20 30 0 38 24 11 34 -28 11 -48 6 -91 -19z"/>
<path d="M4451 1190 c-60 -14 -128 -80 -116 -112 4 -9 24 -28 46 -43 49 -32
42 -49 -17 -40 -36 5 -44 3 -44 -10 0 -37 99 -44 134 -9 21 20 3 58 -41 85
-39 25 -40 29 -10 57 30 28 78 43 100 30 26 -14 36 21 12 38 -10 8 -21 14 -24
13 -3 -1 -21 -5 -40 -9z"/>
<path d="M5124 1185 c-33 -22 -67 -110 -54 -136 15 -27 56 -42 81 -29 13 8 19
7 19 0 0 -5 -32 -97 -71 -203 -39 -105 -73 -202 -76 -214 -9 -40 20 -26 64 32
61 79 110 98 176 70 13 -5 17 -2 17 14 0 43 -81 55 -139 20 -25 -15 -32 -16
-28 -6 20 54 92 261 104 302 9 27 21 59 29 70 8 11 14 30 14 43 0 19 -4 23
-19 19 -11 -2 -25 3 -35 14 -19 23 -54 24 -82 4z m60 -57 c5 -27 2 -36 -16
-50 -13 -10 -33 -18 -46 -18 -22 0 -22 1 -7 37 30 71 58 84 69 31z"/>
<path d="M12915 1188 c-32 -17 -89 -80 -101 -113 -7 -16 -18 -44 -25 -62 -7
-18 -10 -35 -6 -39 15 -15 38 9 68 70 33 68 88 130 96 109 3 -7 13 -23 23 -35
14 -17 21 -20 30 -12 9 9 6 22 -9 53 -22 42 -40 49 -76 29z"/>
<path d="M6030 1135 c-40 -41 -45 -51 -45 -91 0 -59 28 -84 91 -84 45 0 164
46 178 69 15 24 -27 22 -83 -3 -65 -29 -122 -34 -141 -11 -8 10 -9 15 -1 15
20 0 121 74 127 94 8 24 -27 56 -60 56 -13 0 -41 -19 -66 -45z m80 -2 c0 -5
-16 -18 -35 -31 -40 -25 -45 -19 -13 15 21 22 48 31 48 16z"/>
<path d="M12193 1158 c-33 -38 -61 -83 -68 -110 -8 -31 26 -68 62 -68 43 0
155 33 160 47 9 24 -3 25 -81 8 -42 -9 -83 -15 -91 -11 -18 6 -9 36 11 36 22
0 103 43 109 57 6 18 -38 63 -63 63 -10 0 -28 -10 -39 -22z m47 -27 c0 -5 -7
-12 -16 -15 -14 -5 -15 -4 -4 9 14 17 20 19 20 6z"/>
<path d="M13034 1135 c-33 -33 -57 -92 -50 -120 7 -27 51 -45 108 -45 35 0 39
2 36 23 -2 18 -10 22 -38 23 -59 1 -70 3 -70 17 0 9 10 12 30 9 65 -9 107 60
62 101 -26 24 -49 21 -78 -8z m56 -36 c0 -10 -42 -30 -49 -23 -2 2 4 13 14 24
17 19 35 19 35 -1z"/>
<path d="M3346 1108 c-24 -62 -25 -121 -4 -126 13 -2 18 7 24 45 3 26 13 61
21 76 7 15 11 32 8 37 -13 22 -34 8 -49 -32z"/>
<path d="M3545 1143 c-29 -8 -75 -42 -75 -57 0 -7 14 -25 30 -41 36 -35 37
-45 7 -73 -29 -27 -40 -28 -32 -3 7 24 -11 37 -30 21 -18 -15 -19 -52 -3 -68
22 -22 59 -13 94 22 41 41 43 73 8 115 -24 29 -24 31 -7 37 57 18 65 24 53 39
-7 8 -15 14 -19 14 -3 -1 -15 -4 -26 -6z"/>
<path d="M8340 1138 c-37 -13 -78 -57 -90 -94 -12 -37 6 -86 35 -98 52 -20
155 7 155 40 0 13 -6 15 -27 9 -16 -4 -47 -9 -70 -12 -36 -4 -43 -2 -54 19 -6
12 -8 20 -4 16 10 -10 74 18 102 44 46 43 12 98 -47 76z m30 -43 c0 -2 -13
-11 -30 -20 -33 -17 -40 -10 -12 11 17 13 42 19 42 9z"/>
<path d="M5490 1126 c-6 -9 -13 -27 -14 -42 -1 -33 -67 -94 -101 -94 -29 0
-31 15 -10 75 18 50 18 55 0 55 -39 0 -71 -122 -40 -153 55 -56 192 33 198
128 2 41 -12 55 -33 31z"/>
<path d="M8532 1127 c-15 -17 -27 -108 -19 -131 12 -31 37 -6 37 38 0 59 12
74 45 56 31 -17 52 -3 33 23 -18 24 -80 33 -96 14z"/>
<path d="M8756 1110 c-19 -17 -38 -39 -41 -50 -3 -10 -19 -23 -36 -30 -34 -14
-36 -45 -4 -45 11 0 30 -6 42 -13 42 -24 165 -9 171 21 3 16 -3 17 -72 11 -54
-5 -76 -3 -76 5 0 6 6 11 14 11 7 0 25 11 40 25 21 19 26 33 24 57 -4 43 -20
45 -62 8z"/>
<path d="M4253 1122 c-26 -16 -46 -126 -26 -145 13 -13 33 16 33 49 0 18 5 45
12 59 12 28 1 49 -19 37z"/>
<path d="M8993 1114 c-51 -22 -101 -124 -61 -124 5 0 30 23 55 50 25 28 48 49
51 46 2 -3 -5 -30 -18 -60 -22 -54 -21 -76 4 -76 12 0 56 111 56 142 0 16 -29
39 -47 37 -4 0 -22 -7 -40 -15z"/>
<path d="M15424 1086 c-33 -33 -44 -51 -44 -75 0 -67 58 -87 166 -55 59 17 67
23 55 43 -7 11 -18 10 -59 -3 -69 -23 -116 -18 -120 12 -3 20 0 22 22 16 29
-7 90 25 106 56 8 15 5 22 -12 34 -38 27 -67 19 -114 -28z m62 -11 c-11 -8
-22 -12 -25 -9 -6 6 19 24 34 24 6 -1 1 -7 -9 -15z"/>
<path d="M5601 1088 c-30 -77 -38 -107 -31 -119 7 -10 11 -10 24 0 18 15 50
117 41 131 -10 17 -25 11 -34 -12z"/>
<path d="M10990 1085 c-29 -31 -43 -31 -62 -3 -13 20 -18 21 -40 11 -18 -8
-29 -8 -36 -1 -15 15 -32 1 -32 -27 0 -13 -11 -37 -25 -53 -28 -33 -31 -47
-14 -58 7 -4 32 15 61 46 46 49 50 52 67 36 9 -9 28 -16 40 -16 19 0 21 -4 16
-33 -9 -49 12 -64 62 -44 21 8 40 23 41 32 3 15 -1 17 -32 11 l-35 -7 24 56
c14 31 25 60 25 65 0 19 -37 10 -60 -15z"/>
<path d="M14180 1073 c-51 -63 -54 -112 -7 -124 42 -11 83 7 101 46 20 41 20
39 0 81 -22 46 -53 45 -94 -3z m70 -44 c0 -12 -37 -49 -49 -49 -16 0 -22 19
-12 37 9 18 61 28 61 12z"/>
<path d="M10423 1093 c-14 -10 -73 -155 -66 -165 13 -23 34 0 59 62 20 53 31
69 43 66 56 -17 68 -17 74 -1 5 11 -2 19 -21 26 -41 16 -76 20 -89 12z"/>
<path d="M10582 1057 c1 -18 -4 -43 -11 -55 -21 -40 -6 -62 45 -62 77 0 117
62 78 119 -13 18 -23 22 -45 17 -15 -3 -31 -1 -34 4 -14 23 -34 9 -33 -23z
m84 -32 c8 -20 -13 -45 -37 -45 -23 0 -25 23 -3 44 19 20 33 20 40 1z"/>
<path d="M7512 1041 c-35 -62 -27 -100 19 -86 17 6 20 13 16 35 -4 16 0 36 9
49 8 11 12 26 9 31 -12 20 -32 9 -53 -29z"/>
<path d="M3267 813 c-4 -3 -7 -49 -7 -102 -1 -70 -3 -91 -11 -78 -38 64 -156
-54 -120 -121 13 -25 70 -38 99 -23 39 21 66 98 72 206 3 55 4 106 2 113 -4
13 -24 16 -35 5z m-17 -215 c0 -7 -9 -28 -20 -46 -15 -24 -26 -32 -43 -30 -45
6 -9 88 40 88 12 0 23 -6 23 -12z"/>
<path d="M3456 657 c-19 -18 -38 -45 -41 -60 -9 -33 10 -82 39 -102 39 -28
176 -11 176 21 0 14 -10 15 -70 9 -50 -5 -75 -4 -85 5 -23 19 -18 27 19 34 42
8 86 41 86 65 0 24 -41 61 -67 61 -12 0 -37 -15 -57 -33z m68 -13 c9 -3 16 -9
16 -13 0 -10 -46 -31 -67 -31 -13 0 -12 5 7 25 27 28 23 27 44 19z"/>
<path d="M2716 645 c-39 -21 -55 -44 -56 -80 0 -38 32 -92 64 -106 33 -16 100
1 104 25 4 17 -1 18 -41 12 -41 -6 -47 -4 -66 20 -27 35 -27 69 1 88 30 21 41
20 53 -5 13 -28 29 -26 33 5 2 16 -4 29 -20 40 -28 20 -35 20 -72 1z"/>
<path d="M2961 615 c-43 -37 -44 -87 -2 -105 33 -13 84 -6 100 14 6 8 10 35 9
62 -3 48 -3 49 -39 52 -27 2 -44 -3 -68 -23z m66 -59 c-4 -9 -16 -16 -27 -16
-29 0 -38 30 -15 47 16 11 21 11 33 -1 8 -8 12 -22 9 -30z"/>
<path d="M3784 519 c-8 -14 11 -33 25 -25 16 10 13 36 -3 36 -8 0 -18 -5 -22
-11z"/>
</g>
</svg>
